<svg height="24" viewBox="0 0 24 24" width="24" xmlns="http://www.w3.org/2000/svg"><path d="M4 17c-.715 0-1.38.21-1.932.646C1.516 18.084 1 18.79 1 19.5v2c0 .63-.36 1.207-.832 1.625C-.146 23.44 0 24 .5 24h1c1.17-.036 2.43-.2 3.52-.832.55-.316 1.045-.747 1.408-1.293C6.792 21.327 7 20.68 7 20c0-.786-.337-1.553-.893-2.107C5.552 17.34 4.783 17 4 17zm0 1c.52.012 1.034.236 1.4.602.367.365.6.898.6 1.398 0 .45-.144.928-.406 1.322-.264.397-.64.73-1.073.98-.86.5-1.93.663-3.014.698.26-.448.494-.977.494-1.5v-2c0-.452.33-.786.688-1.07.36-.285.848-.44 1.312-.43zM23.5 0c-.08 0-.146.016-.217.05-4.5 2.176-8.74 4.887-12.6 8.063-.922.758-1.857 1.57-2.59 2.596C7.408 11.67 7 12.874 7 14c0 .8.335 1.57.898 2.125C8.452 16.67 9.21 17 10 17c1.116 0 2.318-.373 3.287-1.05 1.037-.726 1.846-1.67 2.6-2.595 3.165-3.88 5.877-8.13 8.062-12.636.16-.33-.086-.71-.45-.72zm-1.295 1.795c-2.006 3.862-4.34 7.557-7.092 10.93-.74.908-1.5 1.775-2.4 2.406-.786.55-1.83.87-2.713.87-.503 0-1.033-.225-1.398-.586C8.232 15.05 8 14.51 8 14c0-.875.344-1.922.906-2.71.642-.898 1.507-1.66 2.412-2.403C14.67 6.13 18.35 3.793 22.205 1.795z"/></svg>