<svg height="24" viewBox="0 0 24 24" width="24" xmlns="http://www.w3.org/2000/svg"><path d="M12.5 13c-.276 0-.5.224-.5.5v8c0 .242.172.45.41.492l11 2c.307.056.59-.18.59-.492v-10c0-.276-.224-.5-.5-.5zm.5 1h10v8.9l-10-1.818zM.5 13c-.276 0-.5.224-.5.5v6.064c0 .245.176.454.418.495l9 1.5c.305.05.583-.186.582-.496V13.5c0-.276-.224-.5-.5-.5zm.5 1h8v6.475l-8-1.332zM23.484 0c-.025 0-.05.003-.074.008l-11 2c-.238.043-.41.25-.41.492v8c0 .276.224.5.5.5h11c.276 0 .5-.224.5-.5V.5c0-.282-.23-.5-.516-.5zM23 1.1V10H13V2.918zM9.484 2.5c-.03 0-.063.005-.093.012l-9 2C.163 4.562 0 4.766 0 5v5.5c0 .276.224.5.5.5h9c.276 0 .5-.224.5-.5V3c0-.282-.233-.51-.516-.5zM9 3.623V10H1V5.402z"/></svg>