<svg height="24" viewBox="0 0 24 24" width="24" xmlns="http://www.w3.org/2000/svg"><path d="M9.5 5h5c.277 0 .5.223.5.5s-.223.5-.5.5h-5c-.277 0-.5-.223-.5-.5s.223-.5.5-.5zM3.506 5c-.825 0-1.404.698-1.496 1.438l-2 16C-.1 23.325.68 24 1.506 24h20.988c.825 0 1.607-.675 1.496-1.563l-2-16C21.898 5.697 21.32 5 20.494 5H18.5c-.657 0-.66 1 0 1h1.994c.283 0 .46.203.504.563l2 16c.026.21-.22.437-.504.437H1.506c-.283 0-.53-.226-.504-.438l2-16c.045-.36.22-.562.504-.562H5.5c.653 0 .676-1 0-1zM12 0C9.244 0 7 2.244 7 5v3.5c0 .653 1 .676 1 0V5c0-2.215 1.785-4 4-4s4 1.785 4 4v3.5c0 .672 1 .657 1 0V5c0-2.756-2.244-5-5-5z"/></svg>