<svg height="24" viewBox="0 0 24 24" width="24" xmlns="http://www.w3.org/2000/svg"><path d="M15.755 5.07c-.238-.14-.544-.063-.685.175L7.074 18.232c-.326.53.5 1.096.852.523l7.996-12.987c.15-.238.076-.554-.167-.698zm2.38 2.088c.186-.2.502-.213.704-.026l4.995 4.497c.22.197.22.542 0 .74l-4.995 4.496c-.473.426-1.145-.316-.67-.744L22.754 12 18.17 7.874c-.21-.185-.228-.51-.036-.716zm-12.27 0c-.186-.2-.502-.213-.704-.026L.166 11.63c-.22.197-.22.542 0 .74l4.995 4.496c.473.427 1.155-.307.67-.744L1.246 12 5.83 7.874c.21-.185.228-.51.036-.716z"/></svg>