<svg height="24" viewBox="0 0 24 24" width="24" xmlns="http://www.w3.org/2000/svg"><path d="M5.5 1C4.678 1 4 1.678 4 2.5v3a.5.5 0 1 0 1 0v-3c0-.286.214-.5.5-.5h13c.286 0 .5.214.5.5v3a.5.5 0 1 0 1 0v-3c0-.822-.678-1.5-1.5-1.5h-13zm12 8h1c.277 0 .5.223.5.5s-.223.5-.5.5h-1c-.277 0-.5-.223-.5-.5s.223-.5.5-.5zm3 0h1c.277 0 .5.223.5.5s-.223.5-.5.5h-1c-.277 0-.5-.223-.5-.5s.223-.5.5-.5zm-17 5h17c.277 0 .5.223.5.5s-.223.5-.5.5h-17c-.277 0-.5-.223-.5-.5s.223-.5.5-.5zm3 4h11c.277 0 .5.223.5.5s-.223.5-.5.5h-11c-.277 0-.5-.223-.5-.5s.223-.5.5-.5zm0-2h11c.277 0 .5.223.5.5s-.223.5-.5.5h-11c-.277 0-.5-.223-.5-.5s.223-.5.5-.5zm-5-9C.678 7 0 7.678 0 8.5v9c0 .822.678 1.5 1.5 1.5H4v2.5c0 .822.678 1.5 1.5 1.5h13c.822 0 1.5-.678 1.5-1.5V19h2.5c.822 0 1.5-.678 1.5-1.5v-9c0-.822-.678-1.5-1.5-1.5zm0 1h21c.286 0 .5.214.5.5v9c0 .286-.214.5-.5.5H20v-1.5c.005-.342-.248-.5-.5-.5s-.5.16-.5.5v5c0 .286-.214.5-.5.5h-13c-.286 0-.5-.214-.5-.5v-5c.004-.282-.218-.504-.5-.5-.276.004-.5.218-.5.5V18H1.5c-.286 0-.5-.214-.5-.5v-9c0-.286.214-.5.5-.5z"/></svg>