<svg height="24" viewBox="0 0 24 24" width="24" xmlns="http://www.w3.org/2000/svg"><path d="M20.492 4c-.13.002-.254.055-.346.146l-2 2c-.195.196-.195.512 0 .708l3 3c.196.195.512.195.708 0l2-2c.195-.196.195-.512 0-.708l-3-3c-.096-.095-.227-.148-.362-.146zm.008 1.207L22.793 7.5 21.5 8.793 19.207 6.5zM17.492 7c-.13.002-.254.055-.346.146l-8 8c-.093.094-.146.22-.146.354v3c0 .276.224.5.5.5h3c.133 0 .26-.053.354-.146l8-8c.195-.196.195-.512 0-.708l-3-3c-.096-.095-.227-.148-.362-.146zm.008 1.207l2.293 2.293-7.5 7.5H10v-2.293zM3.5 10h8c.277 0 .5.223.5.5s-.223.5-.5.5h-8c-.277 0-.5-.223-.5-.5s.223-.5.5-.5zm0-3h10c.277 0 .5.223.5.5s-.223.5-.5.5h-10c-.277 0-.5-.223-.5-.5s.223-.5.5-.5zm0-3h10c.277 0 .5.223.5.5s-.223.5-.5.5h-10c-.277 0-.5-.223-.5-.5s.223-.5.5-.5zm-2-4C.678 0 0 .678 0 1.5v21c0 .822.678 1.5 1.5 1.5h14c.822 0 1.5-.678 1.5-1.5v-5c0-.66-1-.648-1 0v5c0 .286-.214.5-.5.5h-14c-.286 0-.5-.214-.5-.5v-21c0-.286.214-.5.5-.5h14c.286 0 .5.214.5.5v4c0 .672 1 .656 1 0v-4c0-.822-.678-1.5-1.5-1.5z"/></svg>