<svg height="24" viewBox="0 0 24 24" width="24" xmlns="http://www.w3.org/2000/svg"><path d="M12 16.5a.5.5 0 0 1-.5.5.5.5 0 0 1-.5-.5.5.5 0 0 1 .5-.5.5.5 0 0 1 .5.5zM2.5 14h18c.277 0 .5.223.5.5s-.223.5-.5.5h-18c-.277 0-.5-.223-.5-.5s.223-.5.5-.5zm-1-12C.678 2 0 2.678 0 3.5v14c0 .822.678 1.5 1.5 1.5H9v2H7.5c-.277 0-.5.223-.5.5s.223.5.5.5h8c.277 0 .5-.223.5-.5s-.223-.5-.5-.5H14v-2h7.5c.822 0 1.5-.678 1.5-1.5v-14c0-.822-.678-1.5-1.5-1.5h-20zm0 1h20c.286 0 .5.214.5.5v14c0 .286-.214.5-.5.5h-20c-.286 0-.5-.214-.5-.5v-14c0-.286.214-.5.5-.5zM10 19h3v2h-3v-2z"/></svg>