<svg height="24" viewBox="0 0 24 24" width="24" xmlns="http://www.w3.org/2000/svg"><path d="M8.5 5c-.057 0-.136.01-.19.03L.955 7.838c-.782.298-1.15 1.204-.852 1.97L4.098 20.04c.3.766 1.192 1.212 1.968.803l3.628-1.885c.643-.31.157-1.202-.45-.89L5.62 19.955c-.203.107-.498-.03-.6-.295l-.29-.743 1.977-.99c.48-.23.327-.932-.207-.927-.078 0-.155.02-.224.057l-1.91.928-3.34-8.56c-.105-.265.013-.555.264-.65l7.36-2.802c.547-.21.4-.973-.15-.973zm4 6c-.08 0-.152.018-.223.053l-2 1c-.598.267-.095 1.193.47.883l1.53-.766.776 1.553c.123.246.423.347.67.224l3.554-1.777.756 1.525c.284.635 1.23.164.895-.445l-.98-1.973c-.124-.246-.424-.347-.67-.224l-3.555 1.777-.776-1.553c-.084-.168-.255-.275-.447-.277zm.598-7.888c-.74-.314-1.602.055-1.907.816L7.11 14.11c-.306.76.052 1.647.792 1.96l9 3.818c.74.314 1.602-.055 1.907-.816L22.89 8.89c.306-.76-.052-1.647-.792-1.96zm-.37.926l9 3.817c.256.11.37.39.263.653l-3.525 8.794-9.9-4.2 3.526-8.792c.107-.265.38-.38.637-.272zm-4.533 9.99l9.9 4.2-.186.462c-.107.265-.38.38-.637.272l-9-3.817c-.257-.11-.37-.39-.264-.653zM14 6c-1.1 0-2 .9-2 2s.9 2 2 2 2-.9 2-2-.9-2-2-2zm0 1c.558 0 1 .442 1 1s-.442 1-1 1-1-.442-1-1 .442-1 1-1zM4.5 9C3.677 9 3 9.677 3 10.5S3.677 12 4.5 12 6 11.323 6 10.5 5.323 9 4.5 9zm0 1c.282 0 .5.218.5.5 0 .282-.218.5-.5.5-.282 0-.5-.218-.5-.5 0-.282.218-.5.5-.5zm2 2c-.22-.002-.408.133-.475.342l-1 3c-.075.227.047.658.475.658.1 0 .36 0 .475-.342l1-3c.112-.323-.133-.656-.475-.658z"/></svg>