<svg height="24" viewBox="0 0 24 24" width="24" xmlns="http://www.w3.org/2000/svg"><path d="M18 15c-1.1 0-2 .9-2 2s.9 2 2 2c.37 0 .69-.195 1-.385.31.19.63.385 1 .385 1.1 0 2-.9 2-2s-.9-2-2-2c-.37 0-.69.195-1 .385-.31-.19-.63-.385-1-.385zm0 1c.245 0 .483.09.666.256.19.17.478.17.668 0 .183-.165.42-.256.666-.256.558 0 1 .442 1 1s-.442 1-1 1c-.245 0-.483-.09-.666-.256-.19-.17-.478-.17-.668 0-.183.165-.42.256-.666.256-.558 0-1-.442-1-1s.442-1 1-1zM1.5 3C.678 3 0 3.678 0 4.5v10c0 .822.678 1.5 1.5 1.5h1c.688 0 .637-1 0-1h-1c-.286 0-.5-.214-.5-.5V10h1.5c.277 0 .5-.223.5-.5S2.777 9 2.5 9H1V6h18v.5c0 .668 1 .653 1 0v-2c0-.822-.678-1.5-1.5-1.5zm0 1h17c.286 0 .5.214.5.5V5H1v-.5c0-.286.214-.5.5-.5zm11 13h1c.277 0 .5.223.5.5s-.223.5-.5.5h-1c-.277 0-.5-.223-.5-.5s.223-.5.5-.5zm-3 0h1c.277 0 .5.223.5.5s-.223.5-.5.5h-1c-.277 0-.5-.223-.5-.5s.223-.5.5-.5zm-3 0h1c.277 0 .5.223.5.5s-.223.5-.5.5h-1c-.277 0-.5-.223-.5-.5s.223-.5.5-.5zm5-5h10c.277 0 .5.223.5.5s-.223.5-.5.5h-10c-.277 0-.5-.223-.5-.5s.223-.5.5-.5zm5-2h5c.277 0 .5.223.5.5s-.223.5-.5.5h-5c-.277 0-.5-.223-.5-.5s.223-.5.5-.5zm-5 0h3c.277 0 .5.223.5.5s-.223.5-.5.5h-3c-.277 0-.5-.223-.5-.5s.223-.5.5-.5zm-5 0c-.276 0-.5.224-.5.5v4c0 .276.224.5.5.5h3c.276 0 .5-.224.5-.5v-4c0-.276-.224-.5-.5-.5zm.5 1h2v3H7zM5.5 8C4.678 8 4 8.678 4 9.5v10c0 .822.678 1.5 1.5 1.5h17c.822 0 1.5-.678 1.5-1.5v-10c0-.822-.678-1.5-1.5-1.5zm0 1h17c.286 0 .5.214.5.5v10c0 .286-.214.5-.5.5h-17c-.286 0-.5-.214-.5-.5v-10c0-.286.214-.5.5-.5z"/></svg>