<svg height="24" viewBox="0 0 24 24" width="24" xmlns="http://www.w3.org/2000/svg"><path d="M18 3c-1.668 0-2.794.573-3.62 1.385C13.555 5.197 13 6.332 13 7.5c0 .952.226 1.825.61 2.63.382.804.882 1.515 1.37 2.198.488.682.97 1.34 1.34 2.035.373.692.68 1.396.68 2.137 0 .947-.274 1.953-.886 2.677-.32.376.078.937.553.803 2.064-.58 3.89-1.827 5.205-3.52C23.188 14.767 24 12.644 24 10.5c0-1.84-.44-3.708-1.595-5.184C21.2 3.91 19.668 3 18 3zm0 1c1.5 0 2.623.907 3.618 1.933C22.598 7.186 23 8.853 23 10.5c0 1.925-.735 3.825-1.917 5.345-.886 1.14-2.104 1.96-3.416 2.568.233-.62.333-1.245.333-1.913 0-.948-.38-1.83-.798-2.61-.417-.777-.926-1.47-1.41-2.144-.483-.676-.945-1.34-1.28-2.045C14.177 9 14 8.23 14 7.5c0-.91.437-1.77 1.082-2.402C15.728 4.462 16.502 4 18 4zM4.997 3C3.33 3 2.205 3.573 1.38 4.385.552 5.197 0 6.327 0 7.5c0 .952.225 1.825.608 2.63.383.804.883 1.515 1.37 2.198.49.682.97 1.34 1.342 2.035.372.692.677 1.4.677 2.137 0 .947-.273 1.953-.884 2.677-.32.376.078.937.553.803 2.064-.58 3.89-1.827 5.205-3.52 1.317-1.693 2.127-3.816 2.127-5.96 0-1.84-.438-3.708-1.593-5.184C8.198 3.91 6.664 3 4.997 3zm0 1c1.5 0 2.625.907 3.62 1.933.98 1.253 1.38 2.92 1.38 4.566 0 1.924-.733 3.825-1.915 5.345-.887 1.14-2.104 1.96-3.417 2.568.234-.62.332-1.245.332-1.913 0-.93-.38-1.83-.796-2.61-.416-.777-.926-1.47-1.41-2.144-.482-.676-.944-1.34-1.28-2.045C1.176 9 1 8.23 1 7.5c0-.906.436-1.77 1.08-2.402C2.726 4.462 3.498 4 4.997 4z"/></svg>