<svg height="24" viewBox="0 0 24 24" width="24" xmlns="http://www.w3.org/2000/svg"><path d="M12.5 14c-.135 0-.262.055-.354.146l-2 2c-.49.472.236 1.198.708.708l1.646-1.647 1.646 1.647c.472.49 1.198-.236.708-.708l-2-2c-.096-.095-.22-.147-.354-.146zm0 2c.277 0 .5.223.5.5v7c0 .277-.223.5-.5.5s-.5-.223-.5-.5v-7c0-.277.223-.5.5-.5zM1.5 0C.678 0 0 .678 0 1.5v17c0 .822.678 1.5 1.5 1.5h6c.677 0 .648-1 0-1h-6c-.286 0-.5-.214-.5-.5v-17c0-.286.214-.5.5-.5h5.793l3.853 3.854c.094.093.22.146.354.146H23v13.5c0 .286-.214.5-.5.5h-5c-.637 0-.676 1 0 1h5c.822 0 1.5-.678 1.5-1.5v-14c0-.276-.224-.5-.5-.5H11.707L7.854.146C7.76.053 7.634 0 7.5 0z"/></svg>