<svg xmlns="http://www.w3.org/2000/svg" width="24" height="24"><path d="M2 8.013c-1.1 0-2 .9-2 2 0 .7 1 .67 1 0 0-.558.442-1 1-1s1 .442 1 1c0 .28-.108.506-.344.78-.236.276-.587.555-.97.876C.924 12.31 0 13.17 0 14.51c0 .262.238.487.5.487h3c.687 0 .65-1 0-1H1.156c.182-.6.578-1.095 1.157-1.58.368-.31.767-.59 1.093-.97.327-.38.594-.864.594-1.438 0-1.1-.9-2-2-2zM1.168.143l-.986.997c-.218.17-.245.537-.055.738.19.2.554.19.733-.022L1 1.7v4.795c0 .663 1 .67 1 0V.517c0-.594-.605-.603-.832-.373zM2 16c-1.1 0-2 .9-2 2 0 .666 1 .68 1 0 0-.563.437-1 1-1s1 .437 1 1-.437 1-1 1c-.735 0-.73 1 0 1 .563 0 1 .437 1 1s-.437 1-1 1-1-.437-1-1c0-.636-1-.546-1 0 0 1.1.9 2 2 2s2-.9 2-2c0-.598-.267-1.133-.688-1.5.414-.367.688-.907.688-1.5 0-1.1-.9-2-2-2zm21.492 4h-16c-.66 0-.65-1 0-1h16c.658 0 .657 1 0 1zm.008-8h-16c-.66 0-.65-1 0-1h16c.658 0 .657 1 0 1zm0-8h-16c-.66 0-.65-1 0-1h16c.658 0 .657 1 0 1z"/></svg>