<svg height="24" viewBox="0 0 24 24" width="24" xmlns="http://www.w3.org/2000/svg"><path d="M2.5 9c-.276.004-.504.224-.5.5v11c0 .822.677 1.5 1.5 1.5h5c.276 0 .5-.224.5-.5V16c0-1.67 1.328-3 3-3 1.67 0 3 1.33 3 3v5.5c0 .276.224.5.5.5h5c.823 0 1.5-.678 1.5-1.5l.004-11c.005-.338-.25-.5-.504-.5-.253 0-.5.162-.496.5L21 20.5c0 .286-.214.5-.5.5H16v-5c0-2.207-1.792-4-4-4-2.21 0-4 1.793-4 4v5H3.5c-.286 0-.5-.214-.5-.5v-11c.004-.282-.218-.504-.5-.5zM12 2c-.46 0-.875.152-1.198.29-.323.14-.56.282-.56.282L.26 8.06C-.3 8.38.2 9.232.74 8.935l10-5.497.017-.012s.177-.108.436-.22C11.456 3.1 11.79 3 12 3c.21 0 .545.098.805.21.26.11.437.22.437.22l.018.01 9.997 5.496c.586.323 1.05-.566.483-.877L13.758 2.57s-.237-.142-.56-.28C12.873 2.15 12.457 2 12 2z"/></svg>