<svg height="24" viewBox="0 0 24 24" width="24" xmlns="http://www.w3.org/2000/svg"><path d="M4.5 11c-.485 0-.655.562-.34.87l6.986 6.984c.195.195.51.195.706 0l6.985-6.985c.49-.472-.235-1.197-.706-.707L11.5 17.8l-6.633-6.637C4.773 11.066 4.635 11 4.5 11zm7-9c.277 0 .5.223.5.5v13c0 .277-.223.5-.5.5s-.5-.223-.5-.5v-13c0-.277.223-.5.5-.5zM.5 18c-.276.004-.504.224-.5.5v2c0 .822.678 1.5 1.5 1.5h21c.822 0 1.5-.678 1.5-1.5v-2c.005-.338-.248-.5-.5-.5s-.505.162-.5.5v2c0 .286-.214.5-.5.5h-21c-.286 0-.5-.214-.5-.5v-2c.004-.282-.218-.504-.5-.5z"/></svg>