<svg height="24" viewBox="0 0 24 24" width="24" xmlns="http://www.w3.org/2000/svg"><path d="M7.5 8c-.306 0-.5.19-.5.5v2c0 .676 1 .653 1 0v-.793l3.146 3.147c.452.45 1.158-.275.708-.708L8.707 9H9.5c.668 0 .65-1 0-1zm4 1c-.65 0-.665 1 0 1h.5c1.663 0 3 1.337 3 3s-1.337 3-3 3-3-1.337-3-3v-.5c0-.66-1-.657-1 0v.5c0 2.203 1.797 4 4 4 2.203 0 4-1.797 4-4 0-2.203-1.797-4-4-4zm-2-9c-.277 0-.5.223-.5.5s.223.5.5.5H11v2.5c0 .277.223.5.5.5s.5-.223.5-.5V3c5.53 0 10 4.47 10 10s-4.47 10-10 10S2 18.53 2 13c0-2.773 1.053-5.346 2.854-7.146.457-.44-.275-1.158-.708-.708C2.146 7.146 1 9.974 1 13c0 6.07 4.93 11 11 11s11-4.93 11-11S18.07 2 12 2V1h1.5c.277 0 .5-.223.5-.5s-.223-.5-.5-.5z"/></svg>