<svg height="24" viewBox="0 0 24 24" width="24" xmlns="http://www.w3.org/2000/svg"><path d="M18.016 0c-.2-.006-.384.106-.47.287l-1.585 3.38-3.536.35c-.402.06-.566.552-.28.843l2.573 2.827-.7 3.733c-.068.412.37.72.735.517L18 10.075l3.252 1.863c.365.202.803-.106.736-.518l-.705-3.732 2.574-2.82c.285-.29.12-.782-.28-.844l-3.538-.356-1.587-3.38c-.08-.17-.25-.282-.437-.288zM18 1.678l1.246 2.656c.07.15.212.256.377.28l2.84.252-2.07 2.304c-.112.113-.162.273-.137.43l.578 2.964-2.592-1.498c-.15-.084-.334-.084-.484 0l-2.588 1.498.574-2.964c.025-.157-.025-.317-.137-.43l-2.07-2.312 2.84-.243c.165-.025.306-.13.377-.28zM1.51 2C.682 2 0 2.682 0 3.51v6.98C0 11.318.682 12 1.51 12h6.98c.828 0 1.51-.682 1.51-1.51V3.51C10 2.682 9.318 2 8.49 2zm0 1h6.98c.29 0 .51.22.51.51v6.98c0 .29-.22.51-.51.51H1.51c-.29 0-.51-.22-.51-.51V3.51c0-.29.22-.51.51-.51zm12 11c-.828 0-1.51.682-1.51 1.51v6.98c0 .828.682 1.51 1.51 1.51h6.98c.828 0 1.51-.682 1.51-1.51v-6.98c0-.828-.682-1.51-1.51-1.51zm0 1h6.98c.29 0 .51.22.51.51v6.98c0 .29-.22.51-.51.51h-6.98c-.29 0-.51-.22-.51-.51v-6.98c0-.29.22-.51.51-.51zm-12-1C.682 14 0 14.682 0 15.51v6.98C0 23.318.682 24 1.51 24h6.98c.828 0 1.51-.682 1.51-1.51v-6.98c0-.828-.682-1.51-1.51-1.51zm0 1h6.98c.29 0 .51.22.51.51v6.98c0 .29-.22.51-.51.51H1.51c-.29 0-.51-.22-.51-.51v-6.98c0-.29.22-.51.51-.51z"/></svg>