<svg height="24" viewBox="0 0 24 24" width="24" xmlns="http://www.w3.org/2000/svg"><path d="M15.492 2c-.276.004-.496.224-.492.5v1.99c0 .828.682 1.51 1.51 1.51h1.99c.67 0 .648-1 0-1h-1.99c-.29 0-.51-.22-.51-.51V2.5c.004-.282-.226-.504-.508-.5zM4.51 0C3.682 0 3 .682 3 1.51v20.98c0 .828.682 1.51 1.51 1.51h14.98c.828 0 1.51-.682 1.51-1.51V5.5c0-.133-.053-.26-.146-.354l-5-5C15.76.053 15.634 0 15.5 0zm0 1h10.783L20 5.707V22.49c0 .29-.22.51-.51.51H4.51c-.29 0-.51-.22-.51-.51V1.51c0-.29.22-.51.51-.51zM6.5 9h11c.277 0 .5.223.5.5s-.223.5-.5.5h-11c-.277 0-.5-.223-.5-.5s.223-.5.5-.5zm0 3h11c.277 0 .5.223.5.5s-.223.5-.5.5h-11c-.277 0-.5-.223-.5-.5s.223-.5.5-.5zm0 3h11c.277 0 .5.223.5.5s-.223.5-.5.5h-11c-.277 0-.5-.223-.5-.5s.223-.5.5-.5z"/></svg>