<svg height="24" viewBox="0 0 24 24" width="24" xmlns="http://www.w3.org/2000/svg"><path d="M14 1c-.43 0-.807.07-1.123.258-.316.187-.536.49-.658.816C11.973 2.728 12 3.5 12 4.5c0 .917-.21 1.537-.666 2.223-.457.686-1.188 1.423-2.188 2.423-.44.422.248 1.167.708.708 1-1 1.77-1.763 2.312-2.577C12.71 6.463 13 5.583 13 4.5c0-1 .026-1.728.156-2.074.065-.173.127-.246.233-.31.105-.062.29-.116.61-.116.292 0 .447.064.56.152.114.09.205.226.278.444.145.436.162 1.154.162 1.904 0 2.89-.947 4.777-.947 4.777-.165.333.076.723.447.723h7.926c.37 0 .574.565.574 1 0 .667-.723 1.053-.723 1.053-.368.184-.368.71 0 .894 0 0 .723.386.723 1.053 0 .667-.723 1.053-.723 1.053-.368.184-.368.71 0 .894 0 0 .723.386.723 1.053 0 .667-.723 1.053-.723 1.053-.368.184-.368.71 0 .894 0 0 .723.386.723 1.053 0 .333-.134.53-.402.71-.27.178-.68.29-1.098.29h-12c-.66 0-.654 1 0 1h12c.583 0 1.17-.138 1.652-.46.482-.32.848-.873.848-1.54 0-.705-.34-1.182-.676-1.5.337-.318.676-.795.676-1.5s-.34-1.182-.676-1.5c.337-.318.676-.795.676-1.5s-.34-1.182-.676-1.5c.337-.318.676-.795.676-1.5 0-.583-.145-1.07-.412-1.426C23.32 9.218 22.918 9 22.5 9h-7.29c.297-.74.79-2.168.79-4.5 0-.75.017-1.532-.213-2.22-.115-.345-.305-.677-.613-.917S14.458 1 14 1zM1.5 9C.678 9 0 9.678 0 10.5v11c0 .822.678 1.5 1.5 1.5h5c.822 0 1.5-.678 1.5-1.5v-11C8 9.678 7.322 9 6.5 9zm0 1h5c.286 0 .5.214.5.5v11c0 .286-.214.5-.5.5h-5c-.286 0-.5-.214-.5-.5v-11c0-.286.214-.5.5-.5z"/></svg>