<svg height="24" viewBox="0 0 24 24" width="24" xmlns="http://www.w3.org/2000/svg"><path d="M11.5 0c-.277 0-.5.223-.5.5v2c0 .277.223.5.5.5s.5-.223.5-.5v-2c0-.277-.223-.5-.5-.5zm-7 3c-.448 0-.67.54-.348.854l.996 1c.455.458 1.155-.272.706-.706l-.997-1.002C4.763 3.05 4.635 3 4.5 3zm14 0c-.135 0-.264.05-.358.146l-.998 1.002c-.45.434.25 1.164.705.707l.997-1c.323-.314.1-.855-.347-.855zm-7 2c-1.57 0-2.97.895-3.943 2.26C6.582 8.624 6 10.47 6 12.5c0 2.03.582 3.876 1.557 5.24C8.53 19.105 9.93 20 11.5 20c1.57 0 2.97-.895 3.943-2.26C16.418 16.376 17 14.53 17 12.5c0-2.03-.582-3.876-1.557-5.24C14.47 5.895 13.07 5 11.5 5zm0 1c1.192 0 2.294.673 3.13 1.842.834 1.17 1.37 2.822 1.37 4.658 0 1.836-.536 3.49-1.37 4.658-.468.653-1.02 1.145-1.622 1.457.02-1.28.17-2.35.398-3 .28-.802.685-1.3 1.336-1.677.462-.255.26-.938-.262-.938-.083.003-.164.03-.236.072-.844.488-1.437 1.235-1.78 2.213-.332.95-.457 2.12-.464 3.582-.378.138-.678.11-1 0-.007-1.462-.132-2.632-.465-3.582-.342-.978-.935-1.725-1.78-2.213-.07-.042-.152-.07-.235-.072-.52 0-.724.683-.262.938.65.376 1.055.875 1.336 1.677.227.65.378 1.736.398 3-.602-.312-1.154-.804-1.62-1.457C7.535 15.988 7 14.336 7 12.5c0-1.836.536-3.49 1.37-4.658C9.207 6.672 10.31 6 11.5 6zm-10 6c-.277 0-.5.223-.5.5s.223.5.5.5h2c.277 0 .5-.223.5-.5s-.223-.5-.5-.5zm18 0c-.277 0-.5.223-.5.5s.223.5.5.5h2c.277 0 .5-.223.5-.5s-.223-.5-.5-.5zm-11 9c-.277 0-.5.223-.5.5s.223.5.5.5h6c.277 0 .5-.223.5-.5s-.223-.5-.5-.5zm0 2c-.277 0-.5.223-.5.5s.223.5.5.5h6c.277 0 .5-.223.5-.5s-.223-.5-.5-.5z"/></svg>