<svg xmlns="http://www.w3.org/2000/svg" width="24" height="24"><path d="M12 0C5.38 0 0 5.378 0 12c0 5.722 4.04 10.46 9.406 11.656a.5.5 0 0 0 .594-.468v-4.563c0-.368.18-.7.47-.875a.5.5 0 0 0-.158-.906C7.204 16.284 5 14.27 5 12c0-.877.33-1.737.906-2.47A.5.5 0 0 0 6 9.25v-3l2.594 1.188a.5.5 0 0 0 .375.03C9.88 7.154 10.9 7 12 7c1.097 0 2.12.153 3.03.47a.5.5 0 0 0 .376-.032L18 6.25v3a.5.5 0 0 0 .094.28c.575.733.906 1.593.906 2.47 0 2.27-2.204 4.284-5.313 4.844a.5.5 0 0 0-.156.906c.29.175.47.507.47.875v4.563a.5.5 0 0 0 .595.468C19.96 22.46 24 17.722 24 12c0-6.622-5.38-12-12-12zm0 1c6.08 0 11 4.92 11 11 0 5.024-3.402 9.12-8 10.438v-3.813c0-.39-.117-.753-.313-1.063C17.712 16.74 20 14.655 20 12c0-1.06-.374-2.055-1-2.906V5.5a.5.5 0 0 0-.72-.47l-3.155 1.44C14.15 6.157 13.115 6 12 6c-1.114 0-2.15.158-3.125.47L5.72 5.03A.5.5 0 0 0 5 5.5v3.594c-.626.85-1 1.847-1 2.906 0 2.655 2.288 4.74 5.313 5.563-.196.31-.313.67-.313 1.062v.5c-.67.24-1.246.41-1.656.406-.47 0-.745-.127-1.063-.654-.39-.652-.744-1.166-1.123-1.563-.378-.396-.806-.675-1.312-.78a.5.5 0 0 0-.188 0 .5.5 0 0 0 0 1c.29.06.497.17.78.468.286.298.622.778 1.002 1.407.454.755 1.17 1.12 1.905 1.125.532.008 1.084-.15 1.656-.343v2.25C4.403 21.12 1 17.023 1 12 1 5.92 5.92 1 12 1z"/></svg>