<svg height="24" viewBox="0 0 24 24" width="24" xmlns="http://www.w3.org/2000/svg"><path d="M12 0c-.19 0-.362.106-.447.277L8.156 7.07.38 9.016c-.36.09-.5.52-.265.804l4.862 5.834-.973 7.784c-.05.4.373.693.73.503L12 20.067l7.266 3.875c.357.19.78-.1.73-.503l-.973-7.783 4.862-5.834c.235-.283.094-.715-.264-.804L15.845 7.07 12.447.277C12.363.11 12.187.002 12 0zm0 1.617l3.053 6.106c.065.13.184.226.326.26l7.225 1.808-4.49 5.39c-.088.106-.13.245-.11.382l.88 7.043-6.65-3.546c-.147-.08-.323-.08-.47 0l-6.65 3.545.88-7.043c.02-.137-.022-.276-.11-.382l-4.49-5.39L8.62 7.985c.143-.035.262-.13.327-.26z"/></svg>