<svg height="24" viewBox="0 0 24 24" width="24" xmlns="http://www.w3.org/2000/svg"><path d="M2.145 8.123c-.182.182-.215.512.03.758l3.983 3.966c.562.562 1.15.957 1.842 1.092v.562c0 .277.223.5.5.5s.5-.223.5-.5V14h6v.5c0 .277.223.5.5.5s.498-.223.5-.5l.005-.562c.693-.135 1.282-.53 1.844-1.092l3.97-3.965c.224-.224.244-.536.03-.75-.212-.212-.507-.147-.718.064l-3.97 3.965c-.435.434-.78.675-1.162.78l.005-.44c.003-.277-.228-.5-.505-.5s-.5.223-.5.5v.5H9v-.5c0-.277-.223-.5-.5-.5s-.5.223-.5.5v.44c-.383-.105-.72-.346-1.155-.78l-3.98-3.966c-.213-.21-.54-.252-.72-.07zM8.5 2C7.678 2 7 2.678 7 3.5v1c-.004.264.236.5.5.5s.504-.236.5-.5v-1c0-.286.214-.5.5-.5h7c.286 0 .5.214.5.5v1c-.004.264.236.5.5.5s.504-.236.5-.5v-1c0-.822-.678-1.5-1.5-1.5zm-7 4C.678 6 0 6.678 0 7.5v13c0 .822.678 1.5 1.5 1.5h21c.822 0 1.5-.678 1.5-1.5v-13c0-.822-.678-1.5-1.5-1.5zm0 1h21c.286 0 .5.214.5.5v13c0 .286-.214.5-.5.5h-21c-.286 0-.5-.214-.5-.5v-13c0-.286.214-.5.5-.5z"/></svg>