<svg height="30" viewBox="0 0 30 30" width="30" xmlns="http://www.w3.org/2000/svg"><path d="M20.5 14c.277 0 .5.223.5.5v9c0 .277-.223.5-.5.5s-.5-.223-.5-.5v-9c0-.277.223-.5.5-.5zm-6 0c.277 0 .5.223.5.5v9c0 .277-.223.5-.5.5s-.5-.223-.5-.5v-9c0-.277.223-.5.5-.5zm-6 0c.277 0 .5.223.5.5v9c0 .277-.223.5-.5.5s-.5-.223-.5-.5v-9c0-.277.223-.5.5-.5zM18.526 1c.13 0 .253.058.343.15l5.99 6c.442.445-.26 1.155-.707.708l-5.99-6C17.84 1.54 18.017 1 18.526 1zm-8.052 0c-.13 0-.253.058-.343.15l-5.99 6c-.442.445.26 1.155.707.708l5.99-6c.324-.318.146-.858-.363-.858zM1.5 9c-.414 0-.797.16-1.086.432-.29.272-.486.7-.406 1.154l3 17c.062.35.203.69.453.96.25.268.626.454 1.04.454h20c.414 0 .79-.186 1.04-.455.25-.27.39-.608.452-.96l3-17c.08-.453-.117-.88-.406-1.153C28.296 9.16 27.914 9 27.5 9zm0 1h26c.5 0 .564.205.508.414l-3 17c-.12.444-.23.586-.508.586h-20c-.365 0-.41-.22-.508-.586l-3-17C.93 10.084 1.25 10 1.5 10z"/></svg>