<svg xmlns="http://www.w3.org/2000/svg" width="24" height="24"><path d="M2.5 9C1.125 9 0 10.125 0 11.5S1.125 14 2.5 14 5 12.875 5 11.5 3.875 9 2.5 9zm9 0C10.125 9 9 10.125 9 11.5s1.125 2.5 2.5 2.5 2.5-1.125 2.5-2.5S12.875 9 11.5 9zm9 0c-1.375 0-2.5 1.125-2.5 2.5s1.125 2.5 2.5 2.5 2.5-1.125 2.5-2.5S21.875 9 20.5 9zm-18 1c.834 0 1.5.666 1.5 1.5S3.334 13 2.5 13 1 12.334 1 11.5 1.666 10 2.5 10zm9 0c.834 0 1.5.666 1.5 1.5s-.666 1.5-1.5 1.5-1.5-.666-1.5-1.5.666-1.5 1.5-1.5zm9 0c.834 0 1.5.666 1.5 1.5s-.666 1.5-1.5 1.5-1.5-.666-1.5-1.5.666-1.5 1.5-1.5z"/></svg>