<svg height="24" viewBox="0 0 24 24" width="24" xmlns="http://www.w3.org/2000/svg"><path d="M1.5 1C.678 1 0 1.678 0 2.5v15c0 .822.678 1.5 1.5 1.5H4v3.5a.5.5 0 0 0 .854.354L8.707 19H22.5c.822 0 1.5-.678 1.5-1.5v-15c0-.822-.678-1.5-1.5-1.5h-21zm0 1h21c.286 0 .5.214.5.5v15c0 .286-.214.5-.5.5h-14a.5.5 0 0 0-.354.146L5 21.293V18.5a.5.5 0 0 0-.5-.5h-3c-.286 0-.5-.214-.5-.5v-15c0-.286.214-.5.5-.5zm2 3c-.277 0-.5.223-.5.5s.223.5.5.5h17c.277 0 .5-.223.5-.5s-.223-.5-.5-.5h-17zm0 3c-.277 0-.5.223-.5.5s.223.5.5.5h17c.277 0 .5-.223.5-.5s-.223-.5-.5-.5h-17zm0 3c-.277 0-.5.223-.5.5s.223.5.5.5h17c.277 0 .5-.223.5-.5s-.223-.5-.5-.5h-17z"/></svg>