<svg height="24" viewBox="0 0 24 24" width="24" xmlns="http://www.w3.org/2000/svg"><path d="M.5 5h2c.277 0 .5.223.5.5s-.223.5-.5.5h-2C.223 6 0 5.777 0 5.5S.223 5 .5 5zm0 4h2c.277 0 .5.223.5.5s-.223.5-.5.5h-2c-.277 0-.5-.223-.5-.5S.223 9 .5 9zm0 4h2c.277 0 .5.223.5.5s-.223.5-.5.5h-2c-.277 0-.5-.223-.5-.5s.223-.5.5-.5zm5-11C4.678 2 4 2.678 4 3.5v13c0 .822.678 1.5 1.5 1.5H8v3.5c0 .445.54.668.854.354L12.707 18H22.5c.822 0 1.5-.678 1.5-1.5v-13c0-.822-.678-1.5-1.5-1.5zm0 1h17c.286 0 .5.214.5.5v13c0 .286-.214.5-.5.5h-10c-.133 0-.26.053-.354.146L9 20.293V17.5c0-.276-.224-.5-.5-.5h-3c-.286 0-.5-.214-.5-.5v-13c0-.286.214-.5.5-.5z"/></svg>