<svg height="24" viewBox="0 0 24 24" width="24" xmlns="http://www.w3.org/2000/svg"><path d="M10 22.5c0 .895.897 1.5 2 1.5 1.102 0 2-.605 2-1.5 0-.665-1-.65-1 0 0 .106-.288.5-1 .5-.71 0-1-.398-1-.5 0-.664-1-.65-1 0zM12 0c-1.713 0-3 1.2-3 2.5 0 .686 1 .63 1 0S10.75 1 12 1s2 .864 2 1.5c0 .653 1 .67 1 0C15 1.198 13.712 0 12 0zM5.5 3H5C3.337 3 2 4.337 2 6v.5c.003.264-.236.5-.5.5-.265 0-.504-.236-.5-.5V6c0-2.203 1.796-4 4-4h.5c.336 0 .502.25.5.5-.002.25-.17.5-.5.5zm13 0h.5c1.663 0 3 1.337 3 3v.5c-.004.264.236.5.5.5s.504-.236.5-.5V6c0-2.203-1.797-4-4-4h-.5c-.337 0-.502.25-.5.5 0 .25.17.5.5.5zM12 4C9.472 4 7.62 5.104 6.47 6.72 5.317 8.333 5 10.42 5 12.5c0 3.922-1.042 5.716-2.875 7.656-.26.275-.07.844.375.844h19c.46 0 .64-.563.375-.844C20.042 18.216 19 16.422 19 12.5c0-2.08-.318-4.166-1.47-5.78C16.38 5.103 14.53 4 12 4zm0 1c2.25 0 3.73.895 4.72 2.28C17.706 8.668 18 10.58 18 12.5c0 3.57 1.062 5.642 2.563 7.5H3.438C4.938 18.142 6 16.07 6 12.5c0-1.922.293-3.833 1.28-5.22C8.27 5.896 9.75 5 12 5z"/></svg>