<svg height="24" viewBox="0 0 24 24" width="24" xmlns="http://www.w3.org/2000/svg"><path d="M15.5 0C12.733 0 11 2.25 11 4.5c0 .276.224.5.5.5C13.75 5 16 3.267 16 .5c0-.276-.224-.5-.5-.5zm-.627 1.127c-.254 1.474-1.33 2.266-2.568 2.568.302-1.237 1.094-2.314 2.568-2.568zM8 5c-1.63 0-3.17.656-4.264 2C2.644 8.344 2 10.34 2 13c0 2.692.9 5.383 2.064 7.432.582 1.024 1.23 1.888 1.887 2.515C6.61 23.575 7.278 24 8 24c1.083 0 1.816-.287 2.39-.543.576-.256.97-.457 1.61-.457.64 0 1.034.2 1.61.457.574.256 1.307.543 2.39.543.567 0 1.094-.285 1.65-.7.557-.417 1.133-.99 1.69-1.67 1.114-1.364 2.15-3.16 2.642-5 .06-.225-.04-.46-.246-.57C20.416 15.35 20 14.4 20 13c0-1.397.43-2.35 1.738-3.06.203-.11.304-.346.244-.57-.372-1.39-1.314-2.483-2.425-3.224C18.447 5.406 17.162 5 16 5c-1.083 0-1.723.303-2.223.553-.5.25-.86.447-1.777.447-.917 0-1.277-.197-1.777-.447S9.083 5 8 5zm0 1c.917 0 1.277.197 1.777.447S10.917 7 12 7s1.723-.303 2.223-.553c.5-.25.86-.447 1.777-.447.922 0 2.05.344 3.002.98.88.586 1.564 1.396 1.902 2.394C19.647 10.25 19 11.53 19 13c0 1.475.64 2.798 1.92 3.673-.47 1.58-1.372 3.122-2.354 4.323-.516.63-1.046 1.152-1.513 1.502-.468.35-.88.502-1.053.502-.917 0-1.434-.213-1.984-.457C13.466 22.3 12.86 22 12 22c-.86 0-1.466.3-2.016.543C9.434 22.787 8.917 23 8 23c-.277 0-.796-.242-1.357-.777-.562-.536-1.164-1.33-1.707-2.285C3.85 18.024 3 15.465 3 13c0-2.498.606-4.253 1.514-5.37C5.42 6.515 6.63 6 8 6z"/></svg>