<svg height="24" viewBox="0 0 24 24" width="24" xmlns="http://www.w3.org/2000/svg"><path d="M9.5 8c-.292 0-.5.222-.5.5v7c0 .405.455.643.787.41l5-3.5c.285-.2.285-.62 0-.82l-5-3.5C9.705 8.032 9.6 8 9.5 8zm.5 1.46L13.627 12 10 14.54zM23.5 19h-1c-.277 0-.5.223-.5.5s.223.5.5.5h1c.277 0 .5-.223.5-.5s-.223-.5-.5-.5zm-1-4c-.277 0-.5.223-.5.5v2c0 .277.223.5.5.5s.5-.223.5-.5v-2c0-.277-.223-.5-.5-.5zm0-5c-.277 0-.5.223-.5.5v3c0 .277.223.5.5.5s.5-.223.5-.5v-3c0-.277-.223-.5-.5-.5zm0-4c-.277 0-.5.223-.5.5v2c0 .277.223.5.5.5s.5-.223.5-.5v-2c0-.277-.223-.5-.5-.5zm1-2h-1c-.277 0-.5.223-.5.5s.223.5.5.5h1c.277 0 .5-.223.5-.5s-.223-.5-.5-.5zM.5 19h1c.277 0 .5.223.5.5s-.223.5-.5.5h-1c-.277 0-.5-.223-.5-.5s.223-.5.5-.5zm1-4c.277 0 .5.223.5.5v2c0 .277-.223.5-.5.5s-.5-.223-.5-.5v-2c0-.277.223-.5.5-.5zm0-5c.277 0 .5.223.5.5v3c0 .277-.223.5-.5.5s-.5-.223-.5-.5v-3c0-.277.223-.5.5-.5zm0-4c.277 0 .5.223.5.5v2c0 .277-.223.5-.5.5S1 8.777 1 8.5v-2c0-.277.223-.5.5-.5zm-1-2h1c.277 0 .5.223.5.5s-.223.5-.5.5h-1C.223 5 0 4.777 0 4.5S.223 4 .5 4zm4 0C3.678 4 3 4.678 3 5.5v13c0 .822.678 1.5 1.5 1.5h15c.822 0 1.5-.678 1.5-1.5v-13c0-.822-.678-1.5-1.5-1.5zm0 1h15c.286 0 .5.214.5.5v13c0 .286-.214.5-.5.5h-15c-.286 0-.5-.214-.5-.5v-13c0-.286.214-.5.5-.5z"/></svg>