<svg height="24" viewBox="0 0 24 24" width="24" xmlns="http://www.w3.org/2000/svg"><path d="M12 4c-1.818 0-2.92 1.055-3.438 2.236C8.046 7.418 8 8.726 8 9.5c0 1.44-.162 2.178-1.828 3.623-.35.306-.13.882.334.877.835-.01 2.144-.086 3.344-.672-.062.415-.08.946-.21 1.156-.226.36-.5.516-1.14.516-.86 0-1.92.267-2.824.824C4.77 16.38 4 17.292 4 18.5c0 .657 1 .668 1 0 0-.792.48-1.38 1.2-1.824.72-.443 1.66-.676 2.3-.676.86 0 1.586-.345 1.986-.984.4-.64.514-1.474.514-2.516 0-.445-.54-.668-.854-.354-.708.71-1.655.8-2.584.82C8.55 11.81 9 10.733 9 9.5c0-.726.066-1.918.48-2.86C9.89 5.694 10.536 5 12 5s2.11.695 2.52 1.64c.414.942.48 2.134.48 2.86 0 1.234.45 2.31 1.438 3.465-.93-.02-1.876-.11-2.584-.82-.315-.313-.854-.09-.854.355 0 1.042.114 1.876.514 2.516.4.64 1.125.984 1.986.984.64 0 1.58.233 2.3.676.72.443 1.2 1.032 1.2 1.824 0 .65 1 .682 1 0 0-1.208-.77-2.12-1.676-2.676C17.42 15.267 16.36 15 15.5 15c-.64 0-.914-.155-1.14-.516-.13-.21-.148-.74-.21-1.156 1.2.586 2.51.662 3.344.672.465.005.685-.57.334-.877C16.162 11.678 16 10.94 16 9.5c0-.774-.046-2.082-.563-3.264C14.921 5.056 13.817 4 12 4zm0-4C5.38 0 0 5.38 0 12s5.38 12 12 12 12-5.38 12-12S18.62 0 12 0zm0 1c6.08 0 11 4.92 11 11s-4.92 11-11 11S1 18.08 1 12 5.92 1 12 1z"/></svg>