<svg height="24" viewBox="0 0 24 24" width="24" xmlns="http://www.w3.org/2000/svg"><path d="M12.854 12.147c-.195-.195-.51-.195-.706 0L9.15 15.143c-.448.45.24 1.173.707.706l2.644-2.644 2.643 2.642c.46.46 1.162-.263.706-.706zM12.5 15c.277 0 .5.223.5.5v5c0 .277-.223.5-.5.5s-.5-.223-.5-.5v-5c0-.277.223-.5.5-.5zm.824-11.998c-1.324 0-2.558.253-3.705.822-1.442.716-2.612 1.766-3.383 3.178-1.646-.067-3.3.637-4.47 1.8C.516 10.044-.138 11.834.023 13.59c.127 1.387.753 2.713 1.742 3.696C2.756 18.268 4.1 19 5.48 19H6.5c.277 0 .5-.223.5-.5s-.223-.5-.5-.5h-.95c-1.147-.098-2.265-.615-3.08-1.425-.82-.813-1.345-1.93-1.45-3.076-.132-1.446.42-2.964 1.45-3.987C3.5 8.49 5.02 7.86 6.464 8c.207.02.404-.06.496-.247.663-1.328 1.775-2.374 3.105-3.034C11.062 4.223 12.18 4 13.3 4c.372 0 .745.05 1.11.12 1.66.312 3.203 1.268 4.22 2.616 1.02 1.347 1.517 3.08 1.364 4.763-.023.256.15.45.4.5.765.152 1.483.65 1.953 1.272.47.623.707 1.436.643 2.213-.033.4-.145.79-.332 1.133-.186.34-.452.638-.77.857-.318.22-.697.367-1.095.443-.4.076-.83.082-1.293.082h-1c-.277 0-.5.223-.5.5s.223.5.5.5h1c.47 0 .964-.003 1.48-.1.517-.1 1.025-.29 1.475-.6.45-.31.82-.725 1.082-1.202.26-.476.405-1.002.45-1.53.084-1.03-.22-2.073-.843-2.897-.543-.718-1.283-1.2-2.144-1.456.07-1.81-.48-3.63-1.572-5.078-1.173-1.552-2.923-2.638-4.834-3-.42-.078-.843-.134-1.27-.134z"/></svg>