<svg height="24" viewBox="0 0 24 24" width="24" xmlns="http://www.w3.org/2000/svg"><path d="M19.502 20c.447 0 .667-.54.346-.85l-.994-.988c-.47-.488-1.153.247-.702.7l.993.987c.094.096.223.15.357.15zM3.498 20c-.447 0-.667-.54-.346-.85l.994-.988c.458-.476 1.166.255.702.7l-.993.987c-.094.096-.223.15-.357.15zM11.5 4C7.354 4 4 7.354 4 11.5S7.354 19 11.5 19s7.5-3.354 7.5-7.5S15.646 4 11.5 4zm0 1c3.61 0 6.5 2.89 6.5 6.5S15.11 18 11.5 18 5 15.11 5 11.5 7.89 5 11.5 5zm8.004-2c.446 0 .666.543.345.854l-.995.993c-.468.488-1.19-.234-.702-.702l.994-.994c.093-.095.222-.15.357-.15zM3.497 3c-.447 0-.667.543-.346.854l.995.993c.468.488 1.19-.234.702-.702l-.993-.994C3.76 3.056 3.63 3 3.497 3zM21 11.5c0-.277.223-.5.5-.5h1c.277 0 .5.223.5.5s-.5.5-.5.5h-1s-.5-.223-.5-.5zm-21 0c0-.277.223-.5.5-.5h1c.277 0 .5.223.5.5s-.223.5-.5.5h-1c-.277 0-.5-.223-.5-.5zM11.5 21c.277 0 .5.223.5.5v1c0 .277-.223.5-.5.5s-.5-.223-.5-.5v-1c0-.277.223-.5.5-.5zm0-21c.277 0 .5.223.5.5v1c0 .277-.223.5-.5.5s-.5-.223-.5-.5v-1c0-.277.223-.5.5-.5z"/></svg>