<svg height="24" viewBox="0 0 24 24" width="24" xmlns="http://www.w3.org/2000/svg"><path d="M12.5 17c-.823 0-1.5.677-1.5 1.5s.677 1.5 1.5 1.5 1.5-.677 1.5-1.5-.677-1.5-1.5-1.5zm0 1c.282 0 .5.218.5.5 0 .282-.218.5-.5.5-.282 0-.5-.218-.5-.5 0-.282.218-.5.5-.5zm0-14c-1.403-.018-2.782.444-3.895 1.31C8.24 5.59 8 5.99 8 6.38c0 .38.126.748.35 1.028.223.28.605.592 1.15.592.374 0 .652-.106.92-.316l.004-.002C10.986 7.245 11.786 7 12.5 7c.512 0 .892.114 1.143.28.25.168.357.41.357.72 0 .36-.196.46-.494.758-.322.317-.783.7-1.236 1.24-.464.553-.847 1.216-1.06 1.97C10.992 12.73 11 13.44 11 14v.5c0 .463.187.873.48 1.133.294.26.658.373 1.02.367.362-.006.734-.13 1.02-.39.29-.256.48-.658.48-1.11V14c0-.53 0-.964.07-1.21.08-.282.247-.587.475-.858.23-.274.613-.605 1.05-1.036.445-.44 1.02-1.07 1.28-1.996.09-.326.125-.57.125-.9 0-.43-.082-.858-.2-1.203-.226-.65-.615-1.2-1.09-1.627-.944-.846-2.13-1.156-3.21-1.17zm0 1c.9.012 1.817.264 2.54.914.362.324.648.73.814 1.21.077.223.146.584.146.876 0 .28-.01.347-.09.63-.187.67-.607 1.146-1.02 1.554-.406.4-.797.73-1.113 1.105-.308.367-.542.784-.668 1.228-.136.476-.11.97-.11 1.482v.5c0 .195-.06.29-.146.367-.088.08-.216.13-.354.133-.138.002-.274-.043-.355-.115-.082-.073-.145-.167-.145-.385V14c0-.563.002-1.16.172-1.76.17-.6.48-1.14.865-1.6.387-.46.804-.808 1.174-1.173h.003v-.002C14.487 9.19 15 8.775 15 8c0-.622-.328-1.233-.805-1.55C13.72 6.13 13.155 6 12.5 6c-.94 0-1.936.305-2.693.895h-.004c-.14.113-.235.12-.346.1-.11-.023-.238-.1-.326-.212-.088-.11-.13-.242-.124-.347.006-.106.037-.203.207-.332l.002-.002V6.1c.93-.725 2.11-1.115 3.285-1.1zM12 0C5.38 0 0 5.38 0 12s5.38 12 12 12 12-5.38 12-12S18.62 0 12 0zm0 1c6.08 0 11 4.92 11 11s-4.92 11-11 11S1 18.08 1 12 5.92 1 12 1z"/></svg>