<svg height="24" viewBox="0 0 24 24" width="24" xmlns="http://www.w3.org/2000/svg"><path d="M3 11.5a.5.5 0 0 1-.5.5.5.5 0 0 1-.5-.5.5.5 0 0 1 .5-.5.5.5 0 0 1 .5.5zm9 9a.5.5 0 0 1-.5.5.5.5 0 0 1-.5-.5.5.5 0 0 1 .5-.5.5.5 0 0 1 .5.5zm9-9a.5.5 0 0 1-.5.5.5.5 0 0 1-.5-.5.5.5 0 0 1 .5-.5.5.5 0 0 1 .5.5zm-9-9a.5.5 0 0 1-.5.5.5.5 0 0 1-.5-.5.5.5 0 0 1 .5-.5.5.5 0 0 1 .5.5zM11.5 4c-.277 0-.5.223-.5.5v5.594c-.58.208-1 .76-1 1.406 0 .823.677 1.5 1.5 1.5.647 0 1.198-.42 1.406-1H16.5c.277 0 .5-.223.5-.5s-.223-.5-.5-.5h-3.594c-.152-.422-.484-.754-.906-.906V4.5c0-.277-.223-.5-.5-.5zm0 7c.282 0 .5.218.5.5 0 .282-.218.5-.5.5-.282 0-.5-.218-.5-.5 0-.282.218-.5.5-.5zm0-11C5.155 0 0 5.155 0 11.5S5.155 23 11.5 23 23 17.845 23 11.5 17.845 0 11.5 0zm0 1C17.305 1 22 5.695 22 11.5S17.305 22 11.5 22 1 17.305 1 11.5 5.695 1 11.5 1z"/></svg>