<svg height="24" viewBox="0 0 24 24" width="24" xmlns="http://www.w3.org/2000/svg"><path d="M3.5 2C2.678 2 2 2.678 2 3.5v1c-.005.338.248.5.5.5s.505-.162.5-.5v-1c0-.286.214-.5.5-.5h4c.286 0 .5.214.5.5v1c-.005.338.248.5.5.5s.505-.162.5-.5v-1C9 2.678 8.322 2 7.5 2h-4zm-2 4C.678 6 0 6.678 0 7.5v13c0 .822.678 1.5 1.5 1.5h21c.822 0 1.5-.678 1.5-1.5v-13c0-.822-.678-1.5-1.5-1.5h-21zm0 1h21c.286 0 .5.214.5.5v13c0 .286-.214.5-.5.5h-21c-.286 0-.5-.214-.5-.5v-13c0-.286.214-.5.5-.5zm17 1c-.822 0-1.5.678-1.5 1.5s.678 1.5 1.5 1.5h2c.822 0 1.5-.678 1.5-1.5S21.322 8 20.5 8h-2zM12 9c-2.756 0-5 2.244-5 5s2.244 5 5 5 5-2.244 5-5-2.244-5-5-5zm6.5 0h2c.286 0 .5.214.5.5 0 .286-.214.5-.5.5h-2c-.286 0-.5-.214-.5-.5 0-.286.214-.5.5-.5zM12 10c2.215 0 4 1.785 4 4s-1.785 4-4 4-4-1.785-4-4 1.785-4 4-4z"/></svg>