<svg height="24" viewBox="0 0 24 24" width="24" xmlns="http://www.w3.org/2000/svg"><path d="M10.5 7c-.45 0-.676.54-.354.854l3.647 3.646-3.647 3.646c-.49.472.236 1.198.708.708l4-4c.195-.196.195-.512 0-.708l-4-4C10.76 7.05 10.634 7 10.5 7zm-10 4h10c.277 0 .5.223.5.5s-.223.5-.5.5H.5c-.277 0-.5-.223-.5-.5s.223-.5.5-.5zm6-11C5.678 0 5 .678 5 1.5v5c0 .665 1 .657 1 0v-5c0-.286.214-.5.5-.5h16c.286 0 .5.214.5.5v21c0 .286-.214.5-.5.5h-16c-.286 0-.5-.214-.5-.5v-6c0-.668-1-.653-1 0v6c0 .822.678 1.5 1.5 1.5h16c.822 0 1.5-.678 1.5-1.5v-21c0-.822-.678-1.5-1.5-1.5z"/></svg>