<svg height="24" viewBox="0 0 24 24" width="24" xmlns="http://www.w3.org/2000/svg"><path d="M17 13.5c-.002.13-.054.26-.146.352l-.996.995c-.445.463-1.163-.264-.705-.704l.644-.643-.644-.643c-.464-.445.262-1.164.705-.704l.996.995c.095.095.148.217.146.352zm-9 0c.002.13.054.26.146.352l.996.995c.445.463 1.17-.257.705-.704l-.644-.643.644-.643c.467-.45-.25-1.158-.705-.704l-.996.995c-.095.095-.148.217-.146.352zm4.5 4.5c-.13-.002-.26-.054-.352-.146l-.995-.996c-.46-.443.24-1.167.704-.705l.643.644.643-.644c.432-.45 1.173.254.704.705l-.995.996c-.095.095-.217.148-.352.146zm0-9c-.13.002-.26.054-.352.146l-.995.996c-.463.446.238 1.17.704.705l.643-.644.643.644c.442.46 1.162-.265.704-.705l-.995-.996c-.095-.095-.217-.148-.352-.146zm0 2c-.277 0-.5.223-.5.5V13h-1.5c-.277 0-.5.223-.5.5s.223.5.5.5H12v1.5c0 .277.223.5.5.5s.5-.223.5-.5V14h1.5c.277 0 .5-.223.5-.5s-.223-.5-.5-.5H13v-1.5c0-.277-.223-.5-.5-.5zm-11-8C.678 3 0 3.678 0 4.5v15c0 .822.678 1.5 1.5 1.5h21c.822 0 1.5-.678 1.5-1.5v-15c0-.822-.678-1.5-1.5-1.5zm0 1h21c.286 0 .5.214.5.5v15c0 .286-.214.5-.5.5h-21c-.286 0-.5-.214-.5-.5v-15c0-.286.214-.5.5-.5zm1 1c-.276 0-.5.224-.5.5s.224.5.5.5.5-.224.5-.5-.224-.5-.5-.5zm2 0c-.276 0-.5.224-.5.5s.224.5.5.5.5-.224.5-.5-.224-.5-.5-.5zm2 0c-.276 0-.5.224-.5.5s.224.5.5.5.5-.224.5-.5-.224-.5-.5-.5zm-4 2c-.277 0-.5.223-.5.5s.223.5.5.5h19c.277 0 .5-.223.5-.5s-.223-.5-.5-.5z"/></svg>