<svg height="24" viewBox="0 0 24 24" width="24" xmlns="http://www.w3.org/2000/svg"><path d="M12 4C7.75 4 3.523 5.47.19 8.107c-.497.393.132 1.172.62.786C3.964 6.398 7.98 5 12 5s8.037 1.398 11.19 3.893c.488.386 1.13-.382.62-.786C20.478 5.47 16.25 4 12 4zm0 5c-2.89 0-5.752 1.145-7.846 3.14-.454.433.224 1.17.692.72C6.746 11.05 9.374 10 12 10c2.626 0 5.253 1.05 7.154 2.86.458.44 1.154-.28.692-.72C17.752 10.144 14.89 9 12 9zm0 5c-.79 0-1.577.21-2.264.602-.687.392-1.266.962-1.668 1.644-.295.51.527 1.08.864.508.312-.53.767-.98 1.3-1.285.534-.306 1.153-.47 1.768-.47s1.234.164 1.768.47c.533.304.988.754 1.3 1.284.344.585 1.167.008.864-.508-.402-.682-.98-1.252-1.668-1.644C13.577 14.21 12.79 14 12 14zm1 5c0 .552-.448 1-1 1s-1-.448-1-1 .448-1 1-1 1 .448 1 1z"/></svg>