<svg height="24" viewBox="0 0 24 24" width="24" xmlns="http://www.w3.org/2000/svg"><path d="M2.5 21c-.13.004-.26.05-.35.144l-1.002 1c-.448.43.266 1.168.707.708l1-1C3.136 21.578 3 21 2.5 21zm4-1c-.13.004-.256.05-.347.142l-1 1.002c-.453.433.254 1.18.707.707l1-1c.267-.26.143-.85-.36-.85zm-4-2c-.13.004-.26.047-.35.14l-1.002 1c-.45.452.263 1.173.707.71l1-1.002C3.183 18.53 3 18 2.5 18zM14.89 4.857c-1.17 1.17-1.167 3.08.002 4.25 1.17 1.17 3.082 1.172 4.252.002s1.17-3.084 0-4.253c-1.17-1.17-3.083-1.17-4.253 0zM18.437 8.4c-.788.79-2.048.787-2.836 0-.787-.787-.788-2.048 0-2.836.786-.787 2.048-.787 2.836 0 .787.788.787 2.05 0 2.837zM5.5 15c-.277.003-.504.223-.5.5C5 17.43 6.57 19 8.5 19c.65 0 .677-1 0-1C7.112 18 6 16.888 6 15.5c.004-.282-.218-.503-.5-.5zM21.33 0c-.856.01-1.88.205-3.022.603-2.282.794-5.026 2.402-7.65 5.024-2.597 2.595-4 4.503-4.76 5.782-.38.638-.6 1.12-.725 1.45-.065.174-.06.192-.084.29-.134.084-1.163.746-2.3 1.283C2.22 14.76 1.447 15 1 15c.002-.75.71-2.41 1.56-3.744.428-.668.887-1.275 1.278-1.697.196-.212.376-.377.51-.474.152-.146.314.07.39.203.147.268.267.695.267 1.196 0 .68 1 .685 1 0 0-.656-.146-1.23-.386-1.674C5.38 8.37 5.035 8 4.5 8c-.315 0-.522.12-.738.277-.217.156-.434.36-.66.602-.45.484-.93 1.128-1.383 1.837C.812 12.134 0 13.747 0 15c0 .337.182.694.47.857.29.162.584.16.875.123.582-.074 1.224-.336 1.87-.64 1.295-.612 2.563-1.43 2.563-1.43.12-.08.2-.205.222-.347 0 0 .007-.076.11-.348.103-.272.296-.7.65-1.296.705-1.19 2.055-3.037 4.605-5.585 2.522-2.52 5.15-4.048 7.272-4.786 1.06-.37 1.996-.55 2.706-.55.738 0 1.167.17 1.327.33.16.16.337.618.33 1.327-.007.71-.18 1.646-.55 2.706-.737 2.12-2.265 4.75-4.785 7.272-2.548 2.55-4.395 3.9-5.584 4.606-.594.354-1.023.547-1.295.65-.272.103-.348.11-.348.11-.142.02-.268.102-.346.222 0 0-.818 1.268-1.43 2.562-.304.647-.566 1.29-.64 1.87-.037.292-.04.585.123.875.163.288.53.47.866.47 1.253 0 2.856-.813 4.273-1.72.71-.452 1.353-.932 1.838-1.383.244-.225.447-.442.603-.66.157-.215.277-.422.277-.737 0-.536-.37-.88-.812-1.12-.443-.24-1.032-.38-1.688-.38-.654 0-.657 1 0 1 .5 0 .942.115 1.21.26.29.168.255.303.204.392-.097.134-.262.314-.473.51-.42.39-1.028.85-1.696 1.277-1.334.85-2.98 1.555-3.73 1.557 0-.017-.02-.068 0-.217.045-.357.267-.966.553-1.57.537-1.137 1.2-2.166 1.284-2.3.098-.024.116-.018.29-.083.33-.126.812-.346 1.45-.726 1.28-.76 3.188-2.16 5.783-4.758 2.622-2.624 4.23-5.368 5.024-7.65.398-1.14.594-2.166.603-3.023.01-.858-.15-1.575-.622-2.048-.473-.473-1.19-.63-2.047-.622z"/></svg>