<svg xmlns="http://www.w3.org/2000/svg" width="24" height="24"><path d="M3.843 14.127l-2.64-2.643L3.866 8.82c.38-.372-.34-1.093-.71-.712L.14 11.128c-.186.186-.186.525 0 .71l2.993 3c.488.49 1.18-.238.71-.71zm15.314 0l2.64-2.643-2.662-2.665c-.38-.373.34-1.094.71-.713l3.016 3.02c.187.186.187.525 0 .71l-2.992 3c-.488.49-1.18-.238-.71-.71zm-10.284 5.03l2.643 2.64 2.665-2.662c.373-.38 1.094.34.713.71l-3.02 3.016c-.186.187-.525.187-.71 0l-3-2.992c-.49-.488.238-1.18.71-.71zM11.5 3c-.277 0-.5.223-.5.5V11H3.5c-.277 0-.5.223-.5.5s.223.5.5.5H11v7.5c0 .277.223.5.5.5s.5-.223.5-.5V12h7.5c.277 0 .5-.223.5-.5s-.223-.5-.5-.5H12V3.5c0-.277-.223-.5-.5-.5zm-2.623.837l2.622-2.63 2.643 2.652c.367.377 1.083-.34.705-.71L11.85.147c-.185-.185-.52-.185-.705 0L8.172 3.13c-.486.485.236 1.176.705.707z"/></svg>