<svg xmlns="http://www.w3.org/2000/svg" width="24" height="24"><path d="M15 .013c-1.1 0-2 .9-2 2 0 1.098.9 2 2 2s2-.902 2-2c0-1.1-.9-2-2-2zm0 1c.558 0 1 .442 1 1s-.442 1-1 1-1-.442-1-1 .442-1 1-1zM13.188 5c-.343 0-.668.063-.97.156-.903.28-1.615.9-2.124 1.5-.68.8-1.03 1.594-1.03 1.594-.287.6.538 1.095.873.406 0 0 .325-.69.907-1.375.4-.47.91-.897 1.5-1.123.235-.09.322.166.344.344.038.325-.094.977-.376 1.78-.563 1.613-1.695 3.86-2.78 6.096-1.086 2.237-2.12 4.463-2.438 6.25-.16.893-.164 1.69.218 2.344.383.65 1.17 1.03 2.157 1.03 1.372 0 2.482-.857 3.25-1.656.763-.8 1.216-1.625 1.216-1.625.295-.513-.548-1.037-.874-.47 0 0-.39.702-1.063 1.405-.32.336-.683.67-1.095.906-.235.137-.415-.046-.437-.31-.03-.32.11-.987.405-1.78.593-1.593 1.747-3.764 2.813-5.97 1.065-2.208 2.056-4.44 2.28-6.22.113-.89.027-1.713-.437-2.344-.462-.63-1.276-.936-2.34-.936zm.343 1c.63.057.984.252 1.19.53.24.33.345.87.25 1.626-.19 1.514-1.133 3.722-2.19 5.906-1.053 2.185-2.207 4.36-2.84 6.063-.32.852-.535 1.577-.47 2.22.022.215.103.434.22.624-.667.1-1.258-.067-1.5-.5-.184-.33-.266-.91-.127-1.69.28-1.557 1.266-3.778 2.344-6 1.078-2.22 2.237-4.454 2.844-6.187.305-.867.5-1.598.407-2.25-.017-.12-.078-.23-.125-.344z"/></svg>