<svg height="24" viewBox="0 0 24 24" width="24" xmlns="http://www.w3.org/2000/svg"><path d="M2.5 0C1.678 0 1 .678 1 1.5V23c0 .21.048.443.188.625s.377.294.593.344c.435.097.866-.045 1.44-.282l8.776-3.625 8.785 3.625c.61.22 1.005.38 1.44.28.215-.05.453-.16.593-.343.14-.182.187-.416.187-.625V1.5c0-.822-.678-1.5-1.5-1.5zm0 1h19c.286 0 .5.214.5.5V23c-.068.016-.34-.01-.78-.22l-9.005-3.718c-.138-.067-.3-.067-.438 0l-8.996 3.72c-.44.207-.712.234-.78.218V1.5c0-.286.214-.5.5-.5zm3 3c-.277 0-.5.223-.5.5s.223.5.5.5h13c.277 0 .5-.223.5-.5s-.223-.5-.5-.5zm0 3c-.277 0-.5.223-.5.5s.223.5.5.5h13c.277 0 .5-.223.5-.5s-.223-.5-.5-.5zm0 3c-.277 0-.5.223-.5.5s.223.5.5.5h13c.277 0 .5-.223.5-.5s-.223-.5-.5-.5z"/></svg>