<svg xmlns="http://www.w3.org/2000/svg" height="24" viewBox="0 0 24 24" width="24"><path d="M8.157 13.15L.64 20.652c-.895.893-.776 2.133-.105 2.81.672.674 1.913.795 2.81-.103l7.49-7.49c.492-.472-.25-1.182-.706-.708l-7.49 7.49c-.58.58-1.07.43-1.396.104-.325-.328-.47-.826.102-1.397l7.518-7.503c.42-.42-.252-1.162-.707-.707zM15.2 2.057c-1.444.194-2.818.91-3.813 2.105-.427.513.326 1.173.77.64 1.663-2 4.57-2.39 6.704-.902.548.382 1.12-.438.574-.82-1.277-.89-2.79-1.218-4.235-1.023zM16 0c-4.412 0-8 3.588-8 8s3.588 8 8 8 8-3.588 8-8-3.588-8-8-8zm0 1c3.872 0 7 3.128 7 7s-3.128 7-7 7-7-3.128-7-7 3.128-7 7-7z" fill="#000"/></svg>