<svg height="24" viewBox="0 0 24 24" width="24" xmlns="http://www.w3.org/2000/svg"><path d="M5 3c-1.1 0-2 .9-2 2s.9 2 2 2 2-.9 2-2-.9-2-2-2zm0 1c.558 0 1 .442 1 1s-.442 1-1 1-1-.442-1-1 .442-1 1-1zm8.5 3c-.11.002-.24.048-.325.118L8.5 10.838 6.848 9.152c-.176-.176-.454-.196-.653-.046L2.2 12.102c-.53.397.106 1.17.6.8l3.7-2.753 1.64 1.706c.18.18.466.196.665.037L13.5 8.177l2.63 2.68c.47.49 1.197-.235.707-.706L13.84 7.156c-.095-.096-.205-.157-.34-.155zm-11 8h14c.277 0 .5.223.5.5s-.223.5-.5.5h-14c-.277 0-.5-.223-.5-.5s.223-.5.5-.5zm-1-15C.678 0 0 .678 0 1.5v16c0 .822.678 1.5 1.5 1.5h16c.822 0 1.5-.678 1.5-1.5v-16c0-.822-.678-1.5-1.5-1.5h-16zm0 1h16c.286 0 .5.214.5.5v16c0 .286-.214.5-.5.5h-16c-.286 0-.5-.214-.5-.5v-16c0-.286.214-.5.5-.5zm19 4c-.342 0-.5.248-.5.5s.166.5.5.5h2c.286 0 .5.214.5.5v16c0 .286-.214.5-.5.5h-16c-.286 0-.5-.214-.5-.5v-2c.005-.338-.248-.5-.5-.5-.256 0-.505.162-.5.5v2c0 .822.678 1.5 1.5 1.5h16c.822 0 1.5-.678 1.5-1.5v-16c0-.822-.678-1.5-1.5-1.5z"/></svg>