<svg xmlns="http://www.w3.org/2000/svg" width="24" height="24"><path d="M.874 13.843l2.644-2.64 2.61 2.64c.453.464 1.202-.235.712-.71L3.873 10.14c-.186-.186-.525-.186-.71 0l-3 2.993c-.49.488.238 1.18.71.71zm22.252-3.686l-2.644 2.64-2.61-2.64c-.453-.464-1.202.234-.712.71l2.967 2.994c.186.187.525.187.71 0l3-2.992c.49-.488-.238-1.18-.71-.71zm-10.75-7.144c-1.17-.047-2.324.142-3.407.53-2.17.78-4.07 2.38-5.127 4.627a.5.5 0 1 0 .906.405c.942-2 2.603-3.4 4.53-4.093 1.93-.693 4.124-.662 6.125.28 2 .944 3.433 2.604 4.125 4.532.174.482.298.992.376 1.5a.506.506 0 1 0 1-.156c-.088-.57-.243-1.146-.437-1.688-.78-2.167-2.38-4.035-4.627-5.093-1.123-.53-2.3-.797-3.47-.844zm-8.907 9.78a.5.5 0 0 0-.377.564c.088.57.243 1.145.437 1.687.78 2.167 2.38 4.035 4.626 5.094 2.246 1.058 4.708 1.122 6.875.344 2.17-.78 4.07-2.41 5.127-4.657a.5.5 0 1 0-.906-.406c-.942 2-2.603 3.43-4.53 4.123-1.93.693-4.124.63-6.125-.312-2-.943-3.433-2.603-4.125-4.53-.174-.483-.298-.96-.376-1.47a.5.5 0 0 0-.625-.437z"/></svg>