<svg height="24" viewBox="0 0 24 24" width="24" xmlns="http://www.w3.org/2000/svg"><path d="M18.567.44c-.585-.586-1.55-.587-2.134-.002l-4.995 4.995c-.585.585-.584 1.55 0 2.134l4.995 4.994c.585.586 1.55.587 2.134.002l4.995-4.995c.585-.585.584-1.55 0-2.134L18.566.44zm-.707.706l4.994 4.994c.205.206.207.514 0 .72l-4.994 4.995c-.206.206-.514.204-.72 0L12.146 6.86c-.205-.206-.206-.514 0-.72l4.994-4.995c.206-.206.514-.204.72 0zM1.5 2C.678 2 0 2.678 0 3.5v7c0 .822.678 1.5 1.5 1.5h7c.822 0 1.5-.678 1.5-1.5v-7C10 2.678 9.322 2 8.5 2h-7zm0 1h7c.286 0 .5.214.5.5v7c0 .286-.214.5-.5.5h-7c-.286 0-.5-.214-.5-.5v-7c0-.286.214-.5.5-.5zm12 11c-.822 0-1.5.678-1.5 1.5v7c0 .822.678 1.5 1.5 1.5h7c.822 0 1.5-.678 1.5-1.5v-7c0-.822-.678-1.5-1.5-1.5h-7zm0 1h7c.286 0 .5.214.5.5v7c0 .286-.214.5-.5.5h-7c-.286 0-.5-.214-.5-.5v-7c0-.286.214-.5.5-.5zm-12-1c-.822 0-1.5.678-1.5 1.5v7c0 .822.678 1.5 1.5 1.5h7c.822 0 1.5-.678 1.5-1.5v-7c0-.822-.678-1.5-1.5-1.5h-7zm0 1h7c.286 0 .5.214.5.5v7c0 .286-.214.5-.5.5h-7c-.286 0-.5-.214-.5-.5v-7c0-.286.214-.5.5-.5z"/></svg>