<svg xmlns="http://www.w3.org/2000/svg" width="24" height="24"><path d="M23.56 6.982a.5.5 0 0 1 .44.53v4a.5.5 0 0 1-.5.5h-4a.5.5 0 1 1 0-1H23v-3.5a.5.5 0 0 1 .56-.53zM10.53 5.17c1.628-.278 3.284-.215 4.875.124 1.59.34 3.103.96 4.47 1.875.682.456 1.345 1 1.936 1.592a.5.5 0 1 1-.716.687c-.544-.547-1.12-1.017-1.75-1.438-1.258-.843-2.688-1.438-4.157-1.75-2.937-.625-6.094-.158-8.812 1.562C3.028 9.944 1 13.604 1 17.514a.5.5 0 1 1-1 0C0 13.26 2.21 9.28 5.842 6.983c1.473-.935 3.06-1.538 4.687-1.815z"/></svg>