<svg xmlns="http://www.w3.org/2000/svg" width="24" height="24"><path d="M14 2.5C14 1.125 12.875 0 11.5 0S9 1.125 9 2.5 10.125 5 11.5 5 14 3.875 14 2.5zm0 9c0-1.375-1.125-2.5-2.5-2.5S9 10.125 9 11.5s1.125 2.5 2.5 2.5 2.5-1.125 2.5-2.5zm0 9c0-1.375-1.125-2.5-2.5-2.5S9 19.125 9 20.5s1.125 2.5 2.5 2.5 2.5-1.125 2.5-2.5zm-1-18c0 .834-.666 1.5-1.5 1.5S10 3.334 10 2.5 10.666 1 11.5 1s1.5.666 1.5 1.5zm0 9c0 .834-.666 1.5-1.5 1.5s-1.5-.666-1.5-1.5.666-1.5 1.5-1.5 1.5.666 1.5 1.5zm0 9c0 .834-.666 1.5-1.5 1.5s-1.5-.666-1.5-1.5.666-1.5 1.5-1.5 1.5.666 1.5 1.5z"/></svg>