<svg height="24" viewBox="0 0 24 24" width="24" xmlns="http://www.w3.org/2000/svg"><path d="M14.142 11.152L12.5 12.794l-1.643-1.642c-.44-.452-1.16.264-.706.705l1.644 1.643-1.643 1.642c-.457.445.245 1.167.707.705l1.642-1.642 1.643 1.644c.458.456 1.168-.258.706-.707L13.204 13.5l1.642-1.643c.202-.195.203-.52.003-.713-.2-.195-.516-.19-.708.008zM1.5 3C.678 3 0 3.678 0 4.5v15c0 .822.678 1.5 1.5 1.5h21c.822 0 1.5-.678 1.5-1.5v-15c0-.822-.678-1.5-1.5-1.5zm0 1h21c.286 0 .5.214.5.5v15c0 .286-.214.5-.5.5h-21c-.286 0-.5-.214-.5-.5v-15c0-.286.214-.5.5-.5zm1 1c-.276 0-.5.224-.5.5s.224.5.5.5.5-.224.5-.5-.224-.5-.5-.5zm2 0c-.276 0-.5.224-.5.5s.224.5.5.5.5-.224.5-.5-.224-.5-.5-.5zm2 0c-.276 0-.5.224-.5.5s.224.5.5.5.5-.224.5-.5-.224-.5-.5-.5zm-4 2c-.277 0-.5.223-.5.5s.223.5.5.5h19c.277 0 .5-.223.5-.5s-.223-.5-.5-.5z"/></svg>