<svg height="24" viewBox="0 0 24 24" width="24" xmlns="http://www.w3.org/2000/svg"><path d="M1.5 0C.678 0 0 .678 0 1.5v21c0 .822.678 1.5 1.5 1.5h21c.822 0 1.5-.678 1.5-1.5v-21c0-.822-.678-1.5-1.5-1.5zm0 1h21c.286 0 .5.214.5.5v21c0 .286-.214.5-.5.5h-21c-.286 0-.5-.214-.5-.5v-21c0-.286.214-.5.5-.5zM8 5.5v12c0 .262.238.5.5.5h3c1.085 0 2.2-.256 3.063-.906C15.425 16.444 16 15.374 16 14c0-1.402-.594-2.176-.906-2.53.296-.382.906-1.126.906-2.47 0-1.368-.658-2.41-1.5-3.063S12.585 5 11.5 5h-3c-.365 0-.5.216-.5.5zM9 6c.278.002.832 0 2.5 0 .915 0 1.792.242 2.406.72C14.52 7.195 15 7.89 15 9c0 1.398-.844 2.156-.844 2.156-.192.186-.192.533 0 .72 0 0 .844.745.844 2.124 0 1.105-.425 1.8-1.063 2.28-.637.48-1.522.72-2.437.72-1.668 0-2.222-.002-2.5 0zm1 1.5v3c0 .262.238.5.5.5H12c.45 0 .917-.137 1.313-.47.395-.33.687-.873.687-1.53 0-.653-.293-1.2-.688-1.53C12.918 7.136 12.45 7 12 7h-1.5c-.312 0-.5.172-.5.5zm1 .5h1c.223 0 .5.092.688.25.187.158.312.36.312.75 0 .4-.128.595-.313.75-.184.155-.454.25-.687.25h-1zm-1 4.5v3c0 .262.238.5.5.5H12c.45 0 .918-.137 1.313-.47.394-.33.687-.877.687-1.53 0-.657-.292-1.2-.688-1.53-.395-.333-.862-.47-1.312-.47h-1.5c-.3 0-.5.22-.5.5zm1 .5h1c.233 0 .503.095.688.25.184.155.312.35.312.75 0 .39-.125.592-.313.75-.187.158-.464.25-.687.25h-1z"/></svg>