<svg height="24" viewBox="0 0 24 24" width="24" xmlns="http://www.w3.org/2000/svg"><path d="M6.5 4C5.125 4 4 5.125 4 6.5S5.125 9 6.5 9 9 7.875 9 6.5 7.875 4 6.5 4zm0 1C7.334 5 8 5.666 8 6.5S7.334 8 6.5 8 5 7.334 5 6.5 5.666 5 6.5 5zm10 4c-.117.002-.245.045-.333.12L9.5 14.807 6.862 12.14c-.195-.195-.51-.195-.706 0l-3.993 3.99c-.49.472.236 1.197.706.707l3.63-3.633 2.65 2.635c.186.184.482.195.68.024l6.67-5.685 4.63 4.66c.47.49 1.197-.234.707-.704l-4.992-4.99c-.095-.095-.21-.148-.345-.146zm-14 10h19c.277 0 .5.223.5.5s-.223.5-.5.5h-19c-.277 0-.5-.223-.5-.5s.223-.5.5-.5zm-1-19C.678 0 0 .678 0 1.5v21c0 .822.678 1.5 1.5 1.5h21c.822 0 1.5-.678 1.5-1.5v-21c0-.822-.678-1.5-1.5-1.5h-21zm0 1h21c.286 0 .5.214.5.5v21c0 .286-.214.5-.5.5h-21c-.286 0-.5-.214-.5-.5v-21c0-.286.214-.5.5-.5z"/></svg>