<svg height="24" viewBox="0 0 24 24" width="24" xmlns="http://www.w3.org/2000/svg"><path d="M6.5 4C5.124 4 4 5.124 4 6.5v.61l-3.62.906C.156 8.07 0 8.27 0 8.5v7c0 .23.157.43.38.484L4 16.89v.61C4 18.876 5.124 20 6.5 20h11c1.376 0 2.5-1.124 2.5-2.5v-.61l3.62-.904c.223-.055.38-.255.38-.484v-7c0-.23-.157-.43-.38-.484L20 7.113V6.5C20 5.124 18.876 4 17.5 4zm0 1h11c.84 0 1.5.66 1.5 1.5v11c0 .84-.66 1.5-1.5 1.5h-11c-.84 0-1.5-.66-1.5-1.5v-11C5 5.66 5.66 5 6.5 5zM4 8.14v7.72l-3-.75V8.89zm16 .003l3 .75v6.218l-3 .75zM10 15a1 1 0 0 1-1 1 1 1 0 0 1-1-1 1 1 0 0 1 1-1 1 1 0 0 1 1 1zm6 0a1 1 0 0 1-1 1 1 1 0 0 1-1-1 1 1 0 0 1 1-1 1 1 0 0 1 1 1zm0-6a1 1 0 0 1-1 1 1 1 0 0 1-1-1 1 1 0 0 1 1-1 1 1 0 0 1 1 1zm-6 0a1 1 0 0 1-1 1 1 1 0 0 1-1-1 1 1 0 0 1 1-1 1 1 0 0 1 1 1zm.5-1.5c0 .823.677 1.5 1.5 1.5s1.5-.677 1.5-1.5S12.823 6 12 6s-1.5.677-1.5 1.5zm1 0c0-.282.218-.5.5-.5.282 0 .5.218.5.5 0 .282-.218.5-.5.5-.282 0-.5-.218-.5-.5zm-1 9c0 .823.677 1.5 1.5 1.5s1.5-.677 1.5-1.5S12.823 15 12 15s-1.5.677-1.5 1.5zm1 0c0-.282.218-.5.5-.5.282 0 .5.218.5.5 0 .282-.218.5-.5.5-.282 0-.5-.218-.5-.5zm5-6c-.823 0-1.5.677-1.5 1.5s.677 1.5 1.5 1.5S18 12.823 18 12s-.677-1.5-1.5-1.5zm0 1c.282 0 .5.218.5.5 0 .282-.218.5-.5.5-.282 0-.5-.218-.5-.5 0-.282.218-.5.5-.5zm-9-1c-.823 0-1.5.677-1.5 1.5s.677 1.5 1.5 1.5S9 12.823 9 12s-.677-1.5-1.5-1.5zm0 1c.282 0 .5.218.5.5 0 .282-.218.5-.5.5-.282 0-.5-.218-.5-.5 0-.282.218-.5.5-.5zM12 10c-1.1 0-2 .9-2 2s.9 2 2 2 2-.9 2-2-.9-2-2-2zm0 1c.558 0 1 .442 1 1s-.442 1-1 1-1-.442-1-1 .442-1 1-1z"/></svg>