<svg xmlns="http://www.w3.org/2000/svg" width="24" height="24"><path style="text-indent:0;text-align:start;line-height:normal;text-transform:none;block-progression:tb;-inkscape-font-specification:Sans" d="M14.975 22.33l-1-2.923c-.19-.693-1.174-.44-.94.304l1.002 2.924c.17.624 1.13.4.938-.304zm-5.95 0l1-2.923c.19-.693 1.174-.44.94.304l-1.002 2.924c-.17.624-1.13.4-.938-.304zm5.95-20.66l-1 2.923c-.19.693-1.174.44-.94-.305l1.002-2.922c.17-.624 1.13-.402.938.304zM18 6c3.315 0 6 2.685 6 6s-2.685 6-6 6h-2.5c-.66 0-.666-1 0-1H18c2.78 0 5-2.22 5-5s-2.22-5-5-5h-2.5c-.68 0-.655-1 0-1zM9.025 1.67l1 2.923c.19.693 1.174.44.94-.304L9.962 1.365c-.17-.624-1.13-.4-.938.304zM6 6c-3.315 0-6 2.685-6 6s2.685 6 6 6h2.5c.66 0 .666-1 0-1H6c-2.78 0-5-2.22-5-5s2.22-5 5-5h2.5c.68 0 .655-1 0-1z" color="#000" overflow="visible" font-family="Sans"/></svg>