<svg xmlns="http://www.w3.org/2000/svg" width="24" height="24"><path d="M5 .506V23.5c0 .262.238.5.5.5H12c4.405 0 8-3.334 8-7.5 0-2.26-1.14-4.218-2.812-5.588C18.242 9.742 19 8.192 19 6.5 19 2.908 16.092 0 12.5 0h-7c-.348 0-.5.222-.5.506zM6 1h6.5C15.556 1 18 3.444 18 6.5c0 1.54-.744 3.064-1.78 4.07-.22.203-.188.613.062.78 1.667 1.192 2.72 3.047 2.72 5.15 0 3.59-3.097 6.496-7.002 6.5H6zm2 11.5v8c0 .262.238.5.5.5h4c2.484 0 4.5-2.016 4.5-4.5S14.984 12 12.5 12h-4c-.33 0-.5.23-.5.5zm1 .5h3.5c1.948 0 3.5 1.552 3.5 3.5S14.448 20 12.5 20H9zM8 3.5v6c0 .262.238.5.5.5h3.75C14.3 10 16 8.453 16 6.5S14.3 3 12.25 3H8.5c-.31 0-.5.238-.5.5zM9 4h3.25C13.804 4 15 5.13 15 6.5S13.803 9 12.25 9H9z"/></svg>