<svg height="24" viewBox="0 0 24 24" width="24" xmlns="http://www.w3.org/2000/svg"><path d="M4.5 3C3.677 3 3 3.677 3 4.5S3.677 6 4.5 6 6 5.323 6 4.5 5.323 3 4.5 3zm0 1c.282 0 .5.218.5.5 0 .282-.218.5-.5.5-.282 0-.5-.218-.5-.5 0-.282.218-.5.5-.5zm2-4C2.916 0 0 2.916 0 6.5S2.916 13 6.5 13c.784 0 1.6-.207 2.328-.465l11.318 11.32A.5.5 0 0 0 20.5 24h3a.5.5 0 0 0 .5-.5v-3a.5.5 0 0 0-.146-.354l-2-2A.5.5 0 0 0 21.5 18H21v-.5a.5.5 0 0 0-.146-.354l-2-2A.5.5 0 0 0 18.5 15H17v-1.5a.5.5 0 0 0-.146-.354l-2-2A.5.5 0 0 0 14.5 11H14v-.5a.5.5 0 0 0-.146-.354l-1.32-1.318C12.795 8.1 13 7.284 13 6.5 13 2.916 10.084 0 6.5 0zm0 1C9.543 1 12 3.457 12 6.5c0 .75-.19 1.662-.46 2.305a.5.5 0 0 0 .106.55L13 10.706v.793a.5.5 0 0 0 .5.5h.793L16 13.707V15.5a.5.5 0 0 0 .5.5h1.793L20 17.707v.793a.5.5 0 0 0 .5.5h.793L23 20.707V23h-2.293L9.354 11.646a.5.5 0 0 0-.55-.107c-.642.27-1.555.46-2.304.46C3.457 12 1 9.543 1 6.5S3.457 1 6.5 1z"/></svg>