<svg xmlns="http://www.w3.org/2000/svg" viewBox="0 0 24 24" width="24" height="24"><path d="M19.243 19.727c-.24.14-.545.057-.683-.183l-1-1.732c-.14-.24-.057-.544.183-.683.24-.14.544-.06.683.18l1 1.733c.138.24.057.545-.183.683zm3.477-3.477c-.138.24-.443.322-.683.183l-1.732-1c-.24-.138-.32-.443-.183-.683.14-.24.443-.322.683-.183l1.732 1c.24.138.322.443.183.683zm0-9.5c.14.24.057.545-.183.683l-1.732 1c-.24.14-.544.057-.683-.183-.138-.24-.057-.545.183-.683l1.732-1c.24-.14.545-.057.683.183zm-3.477-3.477c.24.138.32.443.183.683l-1 1.732c-.14.24-.443.32-.683.183-.24-.137-.322-.44-.183-.68l1-1.733c.138-.24.443-.322.683-.183zM24 11.5c0 .277-.223.5-.5.5h-2c-.277 0-.5-.223-.5-.5s.223-.5.5-.5h2c.277 0 .5.223.5.5zM14.5 18c.277 0 .5.223.5.5v2c0 .277-.223.5-.5.5s-.5-.223-.5-.5v-2c0-.277.223-.5.5-.5zm0-16c.277 0 .5.223.5.5v2c0 .277-.223.5-.5.5s-.5-.223-.5-.5v-2c0-.277.223-.5.5-.5zm0 4c-.637 0-.672 1 0 1 2.487 0 4.5 2.008 4.5 4.5S16.987 16 14.5 16c-.645 0-.672 1 0 1 3.028 0 5.5-2.47 5.5-5.5S17.528 6 14.5 6zM7 19c0 .552-.448 1-1 1s-1-.448-1-1 .448-1 1-1 1 .448 1 1zM4.5 5h3c.277 0 .5-.223.5-.5S7.777 4 7.5 4h-3c-.277 0-.5.223-.5.5s.223.5.5.5zm-3-3C.678 2 0 2.678 0 3.5v17c0 .822.678 1.5 1.5 1.5h9c.822 0 1.5-.678 1.5-1.5v-17c0-.822-.678-1.5-1.5-1.5zm0 1h9c.286 0 .5.214.5.5v17c0 .286-.214.5-.5.5h-9c-.286 0-.5-.214-.5-.5v-17c0-.286.214-.5.5-.5z"/></svg>