<svg height="24" viewBox="0 0 24 24" width="24" xmlns="http://www.w3.org/2000/svg"><path d="M14.5 2c-.13.002-.262.055-.354.147l-2.644 2.64-1.645-1.642c-.195-.194-.51-.194-.705 0L7.154 5.14c-.474.424.278 1.183.705.706l1.644-1.643 1.646 1.643c.195.194.51.194.705 0l2.645-2.64 2.645 2.64c.194.194.51.194.705 0l1.65-1.643 1.64 1.643c.43.48 1.182-.28.706-.705l-1.998-1.995c-.195-.194-.51-.194-.705 0L17.5 4.787l-2.646-2.64c-.096-.096-.22-.15-.354-.147zM.5 4c-.338-.005-.5.248-.5.5s.162.505.5.5h2.602l2.41 10.61c.002.008.003.014.006.02.085.318.217.636.455.903C6.21 16.8 6.583 17 7 17h13.463c.418 0 .79-.204 1.025-.47.235-.268.366-.58.455-.89l2.016-7c.134-.47-.08-.934-.378-1.208C23.284 7.158 22.918 7 22.5 7h-16c-.338-.005-.5.248-.5.5s.162.505.5.5h15.98c.353 0 .568.174.518.36l-2.016 7c-.124.465-.285.64-.52.64H7c-.352 0-.423-.28-.516-.625L3.988 4.39C3.936 4.16 3.734 4 3.5 4zm7 6c-.277 0-.5.223-.5.5s.223.5.5.5h13c.277 0 .5-.223.5-.5s-.223-.5-.5-.5zm1 3c-.277 0-.5.223-.5.5s.223.5.5.5h11c.277 0 .5-.223.5-.5s-.223-.5-.5-.5zM8 18c-1.1 0-2 .9-2 2s.9 2 2 2 2-.9 2-2-.9-2-2-2zm11 0c-1.1 0-2 .9-2 2s.9 2 2 2 2-.9 2-2-.9-2-2-2zM8 19c.558 0 1 .442 1 1s-.442 1-1 1-1-.442-1-1 .442-1 1-1zm11 0c.558 0 1 .442 1 1s-.442 1-1 1-1-.442-1-1 .442-1 1-1z"/></svg>