<svg height="24" viewBox="0 0 24 24" width="24" xmlns="http://www.w3.org/2000/svg"><path d="M8.5 12C7.125 12 6 13.125 6 14.5c0 .77.406 1.445 1 1.914V18.5c0 .822.678 1.5 1.5 1.5s1.5-.678 1.5-1.5v-2.088c.594-.47 1-1.143 1-1.912 0-1.375-1.125-2.5-2.5-2.5zm0 1c.834 0 1.5.666 1.5 1.5 0 .536-.286 1.027-.75 1.295a.5.5 0 0 0-.25.434v2.27c0 .286-.214.5-.5.5-.286 0-.5-.214-.5-.5v-2.27a.5.5 0 0 0-.25-.433C7.286 15.53 7 15.037 7 14.5c0-.834.666-1.5 1.5-1.5zM18 1c-3.308 0-6 2.692-6 6v.5c-.005.338.248.5.5.5s.505-.162.5-.5V7c0-2.767 2.233-5 5-5s5 2.233 5 5v.5c-.005.338.248.5.5.5s.505-.162.5-.5V7c0-3.308-2.692-6-6-6zM1.5 9C.678 9 0 9.678 0 10.5v11c0 .822.678 1.5 1.5 1.5h14c.822 0 1.5-.678 1.5-1.5v-11c0-.822-.678-1.5-1.5-1.5h-14zm0 1h14c.286 0 .5.214.5.5v11c0 .286-.214.5-.5.5h-14c-.286 0-.5-.214-.5-.5v-11c0-.286.214-.5.5-.5z"/></svg>