<svg height="24" viewBox="0 0 24 24" width="24" xmlns="http://www.w3.org/2000/svg"><path d="M10.5 15c-.822 0-1.5.678-1.5 1.5s.678 1.5 1.5 1.5 1.5-.678 1.5-1.5-.678-1.5-1.5-1.5zm0 1c.286 0 .5.214.5.5 0 .286-.214.5-.5.5-.286 0-.5-.214-.5-.5 0-.286.214-.5.5-.5zm0-7C9.678 9 9 9.678 9 10.5s.678 1.5 1.5 1.5 1.5-.678 1.5-1.5S11.322 9 10.5 9zm0 1c.286 0 .5.214.5.5 0 .286-.214.5-.5.5-.286 0-.5-.214-.5-.5 0-.286.214-.5.5-.5zM20 2c-1.1 0-2 .9-2 2s.9 2 2 2 2-.9 2-2-.9-2-2-2zm0 1c.558 0 1 .442 1 1s-.442 1-1 1-1-.442-1-1 .442-1 1-1zm-6-3c-.547 0-1.415-.095-2.033.523L.44 12.047c-.587.59-.587 1.56 0 2.148l9.365 9.364c.588.587 1.56.587 2.148 0l11.524-11.527c.618-.618.517-1.482.517-2.03L24 .5c0-.276-.224-.5-.5-.5zm0 1h9l-.006 9.004c0 .58-.045 1.142-.225 1.322L11.245 22.852c-.21.21-.525.21-.734 0l-9.364-9.364c-.21-.21-.21-.525 0-.734L12.674 1.23c.18-.18.752-.23 1.326-.23zM6.5 13h8c.277 0 .5.223.5.5s-.223.5-.5.5h-8c-.277 0-.5-.223-.5-.5s.223-.5.5-.5z"/></svg>