<svg height="24" viewBox="0 0 24 24" width="24" xmlns="http://www.w3.org/2000/svg"><path d="M11.5 8a.504.506 0 0 0-.087.006c-1.76.258-3.147 1.648-3.408 3.413a.505.506 0 1 0 1 .147c.195-1.327 1.23-2.365 2.554-2.56A.504.506 0 0 0 11.5 8zm.5-2c-3.308 0-6 2.692-6 6s2.692 6 6 6 6-2.692 6-6-2.692-6-6-6zm0 1c2.767 0 5 2.233 5 5s-2.233 5-5 5-5-2.233-5-5 2.233-5 5-5zm0-3c-2.52 0-5.028.745-7.14 2.12C2.75 7.5 1.06 9.494.044 11.8l-.09.2.09.2c1.016 2.307 2.708 4.302 4.818 5.68C6.973 19.254 9.48 20 12 20c2.52 0 5.028-.745 7.14-2.12 2.11-1.378 3.8-3.373 4.817-5.68l.09-.2-.09-.2C22.94 9.492 21.25 7.497 19.14 6.12 17.027 4.746 14.52 4 12 4zm0 1c2.322 0 4.647.69 6.592 1.96C20.47 8.183 21.97 9.966 22.916 12c-.946 2.033-2.446 3.816-4.324 5.04C16.647 18.31 14.322 19 12 19s-4.647-.69-6.592-1.96C3.53 15.817 2.03 14.034 1.084 12 2.03 9.967 3.53 8.184 5.408 6.96 7.353 5.69 9.678 5 12 5z"/></svg>