<svg height="24" viewBox="0 0 24 24" width="24" xmlns="http://www.w3.org/2000/svg"><path d="M12 4c-1.65 0-3 1.35-3 3s1.35 3 3 3 3-1.35 3-3-1.35-3-3-3zm0 1c1.11 0 2 .89 2 2 0 1.11-.89 2-2 2-1.11 0-2-.89-2-2 0-1.11.89-2 2-2zm0-5C8.14 0 5 3.14 5 7c0 2.453 1.432 5.122 2.963 7.23.765 1.055 1.563 1.963 2.246 2.622.34.33.653.595.933.79.28.196.484.358.857.358s.578-.162.857-.357c.28-.196.592-.462.934-.79.684-.66 1.482-1.568 2.247-2.623C17.567 12.122 19 9.453 19 7c0-3.86-3.14-7-7-7zm0 1c3.32 0 6 2.68 6 6 0 2.047-1.31 4.628-2.773 6.645-.733 1.008-1.5 1.88-2.13 2.488-.315.304-.61.526-.812.69-.198.162-.38.16-.57 0-.2-.167-.497-.386-.813-.69-.63-.608-1.396-1.48-2.13-2.488C7.31 11.628 6 9.047 6 7c0-3.32 2.68-6 6-6zM3.5 9c-.238 0-.46.188-.494.424l-2 13c-.07.45.123.872.41 1.144.287.273.67.432 1.084.432h19c.413 0 .797-.16 1.084-.432.287-.272.48-.694.41-1.144L21 9.5c-.05-.36-.26-.5-.5-.5-.444 0-.52.404-.488.592l1.994 12.984c.064.336-.072.424-.506.424h-19c-.4 0-.552-.087-.506-.424l2-13C4.022 9.41 3.938 9 3.5 9z"/></svg>