<svg height="24" viewBox="0 0 24 24" width="24" xmlns="http://www.w3.org/2000/svg"><path d="M.5 3c-.338-.005-.5.248-.5.5s.162.505.5.5h2.602l2.41 10.61c.002.008.003.014.006.02.085.318.217.636.455.903C6.21 15.8 6.583 16 7 16h12c.413 0 .788-.186 1.04-.455.25-.27.395-.608.454-.963l.5-3c.11-.66-.88-.823-.988-.164l-.5 3c-.065.39-.255.582-.506.582H7c-.375-.01-.44-.34-.516-.625L3.988 3.39C3.936 3.16 3.734 3 3.5 3zm20 0C18.573 3 17 4.573 17 6.5s1.573 3.5 3.5 3.5S24 8.427 24 6.5 22.427 3 20.5 3zm0 1C21.887 4 23 5.113 23 6.5S21.887 9 20.5 9 18 7.887 18 6.5 19.113 4 20.5 4zm0 1c-.277 0-.5.223-.5.5V6h-.5c-.277 0-.5.223-.5.5s.223.5.5.5h.5v.5c0 .277.223.5.5.5s.5-.223.5-.5V7h.5c.277 0 .5-.223.5-.5s-.223-.5-.5-.5H21v-.5c0-.277-.223-.5-.5-.5zm-14 1c-.277 0-.5.223-.5.5s.223.5.5.5h9c.277 0 .5-.223.5-.5s-.223-.5-.5-.5zm1 3c-.277 0-.5.223-.5.5s.223.5.5.5h9c.277 0 .5-.223.5-.5s-.223-.5-.5-.5zm1 3c-.277 0-.5.223-.5.5s.223.5.5.5h9c.277 0 .5-.223.5-.5s-.223-.5-.5-.5zM8 17c-1.1 0-2 .9-2 2s.9 2 2 2 2-.9 2-2-.9-2-2-2zm9 0c-1.1 0-2 .9-2 2s.9 2 2 2 2-.9 2-2-.9-2-2-2zm-9 1c.558 0 1 .442 1 1s-.442 1-1 1-1-.442-1-1 .442-1 1-1zm9 0c.558 0 1 .442 1 1s-.442 1-1 1-1-.442-1-1 .442-1 1-1z"/></svg>