<svg height="24" viewBox="0 0 24 24" width="24" xmlns="http://www.w3.org/2000/svg"><path d="M4.5 16c.446 0 .656-.55.354-.854L1.207 11.5l3.647-3.646c.446-.43-.286-1.146-.708-.708l-4 4c-.195.196-.195.512 0 .708l4 4c.095.097.22.146.354.146zm9-4h-10c-.277 0-.5-.223-.5-.5s.223-.5.5-.5h10c.277 0 .5.223.5.5s-.223.5-.5.5zm-6-12C6.678 0 6 .678 6 1.5v5c0 .665 1 .657 1 0v-5c0-.286.214-.5.5-.5h15c.286 0 .5.214.5.5v21c0 .286-.214.5-.5.5h-15c-.286 0-.5-.214-.5-.5v-6c0-.668-1-.653-1 0v6c0 .822.678 1.5 1.5 1.5h15c.822 0 1.5-.678 1.5-1.5v-21c0-.822-.678-1.5-1.5-1.5z"/></svg>