<svg height="24" viewBox="0 0 24 24" width="24" xmlns="http://www.w3.org/2000/svg"><path d="M4.5 3C3.678 3 3 3.678 3 4.5v18c0 .822.678 1.5 1.5 1.5h12c.822 0 1.5-.678 1.5-1.5.005-.338-.248-.5-.5-.5s-.505.162-.5.5c0 .286-.214.5-.5.5h-12c-.286 0-.5-.214-.5-.5v-18c0-.286.214-.5.5-.5.34.005.502-.25.5-.5-.002-.25-.167-.5-.5-.5zm11-1c-.28.002-.5.22-.5.5v2c0 .822.678 1.5 1.5 1.5h2c.338.005.5-.248.5-.5s-.162-.505-.5-.5h-2c-.286 0-.5-.214-.5-.5v-2c0-.282-.22-.502-.5-.5zm-8-2C6.678 0 6 .678 6 1.5v18c0 .822.678 1.5 1.5 1.5h12c.822 0 1.5-.678 1.5-1.5v-14c0-.133-.053-.26-.146-.354l-5-5C15.76.053 15.634 0 15.5 0zm0 1h7.793L20 5.707V19.5c0 .286-.214.5-.5.5h-12c-.286 0-.5-.214-.5-.5v-18c0-.286.214-.5.5-.5z"/></svg>