<svg height="24" viewBox="0 0 24 24" width="24" xmlns="http://www.w3.org/2000/svg"><path d="M11 14.5c0 .276-.224.5-.5.5s-.5-.224-.5-.5.224-.5.5-.5.5.224.5.5zm7.5-4.5h2c.277 0 .5.223.5.5s-.223.5-.5.5h-2c-.277 0-.5-.223-.5-.5s.223-.5.5-.5zm1.5 9.5c0 .276-.224.5-.5.5s-.5-.224-.5-.5.224-.5.5-.5.5.224.5.5zM16.5 8c-.822 0-1.5.678-1.5 1.5v11c0 .822.678 1.5 1.5 1.5h6c.822 0 1.5-.678 1.5-1.5v-11c0-.822-.678-1.5-1.5-1.5zm0 1h6c.286 0 .5.214.5.5v11c0 .286-.214.5-.5.5h-6c-.286 0-.5-.214-.5-.5v-11c0-.286.214-.5.5-.5zm-15-7C.678 2 0 2.678 0 3.5v12c0 .822.678 1.5 1.5 1.5H9v2H7.5c-.277 0-.5.218-.5.5 0 .282.223.5.5.5h6c.277 0 .5-.218.5-.5 0-.282-.223-.5-.5-.5H12v-2h1.5c.676.01.676-1.01 0-1h-12c-.286 0-.5-.214-.5-.5V13h12.5c.277 0 .5-.223.5-.5s-.223-.5-.5-.5H1V3.5c0-.286.214-.5.5-.5h18c.286 0 .5.214.5.5v3c-.01.676 1.01.676 1 0v-3c0-.822-.678-1.5-1.5-1.5zM10 17h1v2h-1z"/></svg>