<svg height="24" viewBox="0 0 24 24" width="24" xmlns="http://www.w3.org/2000/svg"><path d="M19.72 1.06c-.246-.123-.54-.03-.664.216l-2.003 4c-.123.248-.024.547.222.67.247.125.546.025.67-.222l2.002-4c.12-.24.02-.54-.226-.663zm-15.44 0c.246-.123.54-.03.664.216l2.003 4c.123.248.024.547-.222.67-.247.125-.546.025-.67-.222l-2.002-4c-.116-.232-.02-.54.226-.663zM12 6C6.278 6 1.557 9.663.094 14.844-.223 16.268.356 17 1.687 17h20.625c1.332 0 1.91-.732 1.594-2.156C22.443 9.664 17.722 6 12 6zm0 1c5.253 0 9.635 3.36 10.97 8.125.156.586.035.875-.657.875H1.688c-.693 0-.814-.29-.657-.875C2.366 10.36 6.748 7 12 7zM1.5 18c-.822 0-1.5.678-1.5 1.5v2c0 .822.678 1.5 1.5 1.5h21c.822 0 1.5-.678 1.5-1.5v-2c0-.822-.678-1.5-1.5-1.5zm0 1h21c.286 0 .5.214.5.5v2c0 .286-.214.5-.5.5h-21c-.286 0-.5-.214-.5-.5v-2c0-.286.214-.5.5-.5zm15-9c-.822 0-1.5.678-1.5 1.5v2c0 .822.678 1.5 1.5 1.5s1.5-.678 1.5-1.5v-2c0-.822-.678-1.5-1.5-1.5zm0 1c.286 0 .5.214.5.5v2c0 .286-.214.5-.5.5-.286 0-.5-.214-.5-.5v-2c0-.286.214-.5.5-.5zm-9-1c-.822 0-1.5.678-1.5 1.5v2c0 .822.678 1.5 1.5 1.5S9 14.322 9 13.5v-2c0-.822-.678-1.5-1.5-1.5zm0 1c.286 0 .5.214.5.5v2c0 .286-.214.5-.5.5-.286 0-.5-.214-.5-.5v-2c0-.286.214-.5.5-.5z"/></svg>