<svg height="24" viewBox="0 0 24 24" width="24" xmlns="http://www.w3.org/2000/svg"><path d="M17.5 1c-.276 0-.5.235-.5.5V5c-1.443.103-2.49.403-3.98 1.77-1.488 1.37-2.023 3.85-2.02 5.73 0 .582.83.69.982.13.487-1.816 1.817-2.695 3.092-3.16 1.012-.372 1.584-.358 1.926-.374V12.5c0 .435.517.663.838.37l6-5.5c.217-.2.217-.54 0-.74l-6-5.5c-.1-.09-.203-.138-.338-.13zm.5 1.637L22.76 7 18 11.363V8.5c0-.276-.224-.5-.5-.5 0 0-1.312-.002-2.77.53-.807.297-1.632.84-2.35 1.577.302-1.09.577-1.857 1.35-2.628C14.5 6.706 16.11 6 17.5 6c.276 0 .5-.224.5-.5zM1.5 6C.678 6 0 6.678 0 7.5v14c0 .822.678 1.5 1.5 1.5h20c.822 0 1.5-.678 1.5-1.5v-9c.01-.676-1.01-.676-1 0v9c0 .286-.214.5-.5.5h-20c-.286 0-.5-.214-.5-.5v-14c0-.286.214-.5.5-.5h9c.684 0 .637-1 0-1z"/></svg>