<svg height="24" viewBox="0 0 24 24" width="24" xmlns="http://www.w3.org/2000/svg"><path d="M17.5 12c.277 0 .5.223.5.5v6c0 .277-.223.5-.5.5s-.5-.223-.5-.5v-6c0-.277.223-.5.5-.5zm-12 0c.277 0 .5.223.5.5v6c0 .277-.223.5-.5.5s-.5-.223-.5-.5v-6c0-.277.223-.5.5-.5zm6-6c.277 0 .5.223.5.5v6c0 .277-.223.5-.5.5s-.5-.223-.5-.5v-6c0-.277.223-.5.5-.5zm4.5 4.5c0-.277.223-.5.5-.5h2c.277 0 .5.223.5.5s-.223.5-.5.5h-2c-.277 0-.5-.223-.5-.5zm-6 4c0-.277.223-.5.5-.5h2c.277 0 .5.223.5.5s-.223.5-.5.5h-2c-.277 0-.5-.223-.5-.5zm-6-4c0-.277.223-.5.5-.5h2c.277 0 .5.223.5.5s-.223.5-.5.5h-2c-.277 0-.5-.223-.5-.5zm7.5 5.5c.277 0 .5.223.5.5v2c0 .277-.223.5-.5.5s-.5-.223-.5-.5v-2c0-.277.223-.5.5-.5zm6-10c.277 0 .5.223.5.5v2c0 .277-.223.5-.5.5s-.5-.223-.5-.5v-2c0-.277.223-.5.5-.5zm-12 0c.277 0 .5.223.5.5v2c0 .277-.223.5-.5.5S5 8.777 5 8.5v-2c0-.277.223-.5.5-.5zm-4-6C.678 0 0 .678 0 1.5v21c0 .822.678 1.5 1.5 1.5h20c.822 0 1.5-.678 1.5-1.5v-21c0-.822-.678-1.5-1.5-1.5h-20zm0 1h20c.286 0 .5.214.5.5v21c0 .286-.214.5-.5.5h-20c-.286 0-.5-.214-.5-.5v-21c0-.286.214-.5.5-.5z"/></svg>