<svg height="24" viewBox="0 0 24 24" width="24" xmlns="http://www.w3.org/2000/svg"><path d="M6.5 18c-.675 0-1.252.444-1.438 1.063l-2.656.437c-.24.046-.41.257-.406.5v2c-.004.243.167.454.406.5l2.656.438C5.248 23.555 5.825 24 6.5 24h3c.675 0 1.252-.444 1.438-1.063l2.656-.437c.24-.046.41-.257.406-.5v-2c.004-.243-.167-.454-.406-.5l-2.656-.438C10.752 18.445 10.175 18 9.5 18zm0 1h3c.286 0 .5.214.5.5v3c0 .286-.214.5-.5.5h-3c-.286 0-.5-.214-.5-.5v-3c0-.286.214-.5.5-.5zM5 20.094v1.812l-2-.343v-1.125zm6 0l2 .343v1.125l-2 .344zM1.5 1C.678 1 0 1.678 0 2.5v12c0 .822.678 1.5 1.5 1.5h11.993c.264.004.507-.236.507-.5s-.243-.504-.507-.5H1.5c-.286 0-.5-.214-.5-.5v-12c0-.286.214-.5.5-.5h19c.286 0 .5.214.5.5v5c-.004.264.236.496.5.496s.504-.232.5-.496v-5c0-.822-.678-1.5-1.5-1.5zM4 4v9c0 .576.405 1 1 1h8.5c.264.004.507-.236.507-.5s-.243-.504-.507-.5H5V4h14v3.5c-.004.264.236.504.5.504s.504-.24.5-.504V4c0-.62-.445-1-1-1H5c-.565 0-1 .42-1 1zm15.5 17c.277 0 .5.223.5.5s-.223.5-.5.5-.5-.223-.5-.5.223-.5.5-.5zm-1-10h2c.277 0 .5.223.5.5s-.223.5-.5.5h-2c-.277 0-.5-.223-.5-.5s.223-.5.5-.5zm-2-2c-.822 0-1.5.678-1.5 1.5v12c0 .822.678 1.5 1.5 1.5h6c.822 0 1.5-.678 1.5-1.5v-12c0-.822-.678-1.5-1.5-1.5zm0 1h6c.286 0 .5.214.5.5v12c0 .286-.214.5-.5.5h-6c-.286 0-.5-.214-.5-.5v-12c0-.286.214-.5.5-.5zm-14-2c.277 0 .5.223.5.5s-.223.5-.5.5-.5-.223-.5-.5.223-.5.5-.5z"/></svg>