<svg height="24" viewBox="0 0 24 24" width="24" xmlns="http://www.w3.org/2000/svg"><path d="M20.5 8c-.338-.005-.5.248-.5.5s.162.505.5.5H23v2.5c-.005.338.248.5.5.5s.505-.162.5-.5v-3c0-.276-.224-.5-.5-.5zm-6 8.782l-3.636-3.642c-.195-.195-.51-.195-.706 0l-7.995 7.99c-.476.458.236 1.197.707.707L10.5 14.2l3.655 3.642c.195.195.512.195.707 0l6.995-6.992c.205-.205.18-.527-.01-.714-.186-.187-.52-.16-.654-.007zM.5 0C.224.004-.004.224 0 .5v23c0 .276.224.5.5.5h23c.338.005.5-.248.5-.5s-.162-.505-.5-.5H1V.5C1.004.218.782-.004.5 0z"/></svg>