<svg height="24" viewBox="0 0 24 24" width="24" xmlns="http://www.w3.org/2000/svg"><path d="M12 8c-2.203 0-4 1.797-4 4 0 2.203 1.797 4 4 4 2.203 0 4-1.797 4-4 0-2.203-1.797-4-4-4zm0 1c1.663 0 3 1.337 3 3s-1.337 3-3 3-3-1.337-3-3 1.337-3 3-3zm-.5-9c-.822 0-1.5.678-1.5 1.5v1.816c-.985.23-1.916.624-2.77 1.166L6.002 3.174c-.576-.613-1.55-.593-2.133-.012l-.708.707c-.58.58-.6 1.556.012 2.132L4.48 7.23c-.54.854-.932 1.786-1.16 2.77H1.5c-.822 0-1.5.678-1.5 1.5v1c0 .822.678 1.5 1.5 1.5h1.814c.227.966.608 1.882 1.135 2.723L3.16 18.01c-.58.58-.58 1.54 0 2.12l.707.708c.58.58 1.54.58 2.12 0l1.283-1.283c.843.524 1.76.904 2.727 1.127V22.5c0 .822.678 1.5 1.5 1.5h1c.822 0 1.5-.678 1.5-1.5v-1.814c.966-.227 1.882-.608 2.723-1.135l1.287 1.288c.58.58 1.54.58 2.12 0l.708-.707c.58-.58.58-1.54 0-2.12l-1.283-1.283c.524-.843.904-1.76 1.127-2.727H22.5c.822 0 1.5-.678 1.5-1.5v-1c0-.822-.678-1.5-1.5-1.5h-1.814c-.227-.966-.608-1.882-1.135-2.723L20.84 5.99c.58-.58.58-1.54 0-2.12l-.707-.708c-.58-.58-1.54-.58-2.12 0l-1.283 1.283c-.843-.524-1.76-.904-2.727-1.127V1.5c0-.822-.678-1.5-1.5-1.5h-1zm0 1h1c.286 0 .5.214.5.5v2.14a.5.5 0 0 0 .412.493c1.134.202 2.21.646 3.156 1.303a.5.5 0 0 0 .64-.057l1.51-1.51c.2-.203.504-.203.706 0l.707.706c.203.202.203.505 0 .707L18.616 6.8a.5.5 0 0 0-.056.64c.658.943 1.107 2.017 1.313 3.15a.5.5 0 0 0 .492.41H22.5c.286 0 .5.214.5.5v1c0 .286-.214.5-.5.5h-2.14a.5.5 0 0 0-.493.412c-.202 1.134-.646 2.21-1.303 3.156a.5.5 0 0 0 .057.64l1.51 1.51c.203.2.203.504 0 .706l-.706.707c-.202.203-.505.203-.707 0L17.2 18.616a.5.5 0 0 0-.64-.056c-.943.658-2.017 1.107-3.15 1.313a.5.5 0 0 0-.41.492V22.5c0 .286-.214.5-.5.5h-1c-.286 0-.5-.214-.5-.5v-2.14a.5.5 0 0 0-.412-.493c-1.134-.202-2.21-.646-3.156-1.303a.5.5 0 0 0-.64.057l-1.51 1.51c-.2.203-.504.203-.706 0l-.707-.706c-.203-.202-.203-.505 0-.707L5.384 17.2a.5.5 0 0 0 .056-.64c-.658-.943-1.107-2.017-1.313-3.15a.5.5 0 0 0-.492-.41H1.5c-.286 0-.5-.214-.5-.5v-1c0-.286.214-.5.5-.5h2.14a.5.5 0 0 0 .493-.412c.207-1.154.665-2.248 1.342-3.205a.5.5 0 0 0-.067-.654l-1.55-1.46c-.195-.18-.19-.492.01-.694l.708-.707c.202-.203.513-.207.695-.013l1.46 1.555a.5.5 0 0 0 .655.067c.956-.68 2.05-1.143 3.205-1.353a.5.5 0 0 0 .41-.492V1.5c0-.286.214-.5.5-.5z"/></svg>