<svg height="24" viewBox="0 0 24 24" width="24" xmlns="http://www.w3.org/2000/svg"><path d="M19.5 0c-.13.002-.262.055-.354.146l-2 2c-.195.196-.195.512 0 .708l4 4c.196.195.512.195.708 0l2-2c.195-.196.195-.512 0-.708l-4-4C19.758.05 19.634-.002 19.5 0zm0 1.207L22.793 4.5 21.5 5.793 18.207 2.5zM15.5 4c-.13.002-.262.055-.354.146l-15 15c-.093.094-.146.22-.146.354v4c0 .276.224.5.5.5h4c.133 0 .26-.053.354-.146l15-15c.195-.196.195-.512 0-.708l-4-4c-.096-.095-.22-.148-.354-.146zm0 1.207L18.793 8.5 4.293 23H1v-3.293z"/></svg>