<svg height="24" viewBox="0 0 24 24" width="24" xmlns="http://www.w3.org/2000/svg"><path d="M3.5 10c-.822 0-1.5.678-1.5 1.5v4c0 .822.678 1.5 1.5 1.5h3c.822 0 1.5-.678 1.5-1.5v-4c0-.822-.678-1.5-1.5-1.5h-3zm0 1h3c.286 0 .5.214.5.5v4c0 .286-.214.5-.5.5h-3c-.286 0-.5-.214-.5-.5v-4c0-.286.214-.5.5-.5zm6 5h11c.277 0 .5.223.5.5s-.223.5-.5.5h-11c-.277 0-.5-.223-.5-.5s.223-.5.5-.5zm-4-14c-.277 0-.5.223-.5.5v4c0 .277.223.5.5.5s.5-.223.5-.5v-4c0-.277-.223-.5-.5-.5zm13 0c-.277 0-.5.223-.5.5v4c0 .277.223.5.5.5s.5-.223.5-.5v-4c0-.277-.223-.5-.5-.5zm-17 2C.678 4 0 4.678 0 5.5v15c0 .822.678 1.5 1.5 1.5h21c.822 0 1.5-.678 1.5-1.5v-15c0-.822-.678-1.5-1.5-1.5h-2c-.334 0-.5.248-.5.5s.162.5.5.5h2c.286 0 .5.214.5.5v15c0 .286-.214.5-.5.5h-21c-.286 0-.5-.214-.5-.5v-15c0-.286.214-.5.5-.5h2c.336 0 .502-.25.5-.5-.002-.25-.174-.5-.5-.5zm6 0c-.323 0-.5.248-.5.5s.162.505.5.5h9c.298 0 .5-.248.5-.5s-.15-.5-.5-.5zm2 6c-.277 0-.5.223-.5.5s.223.5.5.5h11c.277 0 .5-.223.5-.5s-.223-.5-.5-.5zm0 3c-.277 0-.5.223-.5.5s.223.5.5.5h11c.277 0 .5-.223.5-.5s-.223-.5-.5-.5z"/></svg>