<svg xmlns="http://www.w3.org/2000/svg" width="24" height="24"><path d="M23.492 20h-16c-.66 0-.65-1 0-1h16c.658 0 .657 1 0 1zm.008-8h-16c-.66 0-.65-1 0-1h16c.658 0 .657 1 0 1zm-21 5C1.124 17 0 18.124 0 19.5S1.124 22 2.5 22 5 20.876 5 19.5 3.876 17 2.5 17zm0 1c.84 0 1.5.66 1.5 1.5S3.34 21 2.5 21 1 20.34 1 19.5 1.66 18 2.5 18zm0-8.987c-1.376 0-2.5 1.123-2.5 2.5 0 1.376 1.124 2.5 2.5 2.5S5 12.89 5 11.513c0-1.377-1.124-2.5-2.5-2.5zm0 1c.84 0 1.5.66 1.5 1.5s-.66 1.5-1.5 1.5-1.5-.66-1.5-1.5.66-1.5 1.5-1.5zM2.5 1C1.124 1 0 2.124 0 3.5S1.124 6 2.5 6 5 4.876 5 3.5 3.876 1 2.5 1zm0 1C3.34 2 4 2.66 4 3.5S3.34 5 2.5 5 1 4.34 1 3.5 1.66 2 2.5 2zm21 2h-16c-.66 0-.65-1 0-1h16c.658 0 .657 1 0 1z"/></svg>