<svg height="24" viewBox="0 0 24 24" width="24" xmlns="http://www.w3.org/2000/svg"><path d="M17.5 15c-1.375 0-2.5 1.125-2.5 2.5s1.125 2.5 2.5 2.5 2.5-1.125 2.5-2.5-1.125-2.5-2.5-2.5zm0 1c.834 0 1.5.666 1.5 1.5s-.666 1.5-1.5 1.5-1.5-.666-1.5-1.5.666-1.5 1.5-1.5zm-1-5c-.276 0-.5.224-.5.5v1.803c-.14.05-.273.106-.406.17l-1.326-1.327c-.196-.195-.512-.195-.707 0l-1.414 1.415c-.195.196-.195.512 0 .708l1.327 1.326c-.063.133-.12.267-.17.406H11.5c-.276 0-.5.224-.5.5v2c0 .276.224.5.5.5h1.803c.05.14.106.273.17.406l-1.327 1.326c-.195.196-.195.512 0 .707l1.415 1.414c.196.195.512.195.708 0l1.326-1.327c.133.063.267.12.406.17V23.5c0 .276.224.5.5.5h2c.276 0 .5-.224.5-.5v-1.803c.14-.05.273-.106.406-.17l1.326 1.327c.196.195.512.195.707 0l1.414-1.415c.195-.196.195-.512 0-.708l-1.327-1.326c.063-.133.12-.267.17-.406H23.5c.276 0 .5-.224.5-.5v-2c0-.276-.224-.5-.5-.5h-1.803c-.05-.14-.106-.273-.17-.406l1.327-1.326c.195-.196.195-.512 0-.707l-1.415-1.414c-.196-.195-.512-.195-.708 0l-1.326 1.327c-.133-.063-.267-.12-.406-.17V11.5c0-.276-.224-.5-.5-.5zm.5 1h1v1.633c0 .228.154.427.375.484.316.082.618.208.898.373.197.116.447.084.608-.078l1.206-1.205.707.707-1.205 1.205c-.16.16-.192.41-.076.607.166.28.29.584.373.9.058.22.257.373.484.373H23v1h-1.633c-.228 0-.427.154-.484.375-.082.316-.208.618-.373.898-.116.197-.084.447.078.608l1.205 1.206-.707.707-1.205-1.205c-.16-.16-.41-.192-.607-.076-.28.166-.584.29-.9.373-.22.058-.373.257-.373.484V23h-1v-1.633c0-.228-.154-.427-.375-.484-.316-.082-.618-.208-.898-.373-.197-.116-.447-.084-.608.078l-1.206 1.205-.707-.707 1.205-1.205c.16-.16.192-.41.076-.607-.166-.28-.29-.584-.373-.9-.058-.22-.257-.373-.484-.373H12v-1h1.633c.228 0 .427-.154.484-.375.082-.316.208-.618.373-.898.116-.197.084-.447-.078-.608l-1.205-1.206.707-.707 1.205 1.205c.16.16.41.192.607.076.28-.166.584-.29.9-.373.22-.058.373-.257.373-.484zm-7-5c-1.65 0-3 1.35-3 3s1.35 3 3 3 3-1.35 3-3-1.35-3-3-3zm0 1c1.11 0 2 .89 2 2 0 1.11-.89 2-2 2-1.11 0-2-.89-2-2 0-1.11.89-2 2-2zM9 0c-.545 0-1 .455-1 1v1.336c-.705.184-1.378.46-2.008.828l-.875-.875c-.385-.387-1.028-.387-1.414 0L2.29 3.702c-.387.386-.387 1.03 0 1.414l.874.875c-.37.63-.65 1.302-.836 2.008H1c-.545 0-1 .455-1 1v2c0 .545.455 1 1 1h1.336c.184.705.46 1.378.828 2.008l-.875.875c-.387.385-.387 1.028 0 1.414l1.413 1.414c.386.387 1.03.387 1.414 0l.875-.874c.63.37 1.302.65 2.008.836V19c0 .545.455 1 1 1h.5c.66 0 .653-1 0-1H9v-1.652c0-.238-.166-.442-.398-.49-.877-.18-1.71-.527-2.456-1.022-.198-.132-.462-.106-.63.062L4.41 17.004 2.996 15.59 4.1 14.486c.168-.167.195-.43.064-.63-.492-.745-.836-1.58-1.014-2.456-.047-.233-.252-.4-.49-.4H1V9h1.652c.238 0 .442-.166.49-.398.18-.877.527-1.71 1.022-2.456.132-.198.106-.462-.062-.63L2.996 4.41 4.41 2.996 5.514 4.1c.167.168.43.195.63.064.745-.492 1.58-.836 2.456-1.014.233-.047.4-.252.4-.49V1h2v1.652c0 .238.166.442.398.49.877.18 1.71.527 2.456 1.022.198.132.462.106.63-.062l1.106-1.106 1.414 1.414L15.9 5.514c-.168.167-.195.43-.064.63.492.745.836 1.58 1.014 2.456.047.233.252.4.49.4H19v.5c0 .668 1 .653 1 0V9c0-.545-.455-1-1-1h-1.336c-.184-.705-.46-1.378-.828-2.008l.875-.875c.387-.385.387-1.028 0-1.414L16.298 2.29c-.386-.387-1.03-.387-1.414 0l-.875.874c-.63-.37-1.302-.65-2.008-.836V1c0-.545-.455-1-1-1z"/></svg>