<svg height="24" viewBox="0 0 24 24" width="24" xmlns="http://www.w3.org/2000/svg"><path d="M19.072.002c-1.097-.034-2.13.406-2.95 1.177L1.684 14.73c-2.247 2.108-2.247 5.57 0 7.68 2.246 2.107 5.86 2.13 8.09-.005l12.07-11.55c.47-.45-.256-1.14-.693-.722L9.085 21.685c-1.835 1.755-4.86 1.74-6.717-.002-1.856-1.742-1.856-4.48 0-6.223l14.44-13.553c.658-.618 1.417-.93 2.233-.906.818.027 1.717.394 2.634 1.255.917.86 1.298 1.695 1.324 2.435.026.74-.297 1.426-.95 2.048L7.82 20.27c-1.02.97-2.958.974-3.97.022-1.038-.973-1.16-2.44-.174-3.34l12.16-11.085c.476-.435-.23-1.145-.676-.738L3 16.213c-1.427 1.3-1.26 3.47.165 4.807C4.613 22.38 7.162 22.274 8.5 21L22.728 7.468c.826-.768 1.308-1.755 1.27-2.813-.038-1.058-.585-2.14-1.64-3.128C21.307.537 20.17.035 19.073.002z"/></svg>