<svg height="24" viewBox="0 0 24 24" width="24" xmlns="http://www.w3.org/2000/svg"><path d="M16.945 8.004c-.32 0-.632.04-.918.228-.243.16-.422.39-.525.655-.032.08-.04.166-.057.25-.012-.005-.02-.012-.033-.016-.315-.106-.663-.15-1.016-.087-.355.063-.695.232-.955.514-.25.272-.388.612-.428.957-.01.086.03.16.033.246-.027-.01-.046-.03-.074-.037-.302-.087-.63-.107-.952-.037-.325.07-.63.23-.872.47-.232.233-.382.526-.457.836L8.75 10.047c-.172-.172-.36-.36-.588-.533-.23-.174-.493-.328-.797-.42-.305-.093-.637-.12-.967-.05-.33.07-.637.234-.88.477-.244.245-.407.55-.477.882-.07.33-.044.662.05.967.09.303.245.567.42.796.172.228.36.416.532.588L13.293 20H11.5c-.258 0-.54-.002-.838.04-.3.04-.61.124-.902.28-.295.158-.56.383-.75.678-.193.296-.3.643-.3 1.002 0 .36.107.706.3 1.002.19.295.455.52.75.678.293.156.603.24.902.28.298.04.58.04.838.04h6c.676.01.64-1 0-1h-6c-.256 0-.492-.003-.703-.03-.21-.03-.404-.085-.565-.17-.16-.086-.296-.21-.384-.345-.088-.135-.137-.3-.137-.455 0-.156.05-.32.138-.455.088-.136.225-.26.384-.344.16-.085.354-.14.565-.17.21-.027.447-.03.703-.03h3c.445 0 .66-.546.354-.854l-8.102-8.1c-.17-.17-.325-.327-.445-.485-.12-.157-.21-.32-.258-.48-.05-.16-.06-.326-.03-.47.032-.144.107-.282.207-.38.1-.1.237-.176.38-.207.145-.03.313-.02.47.028.16.05.324.14.482.26.157.12.314.273.485.444l3.6 3.6.5.5c.438.454 1.164-.27.71-.708l-.5-.5c-.17-.167-.32-.322-.435-.476-.115-.154-.2-.316-.246-.475-.045-.157-.053-.322-.022-.466.03-.145.105-.28.202-.376.096-.097.23-.17.375-.202.143-.03.308-.023.465.022.16.045.32.13.475.246.154.115.303.272.476.434l.546.508c.445.415 1.11-.25.657-.703-.402-.402-.644-.692-.774-1.035-.064-.17-.09-.348-.072-.504.018-.152.084-.3.174-.397.092-.1.238-.178.394-.205.16-.03.342-.012.518.048.485.204.754.485 1.056.788.477.476 1.153-.333.708-.708-.124-.103-.224-.25-.303-.34-.07-.1-.118-.205-.136-.298-.017-.092-.01-.187.02-.26.028-.072.083-.14.142-.18.07-.046.185-.076.305-.068.125.008.264.052.403.127.286.153.56.422.863.727l5 5c.45.45 1.155-.26.708-.708l-5-5c-.3-.298-.632-.65-1.098-.9-.237-.126-.508-.242-.81-.242zM8.5 6c-.657 0-.66 1 0 1h.793L8.146 8.146c-.446.43.273 1.16.708.708L10 7.707V8.5c0 .672 1 .653 1 0v-2c0-.276-.224-.5-.5-.5zm-6 6c-.276.004-.5.208-.5.5v2c0 .276.224.5.5.5h2c.676.01.676-1.01 0-1h-.793l1.147-1.146c.3-.295.11-.857-.354-.854-.13 0-.263.054-.354.146L3 13.293V12.5c.005-.29-.218-.504-.5-.5zM7 19.5c0 .276-.224.5-.5.5s-.5-.224-.5-.5.224-.5.5-.5.5.224.5.5zM5.5 2h2c.277 0 .5.223.5.5s-.223.5-.5.5h-2c-.277 0-.5-.223-.5-.5s.223-.5.5-.5zm-4-2C.678 0 0 .678 0 1.5v19c0 .822.678 1.5 1.5 1.5h5c.676.01.676-1.01 0-1h-5c-.286 0-.5-.214-.5-.5v-19c0-.286.214-.5.5-.5h10c.286 0 .5.214.5.5v7c-.01.676 1.01.676 1 0v-7c0-.822-.678-1.5-1.5-1.5z"/></svg>