<svg xmlns="http://www.w3.org/2000/svg" width="24" height="24"><path d="M8.44 5.19l-2-3.465c-.325-.56-1.205-.086-.867.5l2 3.464c.353.61 1.17.028.866-.5zm9 15.588l-2-3.464c-.334-.577-1.194-.066-.867.5l2 3.464c.337.584 1.19.063.866-.5zM5.692 7.568l-3.464-2c-.56-.325-1.087.527-.5.865l3.463 2c.61.353 1.03-.56.5-.866zm15.59 9l-3.465-2c-.577-.334-1.066.538-.5.865l3.464 2c.584.337 1.063-.54.5-.866zm-6.717-11.38l2-3.463c.324-.56 1.205-.086.867.5l-2 3.464c-.353.61-1.172.028-.867-.5zm-9 15.59l2-3.464c.334-.577 1.193-.066.867.5l-2 3.464c-.338.584-1.192.063-.867-.5zm11.746-13.21l3.464-2c.56-.325 1.086.527.5.865l-3.464 2c-.61.353-1.028-.56-.5-.866zm-15.588 9l3.464-2c.577-.334 1.066.538.5.865l-3.464 2c-.584.337-1.063-.54-.5-.866zM18.5 11h4c.647 0 .677 1 0 1h-4c-.706 0-.61-1 0-1zm-18 0h4c.666 0 .653 1 0 1h-4c-.674 0-.65-1 0-1zM12 18.5v4c0 .647-1 .677-1 0v-4c0-.706 1-.61 1 0zm0-18v4c0 .666-1 .653-1 0v-4c0-.674 1-.65 1 0zM11.5 6C8.468 6 6 8.468 6 11.5S8.468 17 11.5 17s5.5-2.468 5.5-5.5S14.532 6 11.5 6zm0 1c2.49 0 4.5 2.01 4.5 4.5S13.99 16 11.5 16 7 13.99 7 11.5 9.01 7 11.5 7z"/></svg>