<svg height="24" viewBox="0 0 24 24" width="24" xmlns="http://www.w3.org/2000/svg"><path d="M15.5 8.98c.296.004.527.282.493.576l-.998 9.993c-.064.655-1.06.565-.994-.1l1-9.99c.02-.263.237-.483.5-.48zM8.503 9c-.296.004-.53.262-.496.556l.998 9.993c.065.662 1.06.565.994-.1L9 9.46c-.02-.263-.234-.464-.497-.46zM9.5 0C8.678 0 8 .678 8 1.5V3H4.5c-.277 0-.5.223-.5.5s.223.5.5.5h15c.277 0 .5-.223.5-.5s-.223-.5-.5-.5H16V1.5c0-.822-.678-1.5-1.5-1.5zm0 1h5c.285 0 .5.214.5.5V3H9V1.5c0-.286.215-.5.5-.5zm-4 4c-.824 0-1.6.675-1.49 1.563l2 16C6.1 23.302 6.675 24 7.5 24h9c.824 0 1.4-.698 1.49-1.438l2-16C20.1 5.675 19.323 5 18.5 5zm0 1h13c.283 0 .524.226.498.438l-1.998 16c-.045.36-.217.562-.5.562h-9c-.283 0-.455-.203-.5-.563l-1.998-16C4.976 6.228 5.217 6 5.5 6z"/></svg>