<svg xmlns="http://www.w3.org/2000/svg" width="24" height="24"><path d="M.438 6.982a.5.5 0 0 0-.438.53v4a.5.5 0 0 0 .5.5h4a.5.5 0 1 0 0-1H1v-3.5a.5.5 0 0 0-.563-.53zm13.03-1.813c-1.627-.28-3.283-.216-4.874.123-1.59.34-3.103.96-4.47 1.875-.682.457-1.346 1-1.936 1.593a.5.5 0 1 0 .718.688c.544-.546 1.12-1.016 1.75-1.437 1.258-.842 2.688-1.437 4.157-1.75 2.937-.624 6.094-.157 8.812 1.563C20.97 9.943 23 13.605 23 17.513a.5.5 0 1 0 1 0c0-4.254-2.213-8.233-5.844-10.53-1.473-.934-3.06-1.537-4.687-1.814z"/></svg>