<svg height="24" viewBox="0 0 24 24" width="24" xmlns="http://www.w3.org/2000/svg"><path d="M7.5 7c-1.278 0-2.212.745-2.75 1.65-.538.906-.75 1.973-.75 2.85 0 .792-.01 1.252-.105 1.578-.096.326-.273.593-.75 1.068-.313.315-.09.854.355.854.83 0 1.692-.16 2.41-.5-.057.29-.144.62-.256.826-.236.442-.52.674-1.154.674-.645 0-.668 1 0 1 .95 0 1.668-.518 2.035-1.2.367-.685.465-1.504.465-2.3 0-.445-.54-.668-.854-.354-.46.46-1.02.643-1.646.743.13-.13.3-.343.355-.53C5.01 12.83 5 12.29 5 11.5c0-.707.194-1.64.61-2.338C6.023 8.462 6.59 8 7.5 8c.91 0 1.476.463 1.89 1.162.416.7.61 1.63.61 2.338 0 .81.037 1.4.21 1.936.062.186.152.358.29.496-.592-.062-1.073-.213-1.646-.786-.315-.314-.854-.09-.854.354 0 .796.098 1.615.465 2.3.367.682 1.084 1.2 2.035 1.2.65.01.672-1 0-1-.635 0-.918-.232-1.154-.674-.11-.206-.22-.538-.276-.826.74.36 1.613.5 2.43.5.445 0 .668-.54.354-.854-.39-.388-.574-.658-.692-1.02-.117-.36-.162-.85-.162-1.626 0-.877-.212-1.944-.75-2.85C9.712 7.745 8.778 7 7.5 7zM12 0C5.38 0 0 5.38 0 12s5.38 12 12 12 12-5.38 12-12S18.62 0 12 0zm0 1c6.08 0 11 4.92 11 11s-4.92 11-11 11S1 18.08 1 12 5.92 1 12 1zm8.817 15.1c-.532-.533-.817-.883-.817-.883v-1.565l.916-1.375C20.97 12.195 21 12.1 21 12v-2c0-2.275-1.88-4-4-4s-4 1.725-4 4v2c0 .1.03.195.084.277L14 13.652v1.565L9.242 18.07c-.15.09-.242.254-.242.43v1c0 .656 1 .668 1 0v-.717l4.758-2.853c.15-.09.242-.254.242-.43v-2c0-.1-.03-.195-.084-.277L14 11.848V10c0-1.725 1.42-3 3-3s3 1.275 3 3v1.848l-.916 1.375c-.055.082-.084.178-.084.277v2c0 .176.104.292.242.43 0 0 .288.352.817.882.528.53 1.29-.18.757-.713z"/></svg>