<svg height="24" viewBox="0 0 24 24" width="24" xmlns="http://www.w3.org/2000/svg"><path d="M5.5 4c-.338-.005-.5.248-.5.5s.162.505.5.5h17c.286 0 .5.214.5.5v10c-.005.338.248.5.5.5s.505-.162.5-.5v-10c0-.822-.678-1.5-1.5-1.5zm-2 2c-.338-.005-.5.248-.5.5s.162.505.5.5h17c.286 0 .5.214.5.5v10c-.005.338.248.5.5.5s.505-.162.5-.5v-10c0-.822-.678-1.5-1.5-1.5zm-2 2C.678 8 0 8.678 0 9.5v10c0 .822.678 1.5 1.5 1.5h17c.822 0 1.5-.678 1.5-1.5v-10c0-.822-.678-1.5-1.5-1.5zm0 1h17c.286 0 .5.214.5.5v10c0 .286-.214.5-.5.5h-17c-.286 0-.5-.214-.5-.5v-10c0-.286.214-.5.5-.5zm1 1c-.276 0-.5.224-.5.5v2c-.005.338.248.5.5.5s.505-.162.5-.5V11h1.5c.338.005.5-.248.5-.5s-.162-.505-.5-.5zm7 0C7.02 10 5 12.02 5 14.5S7.02 19 9.5 19s4.5-2.02 4.5-4.5S11.98 10 9.5 10zm6 1H17v1.5c-.005.338.248.5.5.5s.505-.162.5-.5v-2c0-.276-.224-.5-.5-.5h-2c-.348 0-.5.21-.5.5 0 .29.137.5.5.5zm-6 0c1.94 0 3.5 1.56 3.5 3.5S11.44 18 9.5 18 6 16.44 6 14.5 7.56 11 9.5 11zm0 1c-.82 0-1.5.68-1.5 1.5S8.68 15 9.5 15c.28 0 .5.212.5.5 0 .288-.22.5-.5.5h-1c-.338-.005-.5.248-.5.5s.162.505.5.5h1c.82 0 1.5-.68 1.5-1.5S10.32 14 9.5 14c-.28 0-.5-.212-.5-.5 0-.288.22-.5.5-.5h1c.338.005.5-.248.5-.5s-.162-.505-.5-.5zm-7 4c-.282-.004-.504.218-.5.5v2c0 .276.224.5.5.5h2c.338.005.5-.248.5-.5s-.162-.505-.5-.5H3v-1.5c.004-.276-.224-.496-.5-.5zm15 0c-.276.004-.504.224-.5.5V18h-1.5c-.338-.005-.5.248-.5.5s.162.505.5.5h2c.276 0 .5-.224.5-.5v-2c.004-.282-.218-.504-.5-.5z"/></svg>