<svg height="24" viewBox="0 0 24 24" width="24" xmlns="http://www.w3.org/2000/svg"><path d="M.455 3.1c-.338-.004-.5.25-.5.5 0 .254.162.506.5.5h2.602l2.41 10.613.006.02c.085.316.217.634.455.9.237.27.61.468 1.027.468h13.463c.418 0 .79-.203 1.025-.47.235-.266.366-.58.455-.89l2.016-7c.135-.47-.08-.933-.377-1.207-.298-.274-.686-.432-1.103-.432H6.454c-.337-.004-.5.25-.5.5 0 .254.163.506.5.5h15.98c.354 0 .57.176.52.363l-2.017 7c-.124.464-.285.638-.52.638H6.956c-.137 0-.19-.03-.28-.13-.086-.098-.177-.28-.236-.494L3.942 3.49c-.052-.228-.254-.39-.488-.39zm7 6c-.277 0-.5.224-.5.5 0 .278.223.5.5.5h13c.277 0 .5-.222.5-.5 0-.276-.223-.5-.5-.5zm1 3c-.277 0-.5.224-.5.5 0 .278.223.5.5.5h11c.277 0 .5-.222.5-.5 0-.276-.223-.5-.5-.5zm-.5 5c-1.1 0-2 .903-2 2 0 1.1.9 2 2 2s2-.9 2-2c0-1.097-.9-2-2-2zm11 0c-1.1 0-2 .903-2 2 0 1.1.9 2 2 2s2-.9 2-2c0-1.097-.9-2-2-2zm-11 1c.558 0 1 .443 1 1 0 .56-.442 1-1 1s-1-.44-1-1c0-.557.442-1 1-1zm11 0c.558 0 1 .443 1 1 0 .56-.442 1-1 1s-1-.44-1-1c0-.557.442-1 1-1z"/></svg>