<svg height="24" viewBox="0 0 24 24" width="24" xmlns="http://www.w3.org/2000/svg"><path d="M22.002 11.992c-.01-.694-.535-1.218-1.252-1.628L2.778.086c-.59-.374-1.117.55-.496.867l17.972 10.28c.58.33.746.61.748.77.002.17-.16.496-.764.87-5.33 3.294-15.31 9.448-16 9.888-.446.285-.745.272-.912.186-.167-.085-.328-.29-.328-.75V3.498c0-.32-.25-.495-.5-.5-.25-.005-.505.162-.5.5v18.71c0 .717.313 1.343.873 1.63.56.286 1.26.177 1.903-.233.564-.36 10.66-6.585 15.993-9.88.757-.468 1.245-1.048 1.236-1.733z"/></svg>