<svg height="24" viewBox="0 0 24 24" width="24" xmlns="http://www.w3.org/2000/svg"><path d="M13.324 4c-1.28 0-2.558.253-3.705.822C8.176 5.538 7.007 6.59 6.235 8c-1.645-.067-3.3.637-4.47 1.8C.516 11.044-.137 12.834.023 14.59c.128 1.39.753 2.715 1.743 3.697.99.983 2.323 1.597 3.713 1.714H19.5c.47 0 .964-.003 1.48-.102.517-.098 1.026-.29 1.475-.6.45-.31.82-.723 1.082-1.2.26-.476.406-1.002.45-1.532.084-1.03-.22-2.072-.842-2.896-.544-.72-1.284-1.2-2.145-1.457.07-1.81-.48-3.63-1.572-5.078-1.173-1.552-2.923-2.64-4.834-3-.42-.08-.844-.135-1.27-.135zM13.3 5c.38 0 .745.05 1.11.12 1.66.312 3.203 1.27 4.22 2.616 1.02 1.348 1.517 3.082 1.364 4.764-.023.254.15.45.4.5.766.15 1.483.65 1.954 1.27.47.624.706 1.438.642 2.214-.033.4-.145.79-.332 1.133-.186.34-.452.64-.77.858-.317.22-.696.367-1.095.443-.4.076-.83.082-1.293.082H5.55c-1.147-.1-2.265-.615-3.08-1.426-.82-.812-1.345-1.928-1.45-3.076-.133-1.445.42-2.964 1.45-3.986C3.5 9.49 5.02 8.858 6.464 9c.206.02.404-.063.496-.25.663-1.327 1.775-2.373 3.104-3.033C11.062 5.222 12.184 5 13.3 5z"/></svg>