<svg height="24" viewBox="0 0 24 24" width="24" xmlns="http://www.w3.org/2000/svg"><path d="M3.512 8.996c-.415 0-.79.19-1.035.46-.247.268-.387.6-.456.942l-1.995 10c-.09.46.108.893.4 1.166.29.273.674.436 1.09.436H20.49c.414 0 .79-.194 1.035-.463.247-.268.387-.6.455-.943l1.998-10c.085-.424-.11-.893-.4-1.166-.29-.273-.676-.432-1.09-.432zm0 1H22.49c.14 0 .31.07.406.16.098.09.12.158.104.242l-1.998 10c-.123.46-.25.602-.51.602H1.514c-.405 0-.57-.178-.508-.406l1.996-10c.04-.2.123-.367.21-.463.09-.095.16-.134.3-.134zM1.5 2C.678 2 0 2.678 0 3.5v11c0 .66 1 .665 1 0v-11c0-.286.214-.5.5-.5h4.793l3.853 3.854c.094.093.22.146.354.146H21v.5c0 .68 1 .65 1 0v-1c0-.276-.224-.5-.5-.5H10.707L6.854 2.146C6.76 2.053 6.634 2 6.5 2z"/></svg>