<svg height="24" viewBox="0 0 24 24" width="24" xmlns="http://www.w3.org/2000/svg"><path d="M5.5 0c-.277 0-.5.223-.5.5v2c0 .277.223.5.5.5s.5-.223.5-.5v-2c0-.277-.223-.5-.5-.5zm4 0c-.277 0-.5.223-.5.5v2c0 .277.223.5.5.5s.5-.223.5-.5v-2c0-.277-.223-.5-.5-.5zm4 0c-.277 0-.5.223-.5.5v2c0 .277.223.5.5.5s.5-.223.5-.5v-2c0-.277-.223-.5-.5-.5zM.5 4c-.276.004-.504.224-.5.5V15c0 3.52 2.233 6.516 5.283 8H.5c-.277 0-.5.223-.5.5s.223.5.5.5h18c.277 0 .5-.223.5-.5s-.223-.5-.5-.5h-4.783C16.767 21.516 19 18.52 19 15V4.5c.005-.338-.248-.5-.5-.5s-.505.162-.5.5V15c0 4.405-4.06 8-8.5 8S1 19.405 1 15V4.5c.004-.282-.218-.504-.5-.5zm2 3c-.277 0-.5.223-.5.5s.223.5.5.5h14c.277 0 .5-.223.5-.5s-.223-.5-.5-.5zm18 0c-.338-.005-.5.248-.5.5s.162.505.5.5c1.387 0 2.5 1.113 2.5 2.5S21.887 13 20.5 13c-.338-.005-.5.248-.5.5s.162.505.5.5c1.927 0 3.5-1.573 3.5-3.5S22.427 7 20.5 7z"/></svg>