<svg height="24" viewBox="0 0 24 24" width="24" xmlns="http://www.w3.org/2000/svg"><path d="M15.5 7c-.13.002-.262.055-.354.147l-3.646 3.65L9.853 9.15c-.195-.197-.512-.197-.707 0l-3 3c-.455.44.26 1.155.707.71L9.5 10.21l1.646 1.648c.195.195.512.195.707 0l3.647-3.65 1.646 1.648c.448.468 1.164-.268.707-.707l-2-2.003c-.096-.096-.218-.15-.353-.147zM9 4c-1.1 0-2 .9-2 2s.9 2 2 2 2-.9 2-2-.9-2-2-2zm0 1c.558 0 1 .442 1 1s-.442 1-1 1-1-.442-1-1 .442-1 1-1zm-2.5 9h11c.277 0 .5.223.5.5s-.223.5-.5.5h-11c-.277 0-.5-.223-.5-.5s.223-.5.5-.5zM20 20.5a.5.5 0 0 1-.5.5.5.5 0 0 1-.5-.5.5.5 0 0 1 .5-.5.5.5 0 0 1 .5.5zm-15 0a.5.5 0 0 1-.5.5.5.5 0 0 1-.5-.5.5.5 0 0 1 .5-.5.5.5 0 0 1 .5.5zm7-1.5c-1.1 0-2 .9-2 2s.9 2 2 2 2-.9 2-2-.9-2-2-2zm0 1c.558 0 1 .442 1 1s-.442 1-1 1-1-.442-1-1 .442-1 1-1zM2.5 3c.338 0 .5.25.5.5s-.164.5-.5.5h-1c-.286 0-.5.214-.5.5v10c0 .286.214.5.5.5h1c.343 0 .5.248.5.5s-.173.5-.5.5h-1C.678 16 0 15.322 0 14.5v-10C0 3.678.678 3 1.5 3zm19 0c-.338 0-.5.25-.5.5s.164.5.5.5h1c.286 0 .5.214.5.5v10c0 .286-.214.5-.5.5h-1c-.343 0-.5.248-.5.5s.173.5.5.5h1c.822 0 1.5-.678 1.5-1.5v-10c0-.822-.678-1.5-1.5-1.5zm-16-2C4.678 1 4 1.678 4 2.5v13c0 .822.678 1.5 1.5 1.5h13c.822 0 1.5-.678 1.5-1.5v-13c0-.822-.678-1.5-1.5-1.5h-13zm0 1h13c.286 0 .5.214.5.5v13c0 .286-.214.5-.5.5h-13c-.286 0-.5-.214-.5-.5v-13c0-.286.214-.5.5-.5z"/></svg>