<svg height="24" viewBox="0 0 24 24" width="24" xmlns="http://www.w3.org/2000/svg"><path d="M20.5 5c-.34 0-.5.248-.5.5s.162.5.5.5h2c.286 0 .5.214.5.5v16c0 .286-.214.5-.5.5h-16c-.286 0-.5-.214-.5-.5v-2c.005-.338-.248-.5-.5-.5s-.505.162-.5.5v2c0 .822.678 1.5 1.5 1.5h16c.822 0 1.5-.678 1.5-1.5v-16c0-.822-.678-1.5-1.5-1.5zm-19-5C.678 0 0 .678 0 1.5v16c0 .822.678 1.5 1.5 1.5h16c.822 0 1.5-.678 1.5-1.5v-16c0-.822-.678-1.5-1.5-1.5zm0 1h16c.286 0 .5.214.5.5v16c0 .286-.214.5-.5.5h-16c-.286 0-.5-.214-.5-.5v-16c0-.286.214-.5.5-.5z"/></svg>