<svg height="24" viewBox="0 0 24 24" width="24" xmlns="http://www.w3.org/2000/svg"><path d="M16.494 8c-.13.004-.263.054-.354.146l-4.64 4.647-1.646-1.646c-.448-.448-1.165.266-.707.707l1.998 2c.195.195.512.195.707 0l4.995-5c.325-.318.098-.854-.353-.854zM12 0c-.144.003-.292.07-.385.182C10.5 1.518 8.79 2.016 7 2c-1.79-.016-3.647-.586-4.25-.934C2.416.874 2 1.116 2 1.5V12c0 5.773 4.67 10.424 9.855 11.982.094.028.194.028.288 0C17.327 22.43 22 17.772 22 12V1.506c0-.385-.416-.626-.75-.434-.603.348-2.46.912-4.25.928-1.79.016-3.5-.477-4.615-1.816C12.287.066 12.153-.003 12 0zm0 1.078C13.385 2.455 15.187 3.016 17 3c1.576-.014 3.027-.396 4-.787V12c0 5.173-4.244 9.47-8.998 10.957C7.246 21.467 3 17.173 3 12V2.207c.973.392 2.424.78 4 .793 1.813.017 3.615-.548 5-1.922z"/></svg>