<svg height="24" viewBox="0 0 24 24" width="24" xmlns="http://www.w3.org/2000/svg"><path d="M15.5 2c-.45 0-.656.55-.354.854 0 0 .216.216.438.548.222.333.416.765.416 1.098 0 .083-.085.382-.258.72-.173.34-.416.73-.664 1.122-.248.39-.502.778-.7 1.13-.2.35-.378.616-.378 1.028 0 .417.25.86.68 1.117.43.258 1.014.383 1.82.383.694 0 1.11.125 1.305.242.194.117.195.175.195.258 0 .156.074.322.164.42.09.098.182.147.264.184.163.072.31.096.472.12.324.044.698.053 1.06.087.453.043 1.023.158 1.022.272 0 .25-.23.567-.697.877-.477.317-1.146.54-1.785.54-.806 0-1.39.125-1.82.383-.43.258-.68.7-.68 1.117 0 .41-.192.5-.5.5-.417 0-.775.193-1.04.46-.267.265-.46.623-.46 1.04 0 .417.153 1.058.63 1.877.478.82 1.29 1.76 2.612 2.553.55.33 1.065-.53.516-.86-1.18-.707-1.866-1.516-2.264-2.197-.397-.68-.494-1.29-.494-1.373-.027-.298.215-.5.5-.5.417 0 .775-.193 1.04-.46.267-.265.46-.623.46-1.04 0-.083 0-.14.195-.258.195-.117.61-.242 1.305-.242.86 0 1.692-.277 2.34-.71.648-.43 1.16-1.04 1.16-1.79 0-.25-.115-.5-.273-.66-.16-.16-.342-.252-.526-.32-.367-.132-.77-.173-1.16-.206-.388-.032-.866-.035-.98-.2-.182-.26-.31-.473-.74-.73C17.89 9.123 17.306 9 16.5 9c-.694 0-1.11-.125-1.305-.242-.265-.153-.116-.5.053-.793.176-.31.422-.69.674-1.086.252-.397.51-.81.71-1.204.203-.395.368-.76.368-1.176 0-.667-.306-1.235-.584-1.652-.278-.418-.562-.702-.562-.702C15.76 2.05 15.634 2 15.5 2zm-13 7c-.338-.005-.5.248-.5.5s.162.505.5.5h.85c.378 0 .51 1 1.15 1h1c.324.005.5.226.5.5V13c0 .43.063.877.283 1.273.22.397.676.727 1.217.727h1c.316.005.5.234.5.5v5c0 .667.408 1.138.777 1.322.37.185.723.178.723.178.338.005.5-.248.5-.5s-.162-.505-.5-.5c0 0-.147-.007-.277-.072-.13-.066-.223-.095-.223-.428v-5c0-.423-.205-.767-.47-1.03-.263-.265-.607-.47-1.03-.47h-1c-.41 0-.5-.5-.5-1v-1.5c0-.423-.205-.767-.47-1.03-.263-.265-.607-.47-1.03-.47H5c-.5 0-.568-.32-.828-.666C4.05 9.17 3.795 9 3.5 9zM12 0C5.38 0 0 5.38 0 12s5.38 12 12 12 12-5.38 12-12S18.62 0 12 0zm0 1c6.08 0 11 4.92 11 11s-4.92 11-11 11S1 18.08 1 12 5.92 1 12 1z"/></svg>