<svg height="24" viewBox="0 0 24 24" width="24" xmlns="http://www.w3.org/2000/svg"><path d="M21.484 0c-.04 0-.077.007-.115.018l-11 3c-.22.06-.37.256-.37.482v14.816c-.12-.116-.235-.236-.37-.337C8.806 17.36 7.705 17 6.5 17s-2.307.362-3.13.98C2.55 18.594 2 19.49 2 20.5s.55 1.905 1.37 2.52c.823.618 1.924.98 3.13.98s2.307-.362 3.13-.98c.82-.615 1.37-1.51 1.37-2.52V3.883l10-2.73v14.163c-.12-.116-.235-.236-.37-.337-.823-.618-1.924-.98-3.13-.98s-2.307.362-3.13.98c-.82.615-1.37 1.51-1.37 2.52s.55 1.905 1.37 2.52c.823.618 1.924.98 3.13.98s2.307-.362 3.13-.98c.82-.615 1.37-1.51 1.37-2.52V.5c0-.282-.233-.5-.516-.5zm-1.988 3.998c-.045 0-.09.008-.133.022l-7 2c-.646.152-.325 1.12.274.96l7-2c.55-.147.448-.982-.14-.982zM17.5 15c1.003 0 1.903.31 2.53.78.625.47.97 1.072.97 1.72 0 .648-.345 1.25-.97 1.72-.627.47-1.527.78-2.53.78s-1.903-.31-2.53-.78c-.625-.47-.97-1.072-.97-1.72 0-.648.345-1.25.97-1.72.627-.47 1.527-.78 2.53-.78zm-11 3c1.003 0 1.903.31 2.53.78.625.47.97 1.072.97 1.72 0 .648-.345 1.25-.97 1.72-.627.47-1.527.78-2.53.78s-1.903-.31-2.53-.78C3.346 21.75 3 21.15 3 20.5c0-.648.345-1.25.97-1.72.627-.47 1.527-.78 2.53-.78z"/></svg>