<svg width="273" height="352" viewBox="0 0 273 352" fill="none" xmlns="http://www.w3.org/2000/svg">
<path d="M153.575 260.87H272.854V290.414H222.829L153.575 260.87Z" fill="url(#paint0_linear_36_554)"/>
<path d="M125.615 3.37785C127.568 2.86212 129.704 2.86212 131.951 3.45152L216.493 26.1064C226.034 28.6482 233.769 41.2834 233.769 54.2501V271.074C233.769 281.02 229.238 288.314 222.829 290.045L230.27 288.056C236.68 286.325 241.211 279.031 241.211 269.085V52.2609C241.211 39.2573 233.475 26.659 223.934 24.1172L139.356 1.42547C137.108 0.836076 135.009 0.836076 133.02 1.3518L125.615 3.37785Z" fill="url(#paint1_linear_36_554)"/>
<path d="M125.615 3.37785C119.205 5.1092 114.674 12.403 114.674 22.349V239.173C114.674 252.177 122.41 264.775 131.951 267.317L216.492 289.972C218.74 290.561 220.839 290.561 222.828 290.045C229.238 288.314 233.769 281.02 233.769 271.074V54.2501C233.769 41.2465 226.033 28.6482 216.492 26.1064L131.951 3.41469C129.704 2.82529 127.567 2.82529 125.615 3.37785Z" fill="url(#paint2_linear_36_554)"/>
<path d="M126.72 7.68782C128.304 7.24577 130.072 7.24577 131.877 7.76149L216.603 30.4532C224.376 32.553 230.675 42.8306 230.675 53.4397V270.374C230.675 278.515 226.954 284.446 221.723 285.846C220.139 286.288 218.371 286.288 216.566 285.772L131.84 263.08C124.068 260.981 117.769 250.703 117.769 240.094V23.1595C117.769 15.0553 121.489 9.08763 126.72 7.68782Z" fill="url(#paint3_linear_36_554)"/>
<path d="M159.358 29.5323C159.506 29.4955 159.69 29.4955 159.874 29.5323L181.461 35.3157C182.234 35.5368 182.86 36.5314 182.86 37.5997C182.86 38.4101 182.492 38.9995 181.976 39.1468C181.829 39.1837 181.645 39.1837 181.461 39.1468L159.874 33.3634C159.1 33.1423 158.474 32.1477 158.474 31.0795C158.474 30.2322 158.842 29.6428 159.358 29.5323Z" fill="white"/>
<path d="M129.704 20.4335C129.962 20.3598 130.256 20.5072 130.478 20.8387C130.772 21.2807 130.772 21.907 130.478 22.2017L128.672 24.1909L130.478 27.1379C130.772 27.5799 130.772 28.2061 130.478 28.5008C130.404 28.5745 130.33 28.6113 130.22 28.6482C130.146 28.685 130.035 28.685 129.962 28.6482C129.778 28.6113 129.593 28.464 129.446 28.243L127.125 24.4487C126.831 24.0067 126.831 23.3805 127.125 23.0858L129.446 20.544C129.557 20.5072 129.63 20.4703 129.704 20.4335Z" fill="white"/>
<path d="M242.205 90.5348C241.874 90.4243 241.469 90.4243 241.1 90.5348C239.406 90.9768 238.043 93.2239 238.043 95.5078V121.22C238.043 122.988 238.853 124.278 239.995 124.572L237.711 123.946C236.569 123.651 235.759 122.362 235.759 120.594V94.9184C235.759 92.6345 237.122 90.3874 238.816 89.9454C239.221 89.8349 239.59 89.8349 239.921 89.9454L242.205 90.5348Z" fill="url(#paint4_linear_36_554)"/>
<path d="M242.206 90.5348C243.348 90.8295 244.158 92.1188 244.158 93.887V119.599C244.158 121.883 242.795 124.13 241.1 124.572C240.695 124.683 240.327 124.683 239.995 124.572C238.853 124.278 238.043 122.988 238.043 121.22V95.5078C238.043 93.2239 239.406 90.9768 241.1 90.5348C241.506 90.4243 241.874 90.4611 242.206 90.5348Z" fill="url(#paint5_linear_36_554)"/>
<path d="M126.463 35.942C127.199 35.7578 128.047 35.721 128.894 35.9788L219.072 60.1441C222.755 61.1387 225.702 65.9644 225.702 70.9742V144.501C225.702 148.332 223.971 151.132 221.503 151.795C220.766 151.979 219.919 152.016 219.072 151.758L128.894 127.593C125.21 126.598 122.263 121.773 122.263 116.763V43.2358C122.226 39.4047 123.995 36.6051 126.463 35.942Z" fill="url(#paint6_linear_36_554)"/>
<path d="M108.266 38.7048C109.039 38.4838 109.887 38.4838 110.771 38.7416L204.227 63.791C208.021 64.8224 211.115 69.8323 211.115 75.0263V147.412C211.115 151.39 209.31 154.3 206.769 154.963C205.995 155.184 205.148 155.184 204.264 154.926L110.808 129.877C107.013 128.846 103.919 123.836 103.919 118.642V46.2564C103.882 42.278 105.724 39.3679 108.266 38.7048Z" fill="url(#paint7_linear_36_554)"/>
<path d="M204.226 63.7541L110.77 38.7048C109.886 38.4838 109.039 38.4838 108.265 38.6679C105.723 39.3678 103.918 42.2412 103.918 46.2196V53.808L211.115 82.5411V74.9526C211.115 69.7954 208.021 64.7855 204.226 63.7541Z" fill="url(#paint8_linear_36_554)"/>
<path d="M109.518 42.9779C109.665 42.941 109.849 42.941 109.997 42.9779L205.368 68.5429C206.105 68.7271 206.694 69.7217 206.694 70.7163V76.3156C206.694 77.0892 206.326 77.6417 205.847 77.7891C205.7 77.8259 205.516 77.8259 205.368 77.7891L109.997 52.224C109.26 52.0399 108.67 51.0452 108.67 50.0506V44.4514C108.67 43.6778 109.002 43.1252 109.518 42.9779Z" fill="url(#paint9_linear_36_554)"/>
<path d="M201.721 69.3534C201.979 69.2797 202.237 69.2797 202.532 69.3534C203.784 69.6849 204.779 71.3426 204.779 73.0003C204.779 74.2896 204.189 75.2474 203.342 75.4684C203.084 75.5421 202.826 75.5421 202.532 75.4684C201.279 75.1368 200.285 73.4792 200.285 71.8215C200.285 70.5322 200.874 69.5744 201.721 69.3534Z" fill="white"/>
<path d="M202.458 70.3848C202.495 70.3848 202.495 70.3848 202.532 70.3848C202.642 70.4217 202.753 70.569 202.753 70.7164V72.153L203.821 72.4477C203.932 72.4846 204.042 72.6319 204.042 72.7792C204.042 72.8898 203.968 73.0003 203.895 73.0003C203.858 73.0003 203.858 73.0003 203.821 73.0003L202.753 72.7056V74.1422C202.753 74.2527 202.679 74.3633 202.605 74.3633C202.569 74.3633 202.569 74.3633 202.532 74.3633C202.421 74.3264 202.311 74.1791 202.311 74.0317V72.5951L201.242 72.3004C201.132 72.2635 201.021 72.1162 201.021 71.9688C201.021 71.8583 201.095 71.7478 201.169 71.7478C201.206 71.7478 201.206 71.7478 201.242 71.7478L202.311 72.0425V70.6059C202.348 70.4953 202.384 70.4217 202.458 70.3848Z" fill="url(#paint10_linear_36_554)"/>
<path d="M125.026 69.6112C125.136 69.5744 125.247 69.5744 125.394 69.6112L200.837 89.7981C201.389 89.9454 201.831 90.6822 201.831 91.4189C201.831 92.0083 201.573 92.4135 201.205 92.524C201.095 92.5609 200.984 92.5609 200.837 92.524L125.394 72.3372C124.841 72.1899 124.399 71.4531 124.399 70.7164C124.399 70.127 124.657 69.7218 125.026 69.6112Z" fill="url(#paint11_linear_36_554)"/>
<path d="M113.68 63.2384C114.085 63.1279 114.527 63.1279 115.006 63.2384C117.032 63.7909 118.653 66.4432 118.653 69.206C118.653 71.3057 117.695 72.8529 116.332 73.2213C115.927 73.3318 115.485 73.3318 115.006 73.2213C112.98 72.6687 111.359 70.0164 111.359 67.2536C111.359 65.1539 112.317 63.6068 113.68 63.2384Z" fill="url(#paint12_linear_36_554)"/>
<path d="M113.312 67.18C113.422 67.1431 113.57 67.2168 113.68 67.401L114.564 68.8008L116.296 66.7011C116.333 66.6643 116.369 66.6274 116.443 66.6274C116.554 66.5906 116.701 66.6643 116.811 66.8116C116.959 67.0326 116.959 67.3273 116.848 67.4747L114.859 69.8691C114.822 69.9059 114.785 69.9428 114.712 69.9428C114.675 69.9428 114.601 69.9428 114.601 69.9428C114.491 69.9059 114.417 69.8323 114.343 69.7217L113.201 67.8799C113.054 67.6589 113.054 67.3642 113.201 67.2168C113.238 67.2168 113.275 67.18 113.312 67.18Z" fill="white"/>
<path d="M125.026 86.63C125.136 86.5932 125.247 86.5932 125.394 86.63L200.837 106.817C201.389 106.964 201.831 107.701 201.831 108.438C201.831 109.027 201.573 109.432 201.205 109.543C201.095 109.58 200.984 109.58 200.837 109.543L125.394 89.356C124.841 89.2086 124.399 88.4719 124.399 87.7351C124.399 87.1826 124.657 86.7405 125.026 86.63Z" fill="url(#paint13_linear_36_554)"/>
<path d="M113.68 80.2572C114.085 80.1467 114.527 80.1467 115.006 80.2572C117.032 80.8098 118.653 83.462 118.653 86.2248C118.653 88.3246 117.695 89.8717 116.332 90.2401C115.927 90.3506 115.485 90.3506 115.006 90.2401C112.98 89.6875 111.359 87.0353 111.359 84.2725C111.359 82.1727 112.317 80.6256 113.68 80.2572Z" fill="url(#paint14_linear_36_554)"/>
<path d="M113.312 84.1988C113.422 84.1619 113.57 84.2356 113.68 84.4198L114.564 85.8196L116.296 83.7199C116.333 83.6831 116.369 83.6462 116.443 83.6462C116.554 83.6094 116.701 83.6831 116.811 83.8304C116.959 84.0514 116.959 84.3461 116.848 84.4935L114.859 86.8879C114.822 86.9247 114.785 86.9616 114.712 86.9616C114.675 86.9616 114.601 86.9616 114.601 86.9616C114.491 86.9247 114.417 86.8511 114.343 86.7405L113.201 84.8987C113.054 84.6777 113.054 84.383 113.201 84.2356C113.238 84.2356 113.275 84.1988 113.312 84.1988Z" fill="white"/>
<path d="M125.026 103.686C125.136 103.649 125.247 103.649 125.394 103.686L200.837 123.872C201.389 124.02 201.831 124.757 201.831 125.493C201.831 126.083 201.573 126.488 201.205 126.598C201.095 126.635 200.984 126.635 200.837 126.598L125.394 106.412C124.841 106.264 124.399 105.528 124.399 104.791C124.399 104.201 124.657 103.759 125.026 103.686Z" fill="url(#paint15_linear_36_554)"/>
<path d="M113.68 97.276C114.085 97.1655 114.527 97.1655 115.006 97.276C117.032 97.8286 118.653 100.481 118.653 103.244C118.653 105.343 117.695 106.891 116.332 107.259C115.927 107.369 115.485 107.369 115.006 107.259C112.98 106.706 111.359 104.054 111.359 101.291C111.359 99.1915 112.317 97.6444 113.68 97.276Z" fill="url(#paint16_linear_36_554)"/>
<path d="M113.312 101.218C113.422 101.181 113.57 101.254 113.68 101.439L114.564 102.838L116.296 100.739C116.333 100.702 116.369 100.665 116.443 100.665C116.554 100.628 116.701 100.702 116.811 100.849C116.959 101.07 116.959 101.365 116.848 101.512L114.859 103.907C114.822 103.944 114.785 103.98 114.712 103.98C114.675 103.98 114.601 103.98 114.601 103.98C114.491 103.944 114.417 103.87 114.343 103.759L113.201 101.917C113.054 101.696 113.054 101.402 113.201 101.254C113.238 101.254 113.275 101.254 113.312 101.218Z" fill="white"/>
<path d="M125.026 120.704C125.136 120.668 125.247 120.668 125.394 120.704L200.837 140.891C201.389 141.039 201.831 141.775 201.831 142.512C201.831 143.102 201.573 143.507 201.205 143.617C201.095 143.654 200.984 143.654 200.837 143.617L125.394 123.43C124.841 123.283 124.399 122.546 124.399 121.81C124.399 121.22 124.657 120.815 125.026 120.704Z" fill="url(#paint17_linear_36_554)"/>
<path d="M113.68 114.332C114.085 114.221 114.527 114.221 115.006 114.332C117.032 114.884 118.653 117.536 118.653 120.299C118.653 122.399 117.695 123.946 116.332 124.315C115.927 124.425 115.485 124.425 115.006 124.315C112.98 123.762 111.359 121.11 111.359 118.347C111.359 116.21 112.317 114.7 113.68 114.332Z" fill="url(#paint18_linear_36_554)"/>
<path d="M113.312 118.273C113.422 118.236 113.57 118.31 113.68 118.494L114.564 119.894L116.296 117.794C116.333 117.758 116.369 117.721 116.443 117.721C116.554 117.684 116.701 117.758 116.811 117.905C116.959 118.126 116.959 118.421 116.848 118.568L114.859 120.962C114.822 120.999 114.785 121.036 114.712 121.036C114.675 121.036 114.601 121.036 114.601 121.036C114.491 120.999 114.417 120.926 114.343 120.815L113.201 118.973C113.054 118.752 113.054 118.457 113.201 118.31C113.238 118.31 113.275 118.273 113.312 118.273Z" fill="white"/>
<path d="M103.402 301.649H62.7339V308.685H103.402V301.649Z" fill="url(#paint19_linear_36_554)"/>
<path d="M59.0503 191.137C59.0503 191.395 59.4555 191.69 60.2291 191.874C61.7762 192.279 64.2812 192.279 65.8283 191.874C66.6019 191.653 67.0071 191.395 67.0071 191.137V307.617C67.0071 307.875 66.6019 308.169 65.8283 308.353C64.2812 308.759 61.7762 308.759 60.2291 308.353C59.4555 308.132 59.0503 307.875 59.0503 307.617V191.137Z" fill="url(#paint20_linear_36_554)"/>
<path d="M0 182.996C0 187.306 6.15182 191.653 18.4555 194.932C43.0627 201.525 82.9575 201.525 107.565 194.932C119.868 191.616 126.02 187.306 126.02 182.996V185.722C126.02 190.032 119.868 194.379 107.565 197.658C82.9575 204.251 43.0627 204.251 18.4555 197.658C6.15182 194.342 0 190.032 0 185.685V182.996Z" fill="url(#paint21_linear_36_554)"/>
<path d="M0 182.996C0 178.686 6.15182 174.34 18.4555 171.061C43.0627 164.467 82.9575 164.467 107.565 171.061C119.868 174.376 126.02 178.686 126.02 182.996C126.02 187.306 119.868 191.653 107.565 194.932C82.9575 201.525 43.0627 201.525 18.4555 194.932C6.15182 191.653 0 187.306 0 182.996Z" fill="url(#paint22_linear_36_554)"/>
<path d="M17.7559 185.428C17.7559 184.764 18.9347 184.101 21.2922 183.586C26.0074 182.554 33.6327 182.554 38.3479 183.586C40.7055 184.101 41.8843 184.764 41.8843 185.428C41.8843 186.091 40.7055 186.754 38.3479 187.269C33.6327 188.301 26.0074 188.301 21.2922 187.269C18.9347 186.754 17.7559 186.091 17.7559 185.428Z" fill="url(#paint23_linear_36_554)"/>
<path d="M15.8037 161.225L17.6824 185.538C17.6824 186.054 18.3823 186.533 19.819 186.901C22.6554 187.675 27.2601 187.675 30.0966 186.901C31.5332 186.533 32.2331 186.017 32.2331 185.538L34.1118 161.225H15.8037Z" fill="url(#paint24_linear_36_554)"/>
<path d="M30.8331 174.597C27.5914 175.481 22.3237 175.481 19.082 174.597C17.7558 174.229 16.9823 173.787 16.7612 173.345L17.719 185.575C17.719 186.091 18.4189 186.569 19.8556 186.938C22.692 187.711 27.2967 187.711 30.1332 186.938C31.5698 186.569 32.2697 186.054 32.2697 185.575L33.2275 173.345C32.9328 173.787 32.1592 174.229 30.8331 174.597Z" fill="url(#paint25_linear_36_554)"/>
<path d="M16.7241 173.087C16.7241 172.535 17.5345 171.945 19.1185 171.54C22.3234 170.693 27.5543 170.693 30.7591 171.54C32.38 171.982 33.1535 172.535 33.1535 173.087C33.1535 173.64 32.3431 174.229 30.7591 174.634C27.5543 175.481 22.3234 175.481 19.1185 174.634C17.5345 174.229 16.7241 173.676 16.7241 173.087Z" fill="url(#paint26_linear_36_554)"/>
<path d="M21.9556 161.225H18.1982L19.5612 186.827C19.6349 186.864 19.7454 186.864 19.8191 186.901C20.4453 187.085 21.1821 187.196 21.9188 187.306V161.225H21.9556Z" fill="url(#paint27_linear_36_554)"/>
<path d="M16.0247 163.878C16.5036 164.172 17.2035 164.467 18.1245 164.725C21.9187 165.756 28.0705 165.756 31.8279 164.725C32.7488 164.467 33.4488 164.209 33.9276 163.878L34.1487 161.225H15.8037L16.0247 163.878Z" fill="url(#paint28_linear_36_554)"/>
<path d="M15.2881 161.41C15.2881 160.747 16.2459 160.084 18.1246 159.568C21.9188 158.536 28.0706 158.536 31.828 159.568C33.7067 160.084 34.6645 160.747 34.6645 161.41C34.6645 162.073 33.7067 162.736 31.828 163.252C28.0338 164.283 21.882 164.283 18.1246 163.252C16.209 162.736 15.2881 162.073 15.2881 161.41Z" fill="url(#paint29_linear_36_554)"/>
<path d="M28.5127 161.41L32.4911 154.116C32.8227 153.526 33.5594 153.269 34.1856 153.6L36.2485 154.632" stroke="url(#paint30_linear_36_554)" stroke-width="0.736745" stroke-miterlimit="10" stroke-linecap="round" stroke-linejoin="round"/>
<path d="M50.5779 183.217C50.0253 183.07 49.6201 182.407 49.6201 181.523V146.196C49.6201 145.054 50.32 143.912 51.1304 143.691L89.036 133.524C89.2202 133.487 89.4412 133.487 89.5885 133.524C90.1411 133.671 90.5463 134.334 90.5463 135.218V170.545C90.5463 171.687 89.8464 172.829 89.036 173.05L51.1304 183.217C50.9463 183.254 50.7621 183.254 50.5779 183.217Z" fill="url(#paint31_linear_36_554)"/>
<path d="M50.2461 183.696C50.2461 183.844 50.4671 183.991 50.8723 184.101L76.8058 191.064C77.653 191.285 79.016 191.285 79.8632 191.064L117.769 180.897C118.174 180.786 118.395 180.639 118.395 180.491V181.596C118.395 181.744 118.174 181.891 117.769 182.002L79.8632 192.169C79.016 192.39 77.653 192.39 76.8058 192.169L50.8723 185.207C50.4671 185.096 50.2461 184.949 50.2461 184.801V183.696Z" fill="url(#paint32_linear_36_554)"/>
<path d="M50.2461 183.696C50.2461 183.549 50.4671 183.401 50.8723 183.291L88.7779 173.124C89.6251 172.903 90.9881 172.903 91.8354 173.124L117.769 180.086C118.174 180.197 118.395 180.344 118.395 180.491C118.395 180.639 118.174 180.786 117.769 180.897L79.8632 191.064C79.016 191.285 77.653 191.285 76.8058 191.064L50.8723 184.101C50.4303 183.991 50.2461 183.844 50.2461 183.696Z" fill="url(#paint33_linear_36_554)"/>
<path d="M101.524 178.392C101.524 178.465 101.376 178.576 101.119 178.649L71.0226 186.717C70.5069 186.864 69.6596 186.864 69.1439 186.717L58.7558 183.917C58.4979 183.844 58.3506 183.77 58.3506 183.659C58.3506 183.586 58.4979 183.475 58.7558 183.401L88.8518 175.334C89.3676 175.187 90.2148 175.187 90.7305 175.334L101.119 178.134C101.376 178.207 101.524 178.281 101.524 178.392Z" fill="url(#paint34_linear_36_554)"/>
<path d="M101.524 183.77C101.524 183.844 101.413 183.917 101.229 183.954L89.2939 187.159C88.8887 187.269 88.2624 187.269 87.8572 187.159L81.7791 185.538C81.5581 185.464 81.4844 185.428 81.4844 185.354C81.4844 185.28 81.5949 185.207 81.7791 185.17L93.7143 181.965C94.1196 181.854 94.7458 181.854 95.151 181.965L101.192 183.586C101.413 183.623 101.524 183.696 101.524 183.77Z" fill="url(#paint35_linear_36_554)"/>
<path opacity="0.5" d="M57.2084 163.067C56.5822 162.883 56.1401 162.183 56.1401 161.189C56.1401 159.899 56.9137 158.684 57.8347 158.426L85.0205 151.132C85.2416 151.058 85.4626 151.058 85.6468 151.132C86.273 151.316 86.7151 152.016 86.7151 153.011C86.7151 154.3 85.9415 155.516 85.0205 155.774L57.8347 163.067C57.6136 163.104 57.3926 163.104 57.2084 163.067Z" stroke="white" stroke-width="0.368372" stroke-miterlimit="10"/>
<path d="M73.9323 154.963L72.1641 155.442L70.9854 158.647L72.7167 158.168L73.9323 154.963Z" fill="white"/>
<path d="M70.6906 155.847L68.9224 156.326L67.7437 159.531L69.475 159.052L70.6906 155.847Z" fill="white"/>
<path d="M67.4494 156.731L65.6812 157.173L64.5024 160.415L66.2338 159.936L67.4494 156.731Z" fill="white"/>
<path d="M57.9819 162.146L59.7501 161.667L60.9289 158.463L59.1976 158.942L57.9819 162.146Z" fill="white"/>
<path d="M64.2075 157.579L62.4393 158.057L61.2236 161.262L62.9918 160.82L64.2075 157.579Z" fill="white"/>
<path d="M83.6574 152.348L81.9261 152.827L80.7104 156.031L82.4786 155.553L83.6574 152.348Z" fill="white"/>
<path d="M84.7997 154.926C85.3891 154.779 85.868 154.005 85.868 153.195C85.868 152.569 85.6101 152.127 85.2049 152.016H85.168L83.9893 155.147L84.7997 154.926Z" fill="white"/>
<path d="M77.174 154.079L75.4427 154.558L74.2271 157.763L75.9584 157.321L77.174 154.079Z" fill="white"/>
<path d="M80.4157 153.232L78.6844 153.674L77.4688 156.915L79.2369 156.437L80.4157 153.232Z" fill="white"/>
<path d="M175.198 335.097H123.7V338.781H175.198V335.097Z" fill="url(#paint36_linear_36_554)"/>
<path d="M215.977 346.112H164.479V349.795H215.977V346.112Z" fill="url(#paint37_linear_36_554)"/>
<path d="M255.54 333.55H204.042V337.234H255.54V333.55Z" fill="url(#paint38_linear_36_554)"/>
<path d="M213.583 320.768H162.084V324.451H213.583V320.768Z" fill="url(#paint39_linear_36_554)"/>
<path d="M163.079 233.574L164.478 347.732" stroke="url(#paint40_linear_36_554)" stroke-width="3.68372" stroke-miterlimit="10" stroke-linecap="round" stroke-linejoin="round"/>
<path d="M139.392 227.201L123.7 336.792" stroke="url(#paint41_linear_36_554)" stroke-width="3.68372" stroke-miterlimit="10" stroke-linecap="round" stroke-linejoin="round"/>
<path d="M184.776 228.085L204.042 335.097" stroke="url(#paint42_linear_36_554)" stroke-width="3.68372" stroke-miterlimit="10" stroke-linecap="round" stroke-linejoin="round"/>
<path d="M208.426 205.725C207.357 205.43 206.252 205.983 205.81 207.051L201.979 216.776C199.916 221.97 195.496 225.912 190.118 227.385L164.774 234.163C163.595 234.458 162.895 235.674 163.226 236.852C163.447 237.626 164.037 238.215 164.774 238.4L117.769 225.801C117.032 225.617 116.443 225.028 116.222 224.254C115.927 223.075 116.59 221.896 117.769 221.565L143.113 214.787C148.491 213.35 152.949 209.372 154.975 204.178L158.806 194.453C159.211 193.421 160.353 192.869 161.421 193.127L208.426 205.725Z" fill="url(#paint43_linear_36_554)"/>
<path d="M208.426 205.725C208.499 205.762 208.573 205.762 208.647 205.799C209.789 206.241 210.341 207.53 209.862 208.635L206.031 218.36C203.49 224.843 197.927 229.78 191.223 231.585L165.879 238.363C165.695 238.4 165.51 238.436 165.326 238.436C165.142 238.436 164.958 238.4 164.774 238.363C164.037 238.179 163.447 237.589 163.226 236.816C162.932 235.637 163.595 234.458 164.774 234.126L190.118 227.348C195.496 225.912 199.953 221.933 201.979 216.739L205.81 207.014C206.216 205.983 207.357 205.43 208.426 205.725Z" fill="url(#paint44_linear_36_554)"/>
<path d="M137.735 275.752L153.428 303.97L164.442 298.997L153.317 268.938L137.735 275.752Z" fill="url(#paint45_linear_36_554)"/>
<path d="M153.243 299.697C151.585 299.66 149.817 300.728 151.217 304.08C152.543 307.248 153.796 308.022 152.101 312.774C150.296 317.821 148.344 321.946 149.117 324.083C149.891 326.22 152.801 326.883 155.932 323.751C159.063 320.62 165.731 311.337 168.31 307.138C170.999 302.717 167.757 299.77 166.026 297.928C164.294 296.087 163.115 295.313 163.115 295.313C163.115 295.313 164.331 297.928 161.163 299.77C157.958 301.649 156.743 299.734 153.243 299.697Z" fill="url(#paint46_linear_36_554)"/>
<path d="M168.641 301.318C168.678 302.459 168.384 303.712 167.536 305.112C164.774 309.68 157.48 319.736 154.128 323.162C152.691 324.599 151.328 325.299 150.112 325.446C151.402 326.33 153.612 326.072 155.896 323.788C159.027 320.657 165.694 311.374 168.273 307.175C169.71 304.817 169.452 302.902 168.641 301.318Z" fill="url(#paint47_linear_36_554)"/>
<path d="M159.506 181.449C154.348 178.576 147.939 179.644 143.96 183.991C138.803 189.664 131.583 197.915 125.321 206.314C118.543 215.413 108.412 229.853 119.758 247.977C131.067 266.101 142.56 284.888 142.56 284.888L157.332 277.558C157.332 277.558 148.639 243.815 144.255 234.605C139.871 225.396 142.745 224.991 143.555 222.744C144.034 221.418 154.238 210.219 162.637 201.157C168.236 195.116 166.689 185.464 159.506 181.449Z" fill="url(#paint48_linear_36_554)"/>
<path d="M137.661 163.878C140.019 158.905 146.318 141.444 152.212 129.84C156.89 120.594 171.367 125.678 165.952 136.25C159.248 149.364 153.611 163.583 149.338 170.14C144.697 177.287 133.977 171.614 137.661 163.878Z" fill="url(#paint49_linear_36_554)"/>
<path d="M131.767 300.102L134.825 332.261L146.944 332.113L148.749 300.102H131.767Z" fill="url(#paint50_linear_36_554)"/>
<path d="M149.891 204.399C149.891 204.399 144.586 210.919 136.74 216.739C128.894 222.56 123.81 231.511 124.142 245.693C124.473 259.876 131.399 306.217 131.399 306.217C141.75 310.637 149.228 305.996 149.228 305.996C149.228 305.996 150.554 292.919 152.691 274.316C154.606 257.26 151.07 244.514 152.691 239.357C154.311 234.2 186.986 222.891 190.412 207.714C193.543 193.826 187.06 185.28 187.06 185.28L152.433 174.34C152.433 174.34 142.855 183.07 141.124 189.59C139.392 196.147 149.891 204.399 149.891 204.399Z" fill="url(#paint51_linear_36_554)"/>
<path d="M136.408 328.246C134.898 327.546 132.835 327.804 132.798 331.45C132.761 334.876 133.609 336.092 130.109 339.776C126.425 343.68 123 346.701 122.815 348.948C122.631 351.195 125.063 353 129.188 351.343C133.314 349.685 143.15 343.901 147.165 341.065C151.401 338.081 149.596 334.103 148.749 331.745C147.902 329.388 147.128 328.209 147.128 328.209C147.128 328.209 147.202 331.119 143.555 331.487C139.908 331.929 139.576 329.682 136.408 328.246Z" fill="url(#paint52_linear_36_554)"/>
<path d="M149.559 334.176C149.596 335.981 148.97 337.897 146.686 339.518C142.376 342.538 131.803 348.764 127.42 350.532C125.983 351.085 124.731 351.269 123.699 351.158C124.731 352.079 126.646 352.374 129.188 351.379C133.314 349.759 143.149 343.938 147.165 341.102C150.185 339.002 150.148 336.387 149.559 334.176Z" fill="url(#paint53_linear_36_554)"/>
<path d="M190.338 191.322C190.338 191.322 186.765 173.676 188.791 156.068C189.933 146.122 199.105 136.876 192.548 129.14C189.933 126.046 169.709 119.563 157.774 125.272C151.954 128.072 151.954 130.908 149.596 136.876C146.944 143.617 146.502 148.259 148.086 152.495C154.9 170.803 145.065 181.154 145.065 181.154C145.065 181.154 154.679 196.221 190.338 191.322Z" fill="url(#paint54_linear_36_554)"/>
<path d="M178.219 110.685C178.219 110.685 176.119 122.952 182.529 124.793C182.529 124.793 180.724 124.425 176.524 127.041C165.768 133.708 160.131 144.87 160.131 144.87C160.131 144.87 157.848 131.35 163.999 124.02C168.236 118.973 166.725 113.484 166.725 113.484L178.219 110.685Z" fill="url(#paint55_linear_36_554)"/>
<path d="M182.05 110.243C182.381 107.664 182.639 97.8654 176.192 93.9606C169.746 90.0559 159.91 93.8501 158.29 98.6021C156.669 103.354 159.174 107.811 159.137 109.653C159.1 111.495 159.579 114.553 160.426 116.726C161.826 120.447 163.852 123.32 166.615 123.615C169.525 123.909 181.092 118.089 182.05 110.243Z" fill="url(#paint56_linear_36_554)"/>
<path d="M158.584 98.5285C158.584 98.5285 157.074 101.07 158.363 105.454C159.653 109.801 159.432 111.016 159.542 112.711C159.837 118.421 164.184 122.657 164.184 122.657C164.184 122.657 159.432 125.972 155.748 121.92C150.185 115.842 157.148 99.9283 157.148 99.9283C157.148 99.9283 156.19 93.2607 162.157 89.7612C168.457 86.0775 181.534 87.0721 184.812 95.4341C188.091 103.796 187.723 111.532 193.211 118.863C189.712 122.583 184.481 126.267 179.287 124.941C172.251 123.136 175.566 113.853 175.824 111.679C176.782 104.349 170.262 103.575 163.447 102.838C159.358 102.36 158.584 98.5285 158.584 98.5285Z" fill="url(#paint57_linear_36_554)"/>
<path d="M163.079 111.385C163.079 111.385 162.637 115.105 162.563 115.768C162.489 116.431 163.337 117.426 164.626 116.726" stroke="#2E405C" stroke-width="0.368372" stroke-miterlimit="10" stroke-linecap="round"/>
<path d="M167.794 111.495C168.323 111.495 168.751 111.066 168.751 110.537C168.751 110.008 168.323 109.58 167.794 109.58C167.265 109.58 166.836 110.008 166.836 110.537C166.836 111.066 167.265 111.495 167.794 111.495Z" fill="#2E405C"/>
<path d="M160.868 112.048C161.397 112.048 161.826 111.619 161.826 111.09C161.826 110.561 161.397 110.132 160.868 110.132C160.339 110.132 159.911 110.561 159.911 111.09C159.911 111.619 160.339 112.048 160.868 112.048Z" fill="#2E405C"/>
<path d="M166.468 107.406C166.468 107.406 167.868 106.08 169.709 107.406" stroke="#2E405C" stroke-width="0.368372" stroke-miterlimit="10" stroke-linecap="round"/>
<path d="M158.99 108.032C158.99 108.032 160.39 106.706 162.231 108.032" stroke="#2E405C" stroke-width="0.368372" stroke-miterlimit="10" stroke-linecap="round"/>
<path d="M166.468 119.231C166.468 119.231 169.415 118.236 169.378 115.437" stroke="#2E405C" stroke-width="0.368372" stroke-miterlimit="10" stroke-linecap="round"/>
<path d="M149.817 115.768C149.633 117.536 149.559 118.052 149.559 118.052C149.559 118.052 148.344 117.205 146.907 118.163C146.907 118.163 145.249 117.131 144.181 118.605C144.181 118.605 143.481 118.236 142.413 118.457C141.345 118.678 141.013 119.747 140.902 120.852C140.792 121.957 140.976 131.866 140.792 134.04C140.129 141.739 138.803 152.679 137.071 165.314C135.34 177.95 151.106 177.765 150.48 164.688C149.854 151.611 149.522 131.793 149.559 130.835C149.596 129.877 150.812 126.12 151.327 124.094C151.696 122.657 152.248 119.084 152.433 115.658C152.469 114.847 152.359 114.258 151.438 113.779C150.222 113.153 149.486 112.932 148.012 112.306C146.575 111.716 145.986 113.521 147.902 114.626C149.817 115.731 149.817 115.768 149.817 115.768Z" fill="url(#paint58_linear_36_554)"/>
<path d="M141.197 119.121C140.866 120.373 140.203 123.357 140.055 124.351C139.945 125.125 141.308 125.751 141.86 124.351C142.413 122.952 143.444 120.447 143.886 118.863C144.07 118.2 141.676 117.352 141.197 119.121Z" fill="url(#paint59_linear_36_554)"/>
<path d="M143.739 118.642C143.371 120.078 142.597 123.504 142.413 124.683C142.266 125.567 143.85 126.304 144.476 124.683C145.102 123.062 146.281 120.189 146.797 118.384C147.054 117.61 144.292 116.616 143.739 118.642Z" fill="url(#paint60_linear_36_554)"/>
<path d="M146.612 118.715C146.244 120.152 145.47 123.578 145.286 124.757C145.139 125.641 146.723 126.377 147.349 124.757C147.975 123.136 149.154 120.262 149.67 118.457C149.927 117.684 147.165 116.726 146.612 118.715Z" fill="url(#paint61_linear_36_554)"/>
<path d="M150.222 127.961C150.222 127.961 150.37 124.315 150.222 123.504C150.075 122.694 149.486 121.92 147.644 122.104C145.765 122.325 143.371 122.325 143.187 122.878C143.002 123.467 143.629 124.315 144.807 124.425C145.986 124.572 146.87 124.646 146.87 124.646C146.87 124.646 144.144 125.678 144.181 127.998C144.218 131.424 149.965 131.129 150.222 127.961Z" fill="url(#paint62_linear_36_554)"/>
<path d="M141.75 172.977C142.303 172.719 142.598 171.982 142.45 171.098L139.209 151.206C139.024 150.027 138.14 148.996 137.219 148.885L130.699 148.222C130.478 148.185 130.294 148.222 130.11 148.296L130.81 147.964C130.994 147.89 131.178 147.854 131.399 147.89L137.919 148.554C138.84 148.627 139.724 149.695 139.909 150.874L143.15 170.766C143.298 171.687 143.003 172.424 142.45 172.645L141.75 172.977Z" fill="url(#paint63_linear_36_554)"/>
<path d="M141.751 172.977C141.567 173.05 141.382 173.087 141.161 173.05L134.641 172.387C133.72 172.314 132.836 171.245 132.652 170.066L129.41 150.174C129.263 149.253 129.558 148.517 130.11 148.296C130.294 148.222 130.479 148.185 130.7 148.222L137.22 148.885C138.141 148.959 139.025 150.027 139.209 151.206L142.451 171.098C142.598 172.019 142.303 172.719 141.751 172.977Z" fill="url(#paint64_linear_36_554)"/>
<path d="M130.736 149.401C130.809 149.364 130.92 149.327 131.03 149.364C131.509 149.401 131.988 149.953 132.099 150.616C132.172 151.095 132.025 151.5 131.73 151.648C131.657 151.685 131.546 151.721 131.436 151.685C130.957 151.648 130.478 151.095 130.367 150.432C130.294 149.953 130.441 149.548 130.736 149.401Z" fill="white"/>
<path d="M141.456 160.01C138.509 160.747 132.32 162.625 130.515 163.178C128.931 163.657 129.078 165.204 130.662 165.204C132.246 165.167 137.661 163.878 137.661 163.878C137.661 163.878 133.72 165.83 131.841 166.788C129.447 168.004 131.325 169.772 132.651 169.145C134.125 168.446 138.914 166.162 138.914 166.162C138.914 166.162 136.225 168.077 134.825 169.072C133.462 170.03 134.567 171.466 135.635 170.877C136.777 170.251 140.682 168.151 140.682 168.151C140.682 168.151 138.84 169.33 137.514 170.472C136.225 171.614 136.961 172.092 137.624 172.092C138.288 172.092 140.94 170.545 142.082 170.103C143.813 169.44 147.239 169.109 149.118 169.44C150.996 169.772 173.725 177.397 186.286 180.786C195.643 183.291 199.437 168.851 187.981 167.009C176.93 165.241 149.854 161.447 145.434 158.168C143.15 156.473 141.603 154.226 141.271 153.895C140.498 153.084 139.724 154.411 140.166 156.031C140.719 157.542 141.456 160.01 141.456 160.01Z" fill="url(#paint65_linear_36_554)"/>
<path d="M181.756 173.934C181.792 168.446 179.287 149.916 180.503 136.95C181.719 123.983 196.822 124.315 196.159 139.049C195.496 153.784 195.938 168.04 194.87 175.776C193.691 184.175 181.682 182.481 181.756 173.934Z" fill="url(#paint66_linear_36_554)"/>
<defs>
<linearGradient id="paint0_linear_36_554" x1="266.252" y1="275.641" x2="229.917" y2="275.641" gradientUnits="userSpaceOnUse">
<stop stop-color="white"/>
<stop offset="1" stop-color="#AEBDDF"/>
</linearGradient>
<linearGradient id="paint1_linear_36_554" x1="183.412" y1="-45.6078" x2="183.412" y2="297.015" gradientUnits="userSpaceOnUse">
<stop stop-color="#ACBDDE"/>
<stop offset="1" stop-color="#2E405C"/>
</linearGradient>
<linearGradient id="paint2_linear_36_554" x1="304.643" y1="146.691" x2="-85.4193" y2="146.691" gradientUnits="userSpaceOnUse">
<stop stop-color="white"/>
<stop offset="1" stop-color="#AEBDDF"/>
</linearGradient>
<linearGradient id="paint3_linear_36_554" x1="174.223" y1="23.8705" x2="174.223" y2="312.183" gradientUnits="userSpaceOnUse">
<stop stop-color="#4FAEFF"/>
<stop offset="1" stop-color="#0D63F3"/>
</linearGradient>
<linearGradient id="paint4_linear_36_554" x1="264.744" y1="81.9799" x2="235.722" y2="110.617" gradientUnits="userSpaceOnUse">
<stop stop-color="#ACBDDE"/>
<stop offset="1" stop-color="#2E405C"/>
</linearGradient>
<linearGradient id="paint5_linear_36_554" x1="274.059" y1="99.0378" x2="218.323" y2="113.452" gradientUnits="userSpaceOnUse">
<stop stop-color="#ACBDDE"/>
<stop offset="1" stop-color="#2E405C"/>
</linearGradient>
<linearGradient id="paint6_linear_36_554" x1="173.968" y1="-60.2093" x2="173.968" y2="214.353" gradientUnits="userSpaceOnUse">
<stop stop-color="#88B4FF"/>
<stop offset="1" stop-color="#1A68FF"/>
</linearGradient>
<linearGradient id="paint7_linear_36_554" x1="157.497" y1="53.3594" x2="157.497" y2="348.066" gradientUnits="userSpaceOnUse">
<stop stop-color="white"/>
<stop offset="1" stop-color="#AEBDDF"/>
</linearGradient>
<linearGradient id="paint8_linear_36_554" x1="157.497" y1="19.0156" x2="157.497" y2="203.743" gradientUnits="userSpaceOnUse">
<stop stop-color="white"/>
<stop offset="1" stop-color="#AEBDDF"/>
</linearGradient>
<linearGradient id="paint9_linear_36_554" x1="157.681" y1="18.6839" x2="157.681" y2="106.239" gradientUnits="userSpaceOnUse">
<stop stop-color="white"/>
<stop offset="1" stop-color="#AEBDDF"/>
</linearGradient>
<linearGradient id="paint10_linear_36_554" x1="202.545" y1="65.4993" x2="202.545" y2="74.955" gradientUnits="userSpaceOnUse">
<stop stop-color="#ACBDDE"/>
<stop offset="1" stop-color="#2E405C"/>
</linearGradient>
<linearGradient id="paint11_linear_36_554" x1="163.111" y1="32.5058" x2="163.111" y2="93.1023" gradientUnits="userSpaceOnUse">
<stop stop-color="white"/>
<stop offset="1" stop-color="#AEBDDF"/>
</linearGradient>
<linearGradient id="paint12_linear_36_554" x1="115.005" y1="69.875" x2="115.005" y2="98.8762" gradientUnits="userSpaceOnUse">
<stop stop-color="#79D985"/>
<stop offset="1" stop-color="#027A71"/>
</linearGradient>
<linearGradient id="paint13_linear_36_554" x1="163.111" y1="49.5331" x2="163.111" y2="110.13" gradientUnits="userSpaceOnUse">
<stop stop-color="white"/>
<stop offset="1" stop-color="#AEBDDF"/>
</linearGradient>
<linearGradient id="paint14_linear_36_554" x1="115.005" y1="86.9022" x2="115.005" y2="115.903" gradientUnits="userSpaceOnUse">
<stop stop-color="#79D985"/>
<stop offset="1" stop-color="#027A71"/>
</linearGradient>
<linearGradient id="paint15_linear_36_554" x1="163.111" y1="66.5604" x2="163.111" y2="127.157" gradientUnits="userSpaceOnUse">
<stop stop-color="white"/>
<stop offset="1" stop-color="#AEBDDF"/>
</linearGradient>
<linearGradient id="paint16_linear_36_554" x1="115.005" y1="103.93" x2="115.005" y2="132.931" gradientUnits="userSpaceOnUse">
<stop stop-color="#799AD9"/>
<stop offset="1" stop-color="#022B7A"/>
</linearGradient>
<linearGradient id="paint17_linear_36_554" x1="163.111" y1="83.5877" x2="163.111" y2="144.184" gradientUnits="userSpaceOnUse">
<stop stop-color="white"/>
<stop offset="1" stop-color="#AEBDDF"/>
</linearGradient>
<linearGradient id="paint18_linear_36_554" x1="115.005" y1="120.957" x2="115.005" y2="149.958" gradientUnits="userSpaceOnUse">
<stop stop-color="#79D985"/>
<stop offset="1" stop-color="#027A71"/>
</linearGradient>
<linearGradient id="paint19_linear_36_554" x1="98.4986" y1="305.174" x2="42.0463" y2="305.174" gradientUnits="userSpaceOnUse">
<stop stop-color="white"/>
<stop offset="1" stop-color="#AEBDDF"/>
</linearGradient>
<linearGradient id="paint20_linear_36_554" x1="58.1533" y1="249.919" x2="67.5753" y2="249.919" gradientUnits="userSpaceOnUse">
<stop stop-color="white"/>
<stop offset="1" stop-color="#AEBDDF"/>
</linearGradient>
<linearGradient id="paint21_linear_36_554" x1="63.0222" y1="212.937" x2="63.0222" y2="196.967" gradientUnits="userSpaceOnUse">
<stop stop-color="white"/>
<stop offset="1" stop-color="#AEBDDF"/>
</linearGradient>
<linearGradient id="paint22_linear_36_554" x1="63.0222" y1="200.014" x2="63.0222" y2="95.3658" gradientUnits="userSpaceOnUse">
<stop stop-color="white"/>
<stop offset="1" stop-color="#AEBDDF"/>
</linearGradient>
<linearGradient id="paint23_linear_36_554" x1="27.2511" y1="168.35" x2="31.0335" y2="193.409" gradientUnits="userSpaceOnUse">
<stop stop-color="white"/>
<stop offset="1" stop-color="#AEBDDF"/>
</linearGradient>
<linearGradient id="paint24_linear_36_554" x1="9.61299" y1="174.365" x2="38.3193" y2="174.365" gradientUnits="userSpaceOnUse">
<stop stop-color="#ACBDDE" stop-opacity="0.1"/>
<stop offset="1" stop-color="#2E405C"/>
</linearGradient>
<linearGradient id="paint25_linear_36_554" x1="14.7872" y1="180.409" x2="38.3959" y2="180.409" gradientUnits="userSpaceOnUse">
<stop stop-color="#FFEFA4"/>
<stop offset="1" stop-color="#FE8F01"/>
</linearGradient>
<linearGradient id="paint26_linear_36_554" x1="24.9679" y1="165.692" x2="24.9679" y2="177.91" gradientUnits="userSpaceOnUse">
<stop stop-color="#FFEFA4"/>
<stop offset="1" stop-color="#FE8F01"/>
</linearGradient>
<linearGradient id="paint27_linear_36_554" x1="20.0806" y1="186.653" x2="20.0806" y2="158.614" gradientUnits="userSpaceOnUse">
<stop offset="0.00558659" stop-color="white" stop-opacity="0"/>
<stop offset="1" stop-color="white"/>
</linearGradient>
<linearGradient id="paint28_linear_36_554" x1="12.8137" y1="163.047" x2="37.6619" y2="163.519" gradientUnits="userSpaceOnUse">
<stop stop-color="#ACBDDE" stop-opacity="0.1"/>
<stop offset="1" stop-color="#2E405C"/>
</linearGradient>
<linearGradient id="paint29_linear_36_554" x1="24.9733" y1="163.976" x2="24.9733" y2="152.733" gradientUnits="userSpaceOnUse">
<stop stop-color="white"/>
<stop offset="1" stop-color="#AEBDDF"/>
</linearGradient>
<linearGradient id="paint30_linear_36_554" x1="28.1384" y1="157.444" x2="36.6307" y2="157.444" gradientUnits="userSpaceOnUse">
<stop stop-color="#5D6E8C"/>
<stop offset="1" stop-color="#2E405C"/>
</linearGradient>
<linearGradient id="paint31_linear_36_554" x1="70.0981" y1="112.318" x2="70.0981" y2="183.9" gradientUnits="userSpaceOnUse">
<stop stop-color="#ACBDDE"/>
<stop offset="1" stop-color="#2E405C"/>
</linearGradient>
<linearGradient id="paint32_linear_36_554" x1="84.3093" y1="196.955" x2="84.3093" y2="173.556" gradientUnits="userSpaceOnUse">
<stop stop-color="#ACBDDE"/>
<stop offset="1" stop-color="#2E405C"/>
</linearGradient>
<linearGradient id="paint33_linear_36_554" x1="85.6953" y1="207.171" x2="83.6949" y2="170.982" gradientUnits="userSpaceOnUse">
<stop stop-color="white"/>
<stop offset="1" stop-color="#AEBDDF"/>
</linearGradient>
<linearGradient id="paint34_linear_36_554" x1="34.1633" y1="181.012" x2="121.368" y2="181.012" gradientUnits="userSpaceOnUse">
<stop stop-color="#ACBDDE"/>
<stop offset="1" stop-color="#2E405C"/>
</linearGradient>
<linearGradient id="paint35_linear_36_554" x1="34.1633" y1="184.548" x2="121.368" y2="184.548" gradientUnits="userSpaceOnUse">
<stop stop-color="#ACBDDE"/>
<stop offset="1" stop-color="#2E405C"/>
</linearGradient>
<linearGradient id="paint36_linear_36_554" x1="164.592" y1="336.942" x2="112.171" y2="336.942" gradientUnits="userSpaceOnUse">
<stop stop-color="white"/>
<stop offset="1" stop-color="#AEBDDF"/>
</linearGradient>
<linearGradient id="paint37_linear_36_554" x1="197.481" y1="347.945" x2="153.274" y2="347.945" gradientUnits="userSpaceOnUse">
<stop stop-color="white"/>
<stop offset="1" stop-color="#AEBDDF"/>
</linearGradient>
<linearGradient id="paint38_linear_36_554" x1="248.87" y1="335.389" x2="172.765" y2="335.389" gradientUnits="userSpaceOnUse">
<stop stop-color="white"/>
<stop offset="1" stop-color="#AEBDDF"/>
</linearGradient>
<linearGradient id="paint39_linear_36_554" x1="197.481" y1="322.599" x2="153.275" y2="322.599" gradientUnits="userSpaceOnUse">
<stop stop-color="white"/>
<stop offset="1" stop-color="#AEBDDF"/>
</linearGradient>
<linearGradient id="paint40_linear_36_554" x1="161.239" y1="290.648" x2="166.305" y2="290.648" gradientUnits="userSpaceOnUse">
<stop stop-color="#5D6E8C"/>
<stop offset="1" stop-color="#2E405C"/>
</linearGradient>
<linearGradient id="paint41_linear_36_554" x1="121.843" y1="282.01" x2="141.225" y2="282.01" gradientUnits="userSpaceOnUse">
<stop stop-color="#5D6E8C"/>
<stop offset="1" stop-color="#2E405C"/>
</linearGradient>
<linearGradient id="paint42_linear_36_554" x1="182.933" y1="281.606" x2="205.894" y2="281.606" gradientUnits="userSpaceOnUse">
<stop stop-color="#5D6E8C"/>
<stop offset="1" stop-color="#2E405C"/>
</linearGradient>
<linearGradient id="paint43_linear_36_554" x1="278.915" y1="215.704" x2="160.084" y2="215.704" gradientUnits="userSpaceOnUse">
<stop stop-color="white"/>
<stop offset="1" stop-color="#AEBDDF"/>
</linearGradient>
<linearGradient id="paint44_linear_36_554" x1="213.712" y1="218.43" x2="139.026" y2="228.365" gradientUnits="userSpaceOnUse">
<stop stop-color="white"/>
<stop offset="1" stop-color="#AEBDDF"/>
</linearGradient>
<linearGradient id="paint45_linear_36_554" x1="162.971" y1="313.815" x2="143.786" y2="268.25" gradientUnits="userSpaceOnUse">
<stop stop-color="#FFD2BB"/>
<stop offset="1" stop-color="#FF6B5A"/>
</linearGradient>
<linearGradient id="paint46_linear_36_554" x1="159.12" y1="287.305" x2="159.12" y2="341.633" gradientUnits="userSpaceOnUse">
<stop stop-color="white"/>
<stop offset="1" stop-color="#AEBDDF"/>
</linearGradient>
<linearGradient id="paint47_linear_36_554" x1="159.708" y1="282.692" x2="159.708" y2="325.97" gradientUnits="userSpaceOnUse">
<stop stop-color="#ACBDDE"/>
<stop offset="1" stop-color="#2E405C"/>
</linearGradient>
<linearGradient id="paint48_linear_36_554" x1="140.346" y1="348.306" x2="140.346" y2="230.343" gradientUnits="userSpaceOnUse">
<stop stop-color="#ACBDDE"/>
<stop offset="1" stop-color="#2E405C"/>
</linearGradient>
<linearGradient id="paint49_linear_36_554" x1="152.014" y1="107.17" x2="152.014" y2="186.025" gradientUnits="userSpaceOnUse">
<stop stop-color="#FFD2BB"/>
<stop offset="1" stop-color="#FF6B5A"/>
</linearGradient>
<linearGradient id="paint50_linear_36_554" x1="140.262" y1="338.21" x2="140.262" y2="275.145" gradientUnits="userSpaceOnUse">
<stop stop-color="#FFD2BB"/>
<stop offset="1" stop-color="#FF6B5A"/>
</linearGradient>
<linearGradient id="paint51_linear_36_554" x1="157.691" y1="340.089" x2="157.691" y2="198.702" gradientUnits="userSpaceOnUse">
<stop stop-color="#ACBDDE"/>
<stop offset="1" stop-color="#2E405C"/>
</linearGradient>
<linearGradient id="paint52_linear_36_554" x1="136.333" y1="321.035" x2="136.333" y2="362.853" gradientUnits="userSpaceOnUse">
<stop stop-color="white"/>
<stop offset="1" stop-color="#AEBDDF"/>
</linearGradient>
<linearGradient id="paint53_linear_36_554" x1="136.776" y1="322.476" x2="136.776" y2="354.786" gradientUnits="userSpaceOnUse">
<stop stop-color="#ACBDDE"/>
<stop offset="1" stop-color="#2E405C"/>
</linearGradient>
<linearGradient id="paint54_linear_36_554" x1="169.963" y1="108.183" x2="169.963" y2="240.378" gradientUnits="userSpaceOnUse">
<stop stop-color="#FFEFA4"/>
<stop offset="1" stop-color="#FE8F01"/>
</linearGradient>
<linearGradient id="paint55_linear_36_554" x1="171.13" y1="158.727" x2="171.13" y2="113.671" gradientUnits="userSpaceOnUse">
<stop stop-color="#FFD2BB"/>
<stop offset="1" stop-color="#FF6B5A"/>
</linearGradient>
<linearGradient id="paint56_linear_36_554" x1="169.963" y1="147.483" x2="169.963" y2="71.7527" gradientUnits="userSpaceOnUse">
<stop stop-color="#FFD2BB"/>
<stop offset="1" stop-color="#FF6B5A"/>
</linearGradient>
<linearGradient id="paint57_linear_36_554" x1="218.296" y1="36.2633" x2="169.125" y2="117.112" gradientUnits="userSpaceOnUse">
<stop stop-color="#ACBDDE"/>
<stop offset="1" stop-color="#2E405C"/>
</linearGradient>
<linearGradient id="paint58_linear_36_554" x1="148.706" y1="98.2755" x2="142.971" y2="176.455" gradientUnits="userSpaceOnUse">
<stop stop-color="#FFD2BB"/>
<stop offset="1" stop-color="#FF6B5A"/>
</linearGradient>
<linearGradient id="paint59_linear_36_554" x1="141.975" y1="110.585" x2="141.975" y2="126.744" gradientUnits="userSpaceOnUse">
<stop stop-color="#FFD2BB"/>
<stop offset="1" stop-color="#FF6B5A"/>
</linearGradient>
<linearGradient id="paint60_linear_36_554" x1="144.629" y1="110.585" x2="144.629" y2="126.744" gradientUnits="userSpaceOnUse">
<stop stop-color="#FFD2BB"/>
<stop offset="1" stop-color="#FF6B5A"/>
</linearGradient>
<linearGradient id="paint61_linear_36_554" x1="147.492" y1="110.585" x2="147.492" y2="126.744" gradientUnits="userSpaceOnUse">
<stop stop-color="#FFD2BB"/>
<stop offset="1" stop-color="#FF6B5A"/>
</linearGradient>
<linearGradient id="paint62_linear_36_554" x1="146.108" y1="138.636" x2="147.053" y2="116.992" gradientUnits="userSpaceOnUse">
<stop stop-color="#FFD2BB"/>
<stop offset="1" stop-color="#FF6B5A"/>
</linearGradient>
<linearGradient id="paint63_linear_36_554" x1="147.836" y1="142.341" x2="139.856" y2="155.028" gradientUnits="userSpaceOnUse">
<stop stop-color="#ACBDDE"/>
<stop offset="1" stop-color="#2E405C"/>
</linearGradient>
<linearGradient id="paint64_linear_36_554" x1="150.349" y1="145.305" x2="129.022" y2="168.043" gradientUnits="userSpaceOnUse">
<stop stop-color="#ACBDDE"/>
<stop offset="1" stop-color="#2E405C"/>
</linearGradient>
<linearGradient id="paint65_linear_36_554" x1="91.6872" y1="167.278" x2="247.769" y2="167.278" gradientUnits="userSpaceOnUse">
<stop stop-color="#FFD2BB"/>
<stop offset="1" stop-color="#FF6B5A"/>
</linearGradient>
<linearGradient id="paint66_linear_36_554" x1="91.6873" y1="154.425" x2="247.769" y2="154.425" gradientUnits="userSpaceOnUse">
<stop stop-color="#FFD2BB"/>
<stop offset="1" stop-color="#FF6B5A"/>
</linearGradient>
</defs>
</svg>
