<svg xmlns="http://www.w3.org/2000/svg" height="30" viewBox="0 0 30 30" width="30"><path d="M7.518 25c1.428 0 2.832-.616 3.863-1.623C12.415 22.37 13 21.012 13 19.502c0-1.39-.616-2.673-1.332-3.766-.714-1.09-1.558-2.03-2.26-3.023-.406-.573-.766-1.164-1.02-1.785-.256-.62-.405-1.287-.388-1.926.032-1.223.728-2.428 1.766-3.076.447-.278.187-1.02-.358-.916-2.647.5-5.093 1.95-6.8 4.035C.904 11.13 0 13.805 0 16.5c0 2 .64 4.187 1.965 5.828.663.82 1.494 1.513 2.45 1.987.954.474 2.026.685 3.103.685zm-.036-1c-.9 0-1.81-.178-2.623-.582-.815-.404-1.54-1-2.118-1.717C1.586 20.27 1 18.474 1 16.5c0-2.452.83-4.922 2.383-6.82 1.114-1.362 2.64-2.287 4.273-2.95C7.258 7.412 7.02 8.2 7 9c-.02.81.167 1.586.463 2.307.296.718.697 1.372 1.13 1.98.744 1.054 1.578 1.99 2.237 2.995.657 1.003 1.17 2.102 1.17 3.217 0 1.158-.48 2.344-1.316 3.16-.84.82-2.017 1.338-3.202 1.338zm17.036 1c1.428 0 2.832-.616 3.863-1.623C29.415 22.37 30 21.01 30 19.5c0-1.39-.616-2.67-1.332-3.764-.714-1.09-1.558-2.03-2.26-3.023-.406-.573-.766-1.164-1.02-1.785-.256-.62-.405-1.287-.388-1.926.032-1.223.728-2.428 1.766-3.076.447-.278.187-1.02-.358-.916-2.647.5-5.093 1.95-6.8 4.035C17.904 11.13 17 13.808 17 16.502c0 2 .64 4.185 1.965 5.826.663.82 1.494 1.513 2.45 1.987.954.474 2.026.685 3.103.685zm-.036-1c-.9 0-1.81-.178-2.623-.582-.815-.404-1.54-1-2.118-1.717C18.586 20.27 18 18.476 18 16.503c0-2.452.83-4.924 2.383-6.822 1.114-1.362 2.64-2.287 4.273-2.95C24.258 7.412 24.02 8.2 24 9c-.02.81.167 1.586.463 2.307.296.718.697 1.372 1.13 1.98.744 1.054 1.578 1.99 2.237 2.995.657 1.003 1.17 2.1 1.17 3.215 0 1.158-.48 2.346-1.316 3.162-.84.82-2.017 1.338-3.202 1.338z"/></svg>