<svg height="30" viewBox="0 0 30 30" width="30" xmlns="http://www.w3.org/2000/svg"><path d="M6.494 13.994c-.45 0-.67.547-.348.86l8 8c.188.186.488.195.686.02l9-8c.547-.44-.164-1.24-.664-.747l-8.648 7.685-7.666-7.666c-.095-.097-.224-.152-.36-.152zM14.5 2c.277 0 .5.223.5.5v18c0 .277-.223.5-.5.5s-.5-.223-.5-.5v-18c0-.277.223-.5.5-.5zM.5 22c-.276.004-.504.224-.5.5v4c0 .822.678 1.5 1.5 1.5h27c.822 0 1.5-.678 1.5-1.5v-4c.01-.66-1-.657-1 0v4c0 .286-.214.5-.5.5h-27c-.286 0-.5-.214-.5-.5v-4c.004-.282-.218-.504-.5-.5z"/></svg>