<svg height="30" viewBox="0 0 30 30" width="30" xmlns="http://www.w3.org/2000/svg"><path d="M4.486 15h10.028c.27 0 .486.217.486.486 0 .27-.217.486-.486.486H4.486c-.27 0-.486-.216-.486-.486S4.217 15 4.486 15zm.014-4h21c.277 0 .5.223.5.5s-.223.5-.5.5h-21c-.277 0-.5-.223-.5-.5s.223-.5.5-.5zm0-4h21c.277 0 .5.223.5.5s-.223.5-.5.5h-21c-.277 0-.5-.223-.5-.5s.223-.5.5-.5zm-3-6C.678 1 0 1.678 0 2.5v19c0 .822.678 1.5 1.5 1.5H5v4.5c0 .348.05.647.184.908.132.26.374.48.658.555.568.15 1.076-.164 1.515-.613 1.525-1.56 4.227-4.236 5.35-5.35H28.5c.822 0 1.5-.678 1.5-1.5v-19c0-.822-.678-1.5-1.5-1.5zm0 1h27c.286 0 .5.214.5.5v19c0 .286-.214.5-.5.5h-16c-.132 0-.258.052-.352.145-1.06 1.05-3.926 3.89-5.505 5.505-.552.552-.643.198-.643-.15v-5c0-.276-.224-.5-.5-.5h-4c-.286 0-.5-.214-.5-.5v-19c0-.286.214-.5.5-.5z"/></svg>