<svg height="30" viewBox="0 0 30 30" width="30" xmlns="http://www.w3.org/2000/svg"><path d="M8 0C3.588 0 0 3.588 0 8s3.588 8 8 8c1.17 0 2.005-.25 2.78-.53l13.366 13.384C24.73 29.438 25.543 30 26.5 30h2c.423 0 .767-.205 1.03-.47.265-.263.47-.607.47-1.03v-2c0-.957-.563-1.77-1.146-2.354l-1-1c-.094-.094-.22-.146-.354-.146H26v-1.5c0-.133-.052-.26-.146-.354l-2-2c-.094-.093-.22-.146-.354-.146H22v-1.5c0-.133-.053-.26-.146-.354l-2-2c-.094-.093-.22-.146-.354-.146H18v-1.5c0-.133-.053-.26-.146-.354l-2.407-2.406C15.77 9.858 16 8.94 16 8c0-4.412-3.588-8-8-8zm0 1c3.872 0 7 3.128 7 7 0 .934-.187 1.858-.55 2.72-.077.186-.035.402.11.546l2.44 2.44V15.5c0 .276.224.5.5.5h1.793L21 17.707V19.5c0 .276.224.5.5.5h1.793L25 21.707V23.5c0 .276.224.5.5.5h1.793l.853.854c.47.47.854 1.112.854 1.646v2c0 .05-.06.204-.178.322-.118.12-.273.178-.322.178h-2c-.534 0-1.176-.383-1.646-.854L11.26 14.553c-.144-.145-.36-.187-.55-.108-.857.364-1.78.552-2.71.555-3.872 0-7-3.128-7-7s3.128-7 7-7zM6 4c-1.1 0-2 .9-2 2s.9 2 2 2 2-.9 2-2-.9-2-2-2zm0 1c.558 0 1 .442 1 1s-.442 1-1 1-1-.442-1-1 .442-1 1-1z"/></svg>