<svg height="30" viewBox="0 0 30 30" width="30" xmlns="http://www.w3.org/2000/svg"><path d="M12.5 15h13c.277 0 .5.223.5.5s-.223.5-.5.5h-13c-.277 0-.5-.223-.5-.5s.223-.5.5-.5zm0 3h13c.277 0 .5.223.5.5s-.223.5-.5.5h-13c-.277 0-.5-.223-.5-.5s.223-.5.5-.5zm0-6h13c.277 0 .5.223.5.5s-.223.5-.5.5h-13c-.277 0-.5-.223-.5-.5s.223-.5.5-.5zm-8-1c-.822 0-1.5.678-1.5 1.5v6c0 .822.678 1.5 1.5 1.5h4c.822 0 1.5-.678 1.5-1.5v-6c0-.822-.678-1.5-1.5-1.5zm0 1h4c.286 0 .5.214.5.5v6c0 .286-.214.5-.5.5h-4c-.286 0-.5-.214-.5-.5v-6c0-.286.214-.5.5-.5zm2-10c.277 0 .5.223.5.5v4c0 .277-.223.5-.5.5S6 6.777 6 6.5v-4c0-.277.223-.5.5-.5zm17 0c.277 0 .5.223.5.5v4c0 .277-.223.5-.5.5s-.5-.223-.5-.5v-4c0-.277.223-.5.5-.5zm-22 2C.678 4 0 4.678 0 5.5v20c0 .822.678 1.5 1.5 1.5h27c.822 0 1.5-.678 1.5-1.5v-20c0-.822-.678-1.5-1.5-1.5h-3c-.66 0-.664 1 0 1h3c.286 0 .5.214.5.5v20c0 .286-.214.5-.5.5h-27c-.286 0-.5-.214-.5-.5v-20c0-.286.214-.5.5-.5h3c.67 0 .654-1 0-1zm7 0c-.63 0-.683 1 0 1h13c.66 0 .66-1 0-1z"/></svg>