<svg height="30" viewBox="0 0 30 30" width="30" xmlns="http://www.w3.org/2000/svg"><path d="M9.5 11c-.275 0-.5.225-.5.5v3c0 .666 1 .663 1 0v-1.798l4.132 4.135c.47.49 1.194-.235.705-.705L10.7 12l1.79-.003c.67 0 .686-.997 0-.997zm5 2c-.67 0-.657 1 0 1 1.387 0 2.5 1.113 2.5 2.5S15.887 19 14.5 19 12 17.887 12 16.5c0-.665-1-.653-1 0 0 1.927 1.573 3.5 3.5 3.5s3.5-1.573 3.5-3.5-1.573-3.5-3.5-3.5zm-2-13c-.277 0-.5.223-.5.5s.223.5.5.5H14v3.5c0 .277.223.5.5.5s.5-.223.5-.5v-.48c5.608.225 10.407 4.157 11.68 9.666 1.31 5.672-1.464 11.492-6.696 14.046-5.23 2.555-11.526 1.163-15.193-3.36-3.666-4.52-3.726-10.97-.145-15.56.41-.526-.38-1.14-.79-.615-3.863 4.954-3.798 11.925.16 16.805 3.955 4.88 10.764 6.385 16.41 3.63 5.644-2.757 8.644-9.05 7.23-15.17C26.277 7.503 21.068 3.245 15 3.02V1h1.5c.277 0 .5-.223.5-.5s-.223-.5-.5-.5h-4z"/></svg>