<svg height="30" viewBox="0 0 30 30" width="30" xmlns="http://www.w3.org/2000/svg"><path d="M16 20a1 1 0 0 1-1 1 1 1 0 0 1-1-1 1 1 0 0 1 1-1 1 1 0 0 1 1 1zM2.5 17h25c.277 0 .5.223.5.5s-.223.5-.5.5h-25c-.277 0-.5-.223-.5-.5s.223-.5.5-.5zm-1-14C.678 3 0 3.678 0 4.5v17c0 .822.678 1.5 1.5 1.5H12v3H9.5c-.277 0-.5.223-.5.5s.223.5.5.5h11c.277 0 .5-.223.5-.5s-.223-.5-.5-.5H18v-3h10.5c.822 0 1.5-.678 1.5-1.5v-17c0-.822-.678-1.5-1.5-1.5zm0 1h27c.286 0 .5.214.5.5v17c0 .286-.214.5-.5.5h-27c-.286 0-.5-.214-.5-.5v-17c0-.286.214-.5.5-.5zM13 23h4v3h-4z"/></svg>