<svg height="30" viewBox="0 0 30 30" width="30" xmlns="http://www.w3.org/2000/svg"><path d="M8.5 17h9c.277 0 .5.223.5.5s-.223.5-.5.5h-9c-.277 0-.5-.223-.5-.5s.223-.5.5-.5zm4.5 2c-1.1 0-2 .9-2 2s.9 2 2 2 2-.9 2-2-.9-2-2-2zm0 1c.558 0 1 .442 1 1s-.442 1-1 1-1-.442-1-1 .442-1 1-1zm0-8c-1.1 0-2 .9-2 2s.9 2 2 2 2-.9 2-2-.9-2-2-2zm0 1c.558 0 1 .442 1 1s-.442 1-1 1-1-.442-1-1 .442-1 1-1zM25 3c-1.1 0-2 .9-2 2s.9 2 2 2 2-.9 2-2-.9-2-2-2zm0 1c.558 0 1 .442 1 1s-.442 1-1 1-1-.442-1-1 .442-1 1-1zM.446 15.67c-.587.58-.583 1.542 0 2.124l11.76 11.76c.58.582 1.542.587 2.123 0L28.855 14.85c.247-.25.532-.48.768-.856.235-.376.376-.87.376-1.544V1.5c0-.823-.678-1.5-1.5-1.5h-11c-1.158 0-1.824.624-2.35 1.145zm.703.712L15.85 1.856c.533-.526.808-.856 1.65-.856H28.5c.285 0 .5.214.5.5v10.952c0 .547-.093.805-.224 1.013-.13.21-.344.394-.63.684l-14.53 14.7c-.197.2-.5.2-.703-.002l-11.76-11.76c-.203-.203-.205-.508-.004-.706z"/></svg>