<svg height="30" viewBox="0 0 30 30" width="30" xmlns="http://www.w3.org/2000/svg"><path d="M8.5 0c-.996 0-1.958.55-2.594 1.307C5.27 2.06 5 2.967 5 4c0 .653.233 1.314.57 1.875.264.44.612.817 1.014 1.125H2C.9 7 0 7.9 0 9v4c0 1.1.9 2 2 2h26c1.1 0 2-.9 2-2V9c0-1.1-.9-2-2-2h-5.842c.277-.286.497-.626.64-1 .194-.505.244-1.05.17-1.574-.087-.6-.34-1.185-.773-1.64C21.758 2.325 21.163 2 20.5 2c-.643 0-1.235.22-1.713.55-.473.328-.842.733-1.18 1.116-.79.9-1.52 1.85-2.212 2.828-.604-1.132-1.258-2.238-1.997-3.287-.552-.784-1.166-1.58-1.98-2.205C10.598.372 9.596 0 8.5 0zm0 .996c.78 0 1.635.28 2.31.8.678.522 1.24 1.232 1.774 1.99.718 1.018 1.33 2.113 1.916 3.214h-4c-.567 0-1.117-.01-1.627-.096-.51-.085-.998-.253-1.418-.51-.42-.26-.78-.618-1.03-1.035C6.172 4.94 6 4.487 6 4c0-.717.207-1.503.668-2.05.46-.547 1.127-.954 1.832-.954zM20.5 3c.38 0 .703.19.97.473.272.284.45.68.51 1.093.053.364.015.742-.113 1.075-.127.332-.353.634-.635.852-.28.22-.633.367-1.007.44-.376.072-.78.076-1.225.068h-2.674c.64-.897 1.3-1.846 2.03-2.674.326-.37.645-.71.998-.955.348-.24.785-.37 1.146-.37zM2 8h26c.563 0 1 .437 1 1v4c0 .563-.437 1-1 1H2c-.563 0-1-.437-1-1V9c0-.563.437-1 1-1zm11.5 1c-.277 0-.5.223-.5.5v2c0 .277.223.5.5.5s.5-.223.5-.5v-2c0-.277-.223-.5-.5-.5zm3 0c-.277 0-.5.223-.5.5v2c0 .277.223.5.5.5s.5-.223.5-.5v-2c0-.277-.223-.5-.5-.5zM3.492 15.992c-.276.004-.496.232-.492.508V28c0 1.1.9 2 2 2h20c1.1 0 2-.9 2-2V16.5c.01-.676-1.01-.676-1 0V28c0 .563-.437 1-1 1h-8V16.5c0-.277-.223-.5-.5-.5s-.5.223-.5.5V29h-2V16.5c0-.277-.223-.5-.5-.5s-.5.223-.5.5V29H5c-.563 0-1-.437-1-1V16.5c.004-.282-.226-.512-.508-.508z"/></svg>