<svg height="30" viewBox="0 0 30 30" width="30" xmlns="http://www.w3.org/2000/svg"><path d="M23.5 4c.446 0 .67.543.35.854l-.995.993c-.447.466-1.166-.257-.702-.702l.993-.994c.094-.095.22-.15.354-.15zm-17 0c-.446 0-.67.543-.35.854l.995.993c.447.466 1.17-.253.702-.702l-.993-.994C6.76 4.056 6.634 4 6.5 4zm4 25h8c.277 0 .5.223.5.5s-.223.5-.5.5h-8c-.277 0-.5-.223-.5-.5s.223-.5.5-.5zm0-3h8c.277 0 .5.223.5.5s-.223.5-.5.5h-8c-.277 0-.5-.223-.5-.5s.223-.5.5-.5zm4-20c-1.848 0-3.496 1.065-4.65 2.7C8.695 10.338 8 12.558 8 15c0 2.443.695 4.663 1.85 6.3 1.154 1.635 2.802 2.7 4.65 2.7 1.848 0 3.496-1.065 4.65-2.7C20.305 19.662 21 17.442 21 15c0-2.443-.695-4.663-1.85-6.3C17.996 7.066 16.348 6 14.5 6zm0 1c1.465 0 2.817.837 3.834 2.277C19.35 10.717 20 12.747 20 15c0 2.252-.65 4.282-1.666 5.723-.657.93-1.457 1.604-2.334 1.968-.01-1.19-.028-2.297.145-3.213.198-1.06.608-1.88 1.625-2.555.42-.27.228-.923-.27-.922-.1 0-.195.03-.277.086-1.238.824-1.824 1.972-2.055 3.205-.216 1.15-.176 2.392-.168 3.673-.24.037-.735.037-1 0 .008-1.28.048-2.522-.168-3.672-.23-1.232-.817-2.38-2.055-3.204C11.695 16.03 11.6 16 11.5 16c-.498 0-.69.653-.27.922 1.017.676 1.427 1.495 1.625 2.555.173.916.154 2.024.145 3.214-.877-.363-1.677-1.037-2.334-1.967C9.65 19.283 9 17.253 9 15c0-2.252.65-4.282 1.666-5.723C11.683 7.837 13.036 7 14.5 7zm10 7h2c.277 0 .5.223.5.5s-.223.5-.5.5h-2c-.277 0-.5-.223-.5-.5s.223-.5.5-.5zM15 .5v2c0 .277-.223.5-.5.5s-.5-.223-.5-.5v-2c0-.277.223-.5.5-.5s.5.223.5.5zM2.5 14h2c.277 0 .5.223.5.5s-.223.5-.5.5h-2c-.277 0-.5-.223-.5-.5s.223-.5.5-.5z"/></svg>