<svg height="30" viewBox="0 0 30 30" width="30" xmlns="http://www.w3.org/2000/svg"><path d="M13.5 19h3c.277 0 .5.223.5.5s-.223.5-.5.5h-3c-.277 0-.5-.223-.5-.5s.223-.5.5-.5zm8 0h3c.277 0 .5.223.5.5s-.223.5-.5.5h-3c-.277 0-.5-.223-.5-.5s.223-.5.5-.5zm-16 0h3c.277 0 .5.223.5.5s-.223.5-.5.5h-3c-.277 0-.5-.223-.5-.5s.223-.5.5-.5zm8-6h3c.277 0 .5.223.5.5s-.223.5-.5.5h-3c-.277 0-.5-.223-.5-.5s.223-.5.5-.5zm8 0h3c.277 0 .5.223.5.5s-.223.5-.5.5h-3c-.277 0-.5-.223-.5-.5s.223-.5.5-.5zm-16 0h3c.277 0 .5.223.5.5s-.223.5-.5.5h-3c-.277 0-.5-.223-.5-.5s.223-.5.5-.5zm18-10c.277 0 .5.223.5.5v4c0 .277-.223.5-.5.5s-.5-.223-.5-.5v-4c0-.277.223-.5.5-.5zm-17 0c.277 0 .5.223.5.5v4c0 .277-.223.5-.5.5S6 7.777 6 7.5v-4c0-.277.223-.5.5-.5zm-5 2C.678 5 0 5.678 0 6.5v19c0 .822.678 1.5 1.5 1.5h27c.822 0 1.5-.678 1.5-1.5v-19c0-.822-.678-1.5-1.5-1.5h-3c-.656 0-.664 1 0 1h3c.286 0 .5.214.5.5v19c0 .286-.214.5-.5.5h-27c-.286 0-.5-.214-.5-.5v-19c0-.286.214-.5.5-.5h3c.672 0 .66-1 0-1zm7 0c-.65 0-.66 1 0 1h13c.656 0 .668-1 0-1z"/></svg>