<svg height="30" viewBox="0 0 30 30" width="30" xmlns="http://www.w3.org/2000/svg"><path d="M13.5 0c-.822 0-1.5.678-1.5 1.5v1.965c-1.068.275-2.088.695-3.04 1.25l-1.28-1.28c-.582-.58-1.54-.58-2.123 0l-2.12 2.122c-.583.582-.583 1.54 0 2.123l1.282 1.283c-.56.95-.984 1.97-1.263 3.037H1.5c-.822 0-1.5.678-1.5 1.5v3c0 .822.678 1.5 1.5 1.5h1.965c.275 1.068.695 2.088 1.25 3.04l-1.28 1.28c-.58.582-.58 1.54 0 2.123l2.122 2.12c.582.583 1.54.583 2.123 0l1.283-1.282c.95.56 1.97.984 3.037 1.263V28.5c0 .822.678 1.5 1.5 1.5h3c.822 0 1.5-.678 1.5-1.5v-1.965c1.068-.275 2.088-.695 3.04-1.25l1.28 1.28c.582.58 1.54.58 2.123 0l2.12-2.122c.583-.582.583-1.54 0-2.123l-1.282-1.283c.56-.95.984-1.97 1.263-3.037H28.5c.822 0 1.5-.678 1.5-1.5v-3c0-.822-.678-1.5-1.5-1.5h-1.965c-.275-1.068-.695-2.088-1.25-3.04l1.28-1.28c.58-.582.58-1.54 0-2.123l-2.122-2.12c-.582-.583-1.54-.583-2.123 0l-1.283 1.282c-.95-.56-1.97-.984-3.037-1.263V1.5c0-.822-.678-1.5-1.5-1.5h-3zm0 1h3c.286 0 .5.214.5.5v2.283a.5.5 0 0 0 .39.488c1.243.28 2.428.77 3.503 1.455a.5.5 0 0 0 .62-.07l1.514-1.512c.202-.202.508-.202.71 0l2.12 2.12c.202.202.202.508 0 .71L24.35 8.48a.5.5 0 0 0-.07.622c.68 1.076 1.167 2.262 1.44 3.505a.5.5 0 0 0 .49.393h2.29c.286 0 .5.214.5.5v3c0 .286-.214.5-.5.5h-2.283a.5.5 0 0 0-.488.39c-.28 1.243-.77 2.428-1.455 3.503a.5.5 0 0 0 .07.62l1.512 1.514c.202.202.202.508 0 .71l-2.12 2.12c-.202.202-.508.202-.71 0L21.52 24.35a.5.5 0 0 0-.622-.07c-1.076.68-2.262 1.167-3.505 1.44a.5.5 0 0 0-.393.49v2.29c0 .286-.214.5-.5.5h-3c-.286 0-.5-.214-.5-.5v-2.283a.5.5 0 0 0-.39-.488c-1.243-.28-2.428-.77-3.503-1.455a.5.5 0 0 0-.62.07l-1.514 1.512c-.202.202-.508.202-.71 0l-2.12-2.12c-.202-.202-.202-.508 0-.71L5.65 21.52a.5.5 0 0 0 .07-.622c-.68-1.076-1.167-2.262-1.44-3.505A.5.5 0 0 0 3.79 17H1.5c-.286 0-.5-.214-.5-.5v-3c0-.286.214-.5.5-.5h2.283a.5.5 0 0 0 .488-.39c.28-1.243.77-2.428 1.455-3.503a.5.5 0 0 0-.07-.62L4.144 6.972c-.202-.202-.202-.508 0-.71l2.12-2.12c.202-.202.508-.202.71 0L8.48 5.65a.5.5 0 0 0 .622.07c1.076-.68 2.262-1.167 3.505-1.44A.5.5 0 0 0 13 3.79V1.5c0-.286.214-.5.5-.5zm1.5 9c-2.756 0-5 2.244-5 5s2.244 5 5 5 5-2.244 5-5-2.244-5-5-5zm0 1c2.215 0 4 1.785 4 4s-1.785 4-4 4-4-1.785-4-4 1.785-4 4-4z"/></svg>