<svg height="30" viewBox="0 0 30 30" width="30" xmlns="http://www.w3.org/2000/svg"><path d="M19.468 0C16.568.15 14.15 2.568 14 5.47a.5.5 0 0 0 .532.53C17.432 5.85 19.85 3.434 20 .533a.5.5 0 0 0-.532-.53zm-.656 1.188c-.403 1.794-1.83 3.22-3.624 3.624.402-1.794 1.83-3.222 3.624-3.624zM9.612 7c-1.61 0-3.53.436-5.042 1.938C3.056 10.438 2 12.954 2 17c0 4.076 1.44 7.29 3.077 9.5.818 1.105 1.69 1.976 2.474 2.563.786.586 1.42.937 2.063.937 1.596 0 2.467-.278 3.173-.53.705-.255 1.217-.47 2.41-.47 1.194 0 1.706.215 2.41.47.707.252 1.578.53 3.174.53.978 0 2.323-.608 3.71-1.97 1.39-1.36 2.77-3.488 3.49-6.593a.508.5 0 0 0-.38-.625c-2.453-.58-4.282-2.713-4.282-5.312 0-2.184 1.277-4.08 3.14-4.97a.508.5 0 0 0 .19-.717C25.076 7.42 22.674 7 20.78 7c-1.58 0-2.676.275-3.52.53-.847.258-1.415.47-2.063.47-.65 0-1.217-.212-2.062-.47C12.29 7.276 11.192 7 9.613 7zm0 1c1.468 0 2.402.225 3.205.47.804.242 1.505.53 2.38.53.874 0 1.575-.288 2.38-.53.803-.245 1.736-.47 3.203-.47 1.643 0 3.427.34 4.758 2.063-1.895 1.143-3.236 3.093-3.236 5.437 0 2.855 1.9 5.226 4.505 6.094-.702 2.673-1.835 4.563-3.014 5.718C22.546 28.535 21.247 29 20.78 29c-1.484 0-2.138-.222-2.824-.47-.685-.245-1.43-.53-2.76-.53-1.33 0-2.074.285-2.76.53-.685.248-1.338.47-2.823.47-.14 0-.764-.23-1.46-.75-.693-.52-1.52-1.283-2.283-2.313-1.525-2.06-2.855-5.09-2.855-8.937 0-3.877.974-6.107 2.252-7.375C6.545 8.357 8.18 8 9.613 8z"/></svg>