<svg height="30" viewBox="0 0 30 30" width="30" xmlns="http://www.w3.org/2000/svg"><path d="M1.5 0C.678 0 0 .678 0 1.5v25c0 .822.678 1.5 1.5 1.5H3v.5c0 .822.678 1.5 1.5 1.5h2c.822 0 1.5-.678 1.5-1.5V28h14v.5c0 .822.678 1.5 1.5 1.5h2c.822 0 1.5-.678 1.5-1.5V28h1.5c.822 0 1.5-.678 1.5-1.5v-25c0-.822-.678-1.5-1.5-1.5h-27zm0 1h27c.286 0 .5.214.5.5v25c0 .286-.214.5-.5.5h-27c-.286 0-.5-.214-.5-.5v-25c0-.286.214-.5.5-.5zM5 4c-.552 0-1 .448-1 1s.448 1 1 1 1-.448 1-1-.448-1-1-1zm4 0c-.552 0-1 .448-1 1s.448 1 1 1 1-.448 1-1-.448-1-1-1zm4 0c-.552 0-1 .448-1 1s.448 1 1 1 1-.448 1-1-.448-1-1-1zM3.5 9c-.277 0-.5.223-.5.5s.223.5.5.5h23c.277 0 .5-.223.5-.5s-.223-.5-.5-.5h-23zM9 13c-.552 0-1 .448-1 1s.448 1 1 1 1-.448 1-1-.448-1-1-1zm4 0c-.552 0-1 .448-1 1s.448 1 1 1 1-.448 1-1-.448-1-1-1zm4 0c-.552 0-1 .448-1 1s.448 1 1 1 1-.448 1-1-.448-1-1-1zM3.5 18c-.277 0-.5.223-.5.5s.223.5.5.5h23c.277 0 .5-.223.5-.5s-.223-.5-.5-.5h-23zM5 22c-.552 0-1 .448-1 1s.448 1 1 1 1-.448 1-1-.448-1-1-1zm4 0c-.552 0-1 .448-1 1s.448 1 1 1 1-.448 1-1-.448-1-1-1zm4 0c-.552 0-1 .448-1 1s.448 1 1 1 1-.448 1-1-.448-1-1-1zm-9 6h3v.5c0 .286-.214.5-.5.5h-2c-.286 0-.5-.214-.5-.5V28zm19 0h3v.5c0 .286-.214.5-.5.5h-2c-.286 0-.5-.214-.5-.5V28z"/></svg>