<svg height="30" viewBox="0 0 30 30" width="30" xmlns="http://www.w3.org/2000/svg"><path d="M3.5 11c-.257 0-.466.193-.492.45L1.01 28.44c-.104.886.67 1.56 1.496 1.56h24.988c.825 0 1.6-.674 1.496-1.56l-1.998-16.99c-.078-.664-1.072-.546-.994.116l2 16.993c.025.214-.22.44-.504.44H2.506c-.283 0-.53-.226-.504-.44l2-16.994c.04-.3-.2-.565-.502-.566zM15 4c-2.203 0-4 1.797-4 4 0 2.203 1.797 4 4 4 2.203 0 4-1.797 4-4 0-2.203-1.797-4-4-4zm0 1c1.663 0 3 1.337 3 3s-1.337 3-3 3-3-1.337-3-3 1.337-3 3-3zm0-5c-4.412 0-8 3.588-8 8 0 3.175 1.623 6.603 3.38 9.275.877 1.337 1.79 2.48 2.577 3.305.393.412.75.743 1.072.984.32.242.56.436.97.436.41 0 .65-.194.97-.436.322-.24.68-.572 1.073-.984.786-.824 1.7-1.968 2.578-3.305C21.378 14.603 23 11.175 23 8c0-4.412-3.588-8-8-8zm0 1c3.872 0 7 3.128 7 7 0 2.825-1.522 6.147-3.215 8.725-.846 1.288-1.733 2.394-2.467 3.164-.366.383-.697.686-.95.878-.305.223-.495.184-.735 0-.254-.192-.585-.495-.95-.88-.735-.77-1.622-1.875-2.468-3.163C9.522 14.147 8 10.825 8 8c0-3.872 3.128-7 7-7z"/></svg>