<svg height="30" viewBox="0 0 30 30" width="30" xmlns="http://www.w3.org/2000/svg"><path d="M27.484 12a.5.5 0 0 0-.343.152l-8.496 8.584c-.043.043-.214.12-.398.12-.184 0-.346-.074-.384-.114l-4-4.177c-.306-.32-.716-.424-1.108-.423-.39 0-.798.106-1.107.417L2.15 26.14a.5.5 0 1 0 .712.703l9.496-9.583c.043-.044.214-.12.398-.12.184-.002.347.074.385.114l4 4.177c.307.32.717.424 1.108.423.392 0 .8-.106 1.107-.417l8.497-8.585a.5.5 0 0 0-.368-.855zm-.984-2c-.664 0-.652 1 0 1H29v2.5c0 .672 1 .652 1 0v-3c0-.276-.224-.5-.5-.5zM.5 0C.224.004-.004.224 0 .5v29c0 .276.224.5.5.5h29c.676.01.676-1.01 0-1H1V.5C1.004.218.782-.004.5 0z"/></svg>