<svg height="30" viewBox="0 0 30 30" width="30" xmlns="http://www.w3.org/2000/svg"><path d="M13.5 27c-.276.004-.504.224-.5.5v.5c0 1.1.9 2 2 2s2-.9 2-2v-.5c0-.333-.25-.5-.5-.5s-.5.162-.5.5v.5c0 .563-.437 1-1 1s-1-.437-1-1v-.5c.004-.282-.218-.504-.5-.5zM15 0c-1.65 0-3 1.35-3 3v.5c0 .65 1 .66 1 0V3c0-1.11.89-2 2-2 1.11 0 2 .89 2 2v.5c0 .654 1 .66 1 0V3c0-1.65-1.35-3-3-3zm7.5 3C25.534 3 28 5.468 28 8.5c0 .665-1 .665-1 0C27 6.01 24.994 4 22.5 4c-.667 0-.663-1 0-1zm-15 0C4.468 3 2 5.468 2 8.5c0 .665 1 .665 1 0C3 6.01 5.01 4 7.5 4c.668 0 .665-1 0-1zM15 5c-4.32 0-6.688 1.81-7.838 4.102C6.012 11.394 6 14.096 6 16c0 2 0 5.817-2.88 9.174A.5.5 0 0 0 3.5 26h23a.5.5 0 0 0 .38-.826C24 21.817 24 18 24 16c0-1.904-.013-4.606-1.162-6.898C21.688 6.81 19.32 5 15 5zm0 1c4.054 0 5.937 1.543 6.943 3.55C22.95 11.56 23 14.108 23 16c0 1.852.107 5.567 2.586 9H4.414C6.894 21.567 7 17.852 7 16c0-1.893.05-4.44 1.057-6.45C9.063 7.544 10.947 6 15 6z"/></svg>