<svg height="30" viewBox="0 0 30 30" width="30" xmlns="http://www.w3.org/2000/svg"><path d="M27 19c-.5-.002-.697.64-.277.912l1.5 1c.53.366 1.102-.48.554-.832l-1.5-1C27.195 19.023 27.1 19 27 19zm-3.5 4c-.402.002-.628.466-.416.773l1 1.5c.367.57 1.216.003.832-.554l-1-1.5c-.092-.144-.246-.22-.416-.22zm5-15c-.096 0-.198.03-.277.084l-1.5 1c-.54.347.032 1.192.554.832l1.5-1C29.174 8.66 29.004 8 28.5 8zm-4-4.5c-.165 0-.327.084-.416.223l-1 1.5c-.36.52.48 1.102.832.554l1-1.5c.232-.337-.003-.777-.416-.777zm-6.5 23v-2c0-.277.223-.5.5-.5s.5.223.5.5v2c0 .277-.223.5-.5.5s-.5-.223-.5-.5zm0-22v-2c0-.277.223-.5.5-.5s.5.223.5.5v2c0 .277-.223.5-.5.5s-.5-.223-.5-.5zm9.5 9.5h2c.277 0 .5.223.5.5s-.223.5-.5.5h-2c-.277 0-.5-.223-.5-.5s.223-.5.5-.5zm-9.973-7c-.695 0-.695 1 0 1C21.107 8 24 10.903 24 14.5S21.107 21 17.527 21c-.68 0-.703 1 0 1C21.65 22 25 18.635 25 14.5S21.65 7 17.527 7zM9 25c0 .552-.448 1-1 1s-1-.448-1-1 .448-1 1-1 1 .448 1 1zM6.5 4h3c.277 0 .5.223.5.5s-.223.5-.5.5h-3c-.277 0-.5-.223-.5-.5s.223-.5.5-.5zm-5-2C.678 2 0 2.678 0 3.5v23c0 .822.678 1.5 1.5 1.5h13c.822 0 1.5-.678 1.5-1.5v-23c0-.822-.678-1.5-1.5-1.5zm0 1h13c.286 0 .5.214.5.5v23c0 .286-.214.5-.5.5h-13c-.286 0-.5-.214-.5-.5v-23c0-.286.214-.5.5-.5z"/></svg>