<svg xmlns="http://www.w3.org/2000/svg" width="30" height="30"><path style="text-indent:0;text-align:start;line-height:normal;text-transform:none;block-progression:tb;-inkscape-font-specification:Sans" d="M18.938 28.276l-2.005-4.02c-.254-.56-1.164-.11-.878.472l2.006 4.02c.34.586 1.172.037.878-.472zm-7.877 0l2.007-4.02c.254-.56 1.164-.11.878.472l-2.006 4.02c-.34.586-1.172.037-.88-.472zM18.94 1.724l-2.005 4.02c-.254.56-1.164.11-.878-.472l2.006-4.02c.34-.585 1.172-.037.878.472zm-7.877 0l2.007 4.02c.254.56 1.164.11.878-.472l-2.006-4.02c-.34-.585-1.172-.037-.88.472zM19.5 7c-.657 0-.657 1 0 1H22c3.887 0 7 3.113 7 7s-3.113 7-7 7h-2.5c-.667 0-.65 1 0 1H22c4.423 0 8-3.577 8-8s-3.577-8-8-8zM8 7c-4.423 0-8 3.577-8 8s3.577 8 8 8h2.5c.665 0 .66-1 0-1H8c-3.887 0-7-3.113-7-7s3.113-7 7-7h2.5c.658 0 .67-1 0-1z"/></svg>