<svg xmlns="http://www.w3.org/2000/svg" height="30" width="30" viewBox="0 0 30 30"><path d="M14 26.5v-1c0-.3.2-.5.5-.5s.5.2.5.5v1c0 .3-.2.5-.5.5s-.5-.2-.5-.5zm0-23v-1c0-.3.2-.5.5-.5s.5.2.5.5v1c0 .3-.2.5-.5.5s-.5-.2-.5-.5zM2.5 14h1c.3 0 .5.2.5.5s-.2.5-.5.5h-1c-.3 0-.5-.2-.5-.5s.2-.5.5-.5zm23 0h1c.3 0 .5.2.5.5s-.2.5-.5.5h-1c-.3 0-.5-.2-.5-.5s.2-.5.5-.5zm-11-9c-.3 0-.5.2-.5.5V12c-1 .3-2 1.3-2 2.5 0 1.4 1 2.5 2.5 2.5 1.2 0 2.2-1 2.4-2h4.5c.3 0 .5-.2.5-.5s-.2-.5-.5-.5H17c-.3-1-1-1.7-2-2V5.6c0-.3-.2-.5-.5-.5zm0 8c.8 0 1.5.7 1.5 1.5s-.7 1.5-1.5 1.5-1.5-.7-1.5-1.5.7-1.5 1.5-1.5zm0-13C6.5 0 0 6.5 0 14.5S6.5 29 14.5 29 29 22.5 29 14.5 22.5 0 14.5 0zm0 1C22 1 28 7 28 14.5S22 28 14.5 28 1 22 1 14.5 7 1 14.5 1z"/></svg>