<svg height="30" viewBox="0 0 30 30" width="30" xmlns="http://www.w3.org/2000/svg"><path d="M25.5 3C23.02 3 21 5.02 21 7.5s2.02 4.5 4.5 4.5S30 9.98 30 7.5 27.98 3 25.5 3zm0 1C27.44 4 29 5.56 29 7.5S27.44 11 25.5 11 22 9.44 22 7.5 23.56 4 25.5 4zm0 1c-.277 0-.5.223-.5.5V7h-1.5c-.277 0-.5.223-.5.5s.223.5.5.5H25v1.5c0 .277.223.5.5.5s.5-.223.5-.5V8h1.5c.277 0 .5-.223.5-.5s-.223-.5-.5-.5H26V5.5c0-.277-.223-.5-.5-.5zm-15 11h13c.277 0 .5.223.5.5s-.223.5-.5.5h-13c-.277 0-.5-.223-.5-.5s.223-.5.5-.5zm-1-4h12c.277 0 .5.223.5.5s-.223.5-.5.5h-12c-.277 0-.5-.223-.5-.5s.223-.5.5-.5zm12 10c-1.375 0-2.5 1.125-2.5 2.5s1.125 2.5 2.5 2.5 2.5-1.125 2.5-2.5-1.125-2.5-2.5-2.5zm0 1c.834 0 1.5.666 1.5 1.5s-.666 1.5-1.5 1.5-1.5-.666-1.5-1.5.666-1.5 1.5-1.5zm-10-1C10.125 22 9 23.125 9 24.5s1.125 2.5 2.5 2.5 2.5-1.125 2.5-2.5-1.125-2.5-2.5-2.5zm0 1c.834 0 1.5.666 1.5 1.5s-.666 1.5-1.5 1.5-1.5-.666-1.5-1.5.666-1.5 1.5-1.5zM.508 4c-.67 0-.677 1 0 1H4.1c.074.355.64 3.055 1.314 6.23.358 1.686.724 3.406 1.018 4.766.293 1.36.505 2.327.588 2.633.132.494.256 1.055.62 1.544.362.488 1 .826 1.86.826h13.992c.86 0 1.498-.338 1.862-.826.363-.49.486-1.05.62-1.545.087-.332.224-1.103.41-2.07.183-.97.4-2.093.6-2.947.165-.613-.856-.88-.972-.226-.206.884-.427 2.012-.612 2.984-.185.973-.347 1.832-.392 2-.136.506-.263.945-.457 1.206-.194.262-.42.424-1.058.424H9.5c-.638 0-.864-.162-1.06-.424-.193-.26-.32-.7-.456-1.205-.05-.193-.28-1.227-.574-2.585-.293-1.358-.66-3.076-1.017-4.764-.716-3.373-1.4-6.624-1.4-6.624-.048-.23-.252-.396-.49-.396zm7.994 4c-.665 0-.657 1 0 1h9.992c.672 0 .657-1 0-1z"/></svg>