<svg height="30" viewBox="0 0 30 30" width="30" xmlns="http://www.w3.org/2000/svg"><path d="M14.5 0C6.498 0 0 6.498 0 14.5 0 22.502 6.498 29 14.5 29 22.502 29 29 22.502 29 14.5 29 6.498 22.502 0 14.5 0zm0 1c2.212 0 4.255 1.364 5.807 3.678-3.67 1.75-7.943 1.75-11.614-.002C10.243 2.363 12.29 1 14.5 1zm-4.635.832C9.1 2.482 8.408 3.288 7.8 4.21c-.378-.218-.747-.457-1.11-.714.972-.69 2.038-1.248 3.175-1.664zm9.27 0c1.138.416 2.204.976 3.176 1.666-.36.257-.732.494-1.11.71-.608-.92-1.3-1.726-2.065-2.376zM5.855 4.13c.463.342.94.653 1.43.934C5.855 7.612 5 10.9 5 14.5c0 3.6.856 6.887 2.285 9.434-.49.28-.97.59-1.43.935C2.886 22.393 1 18.67 1 14.5c0-4.17 1.888-7.896 4.855-10.37zm17.29 0C26.112 6.603 28 10.33 28 14.5c0 4.17-1.888 7.896-4.855 10.37-.463-.342-.94-.653-1.43-.934C23.145 21.388 24 18.1 24 14.5c0-3.6-.856-6.887-2.285-9.434.49-.28.967-.593 1.43-.937zM8.172 5.532c3.992 1.94 8.666 1.94 12.658 0C22.167 7.91 23 11.047 23 14.5c0 3.453-.834 6.59-2.172 8.967-1.99-.967-4.15-1.463-6.314-1.465-2.174-.002-4.344.494-6.344 1.465C6.833 21.09 6 17.953 6 14.5c0-3.453.834-6.59 2.172-8.967zM2.5 14c-.277 0-.5.223-.5.5s.223.5.5.5h1c.277 0 .5-.223.5-.5s-.223-.5-.5-.5h-1zm5 0c-.277 0-.5.223-.5.5s.223.5.5.5h14c.277 0 .5-.223.5-.5s-.223-.5-.5-.5h-14zm18 0c-.277 0-.5.223-.5.5s.223.5.5.5h1c.277 0 .5-.223.5-.5s-.223-.5-.5-.5h-1zm-10.988 9c1.983.002 3.964.45 5.795 1.324C18.757 26.637 16.71 28 14.5 28c-2.21 0-4.256-1.363-5.807-3.676 1.84-.878 3.827-1.326 5.82-1.324zm-6.71 1.79c.606.922 1.298 1.728 2.063 2.378-1.138-.416-2.203-.976-3.174-1.666.362-.256.732-.494 1.11-.71zm13.397 0c.378.218.748.456 1.11.712-.972.69-2.037 1.25-3.175 1.666.765-.65 1.457-1.456 2.064-2.377z"/></svg>