<svg xmlns="http://www.w3.org/2000/svg" width="30" height="30"><path d="M15.5 9h9c.694 0 .626 1 0 1h-9c-.663 0-.66-1 0-1zm-5.344 8.15L.64 26.652c-.896.893-.776 2.133-.105 2.81.67.674 1.913.795 2.81-.103l9.49-9.49c.492-.472-.25-1.182-.706-.708l-9.49 9.49c-.58.58-1.07.43-1.396.104-.326-.328-.47-.826.102-1.397l9.517-9.503c.435-.434-.25-1.164-.707-.707zM20 0c-5.517 0-10 4.483-10 10s4.483 10 10 10 10-4.483 10-10S25.517 0 20 0zm0 1c4.976 0 9 4.023 9 9 0 4.976-4.024 9-9 9s-9-4.024-9-9c0-4.977 4.024-9 9-9z"/></svg>