<svg height="30" viewBox="0 0 30 30" width="30" xmlns="http://www.w3.org/2000/svg"><path d="M10.5 2C9.678 2 9 2.678 9 3.5v2c0 .67 1.01.66 1 0v-2c0-.286.214-.5.5-.5h9c.286 0 .5.214.5.5v2c0 .66 1 .67 1 0v-2c0-.822-.678-1.5-1.5-1.5zm16.992 7c-.148 0-.285.058-.373.178l-5.5 6.5c-.46.542-.755.884-1.02 1.064-.166.113-.36.174-.6.213V16.5c0-.277-.223-.5-.5-.5s-.5.223-.5.5v.5h-8v-.5c0-.277-.223-.5-.5-.5s-.5.223-.5.5v.455c-.24-.04-.434-.1-.6-.213-.265-.18-.56-.522-1.02-1.064l-5.5-6.5c-.096-.118-.227-.18-.38-.178-.42 0-.66.502-.38.822l5.5 6.5c.454.538.777.946 1.218 1.246.328.223.707.353 1.162.405v.527c0 .277.223.5.5.5s.5-.223.5-.5V18h8v.5c0 .277.223.5.5.5s.5-.223.5-.5v-.527c.455-.052.834-.182 1.162-.405.44-.3.764-.708 1.22-1.246l5.5-6.5c.27-.272.04-.822-.39-.822zM1.5 7C.678 7 0 7.678 0 8.5v18c0 .822.678 1.5 1.5 1.5h27c.822 0 1.5-.678 1.5-1.5v-18c0-.822-.678-1.5-1.5-1.5zm0 1h27c.286 0 .5.214.5.5v18c0 .286-.214.5-.5.5h-27c-.286 0-.5-.214-.5-.5v-18c0-.286.214-.5.5-.5z"/></svg>