<svg height="30" viewBox="0 0 30 30" width="30" xmlns="http://www.w3.org/2000/svg"><path d="M12.5 15a.5.5 0 0 0-.5.5v5a.5.5 0 0 0 .5.5h2c.823 0 1.67-.173 2.35-.65.68-.478 1.15-1.293 1.15-2.35 0-1.057-.47-1.872-1.15-2.35-.68-.477-1.527-.65-2.35-.65h-2zm.5 1h1.5c.677 0 1.33.157 1.775.47.445.31.725.744.725 1.53s-.28 1.22-.725 1.53c-.444.313-1.098.47-1.775.47H13v-4zm-2.5-9c-.276 0-.5.224-.5.5v15c0 .276.224.5.5.5H15c1.64 0 2.92-.7 3.754-1.674C19.588 20.353 20 19.126 20 18c0-2.1-1.266-3.188-1.778-3.564.143-.19.096-.118.22-.348.29-.54.558-1.38.558-2.588 0-1.083-.267-2.203-.99-3.07C17.287 7.562 16.11 7 14.5 7zm.5 1h3.5c1.39 0 2.213.438 2.74 1.07.527.633.76 1.513.76 2.43 0 1.06-.23 1.723-.44 2.115-.21.392-.355.48-.355.48-.287.21-.27.645.033.83 0 0 1.762 1.1 1.762 3.075 0 .875-.338 1.897-1.004 2.674C17.33 21.45 16.36 22 15 22h-4zm1.5 1a.5.5 0 0 0-.5.5v4a.5.5 0 0 0 .5.5h2c.86 0 1.537-.312 1.947-.805.41-.492.553-1.112.553-1.695s-.142-1.203-.553-1.695C16.037 9.312 15.36 9 14.5 9h-2zm.5 1h1.5c.64 0 .963.188 1.178.445.214.258.322.638.322 1.055 0 .417-.108.797-.322 1.055-.215.257-.54.445-1.178.445H13v-3zM1.5 0C.678 0 0 .678 0 1.5v27c0 .822.678 1.5 1.5 1.5h27c.822 0 1.5-.678 1.5-1.5v-27c0-.822-.678-1.5-1.5-1.5h-27zm0 1h27c.286 0 .5.214.5.5v27c0 .286-.214.5-.5.5h-27c-.286 0-.5-.214-.5-.5v-27c0-.286.214-.5.5-.5z"/></svg>