<svg height="30" viewBox="0 0 30 30" width="30" xmlns="http://www.w3.org/2000/svg"><path d="M20.5 10c-.13 0-.266.06-.357.152l-5.498 5.498c-.247.247-.464.334-.65.335-.184 0-.386-.08-.642-.335l-2.493-2.49c-.454-.475-1.175.257-.706.708l2.493 2.49c.392.392.853.63 1.35.627.495-.003.974-.246 1.354-.626l5.5-5.5c.31-.305.108-.86-.35-.86zM14.72.05c-.132.058-.33.183-.562.325-.233.142-.687.43-1.13.672-.888.48-2 .955-3.028.955-1.1 0-1.923-.23-2.688-.477C6.548 1.278 5.835 1 5 1c-.774 0-1.526.122-2.107.603C2.31 2.085 2 2.916 2 4v8c0 1.18-.19 5.267 2.064 9.248 1.327 2.342 3.62 4.495 5.778 6.092 1.08.798 2.124 1.455 3.01 1.918.885.463 1.55.742 2.148.742.6 0 1.263-.28 2.148-.742.886-.463 1.93-1.12 3.01-1.918 2.158-1.597 4.45-3.75 5.778-6.092C28.19 17.268 28 13.18 28 12V4c0-1.084-.31-1.915-.893-2.397C26.527 1.123 25.774 1 25 1c-.834 0-1.548.278-2.313.523C21.924 1.77 21.1 2 20 2c-1.03 0-2.148-.474-3.035-.955-.444-.24-.89-.512-1.13-.672-.243-.16-.443-.26-.562-.325-.14-.064-.408-.064-.554 0zm.28 1.04c.092 0 .173.05.303.132.298.187.705.444 1.183.703C17.442 2.443 18.686 3 20 3c1.242 0 2.2-.27 2.992-.523C23.782 2.222 24.398 2 25 2c.662 0 1.16.12 1.47.375.31.256.53.72.53 1.625v8c0 1.277.167 5.045-1.936 8.755-1.21 2.138-3.42 4.24-5.502 5.782-1.04.77-2.05 1.403-2.876 1.836-.828.433-1.535.627-1.686.627-.15 0-.858-.194-1.686-.627-.827-.433-1.835-1.065-2.877-1.836-2.082-1.54-4.29-3.644-5.5-5.782C2.832 17.045 3 13.277 3 12V4c0-.905.22-1.37.53-1.625C3.84 2.12 4.337 2 5 2c.602 0 1.217.222 2.008.477C7.798 2.73 8.758 3 10 3c1.313 0 2.55-.558 3.506-1.077.478-.26.885-.516 1.183-.703.13-.08.218-.133.31-.133z"/></svg>