<svg height="30" viewBox="0 0 30 30" width="30" xmlns="http://www.w3.org/2000/svg"><path d="M10.5 5c-.073 0-.14.015-.207.045L.83 9.35c-.737.335-1.033 1.227-.687 1.945L6.355 24.18c.347.718 1.24 1.07 1.967.664l3.422-1.907c.588-.298.044-1.18-.486-.873L7.834 23.97c-.196.11-.467.01-.58-.224l-.414-.857 1.885-.943c.605-.304.078-1.16-.45-.894l-1.87.935L1.044 10.86c-.113-.233-.023-.498.2-.6l9.464-4.305c.485-.222.287-.955-.207-.955zm4.777-1c-.19 0-.377.035-.552.104-.35.137-.648.407-.81.775L8.122 18.15c-.32.737.02 1.61.757 1.93l13.277 5.797c.737.32 1.61-.02 1.93-.757l5.795-13.277c.32-.737-.023-1.61-.76-1.93L15.847 4.12c-.184-.08-.378-.12-.57-.12zm-.015.994c.06.002.122.016.183.043l13.278 5.795c.244.107.345.37.238.613l-4.82 11.047-14.13-6.166 4.822-11.05c.08-.182.248-.286.43-.282zM9.61 17.242l14.13 6.168-.572 1.313c-.107.244-.37.347-.613.24L9.277 19.168c-.244-.107-.347-.37-.24-.615zM7.5 16c-.22-.002-.408.133-.475.342l-1 3c-.194.583.733.967.95.316l1-3c.112-.323-.133-.656-.475-.658zm9-3c-.075 0-.156.02-.223.053l-4 2c-.596.267-.093 1.19.446.894l3.605-1.802 1.756 2.632c.14.21.413.282.64.17l3.604-1.802 1.756 2.632c.352.547 1.19-.033.832-.554l-2-3c-.14-.21-.413-.282-.64-.17l-3.604 1.802-1.756-2.632c-.094-.142-.246-.226-.416-.223zm.5-5c-1.1 0-2 .9-2 2s.9 2 2 2 2-.9 2-2-.9-2-2-2zm0 1c.563 0 1 .437 1 1s-.437 1-1 1-1-.437-1-1 .437-1 1-1zM6 11c-1.1 0-2 .9-2 2s.9 2 2 2 2-.9 2-2-.9-2-2-2zm0 1c.563 0 1 .437 1 1s-.437 1-1 1-1-.437-1-1 .437-1 1-1z"/></svg>