<svg height="30" viewBox="0 0 30 30" width="30" xmlns="http://www.w3.org/2000/svg"><path d="M.5 22c-.276 0-.5.224-.5.5C0 24.386 1.293 26 3 26h24c1.707 0 3-1.614 3-3.5 0-.276-.224-.5-.5-.5zm.668 1h27.664c-.212 1.135-.918 2-1.832 2H3c-.914 0-1.62-.865-1.832-2zM5.5 6C4.678 6 4 6.678 4 7.5v13c0 .276.224.5.5.5h21c.276 0 .5-.224.5-.5v-13c0-.822-.678-1.5-1.5-1.5zm0 1h19c.286 0 .5.214.5.5V20H5V7.5c0-.286.214-.5.5-.5zm-1-3C3.124 4 2 5.124 2 6.5v14c-.01.676 1.01.676 1 0v-14C3 5.66 3.66 5 4.5 5h21c.84 0 1.5.66 1.5 1.5v14c-.01.676 1.01.676 1 0v-14C28 5.124 26.876 4 25.5 4z"/></svg>