<svg height="30" viewBox="0 0 30 30" width="30" xmlns="http://www.w3.org/2000/svg"><path d="M19.5 2c-.276.004-.504.224-.5.5v4c0 .815.656 1.5 1.47 1.5h4.03c.67 0 .654-1 0-1h-4.03c-.26 0-.47-.207-.47-.5v-4c.004-.282-.218-.504-.5-.5zM8.47 0C7.657 0 7 .685 7 1.5v23c0 .815.656 1.5 1.47 1.5h17.06c.814 0 1.47-.685 1.47-1.5v-18c0-.133-.053-.26-.146-.354l-6-6C20.76.053 20.634 0 20.5 0zm0 1h11.823L26 6.707V24.5c0 .293-.21.5-.47.5H8.47c-.26 0-.47-.207-.47-.5v-23c0-.293.21-.5.47-.5zm-4 3C3.657 4 3 4.685 3 5.5v23c0 .815.656 1.5 1.47 1.5h17.06c.814 0 1.47-.685 1.47-1.5v-1c.01-.676-1.01-.676-1 0v1c0 .293-.21.5-.47.5H4.47c-.26 0-.47-.207-.47-.5v-23c0-.293.21-.5.47-.5h1.06c.675.01.675-1.01 0-1z"/></svg>