<svg height="30" viewBox="0 0 30 30" width="30" xmlns="http://www.w3.org/2000/svg"><path d="M16 9c-.298 0-.574.09-.81.23-.234.14-.4.308-.542.448l-3 2.933c-.598.49-.715.506-1.296 0l-.998-.946c-.143-.14-.31-.31-.543-.447C8.577 11.077 8.3 11 8 11c-.298 0-.572.077-.807.217-.232.138-.4.306-.543.447l-3.492 3.48c-.468.444.246 1.167.703.71l3.494-3.48c.554-.495.714-.493 1.296 0l.998.948c.143.142.31.31.543.448.236.14.512.23.81.23.298 0 .574-.09.81-.23.23-.14.4-.306.542-.448l3-2.933c.526-.5.798-.498 1.294 0l2.493 2.45c.473.487 1.194-.243.702-.71L17.35 9.677c-.14-.14-.308-.308-.54-.448-.236-.14-.512-.23-.81-.23zm9.5-3c-.676-.01-.676 1.01 0 1h3c.286 0 .5.214.5.5v21c0 .286-.214.5-.5.5h-21c-.286 0-.5-.214-.5-.5v-3c.01-.676-1.01-.676-1 0v3c0 .822.678 1.5 1.5 1.5h21c.822 0 1.5-.678 1.5-1.5v-21c0-.822-.678-1.5-1.5-1.5zm-19-2C5.125 4 4 5.125 4 6.5S5.125 9 6.5 9 9 7.875 9 6.5 7.875 4 6.5 4zm0 1C7.334 5 8 5.666 8 6.5S7.334 8 6.5 8 5 7.334 5 6.5 5.666 5 6.5 5zm-3 14h17c.277 0 .5.223.5.5s-.223.5-.5.5h-17c-.277 0-.5-.223-.5-.5s.223-.5.5-.5zm-2-19C.678 0 0 .678 0 1.5v21c0 .822.678 1.5 1.5 1.5h21c.822 0 1.5-.678 1.5-1.5v-21c0-.822-.678-1.5-1.5-1.5zm0 1h21c.286 0 .5.214.5.5v21c0 .286-.214.5-.5.5h-21c-.286 0-.5-.214-.5-.5v-21c0-.286.214-.5.5-.5z"/></svg>