<svg xmlns="http://www.w3.org/2000/svg" height="30" viewBox="0 0 30 30" width="30"><path d="M22.5 5c-1.43 0-2.85.62-3.88 1.625C17.585 7.635 17 8.99 17 10.5c0 1.39.616 2.673 1.332 3.766.714 1.09 1.558 2.03 2.26 3.023.406.573.766 1.163 1.02 1.784.256.62.405 1.287.388 1.926-.032 1.223-.728 2.428-1.766 3.076-.447.278-.187 1.02.358.916 2.647-.5 5.093-1.95 6.8-4.035C29.096 18.872 30 16.194 30 13.5c0-2-.64-4.184-1.965-5.826-.663-.82-1.494-1.513-2.45-1.987C24.632 5.213 23.576 5 22.5 5zm0 1c.902 0 1.827.18 2.64.584.815.404 1.54 1 2.118 1.717C28.414 9.733 29 11.528 29 13.5c0 2.452-.83 4.924-2.383 6.822-1.114 1.362-2.64 2.287-4.273 2.95.398-.683.635-1.47.656-2.272.02-.81-.167-1.586-.463-2.307-.296-.72-.697-1.373-1.13-1.982-.744-1.052-1.578-1.987-2.237-2.993-.657-1.003-1.17-2.1-1.17-3.217 0-1.158.48-2.344 1.316-3.16.84-.82 2-1.34 3.184-1.34zm-17-1c-1.43 0-2.85.62-3.88 1.625C.585 7.635 0 8.99 0 10.5c0 1.39.616 2.673 1.332 3.766.714 1.09 1.558 2.03 2.26 3.023.406.573.766 1.163 1.02 1.784.256.62.405 1.287.388 1.926-.032 1.223-.728 2.428-1.766 3.076-.447.278-.187 1.02.358.916 2.647-.5 5.093-1.95 6.8-4.035C12.096 18.872 13 16.194 13 13.5c0-2-.64-4.184-1.965-5.826-.663-.82-1.494-1.513-2.45-1.987C7.632 5.213 6.576 5 5.5 5zm0 1c.902 0 1.827.18 2.64.584.815.404 1.54 1 2.118 1.717C11.414 9.733 12 11.528 12 13.5c0 2.452-.83 4.924-2.383 6.822-1.114 1.362-2.64 2.287-4.273 2.95.398-.683.635-1.47.656-2.272.02-.81-.167-1.586-.463-2.307-.296-.72-.697-1.373-1.13-1.982-.744-1.052-1.578-1.987-2.237-2.993C1.513 12.714 1 11.617 1 10.5c0-1.158.48-2.344 1.316-3.16.84-.82 2-1.34 3.184-1.34z"/></svg>