<svg height="30" viewBox="0 0 30 30" width="30" xmlns="http://www.w3.org/2000/svg"><path d="M23.56.436c-.58-.58-1.54-.58-2.12 0L15.436 6.44c-.58.58-.58 1.54 0 2.12l6.004 6.005c.58.58 1.54.58 2.12 0l6.005-6.004c.58-.58.58-1.54 0-2.12L23.56.436zm-.706.708l6.003 6.003c.202.202.202.505 0 .707l-6.003 6.004c-.202.202-.505.202-.707 0l-6.004-6.004c-.202-.202-.202-.505 0-.707l6.004-6.003c.202-.202.505-.202.707 0zM16.5 18c-.822 0-1.5.678-1.5 1.5v9c0 .822.678 1.5 1.5 1.5h9c.822 0 1.5-.678 1.5-1.5v-9c0-.822-.678-1.5-1.5-1.5h-9zm0 1h9c.286 0 .5.214.5.5v9c0 .286-.214.5-.5.5h-9c-.286 0-.5-.214-.5-.5v-9c0-.286.214-.5.5-.5zM1.5 3C.678 3 0 3.678 0 4.5v9c0 .822.678 1.5 1.5 1.5h9c.822 0 1.5-.678 1.5-1.5v-9c0-.822-.678-1.5-1.5-1.5h-9zm0 1h9c.286 0 .5.214.5.5v9c0 .286-.214.5-.5.5h-9c-.286 0-.5-.214-.5-.5v-9c0-.286.214-.5.5-.5zm0 14c-.822 0-1.5.678-1.5 1.5v9c0 .822.678 1.5 1.5 1.5h9c.822 0 1.5-.678 1.5-1.5v-9c0-.822-.678-1.5-1.5-1.5h-9zm0 1h9c.286 0 .5.214.5.5v9c0 .286-.214.5-.5.5h-9c-.286 0-.5-.214-.5-.5v-9c0-.286.214-.5.5-.5z"/></svg>