<svg height="30" viewBox="0 0 30 30" width="30" xmlns="http://www.w3.org/2000/svg"><path d="M15 5C9.294 5 3.67 7.713.12 12.178a.5.5 0 1 0 .783.62c3.353-4.216 8.71-6.8 14.1-6.8 5.39 0 10.747 2.584 14.1 6.8a.5.5 0 1 0 .782-.62C26.332 7.713 20.71 5 15.002 5zm0 6c-3.895 0-7.705 2.005-9.91 5.214a.5.5 0 1 0 .824.566C7.924 13.856 11.45 12 15 12c3.55 0 7.077 1.856 9.086 4.78a.5.5 0 1 0 .824-.566C22.705 13.004 18.895 11 15 11zm0 6c-1.834 0-3.634.798-4.863 2.158a.5.5 0 1 0 .74.67c1.033-1.144 2.582-1.83 4.123-1.83 1.54 0 3.09.686 4.122 1.83a.5.5 0 1 0 .74-.67C18.635 17.798 16.835 17 15 17zm1 6a1 1 0 0 1-1 1 1 1 0 0 1-1-1 1 1 0 0 1 1-1 1 1 0 0 1 1 1z"/></svg>