<svg height="30" viewBox="0 0 30 30" width="30" xmlns="http://www.w3.org/2000/svg"><path d="M15.5 22c-.823 0-1.5.677-1.5 1.5s.677 1.5 1.5 1.5c.822 0 1.5-.677 1.5-1.5s-.678-1.5-1.5-1.5zm0 1c.282 0 .5.218.5.5 0 .282-.218.5-.5.5-.282 0-.5-.218-.5-.5 0-.282.218-.5.5-.5zM16 5c-1.986 0-3.804 1.238-4.7 2.532-.525.758-.296 1.68.27 2.134.282.227.652.36 1.04.323.39-.037.778-.254 1.06-.62C14.355 8.477 15.05 8 16 8c.277 0 .915.205 1.322.563.427.375.678.806.678 1.437 0-.063-.054.236-.327.6-.276.368-.736.84-1.234 1.34-.5.498-1.047 1.034-1.517 1.66-.466.622-.923 1.413-.923 2.4v3.492c-.007.464.18.88.472 1.14.292.263.664.382 1.028.382s.735-.12 1.027-.38c.292-.263.48-.678.473-1.142V16s.053-.236.326-.6c.276-.368.736-.84 1.234-1.34.498-.498 1.047-1.034 1.516-1.66.466-.622.924-1.413.924-2.4 0-1.55-.736-2.845-1.698-3.69C18.352 5.478 17.182 5 16 5zm0 1c.91 0 1.858.372 2.642 1.06C19.414 7.74 20 8.768 20 10c0 .68-.313 1.25-.725 1.8-.41.544-.92 1.052-1.422 1.554-.502.5-.982.984-1.328 1.445-.35.465-.525.804-.525 1.2v3.508c.003.212-.057.305-.14.38-.085.076-.22.126-.36.126-.14 0-.275-.05-.36-.125-.084-.077-.143-.17-.14-.382V16c0-.68.313-1.25.724-1.8.41-.544.92-1.052 1.422-1.554.502-.5.983-.984 1.328-1.445.35-.465.526-.804.526-1.2 0-.922-.43-1.67-1.018-2.187C17.372 7.277 16.632 7 16 7c-1.49 0-2.508.958-3.124 1.76-.14.18-.253.224-.36.234-.104.01-.22-.028-.32-.108-.2-.16-.334-.41-.074-.785C12.99 6.85 14.426 6 16 6zm-1-6C6.722 0 0 6.722 0 15c0 8.278 6.722 15 15 15 8.278 0 15-6.722 15-15 0-8.278-6.722-15-15-15zm0 1c7.738 0 14 6.262 14 14s-6.262 14-14 14S1 22.738 1 15 7.262 1 15 1z"/></svg>