<svg height="30" viewBox="0 0 30 30" width="30" xmlns="http://www.w3.org/2000/svg"><path d="M10.5 16C9.125 16 8 17.125 8 18.5c0 .77.406 1.445 1 1.914V22.5c0 .822.678 1.5 1.5 1.5s1.5-.678 1.5-1.5v-2.088c.594-.47 1-1.143 1-1.912 0-1.375-1.125-2.5-2.5-2.5zm0 1c.834 0 1.5.666 1.5 1.5 0 .536-.286 1.027-.75 1.295a.5.5 0 0 0-.25.434v2.27c0 .286-.214.5-.5.5-.286 0-.5-.214-.5-.5v-2.27a.5.5 0 0 0-.25-.433C9.286 19.53 9 19.037 9 18.5c0-.834.666-1.5 1.5-1.5zm-9-6c-.822 0-1.5.678-1.5 1.5v15c0 .822.678 1.5 1.5 1.5h18c.822 0 1.5-.678 1.5-1.5v-15c0-.822-.678-1.5-1.5-1.5h-18zm0 1h18c.286 0 .5.214.5.5v15c0 .286-.214.5-.5.5h-18c-.286 0-.5-.214-.5-.5v-15c0-.286.214-.5.5-.5zm21-11C18.364 1 15 4.364 15 8.5v1c0 .672 1 .657 1 0v-1C16 4.904 18.904 2 22.5 2S29 4.904 29 8.5v1c0 .676 1.01.657 1 0v-1C30 4.364 26.636 1 22.5 1z"/></svg>