<svg height="30" viewBox="0 0 30 30" width="30" xmlns="http://www.w3.org/2000/svg"><path d="M29.5 0c-.138 0-.256.05-.354.146l-17 17c-.22.22-.365.237-.6.208-.233-.03-.532-.162-.83-.305l-9.325-4.5c-.274-.134-.388-.33-.39-.55-.002-.22.075-.43.346-.53l23.326-8.5c.657-.24.182-1.133-.344-.94l-23.326 8.5C.355 10.764-.006 11.41 0 12c.006.59.346 1.156.957 1.45l9.326 4.5c.303.147.684.338 1.14.396.454.058 1.008-.07 1.43-.492L28.212 2.496l-9.964 26.4c-.08.2-.483.178-.584-.044L12.95 19.28c-.3-.61-1.152-.074-.9.44l4.716 9.573c.248.504.77.716 1.234.707.465-.01.986-.234 1.182-.752L29.97.676c.12-.32-.127-.673-.47-.676z"/></svg>