<svg height="30" viewBox="0 0 30 30" width="30" xmlns="http://www.w3.org/2000/svg"><path d="M15.5 29c.13-.002.26-.055.353-.146l3.994-3.994c.464-.446-.26-1.17-.706-.706l-3.64 3.64-3.64-3.64c-.454-.473-1.175.256-.707.706l3.994 3.994c.096.095.218.148.353.146zm0-3c-.277 0-.5-.223-.5-.5v-7c0-.277.223-.5.5-.5s.5.223.5.5v7c0 .277-.223.5-.5.5zm7-3H25c2.756 0 5-2.244 5-5 0-2.398-1.734-4.373-4.04-4.836.016-.22.04-.494.04-.664C26 7.28 21.74 3 16.5 3c-3.51.005-6.686 1.973-8.33 5.05C7.948 8.03 7.726 8 7.5 8 3.352 8 0 11.364 0 15.5S3.364 23 7.5 23h1c.663 0 .668-1 0-1h-1C3.904 22 1 19.096 1 15.5 1 11.906 3.902 9.002 7.496 9c.285.002.57.023.852.063.214.03.424-.08.52-.276C10.287 5.862 13.247 4.005 16.5 4c4.7 0 8.5 3.8 8.5 8.5-.002.322-.022.643-.06.963-.035.28.167.53.447.558C27.44 14.22 29 15.938 29 18c0 2.215-1.785 4-4 4h-2.5c-.685 0-.638 1 0 1z"/></svg>