<svg height="30" viewBox="0 0 30 30" width="30" xmlns="http://www.w3.org/2000/svg"><path d="M15 2c-.066.004-.157.02-.217.05L.28 9.044c-.603.29-.127 1.17.434.902L15 3.055l14.286 6.892c.583.28 1.026-.618.434-.902L15.217 2.05c-.076-.037-.133-.054-.217-.05zM2.5 11c-.276.004-.504.224-.5.5v15c0 .822.678 1.5 1.5 1.5h7c.276 0 .5-.224.5-.5v-7.497c0-2.223 1.775-3.998 4-3.998s4 1.775 4 3.998V27.5c0 .276.224.5.5.5h7c.822 0 1.5-.678 1.5-1.5V11.507c0-.652-1-.676-1 0V26.5c0 .286-.214.5-.5.5H20v-6.997c0-2.76-2.24-4.997-5-4.997s-5 2.237-5 4.997V27H3.5c-.286 0-.5-.214-.5-.5v-15c.004-.282-.218-.505-.5-.5z"/></svg>