<svg height="30" viewBox="0 0 30 30" width="30" xmlns="http://www.w3.org/2000/svg"><path d="M15 1c-.38 0-.692.184-.963.416-.27.232-.518.534-.766.883-.493.697-.98 1.596-1.456 2.518-.475.923-.94 1.868-1.357 2.625-.418.758-.85 1.338-.998 1.444-.15.105-.853.328-1.722.482-.868.153-1.93.292-2.976.448-1.046.157-2.072.33-2.903.573-.416.122-.783.258-1.092.438-.31.18-.59.413-.71.776-.122.362-.035.717.108 1.042.143.326.36.648.623.985.526.675 1.25 1.407 2.003 2.134.752.726 1.53 1.446 2.14 2.068.608.622 1.042 1.21 1.096 1.37.053.163.055.883-.063 1.735-.118.853-.314 1.88-.485 2.9-.17 1.02-.317 2.028-.337 2.878-.01.425.01.81.09 1.156.08.347.224.683.535.903.31.22.67.247 1.03.215.356-.032.734-.13 1.143-.27.82-.282 1.754-.73 2.694-1.204.94-.473 1.883-.97 2.677-1.344.795-.374 1.497-.6 1.686-.6.19 0 .89.226 1.686.6.794.374 1.737.87 2.677 1.344.94.473 1.875.922 2.694 1.203.41.14.787.24 1.144.27.36.033.72.006 1.03-.214.31-.22.455-.556.536-.902.08-.345.1-.73.09-1.155-.02-.85-.168-1.858-.338-2.877-.17-1.02-.367-2.048-.485-2.9-.118-.853-.116-1.573-.062-1.735.055-.162.49-.75 1.098-1.37.61-.623 1.387-1.343 2.14-2.07.75-.726 1.476-1.458 2.003-2.132.265-.336.48-.658.624-.984.143-.325.23-.68.11-1.042-.12-.363-.402-.596-.712-.776-.31-.18-.676-.316-1.09-.437-.832-.242-1.858-.415-2.904-.572-1.045-.156-2.108-.295-2.976-.45-.87-.153-1.572-.376-1.72-.48-.15-.107-.58-.687-1-1.445-.417-.757-.88-1.702-1.356-2.625-.476-.922-.963-1.82-1.457-2.52-.25-.348-.496-.65-.767-.882C15.693 1.184 15.38 1 15 1zm.313 1.176c.17.146.38.39.6.7.436.617.914 1.49 1.384 2.4.47.91.933 1.858 1.37 2.65.435.79.786 1.417 1.294 1.777.51.36 1.223.49 2.128.65.905.16 1.97.3 3.002.454 1.032.154 2.032.33 2.77.545.37.107.674.227.87.34.31.138.27.384.188.552-.09.203-.26.473-.494.772-.467.597-1.17 1.312-1.912 2.03-.742.716-1.523 1.438-2.158 2.087-.636.65-1.136 1.162-1.333 1.754-.196.592-.1 1.298.023 2.19.124.89.32 1.922.488 2.927.17 1.005.307 1.987.325 2.736.01.375-.012.692-.062.906-.083.354-.293.354-.502.346-.228-.02-.545-.096-.91-.22-.727-.25-1.64-.684-2.567-1.15-.928-.468-1.873-.97-2.702-1.358-.827-.39-1.487-.694-2.11-.694-.623 0-1.283.304-2.11.694-.83.39-1.775.89-2.703 1.357-.927.468-1.84.902-2.568 1.15-.365.126-.682.202-.91.222-.315.008-.433-.11-.503-.346-.05-.214-.072-.53-.062-.906.018-.75.156-1.73.324-2.736.167-1.005.363-2.037.487-2.928.124-.89.22-1.597.022-2.19-.198-.59-.698-1.104-1.334-1.753-.635-.65-1.416-1.37-2.158-2.088-.74-.717-1.445-1.432-1.912-2.03-.233-.298-.405-.568-.494-.77-.127-.245.017-.453.188-.552.196-.114.5-.234.87-.34.738-.217 1.738-.392 2.77-.546 1.032-.155 2.097-.293 3.002-.453.905-.16 1.62-.29 2.127-.65.507-.36.858-.987 1.294-1.778.436-.792.9-1.74 1.37-2.65.47-.91.947-1.783 1.384-2.4.22-.31.428-.554.6-.7.312-.26.452-.176.624 0z"/></svg>