<svg xmlns="http://www.w3.org/2000/svg" width="30" height="30"><path style="text-indent:0;text-align:start;line-height:normal;text-transform:none;block-progression:tb;-inkscape-font-specification:Sans" d="M29.5 5.01h-22c-.67 0-.65-1 0-1h22c.66 0 .67 1 0 1zm0 10h-22c-.67 0-.65-1 0-1h22c.66 0 .67 1 0 1zm0 10h-22c-.67 0-.65-1 0-1h22c.66 0 .67 1 0 1zM2.5 20C1.124 20 0 21.124 0 22.5c0 .717 1 .605 1 0 0-.84.66-1.5 1.5-1.5s1.5.66 1.5 1.5S3.34 24 2.5 24c-.66 0-.662 1 0 1 .84 0 1.5.66 1.5 1.5S3.34 28 2.5 28 1 27.34 1 26.5c0-.642-1-.675-1 0C0 27.876 1.124 29 2.5 29S5 27.876 5 26.5c0-.82-.386-1.544-1-2 .605-.457 1-1.186 1-2C5 21.124 3.876 20 2.5 20zm0-10C1.125 10 0 11.125 0 12.5c0 .688 1 .65 1 0 0-.834.666-1.5 1.5-1.5s1.5.666 1.5 1.5c0 .424-.17.785-.5 1.17-.33.383-.806.76-1.313 1.187C1.175 15.71 0 16.784 0 18.5c0 .262.238.5.5.5h4c.677 0 .652-1 0-1H1.156c.203-.96.82-1.69 1.657-2.393.493-.416 1.017-.824 1.437-1.313.42-.49.75-1.078.75-1.794C5 11.125 3.875 10 2.5 10zM2.156.138l-2 2c-.474.474.255 1.15.688.72L2 1.7v6.8c0 .73 1 .61 1 0v-8c0-.59-.628-.578-.844-.362z"/></svg>