<svg height="30" viewBox="0 0 30 30" width="30" xmlns="http://www.w3.org/2000/svg"><path d="M22.475 2c-.275.005-.475.233-.475.5v3.604c-2.382.133-4.393 1.054-5.756 2.65C14.778 10.47 14 12.84 14 15.5c0 .513.678.694.934.25 2.007-3.477 5.042-3.667 7.066-3.686V15.5c0 .436.52.664.84.367l7-6.5c.214-.198.214-.536 0-.734l-7-6.5c-.1-.092-.23-.135-.365-.133zM23 3.646L28.766 9 23 14.354V11.5c0-.276-.224-.5-.5-.5-1.72 0-4.865.244-7.248 2.852.257-1.734.78-3.31 1.754-4.45C18.29 7.9 20.13 7 22.5 7c.276 0 .5-.224.5-.5zM1.5 7C.678 7 0 7.678 0 8.5v18c0 .822.678 1.5 1.5 1.5h26c.822 0 1.5-.678 1.5-1.5v-11c0-.66-1-.642-1 0v11c0 .286-.214.5-.5.5h-26c-.286 0-.5-.214-.5-.5v-18c0-.286.214-.5.5-.5h12c.654 0 .67-1 0-1z"/></svg>