<svg height="30" viewBox="0 0 30 30" width="30" xmlns="http://www.w3.org/2000/svg"><path d="M15 7c-2.756 0-5 2.244-5 5s2.244 5 5 5 5-2.244 5-5-2.244-5-5-5zm0 1c2.215 0 4 1.785 4 4s-1.785 4-4 4-4-1.785-4-4 1.785-4 4-4zm0-8C8.38 0 3 5.38 3 12c0 3.95 2.326 8.374 4.934 11.86 1.303 1.745 2.682 3.25 3.908 4.335.613.542 1.187.978 1.707 1.29.52.31.974.515 1.45.515s.93-.204 1.45-.516c.52-.31 1.095-.747 1.708-1.29 1.226-1.083 2.605-2.59 3.908-4.333C24.674 20.375 27 15.95 27 12c0-6.62-5.38-12-12-12zm0 1c6.08 0 11 4.92 11 11 0 3.55-2.202 7.876-4.734 11.264-1.267 1.693-2.61 3.156-3.77 4.18-.58.514-1.116.918-1.558 1.183-.443.265-.804.373-.938.373-.134 0-.495-.108-.938-.373-.442-.265-.978-.67-1.558-1.182-1.16-1.025-2.503-2.488-3.77-4.18C6.202 19.874 4 15.548 4 12 4 5.92 8.92 1 15 1z"/></svg>