<svg height="30" viewBox="0 0 30 30" width="30" xmlns="http://www.w3.org/2000/svg"><path d="M25.342-.047c-.154 0-.312.022-.47.065-3.748 1.004-6.784 2.004-10.5 3-.814.217-1.41.545-1.806.984-.396.44-.566.98-.566 1.498 0 5.66.033 16.168.037 17.45-1-1.19-2.68-1.95-4.537-1.95C4.522 21 2 22.953 2 25.5 2 28.047 4.522 30 7.5 30s5.5-1.953 5.5-4.5v-20c0-.317.08-.574.31-.826.227-.253.632-.508 1.32-.692 3.746-1.004 6.782-2.004 10.5-3 .363-.097.486-.03.62.123S26 1.583 26 2v16.914C24.995 17.747 23.337 17 21.5 17c-2.978 0-5.5 1.953-5.5 4.5 0 2.547 2.522 4.5 5.5 4.5s5.5-1.953 5.5-4.5V2c0-.583-.134-1.142-.5-1.557-.274-.31-.696-.49-1.158-.49zm-.854 6.045c-.045.002-.09.01-.133.023l-10 3c-.66.182-.28 1.148.29.96l10-3c.56-.162.427-.982-.157-.982zM21.5 18c2.545 0 4.5 1.63 4.5 3.5S24.045 25 21.5 25 17 23.37 17 21.5s1.955-3.5 4.5-3.5zm-14 4c2.545 0 4.5 1.63 4.5 3.5S10.045 29 7.5 29 3 27.37 3 25.5 4.955 22 7.5 22z"/></svg>