<svg height="30" viewBox="0 0 30 30" width="30" xmlns="http://www.w3.org/2000/svg"><path d="M24.243.008c-.826.05-1.62.31-2.322.708-.7.396-1.29.91-1.847 1.403L3.28 16.972c-.71.628-1.443 1.292-2.035 2.114-.592.823-1.02 1.78-1.176 2.8-.158 1.02-.042 2.068.302 3.03.342.962.898 1.823 1.56 2.567.66.743 1.448 1.395 2.36 1.85.913.454 1.942.666 2.966.666 1.03 0 2.027-.34 2.915-.823.888-.484 1.637-1.126 2.35-1.75l14.3-12.534c.502-.44-.158-1.194-.66-.754l-14.3 12.535c-.704.617-1.4 1.207-2.166 1.624-.766.416-1.618.7-2.47.7-.847 0-1.718-.178-2.49-.562-.774-.386-1.467-.954-2.058-1.618-.592-.666-1.075-1.422-1.366-2.238-.29-.813-.386-1.698-.256-2.542.13-.844.488-1.66.998-2.37.51-.708 1.185-1.325 1.888-1.947l16.79-14.856c.552-.487 1.093-.948 1.68-1.28.586-.33 1.238-.54 1.89-.58.65-.04 1.32.093 1.916.37.6.28 1.14.706 1.587 1.217.447.51.798 1.1 1 1.727.198.628.248 1.304.13 1.946-.12.64-.407 1.26-.804 1.803-.397.543-.917 1.025-1.463 1.516L9.763 24.766c-.382.343-.75.66-1.14.877-.392.22-.825.35-1.254.37-.43.018-.874-.075-1.275-.262-.402-.187-.773-.47-1.104-.806-.32-.325-.586-.685-.757-1.073-.17-.384-.245-.81-.205-1.215.04-.403.198-.805.44-1.153s.584-.664.957-.99L19.818 7.894c.503-.44-.157-1.195-.66-.755L4.764 19.76c-.38.333-.788.698-1.117 1.172-.33.475-.557 1.032-.616 1.626-.058.593.052 1.184.286 1.715.233.53.58.983.962 1.372.396.402.858.76 1.393 1.01.54.252 1.138.384 1.742.358.606-.026 1.185-.21 1.698-.496.513-.286.932-.657 1.32-1.007L27.34 10.33c.553-.496 1.128-1.022 1.602-1.67.475-.65.83-1.4.98-2.213.15-.81.088-1.65-.16-2.43-.25-.78-.676-1.48-1.203-2.082-.528-.6-1.172-1.117-1.915-1.463-.744-.347-1.573-.513-2.4-.464z"/></svg>