<svg height="30" viewBox="0 0 30 30" width="30" xmlns="http://www.w3.org/2000/svg"><path d="M21.233 10.054c-.357.076-.69.24-.97.48-.294.255-.514.587-.636.957-.067.207-.03.42-.035.63-.244-.132-.8-.157-1.146-.064-.442.103-.88.307-1.217.65-.504.51-.637.94-.6 1.508-.16-.072-.31-.164-.49-.19-.296-.046-.592-.02-.87.067-.276.087-.52.227-.732.392-.295.23-.547.526-.715.88-.12.25-.13.53-.15.807L11.43 14.13c-.286-.26-.6-.544-.994-.767-.396-.225-.86-.378-1.357-.362-.517.017-1.018.218-1.398.578-.38.362-.608.853-.646 1.37-.04.515.11 1.007.357 1.42.246.41.567.72.855.995l8.008 7.638h-1.752c-.24 0-.506 0-.795.053-.29.052-.58.156-.844.332-.264.177-.484.415-.635.7-.15.283-.226.6-.226.915 0 .317.076.632.227.916.152.284.372.522.636.698.263.177.555.28.843.332.288.053.555.053.794.053h8c.686 0 .645-1 0-1h-8c-.233 0-.44-.005-.617-.037-.176-.032-.338-.092-.467-.178-.128-.086-.236-.205-.306-.338-.07-.133-.11-.29-.11-.447 0-.155.04-.314.11-.447s.178-.252.306-.338c.13-.086.29-.146.467-.178.177-.032.384-.037.617-.037h3c.45 0 .672-.55.346-.86l-8.91-8.5c-.28-.27-.53-.52-.688-.786-.157-.262-.24-.562-.218-.832.02-.268.145-.538.336-.72.19-.18.468-.293.74-.302.267-.008.56.08.832.233.272.154.535.383.816.638 1.47 1.333 2.942 2.665 4.41 4 .453.412 1.122-.308.696-.714l-.506-.51c-.21-.213-.397-.407-.524-.606-.125-.197-.206-.416-.224-.627-.02-.21.023-.433.115-.627.093-.195.243-.375.428-.52.132-.102.274-.18.414-.224.138-.043.286-.056.422-.035.134.022.276.077.405.16.13.086.264.214.416.364l1.34 1.323.003.002c.472.45 1.15-.186.7-.65l-.495-.56c-.245-.276-.486-.504-.62-.754-.135-.248-.194-.53-.16-.783.03-.253.16-.507.35-.692.192-.186.458-.322.746-.39.384-.102.73.082.977.327l1 1 .5.5c.472.452 1.16-.236.708-.707l-.5-.5c-.208-.21-.395-.402-.533-.6-.138-.197-.237-.41-.28-.62-.042-.21-.03-.433.034-.628.062-.195.183-.378.338-.512.147-.126.33-.217.522-.257.19-.04.4-.034.6.02.198.052.4.154.585.29.187.136.368.315.565.512l5.948 5.978c.47.49 1.198-.236.707-.707L23.9 11.148c-.2-.2-.42-.417-.687-.612-.267-.194-.57-.357-.914-.45-.344-.09-.71-.108-1.067-.032zm-7.73 1.95c.277-.005.506-.225.5-.5v-3c0-.276-.223-.5-.5-.5h-3c-.647 0-.674 1 0 1h1.79l-2.135 2.14c-.325.317-.1.86.346.86.13 0 .27-.062.36-.155l2.14-2.147v1.8c-.004.282.218.505.5.5zm-11 3c-.274.004-.503.224-.5.5v3c0 .275.226.5.5.5h3c.65 0 .677-1 0-1H3.716l2.136-2.14c.326-.318.112-.86-.346-.86-.13.003-.268.06-.36.153l-2.14 2.146v-1.8c.005-.28-.218-.504-.5-.5zm6.5 10c0 .55-.446 1-1 1-.55 0-1-.45-1-1 0-.553.45-1 1-1 .554 0 1 .447 1 1zm-2.5-22h3c.278 0 .5.222.5.5 0 .276-.222.5-.5.5h-3c-.276 0-.5-.224-.5-.5 0-.278.224-.5.5-.5zm-5-2c-.82 0-1.5.677-1.5 1.5v24c0 .822.68 1.5 1.5 1.5h9c.677.01.677-1.01 0-1h-9c-.284 0-.5-.215-.5-.5v-24c0-.286.216-.5.5-.5h13c.287 0 .5.214.5.5v9c-.008.675 1.01.675 1 0v-9c0-.823-.676-1.5-1.5-1.5z"/></svg>