<svg height="30" viewBox="0 0 30 30" width="30" xmlns="http://www.w3.org/2000/svg"><path d="M29.484 0a.5.5 0 0 0-.05.004l-15 2A.5.5 0 0 0 14 2.5v11a.5.5 0 0 0 .5.5h15a.5.5 0 0 0 .5-.5V.5a.5.5 0 0 0-.516-.5zM29 1.072V13H15V2.937l14-1.865zM14.5 16a.5.5 0 0 0-.5.5v10.807a.5.5 0 0 0 .428.494l15 2.194A.5.5 0 0 0 30 29.5v-13a.5.5 0 0 0-.5-.5h-15zm.5 1h14v11.922l-14-2.047V17zM.5 16a.5.5 0 0 0-.5.5v8a.5.5 0 0 0 .41.492l11 2A.5.5 0 0 0 12 26.5v-10a.5.5 0 0 0-.5-.5H.5zm.5 1h10v8.9L1 24.082V17zM11.484 3a.5.5 0 0 0-.074.008l-11 2A.5.5 0 0 0 0 5.5v8a.5.5 0 0 0 .5.5h11a.5.5 0 0 0 .5-.5v-10a.5.5 0 0 0-.516-.5zM11 4.1V13H1V5.918L11 4.1z"/></svg>