<svg height="30" viewBox="0 0 30 30" width="30" xmlns="http://www.w3.org/2000/svg"><path d="M9.5 9c-1.663 0-2.852.877-3.545 1.984C5.262 12.092 5 13.416 5 14.5c0 1.39-.427 2.684-1.777 3.584-.412.274-.218.916.277.916.64 0 1.426-.012 2.227-.307.298-.11.77-.358 1.06-.56-.088.367-.28.902-.433 1.103-.4.522-.956.764-1.854.764-.657 0-.66 1 0 1 1.102 0 2.046-.37 2.646-1.156.6-.785.854-1.898.854-3.344 0-.513-.678-.694-.934-.25-.505.876-1.08 1.28-1.685 1.504-.22.08-.452.053-.68.09C5.514 16.837 6 15.682 6 14.5c0-.916.244-2.092.803-2.984C7.36 10.623 8.17 10 9.5 10c1.33 0 2.14.623 2.697 1.516.56.892.803 2.068.803 2.984 0 1.182.485 2.337 1.3 3.344-.228-.037-.46-.01-.68-.09-.607-.223-1.18-.628-1.686-1.504-.256-.444-.935-.263-.934.25 0 1.446.255 2.526.69 3.287.438.76 1.105 1.213 1.81 1.213.668 0 .657-1 0-1-.295 0-.628-.163-.94-.71-.13-.224-.353-.79-.423-1.29.31.226.815.575 1.136.693.8.295 1.588.307 2.227.307.495 0 .69-.642.277-.916C14.427 17.184 14 15.89 14 14.5c0-1.084-.262-2.408-.955-3.516C12.352 9.877 11.163 9 9.5 9zM21 7c-1.893 0-3.2.848-3.965 1.893C16.27 9.937 16 11.14 16 12v2c0 .89.296 1.557.56 2.045.265.488.44.804.44.955v1.5c0 .495-.34 1.04-1.25 1.566-.996.575-2.496 1.42-3.5 2-.6.347-.94.842-1.098 1.3-.157.46-.152.884-.152 1.134 0 .672 1 .657 1 0 0-.25.005-.537.098-.81.092-.27.252-.525.652-.756.996-.575 2.496-1.42 3.5-2 1.09-.63 1.75-1.48 1.75-2.434V17c0-.597-.325-.998-.56-1.432-.236-.433-.44-.892-.44-1.568v-2c0-.64.23-1.687.84-2.518C18.45 8.652 19.393 8 21 8c1.607 0 2.55.652 3.16 1.482.61.83.84 1.88.84 2.518v2c0 .676-.204 1.135-.44 1.568-.235.434-.56.835-.56 1.432v1.5c0 .362-.01.784.156 1.23.165.443.518.87 1.094 1.204.578.333 1.065-.542.5-.868-.424-.245-.57-.455-.656-.685-.085-.23-.094-.518-.094-.88V17c0-.15.175-.467.44-.955.264-.488.56-1.156.56-2.045v-2c0-.86-.27-2.063-1.035-3.107C24.2 7.848 22.893 7 21 7zm-6-7C6.722 0 0 6.722 0 15c0 8.278 6.722 15 15 15 8.278 0 15-6.722 15-15 0-8.278-6.722-15-15-15zm0 1c7.738 0 14 6.262 14 14s-6.262 14-14 14S1 22.738 1 15 7.262 1 15 1z"/></svg>