<svg xmlns="http://www.w3.org/2000/svg" viewBox="0 0 30 30" width="30" height="30"><path d="M8.5 26h13c.3 0 .5-.2.5-.5s-.2-.5-.5-.5h-13c-.3 0-.5.2-.5.5s.2.5.5.5zm5 2h3c.3 0 .5-.2.5-.5s-.2-.5-.5-.5h-3c-.3 0-.5.2-.5.5s.2.5.5.5zm-5-24h13c.3 0 .5.2.5.5s-.2.5-.5.5h-13c-.3 0-.5-.2-.5-.5s.2-.5.5-.5zm5-2h3c.3 0 .5.2.5.5s-.2.5-.5.5h-3c-.3 0-.5-.2-.5-.5s.2-.5.5-.5zm-6-2C6.7 0 6 .7 6 1.5v27c0 .8.7 1.5 1.5 1.5h15c.8 0 1.5-.7 1.5-1.5v-27c0-.8-.7-1.5-1.5-1.5h-15zm0 1h15c.3 0 .5.2.5.5v27c0 .3-.2.5-.5.5h-15c-.3 0-.5-.2-.5-.5v-27c0-.3.2-.5.5-.5z"/></svg>