<svg height="30" viewBox="0 0 30 30" width="30" xmlns="http://www.w3.org/2000/svg"><path d="M14 12.487c.004-.13.058-.252.15-.343l1-.998c.196-.195.512-.195.707 0l1 .998c.45.45-.27 1.14-.707.706l-.646-.645-.647.645c-.318.324-.857.086-.857-.363zm0 8.026c.004.13.058.252.15.343l1 .998c.196.195.512.195.707 0l1-.998c.45-.45-.27-1.14-.707-.706l-.646.645-.647-.645c-.318-.324-.857-.086-.857.363zM19.513 15c.13.004.252.058.343.15l.998 1c.195.196.195.512 0 .707l-.998 1c-.45.45-1.14-.27-.706-.707l.645-.646-.645-.647c-.324-.318-.086-.857.363-.857zm-8.026 0c-.13.004-.252.058-.343.15l-.998 1c-.195.196-.195.512 0 .707l.998 1c.45.45 1.14-.27.706-.707l-.645-.646.645-.647c.324-.318.086-.857-.363-.857zm4.013-2c-.277 0-.5.223-.5.5V16h-2.5c-.277 0-.5.223-.5.5s.223.5.5.5H15v2.5c0 .277.223.5.5.5s.5-.223.5-.5V17h2.5c.277 0 .5-.223.5-.5s-.223-.5-.5-.5H16v-2.5c0-.277-.223-.5-.5-.5zm-13-5h25c.277 0 .5.223.5.5s-.223.5-.5.5h-25c-.277 0-.5-.223-.5-.5s.223-.5.5-.5zM7 6.5a.5.5 0 0 1-.5.5.5.5 0 0 1-.5-.5.5.5 0 0 1 .5-.5.5.5 0 0 1 .5.5zm-2 0a.5.5 0 0 1-.5.5.5.5 0 0 1-.5-.5.5.5 0 0 1 .5-.5.5.5 0 0 1 .5.5zm-2 0a.5.5 0 0 1-.5.5.5.5 0 0 1-.5-.5.5.5 0 0 1 .5-.5.5.5 0 0 1 .5.5zM1.5 4C.678 4 0 4.678 0 5.5v19c0 .822.678 1.5 1.5 1.5h27c.822 0 1.5-.678 1.5-1.5v-19c0-.822-.678-1.5-1.5-1.5h-27zm0 1h27c.286 0 .5.214.5.5v19c0 .286-.214.5-.5.5h-27c-.286 0-.5-.214-.5-.5v-19c0-.286.214-.5.5-.5z"/></svg>