<svg height="30" viewBox="0 0 30 30" width="30" xmlns="http://www.w3.org/2000/svg"><path d="M14.5 0C10.364 0 7 3.364 7 7.5v3c0 .657 1 .668 1 0v-3C8 3.904 10.904 1 14.5 1S21 3.904 21 7.5v3c0 .676 1 .644 1 0v-3C22 3.364 18.636 0 14.5 0zm0 17c-1.375 0-2.5 1.125-2.5 2.5 0 .77.406 1.445 1 1.914V23.5c0 .822.678 1.5 1.5 1.5s1.5-.678 1.5-1.5v-2.088c.594-.47 1-1.143 1-1.912 0-1.375-1.125-2.5-2.5-2.5zm0 1c.834 0 1.5.666 1.5 1.5 0 .536-.286 1.027-.75 1.295-.155.09-.25.255-.25.434v2.27c0 .286-.214.5-.5.5-.286 0-.5-.214-.5-.5v-2.27c0-.178-.095-.344-.25-.433-.464-.268-.75-.76-.75-1.297 0-.834.666-1.5 1.5-1.5zm-9-6c-.822 0-1.5.678-1.5 1.5v15c0 .822.678 1.5 1.5 1.5h18c.822 0 1.5-.678 1.5-1.5v-15c0-.822-.678-1.5-1.5-1.5zm0 1h18c.286 0 .5.214.5.5v15c0 .286-.214.5-.5.5h-18c-.286 0-.5-.214-.5-.5v-15c0-.286.214-.5.5-.5z"/></svg>