<svg xmlns="http://www.w3.org/2000/svg" viewBox="0 0 30 30" width="30" height="30"><path d="M11.5 18c.3 0 .5.2.5.5s-.2.5-.5.5-.5-.2-.5-.5.2-.5.5-.5zm7 0c.3 0 .5.2.5.5s-.2.5-.5.5-.5-.2-.5-.5.2-.5.5-.5zm0-7c.3 0 .5.2.5.5s-.2.5-.5.5-.5-.2-.5-.5.2-.5.5-.5zm-7 0c.3 0 .5.2.5.5s-.2.5-.5.5-.5-.2-.5-.5.2-.5.5-.5zm7.5 3c.6 0 1 .4 1 1s-.4 1-1 1-1-.4-1-1 .4-1 1-1zm-8 0c.6 0 1 .4 1 1s-.4 1-1 1-1-.4-1-1 .4-1 1-1zm5 5c0 .6-.4 1-1 1s-1-.4-1-1 .4-1 1-1 1 .4 1 1zm0-8c0 .6-.4 1-1 1s-1-.4-1-1 .4-1 1-1 1 .4 1 1zm-1 2c-1 0-2 1-2 2s1 2 2 2 2-1 2-2-1-2-2-2zm0 1c.6 0 1 .4 1 1s-.4 1-1 1-1-.4-1-1 .4-1 1-1zM8.5 7C7.7 7 7 7.7 7 8.5V9l-5.6 1c-.3 0-.7.2-1 .5-.2.2-.4.6-.4 1v7c0 .4.2.8.5 1 .2.3.6.4 1 .5L7 21v.5c0 .8.7 1.5 1.5 1.5h13c.8 0 1.5-.7 1.5-1.5V21l5.6-1c.3 0 .7-.2 1-.5.2-.2.4-.6.4-1v-7c0-.4-.2-.8-.5-1-.2-.3-.6-.4-1-.5L23 9v-.5c0-.8-.7-1.5-1.5-1.5zM22 21.5c0 .3-.2.5-.5.5h-13c-.3 0-.5-.2-.5-.5v-13c0-.3.2-.5.5-.5h13c.3 0 .5.2.5.5zM7 10v10l-5.4-1c-.4 0-.6-.2-.6-.5v-7c0-.3.2-.4.6-.5zm16 0l5.4 1c.5 0 .6.3.6.5v7c0 .3-.2.4-.6.5L23 20z"/></svg>