<svg xmlns="http://www.w3.org/2000/svg" width="30" height="30"><path style="text-indent:0;text-align:start;line-height:normal;text-transform:none;block-progression:tb;-inkscape-font-specification:Sans" d="M5 .5v11.53C5 17.537 9.472 22 15 22s10-4.464 10-9.97V.5c0-.262-.238-.5-.5-.5h-4c-.262 0-.5.238-.5.5V12c0 2.773-2.22 5-5 5s-5-2.227-5-5V.5c0-.262-.238-.5-.5-.5h-4c-.337 0-.5.23-.5.5zM6 1h3v11c0 3.31 2.685 6 6 6s6-2.69 6-6V1h3v11.03c0 4.966-4.006 8.97-9 8.97s-9-4.004-9-8.97zM5 25.5v4c0 .262.238.5.5.5h19c.262 0 .5-.238.5-.5v-4c0-.262-.238-.5-.5-.5h-19c-.314 0-.5.25-.5.5zm1 .5h18v3H6z"/></svg>