<svg height="30" viewBox="0 0 30 30" width="30" xmlns="http://www.w3.org/2000/svg"><path d="M17.97 2c-.143.002-.277.064-.37.17l-3.17 3.64-2.117-1.693c-.183-.146-.443-.146-.626 0L9.178 6.11c-.49.388.133 1.174.626.78L12 5.15l2.178 1.743c.21.168.513.142.69-.06L18 3.232l3.61 3.618c.18.18.466.196.665.037l2.178-1.717 1.684 1.684c.448.466 1.174-.26.707-.708l-2-2c-.18-.18-.467-.196-.666-.037L22 5.825l-3.672-3.68c-.095-.095-.225-.148-.36-.146zM9.5 13h16c.277 0 .5.223.5.5s-.223.5-.5.5h-16c-.277 0-.5-.223-.5-.5s.223-.5.5-.5zM.49 5c-.637 0-.664 1 0 1h3.596c.075.355.643 3.055 1.316 6.23.36 1.686.724 3.406 1.018 4.766.294 1.36.506 2.326.588 2.633.132.494.256 1.055.62 1.544.362.488 1 .826 1.862.826h16c.86 0 1.5-.338 1.864-.826.363-.49.488-1.05.62-1.545.144-.537.543-2.255.948-3.993.405-1.738.817-3.496.94-3.96.153-.565.203-1.155.023-1.69-.18-.533-.72-.987-1.395-.987h-20c-.634 0-.656 1 0 1h20c.326 0 .366.07.447.31.082.238.076.674-.04 1.108-.144.536-.542 2.254-.948 3.992-.406 1.738-.818 3.497-.942 3.96-.136.506-.26.945-.455 1.206-.195.262-.424.424-1.063.424h-16c-.64 0-.866-.162-1.06-.424-.195-.26-.32-.7-.455-1.205-.052-.192-.283-1.227-.577-2.585-.293-1.358-.66-3.076-1.02-4.764C5.664 8.648 4.98 5.397 4.98 5.397 4.93 5.166 4.727 5 4.49 5zM10.5 17h14c.277 0 .5.223.5.5s-.223.5-.5.5h-14c-.277 0-.5-.223-.5-.5s.223-.5.5-.5zm13 6c-1.375 0-2.5 1.125-2.5 2.5s1.125 2.5 2.5 2.5 2.5-1.125 2.5-2.5-1.125-2.5-2.5-2.5zm0 1c.834 0 1.5.666 1.5 1.5s-.666 1.5-1.5 1.5-1.5-.666-1.5-1.5.666-1.5 1.5-1.5zm-12-1C10.125 23 9 24.125 9 25.5s1.125 2.5 2.5 2.5 2.5-1.125 2.5-2.5-1.125-2.5-2.5-2.5zm0 1c.834 0 1.5.666 1.5 1.5s-.666 1.5-1.5 1.5-1.5-.666-1.5-1.5.666-1.5 1.5-1.5z"/></svg>