<svg height="30" viewBox="0 0 30 30" width="30" xmlns="http://www.w3.org/2000/svg"><path d="M15 10c-3.86 0-7 3.14-7 7s3.14 7 7 7 7-3.14 7-7-3.14-7-7-7zm0 1c3.32 0 6 2.68 6 6s-2.68 6-6 6-6-2.68-6-6 2.68-6 6-6zM4.5 3C3.678 3 3 3.678 3 4.5v1c0 .676 1 .65 1 0v-1c0-.286.214-.5.5-.5h5c.286 0 .5.214.5.5v1c0 .66 1 .66 1 0v-1c0-.822-.678-1.5-1.5-1.5zm19 6c-.822 0-1.5.678-1.5 1.5s.678 1.5 1.5 1.5h3c.822 0 1.5-.678 1.5-1.5S27.322 9 26.5 9zm0 1h3c.286 0 .5.214.5.5 0 .286-.214.5-.5.5h-3c-.286 0-.5-.214-.5-.5 0-.286.214-.5.5-.5zm-22-3C.678 7 0 7.678 0 8.5v17c0 .822.678 1.5 1.5 1.5h27c.822 0 1.5-.678 1.5-1.5v-17c0-.822-.678-1.5-1.5-1.5zm0 1h27c.286 0 .5.214.5.5v17c0 .286-.214.5-.5.5h-27c-.286 0-.5-.214-.5-.5v-17c0-.286.214-.5.5-.5z"/></svg>