<svg height="30" viewBox="0 0 30 30" width="30" xmlns="http://www.w3.org/2000/svg"><path d="M5.495 17c-.128.004-.254.053-.344.145l-.988.992c-.486.467.233 1.188.7.7l.988-.99c.322-.316.088-.847-.355-.847zM4.5 10c-.445 0-.67.536-.35.846l.99.992c.465.487 1.184-.234.698-.7l-.99-.993C4.757 10.05 4.635 10 4.5 10zm7.995 0c-.128.004-.254.053-.344.145l-.988.992c-.486.467.233 1.188.7.7l.988-.99c.322-.316.088-.847-.355-.847zM9 9.5v1c0 .277-.223.5-.5.5s-.5-.223-.5-.5v-1c0-.277.223-.5.5-.5s.5.223.5.5zM3.5 14h1c.277 0 .5.223.5.5s-.223.5-.5.5h-1c-.277 0-.5-.223-.5-.5s.223-.5.5-.5zm17.73-3.95c-.358.076-.692.24-.97.48-.295.256-.516.588-.637.958-.067.205-.03.418-.035.63-.244-.133-.8-.158-1.147-.065-.44.103-.878.307-1.215.65-.503.51-.636.94-.6 1.508-.16-.07-.31-.163-.49-.19-.296-.045-.592-.02-.87.068-.275.086-.52.226-.732.39-.295.23-.546.527-.715.88-.12.25-.128.53-.148.808l-2.244-2.037c-.286-.26-.6-.545-.994-.77-.396-.223-.86-.376-1.358-.36-.516.017-1.016.218-1.396.578-.38.36-.608.852-.647 1.37-.037.514.11 1.006.36 1.42.245.41.566.718.854.993L16.252 25H14.5c-.24 0-.507 0-.795.053-.29.052-.58.155-.844.332-.263.176-.482.414-.633.7-.15.283-.227.598-.227.915 0 .317.076.632.227.916.15.285.37.523.634.7.265.176.556.28.845.33.288.053.556.054.795.054h8c.686 0 .644-1 0-1h-8c-.233 0-.44-.005-.617-.037-.176-.032-.338-.092-.467-.178-.128-.086-.236-.205-.307-.338-.07-.133-.11-.29-.11-.447 0-.156.04-.314.11-.447s.178-.252.306-.338c.13-.086.29-.146.467-.178.176-.032.384-.037.617-.037h3c.45 0 .67-.55.346-.86l-8.91-8.5c-.282-.27-.53-.522-.688-.786-.157-.262-.24-.562-.22-.833.02-.266.147-.537.337-.717.192-.182.47-.294.74-.303.268-.01.562.08.832.232.272.155.536.384.817.64 1.47 1.332 2.94 2.664 4.41 4 .453.41 1.122-.31.696-.715l-.506-.51c-.21-.213-.398-.408-.524-.606-.125-.196-.206-.416-.225-.626-.018-.21.023-.433.116-.627.094-.196.244-.376.428-.52.133-.103.274-.18.415-.224.138-.043.286-.056.42-.035.136.02.278.075.408.16.13.085.265.213.417.363l1.34 1.324v.002c.474.45 1.15-.185.702-.65l-.496-.56c-.245-.275-.487-.503-.622-.753-.133-.248-.192-.53-.16-.784.033-.253.163-.507.352-.692.192-.188.457-.323.746-.39.384-.104.73.08.976.326l1 1 .5.5c.472.452 1.16-.236.708-.708l-.5-.5c-.21-.208-.395-.4-.534-.6-.138-.197-.237-.41-.28-.62-.04-.21-.03-.432.034-.627.064-.196.185-.38.34-.513.146-.126.33-.217.522-.258.19-.04.4-.034.6.02.198.052.4.154.585.29.188.136.37.315.566.512l5.948 5.978c.47.49 1.198-.236.707-.707l-5.945-5.978c-.2-.2-.42-.417-.686-.612-.268-.194-.573-.357-.915-.45-.343-.09-.71-.108-1.066-.032zM9 25c0 .552-.448 1-1 1s-1-.448-1-1 .448-1 1-1 1 .448 1 1zM6.5 3h3c.277 0 .5.223.5.5s-.223.5-.5.5h-3c-.277 0-.5-.223-.5-.5s.223-.5.5-.5zm-5-2C.678 1 0 1.678 0 2.5v24c0 .822.678 1.5 1.5 1.5h9c.693 0 .637-1 0-1h-9c-.286 0-.5-.214-.5-.5v-24c0-.286.214-.5.5-.5h13c.286 0 .5.214.5.5v9c-.01.676 1.01.676 1 0v-9c0-.822-.678-1.5-1.5-1.5z"/></svg>