<svg height="30" viewBox="0 0 30 30" width="30" xmlns="http://www.w3.org/2000/svg"><path d="M6.5 13h17c.277 0 .5.223.5.5s-.223.5-.5.5h-17c-.277 0-.5-.223-.5-.5s.223-.5.5-.5zm0-4h17c.277 0 .5.223.5.5s-.223.5-.5.5h-17c-.277 0-.5-.223-.5-.5s.223-.5.5-.5zm0-4h17c.277 0 .5.223.5.5s-.223.5-.5.5h-17c-.277 0-.5-.223-.5-.5s.223-.5.5-.5zM2.514 0C1.684 0 1 .684 1 1.514v26.853c0 .515.237.996.643 1.313.405.317 1.03.43 1.597.15L15 24.057l11.773 5.773c.462.227 1.01.234 1.463-.02.454-.257.764-.795.764-1.443V1.5c0-.822-.678-1.5-1.5-1.5H2.514zm0 1H27.5c.3 0 .5.2.5.5v26.867c0 .366-.12.493-.256.57-.137.078-.344.087-.53-.005l-11.993-5.88a.5.5 0 0 0-.44 0L2.8 28.93c-.255.125-.39.077-.54-.04-.15-.116-.26-.343-.26-.525V1.514C2 1.22 2.22 1 2.514 1z"/></svg>