<svg height="30" viewBox="0 0 30 30" width="30" xmlns="http://www.w3.org/2000/svg"><path d="M15 0C6.722 0 0 6.722 0 15c0 8.278 6.722 15 15 15 8.278 0 15-6.722 15-15 0-8.278-6.722-15-15-15zm0 1c7.738 0 14 6.262 14 14s-6.262 14-14 14S1 22.738 1 15 7.262 1 15 1zm0 4c-2.275 0-3.633 1.158-4.29 2.535-.655 1.377-.71 2.943-.71 3.965 0 2.917-2.754 4.57-2.754 4.57-.28.166-.33.552-.1.784 0 0 1.132 1.146 2.854 1.146 1.376 0 2.336-.618 3-1.225v.725c0 .197-.064.355-.22.53-.153.177-.406.355-.735.503-.657.296-1.603.468-2.545.467-2.305-.002-4.5 2.02-4.5 4.5 0 .664 1 .664 1 0C6 21.633 7.805 20 9.5 20c1.058 0 2.112-.176 2.955-.555.42-.19.793-.432 1.076-.754.284-.32.47-.737.47-1.19v-2c.002-.5-.65-.693-.92-.273 0 0-1.184 1.773-3.08 1.773-.8 0-1.337-.285-1.703-.535C9.05 15.943 11 14.445 11 11.5c0-.978.078-2.412.613-3.535C12.148 6.842 13.04 6 15 6s2.852.842 3.387 1.965c.535 1.123.613 2.557.613 3.535 0 2.945 1.95 4.443 2.703 4.965-.366.25-.903.535-1.703.535-1.896 0-3.08-1.773-3.08-1.773-.27-.42-.922-.226-.92.273v2c0 .453.186.87.47 1.19.282.323.654.566 1.075.755.843.38 1.897.556 2.955.555 1.695 0 3.5 1.633 3.5 3.5 0 .668 1 .664 1 0 0-2.48-2.195-4.502-4.5-4.5-.942 0-1.888-.17-2.545-.467-.33-.148-.582-.326-.736-.502-.156-.175-.22-.333-.22-.53v-.725c.664.607 1.624 1.225 3 1.225 1.722 0 2.854-1.146 2.854-1.146.23-.232.18-.618-.1-.784 0 0-2.754-1.653-2.754-4.57 0-1.022-.055-2.588-.71-3.965C18.632 6.158 17.274 5 15 5z"/></svg>