<svg height="30" viewBox="0 0 30 30" width="30" xmlns="http://www.w3.org/2000/svg"><path d="M.5 16h3c.277 0 .5.223.5.5s-.223.5-.5.5h-3c-.277 0-.5-.223-.5-.5s.223-.5.5-.5zm0-5h3c.277 0 .5.223.5.5s-.223.5-.5.5h-3c-.277 0-.5-.223-.5-.5s.223-.5.5-.5zm0-5h3c.277 0 .5.223.5.5s-.223.5-.5.5h-3C.223 7 0 6.777 0 6.5S.223 6 .5 6zm7-4C6.678 2 6 2.677 6 3.5v17c0 .822.678 1.5 1.5 1.5H10v4.5c0 .347.052.647.184.908.132.26.374.48.658.555.57.148 1.076-.164 1.516-.614 1.524-1.56 4.227-4.237 5.35-5.35H28.5c.822 0 1.5-.678 1.5-1.5v-17c0-.823-.678-1.5-1.5-1.5zm0 1h21c.286 0 .5.214.5.5v17c0 .285-.214.5-.5.5h-11c-.13 0-.257.052-.35.144-1.06 1.05-3.928 3.89-5.507 5.506-.552.552-.643.197-.643-.15v-5c0-.276-.223-.5-.5-.5h-3c-.286 0-.5-.215-.5-.5v-17c0-.286.214-.5.5-.5z"/></svg>