<svg xmlns="http://www.w3.org/2000/svg" width="30" height="30"><path d="M3.5 21C1.573 21 0 22.573 0 24.5S1.573 28 3.5 28 7 26.427 7 24.5 5.427 21 3.5 21zm0 1C4.887 22 6 23.113 6 24.5S4.887 27 3.5 27 1 25.887 1 24.5 2.113 22 3.5 22zm0-11C1.573 11 0 12.573 0 14.5S1.573 18 3.5 18 7 16.427 7 14.5 5.427 11 3.5 11zm0 1C4.887 12 6 13.113 6 14.5S4.887 17 3.5 17 1 15.887 1 14.5 2.113 12 3.5 12zm0-11C1.573 1 .013 2.573.013 4.5S1.573 8 3.5 8s3.487-1.573 3.487-3.5S5.428 1 3.5 1zm0 1c1.387 0 2.513 1.113 2.513 2.5S4.886 7 3.5 7 .987 5.887.987 4.5 2.113 2 3.5 2zm26 3h-20c-.67 0-.65-1 0-1h20c.66 0 .67 1 0 1zm0 10h-20c-.67 0-.65-1 0-1h20c.66 0 .67 1 0 1zm0 10h-20c-.67 0-.65-1 0-1h20c.66 0 .67 1 0 1z"/></svg>