<svg height="30" viewBox="0 0 30 30" width="30" xmlns="http://www.w3.org/2000/svg"><path d="M15 6c-1.55 0-2.814.786-3.666 1.78C10.482 8.778 10 9.975 10 11v2.5c0 .667.334 1.152.584 1.527.25.375.416.64.416.973v1c0 .61-.062 1.174-.748 1.566l-3.5 2c-.8.457-1.272.9-1.518 1.416C4.99 22.498 5 23.002 5 23.5c0 .67 1 .66 1 0 0-.5.008-.818.137-1.088.128-.27.406-.575 1.11-.978l3.5-2C11.813 18.826 12 17.734 12 17v-1c0-.667-.334-1.152-.584-1.527-.25-.375-.416-.64-.416-.973V11c0-.69.387-1.743 1.094-2.568C12.8 7.606 13.784 7 15 7c1.215 0 2.2.606 2.906 1.432C18.613 9.257 19 10.312 19 11v2.5c0 .333-.166.598-.416.973-.25.375-.584.86-.584 1.527v1c0 .735.188 1.826 1.252 2.434l3.5 2c.705.403.983.708 1.11.978.13.27.138.587.138 1.088 0 .67 1 .672 1 0 0-.5.01-1.002-.234-1.518-.246-.515-.72-.96-1.518-1.416l-3.5-2C19.062 18.174 19 17.61 19 17v-1c0-.333.166-.598.416-.973.25-.375.584-.86.584-1.527V11c0-1.026-.482-2.223-1.334-3.22C17.814 6.787 16.55 6 15 6zm0-6C6.722 0 0 6.722 0 15c0 8.278 6.722 15 15 15 8.278 0 15-6.722 15-15 0-8.278-6.722-15-15-15zm0 1c7.738 0 14 6.262 14 14s-6.262 14-14 14S1 22.738 1 15 7.262 1 15 1z"/></svg>