<svg height="30" viewBox="0 0 30 30" width="30" xmlns="http://www.w3.org/2000/svg"><path d="M11.5 0c-.654 0-.65 1 0 1h6.842c.72 0 .73.408.554.77l-3.84 7.5c-.172.334.07.73.444.73h7.072c.15 0 .323.093.39.248.07.155.095.443-.288.95L10.33 27.57l1.664-9.988c.05-.305-.185-.583-.494-.582H7.54c-.557 0-.6-.164-.505-.934l1.96-14.5c.09-.66-.903-.794-.99-.132l-1.962 14.5c-.075.556-.06 1.048.203 1.46.264.413.768.606 1.293.606h3.368L9.006 29.418c-.086.516.578.8.892.383l13.575-18c.524-.694.643-1.406.406-1.95-.24-.544-.77-.85-1.308-.85h-6.254l3.467-6.77c.188-.368.316-.856.12-1.36C19.707.363 19.12 0 18.34 0z"/></svg>