<svg height="30" viewBox="0 0 30 30" width="30" xmlns="http://www.w3.org/2000/svg"><path d="M22.5 19c-1.375 0-2.5 1.125-2.5 2.5s1.125 2.5 2.5 2.5c.574 0 1.06-.246 1.5-.6.44.354.926.6 1.5.6 1.375 0 2.5-1.125 2.5-2.5S26.875 19 25.5 19c-.574 0-1.06.24-1.5.595-.44-.355-.926-.594-1.5-.595zm0 1c.43 0 .84.186 1.125.51.2.225.55.225.75 0 .285-.324.694-.51 1.125-.51.834 0 1.5.666 1.5 1.5s-.666 1.5-1.5 1.5c-.43 0-.84-.186-1.125-.51-.2-.225-.55-.225-.75 0-.285.324-.694.51-1.125.51-.834 0-1.5-.666-1.5-1.5s.666-1.5 1.5-1.5zm-7 1h2c.277 0 .5.223.5.5s-.223.5-.5.5h-2c-.277 0-.5-.223-.5-.5s.223-.5.5-.5zm-4 0h2c.277 0 .5.223.5.5s-.223.5-.5.5h-2c-.277 0-.5-.223-.5-.5s.223-.5.5-.5zm-4 0h2c.277 0 .5.223.5.5s-.223.5-.5.5h-2c-.277 0-.5-.223-.5-.5s.223-.5.5-.5zm7-5h12c.277 0 .5.223.5.5s-.223.5-.5.5h-12c-.277 0-.5-.223-.5-.5s.223-.5.5-.5zm5-3h7c.277 0 .5.223.5.5s-.223.5-.5.5h-7c-.277 0-.5-.223-.5-.5s.223-.5.5-.5zm-5 0h3c.277 0 .5.223.5.5s-.223.5-.5.5h-3c-.277 0-.5-.223-.5-.5s.223-.5.5-.5zm-7-1c-.276 0-.5.224-.5.5v5c0 .276.224.5.5.5h4c.276 0 .5-.224.5-.5v-5c0-.276-.224-.5-.5-.5zm.5 1h3v4H8zm-1.5-3c-.822 0-1.5.678-1.5 1.5v13c0 .822.678 1.5 1.5 1.5h22c.822 0 1.5-.678 1.5-1.5v-13c0-.822-.678-1.5-1.5-1.5zm0 1h22c.286 0 .5.214.5.5v13c0 .286-.214.5-.5.5h-22c-.286 0-.5-.214-.5-.5v-13c0-.286.214-.5.5-.5zm-5-7C.678 4 0 4.678 0 5.5v13c0 .822.678 1.5 1.5 1.5h2c.672 0 .653-1 0-1h-2c-.286 0-.5-.214-.5-.5V12h1.5c.277 0 .5-.223.5-.5s-.223-.5-.5-.5H1V8h24v.5c0 .672 1 .657 1 0v-3c0-.822-.678-1.5-1.5-1.5zm0 1h23c.286 0 .5.214.5.5V7H1V5.5c0-.286.214-.5.5-.5z"/></svg>