<svg xmlns="http://www.w3.org/2000/svg" width="30" height="30"><path d="M6 .5v29c0 .262.238.5.5.5H16c4.977 0 9-4.023 9-9 0-3.023-1.5-5.68-3.78-7.313 1.518-1.45 2.56-3.414 2.56-5.687 0-4.425-3.595-8-8.03-8H6.5c-.326 0-.5.228-.5.5zm9.75.5c3.9 0 7.03 3.115 7.03 7 0 2.183-1 4.122-2.56 5.406-.25.194-.234.638.03.813C22.495 15.63 24 18.132 24 21c0 4.44-3.56 8.003-8 8H7V1zM10 15.5v10c0 .262.238.5.5.5h5.03c3.02 0 5.47-2.464 5.47-5.5S18.55 15 15.53 15H10.5c-.303 0-.5.238-.5.5zm1 .5h4.53C18.01 16 20 17.996 20 20.5S18.008 25 15.53 25H11zM10 4.5v7c0 .262.238.5.5.5H16c2.207 0 4-1.793 4-4s-1.793-4-4-4h-5.5c-.316 0-.5.235-.5.5zm1 .5h5c1.67 0 3 1.33 3 3s-1.33 3-3 3h-5z"/></svg>