<svg height="30" viewBox="0 0 30 30" width="30" xmlns="http://www.w3.org/2000/svg"><path d="M6.49 26c-.13.004-.253.057-.343.15l-.994.994c-.488.47.234 1.19.703.703l.994-.994c.324-.316.098-.853-.36-.853zm-3 0c-.13.004-.253.057-.343.15l-.994.994c-.488.47.234 1.19.703.703l.994-.994c.324-.316.087-.853-.36-.853zm0-3c-.13.004-.253.057-.343.15l-.994.994c-.488.47.234 1.19.703.703l.994-.994c.324-.316.092-.853-.36-.853zm3.01-4c-.275.004-.503.225-.5.5v.5c0 2.203 1.797 4 4 4h.5c.68 0 .64-1 0-1H10c-1.663 0-3-1.337-3-3v-.5c.003-.282-.22-.504-.5-.5zM21 5c-2.203 0-4 1.797-4 4 0 2.203 1.797 4 4 4 2.203 0 4-1.797 4-4 0-2.203-1.797-4-4-4zm0 1c1.663 0 3 1.337 3 3s-1.337 3-3 3-3-1.337-3-3 1.337-3 3-3zM27.307.023c-.818-.055-1.79.033-2.866.248-2.152.43-4.727 1.374-7.19 2.796C12.32 5.913 8.844 10.23 6.047 16.29c-.51 1.106-2.01 2.778-3.213 3.413-.602.318-1.04.354-1.29.195C1.293 19.74 1 19.228 1 18c0-1.117.48-2.977 1.145-4.486.332-.755.71-1.43 1.068-1.885.358-.457.69-.63.787-.63.264 0 .407.07.535.186.13.114.234.29.31.49.148.397.155.824.155.824-.01.676 1.01.676 1 0 0 0 .007-.573-.22-1.176-.112-.3-.287-.624-.58-.885-.294-.26-.714-.44-1.2-.44-.653 0-1.133.452-1.572 1.012-.44.56-.842 1.29-1.198 2.1C.52 14.726 0 16.616 0 18s.313 2.302 1.008 2.742c.695.44 1.54.244 2.293-.154 1.508-.795 3.01-2.484 3.653-3.88C9.693 10.77 13.02 6.665 17.75 3.935c2.367-1.367 4.86-2.277 6.887-2.682 1.013-.202 1.91-.277 2.6-.23.69.046 1.15.232 1.33.412.18.18.365.638.412 1.328.045.69-.03 1.588-.232 2.6-.405 2.028-1.315 4.52-2.682 6.888-2.73 4.73-6.836 8.056-12.775 10.797-1.394.644-3.083 2.145-3.878 3.652-.398.753-.595 1.597-.154 2.292C9.698 29.687 10.618 30 12 30c1.383 0 3.273-.52 4.89-1.23.807-.356 1.54-.76 2.098-1.198.56-.44 1.012-.92 1.012-1.572 0-.486-.18-.906-.44-1.2-.26-.293-.583-.468-.884-.58-.603-.227-1.176-.22-1.176-.22-.676-.01-.676 1.01 0 1 0 0 .427.007.824.156.2.075.376.18.49.31.115.127.186.27.186.534 0 .097-.173.43-.63.787-.455.358-1.13.736-1.884 1.068C14.976 28.52 13.116 29 12 29c-1.23 0-1.74-.293-1.898-.543-.16-.25-.123-.69.195-1.29.635-1.205 2.307-2.704 3.412-3.214 6.06-2.797 10.377-6.273 13.224-11.203 1.422-2.463 2.365-5.038 2.795-7.19.214-1.078.302-2.05.247-2.867-.056-.817-.24-1.502-.704-1.966-.464-.465-1.15-.648-1.966-.704z"/></svg>