<svg height="30" viewBox="0 0 30 30" width="30" xmlns="http://www.w3.org/2000/svg"><path d="M20.5 12h2c.277 0 .5.223.5.5s-.223.5-.5.5h-2c-.277 0-.5-.223-.5-.5s.223-.5.5-.5zm1 2c.277 0 .5.223.5.5v8c0 .277-.223.5-.5.5s-.5-.223-.5-.5v-8c0-.277.223-.5.5-.5zm0-7c.277 0 .5.223.5.5v3c0 .277-.223.5-.5.5s-.5-.223-.5-.5v-3c0-.277.223-.5.5-.5zm-8 11h2c.277 0 .5-.223.5-.5s-.223-.5-.5-.5h-2c-.277 0-.5.223-.5.5s.223.5.5.5zm1-2c.277 0 .5-.223.5-.5v-8c0-.277-.223-.5-.5-.5s-.5.223-.5.5v8c0 .277.223.5.5.5zm0 7c.277 0 .5-.223.5-.5v-3c0-.277-.223-.5-.5-.5s-.5.223-.5.5v3c0 .277.223.5.5.5zm-8-11h2c.277 0 .5.223.5.5s-.223.5-.5.5h-2c-.277 0-.5-.223-.5-.5s.223-.5.5-.5zm1 2c.277 0 .5.223.5.5v8c0 .277-.223.5-.5.5s-.5-.223-.5-.5v-8c0-.277.223-.5.5-.5zm0-7c.277 0 .5.223.5.5v3c0 .277-.223.5-.5.5s-.5-.223-.5-.5v-3c0-.277.223-.5.5-.5zm-6-7C.678 0 0 .678 0 1.5v27c0 .822.678 1.5 1.5 1.5h26c.822 0 1.5-.678 1.5-1.5v-27c0-.822-.678-1.5-1.5-1.5zm0 1h26c.286 0 .5.214.5.5v27c0 .286-.214.5-.5.5h-26c-.286 0-.5-.214-.5-.5v-27c0-.286.214-.5.5-.5z"/></svg>