<svg xmlns="http://www.w3.org/2000/svg" width="30" height="30"><path d="M6.458 10.428l-4.33-2.5c-.564-.325-.08-1.2.5-.866l4.33 2.5c.57.33.072 1.197-.5.866zm19.914 11.498l-4.33-2.5c-.564-.326-.08-1.2.5-.866l4.33 2.5c.57.33.072 1.196-.5.866zM9.568 6.952l-2.5-4.33c-.326-.564.53-1.08.866-.5l2.5 4.33c.33.57-.536 1.072-.866.5zm11.497 19.914l-2.5-4.33c-.325-.564.53-1.08.866-.5l2.5 4.33c.33.57-.535 1.072-.865.5zm-2.5-20.415l2.5-4.33c.326-.563 1.2-.08.866.5l-2.5 4.33c-.328.572-1.195.073-.865-.5zM7.068 26.366l2.5-4.33c.325-.564 1.2-.08.866.5l-2.5 4.33c-.33.57-1.196.072-.866-.5zM22.042 9.56l4.33-2.5c.564-.325 1.08.532.5.867l-4.33 2.5c-.57.33-1.072-.536-.5-.866zM2.128 21.06l4.33-2.5c.563-.325 1.08.53.5.866l-4.33 2.5c-.57.33-1.072-.536-.5-.866zM23.5 14h5c.65 0 .67 1 0 1h-5c-.66 0-.66-1 0-1zm-23 0h5c.65 0 .67 1 0 1h-5c-.66 0-.66-1 0-1zM15 23.5v5c0 .65-1 .67-1 0v-5c0-.66 1-.66 1 0zm0-23v5c0 .65-1 .67-1 0v-5c0-.66 1-.66 1 0zM14.5 8C10.916 8 8 10.916 8 14.5s2.916 6.5 6.5 6.5 6.5-2.916 6.5-6.5S18.084 8 14.5 8zm0 1c3.043 0 5.5 2.457 5.5 5.5 0 3.044-2.457 5.5-5.5 5.5S9 17.544 9 14.5C9 11.457 11.457 9 14.5 9z"/></svg>