<svg height="30" viewBox="0 0 30 30" width="30" xmlns="http://www.w3.org/2000/svg"><path d="M20.5 11h2c.277 0 .5.223.5.5s-.223.5-.5.5h-2c-.277 0-.5-.223-.5-.5s.223-.5.5-.5zm5 0h2c.277 0 .5.223.5.5s-.223.5-.5.5h-2c-.277 0-.5-.223-.5-.5s.223-.5.5-.5zm-17 12h13c.277 0 .5.223.5.5s-.223.5-.5.5h-13c-.277 0-.5-.223-.5-.5s.223-.5.5-.5zm0-3h13c.277 0 .5.223.5.5s-.223.5-.5.5h-13c-.277 0-.5-.223-.5-.5s.223-.5.5-.5zm-5-3h23c.277 0 .5.223.5.5s-.223.5-.5.5h-23c-.277 0-.5-.223-.5-.5s.223-.5.5-.5zm-2-8C.678 9 0 9.678 0 10.5v11c0 .822.678 1.5 1.5 1.5H5v4.5c0 .822.678 1.5 1.5 1.5h17c.822 0 1.5-.678 1.5-1.5V23h3.5c.822 0 1.5-.678 1.5-1.5v-11c0-.822-.678-1.5-1.5-1.5zm0 1h27c.286 0 .5.214.5.5v11c0 .286-.214.5-.5.5H25v-2.5c0-.664-1-.664-1 0v2.92c-.01.054-.01.108 0 .162V27.5c0 .286-.214.5-.5.5h-17c-.286 0-.5-.214-.5-.5v-4.92c.01-.054.01-.108 0-.162V19.5c.004-.282-.218-.504-.5-.5-.276.004-.504.224-.5.5V22H1.5c-.286 0-.5-.214-.5-.5v-11c0-.286.214-.5.5-.5zm5-9C5.678 1 5 1.678 5 2.5v4c0 .673 1 .656 1 0v-4c0-.286.214-.5.5-.5h17c.286 0 .5.214.5.5v4c0 .67 1 .648 1 0v-4c0-.822-.678-1.5-1.5-1.5z"/></svg>