<svg height="30" viewBox="0 0 30 30" width="30" xmlns="http://www.w3.org/2000/svg"><path d="M27.99 6.437c-.58-.58-1.54-.58-2.12 0l-.433.432c-.58.58-.58 1.54 0 2.12l1.573 1.574c.582.58 1.54.58 2.122 0l.432-.433c.58-.58.58-1.538 0-2.12L27.99 6.437zm-.706.707l1.573 1.573c.202.202.202.505 0 .707l-.433.433c-.2.202-.505.202-.707 0l-1.573-1.573c-.202-.202-.202-.505 0-.707l.433-.433c.202-.202.505-.202.707 0zm-3.41 1.86c-.3-.024-.666.06-.938.334l-10.29 10.308c-.187.19-.385.386-.503.692-.117.306-.142.64-.142 1.162V23c0 .505.43 1 1 1h1.5c.524 0 .865-.03 1.17-.148.306-.12.503-.317.684-.498l10.29-10.31c.495-.496.45-1.256 0-1.706l-2-2c-.212-.21-.47-.31-.77-.334zm.062 1.04l2 2c.038.038.076.218 0 .294l-10.29 10.308c-.18.18-.233.233-.337.274-.105.04-.332.08-.81.08H13v-1.5c0-.48.038-.705.077-.805.038-.1.09-.153.277-.34l10.29-10.31c.09-.09.247-.045.292 0zM4.5 11h13c.277 0 .5.223.5.5s-.223.5-.5.5h-13c-.277 0-.5-.223-.5-.5s.223-.5.5-.5zm0-3h13c.277 0 .5.223.5.5s-.223.5-.5.5h-13c-.277 0-.5-.223-.5-.5s.223-.5.5-.5zm0-3h13c.277 0 .5.223.5.5s-.223.5-.5.5h-13c-.277 0-.5-.223-.5-.5s.223-.5.5-.5zm-3-5C.678 0 0 .678 0 1.5v27c0 .822.678 1.5 1.5 1.5h19c.822 0 1.5-.678 1.5-1.5v-8c0-.668-1-.648-1 0v8c0 .286-.214.5-.5.5h-19c-.286 0-.5-.214-.5-.5v-27c0-.286.214-.5.5-.5h19c.286 0 .5.214.5.5v7c0 .672 1 .648 1 0v-7c0-.822-.678-1.5-1.5-1.5z"/></svg>