<svg xmlns="http://www.w3.org/2000/svg" width="30" height="30"><g><path d="M4.843 18.126l-3.64-3.644 3.64-3.612c.464-.45-.234-1.2-.71-.71L.14 14.127c-.187.186-.187.525 0 .71l3.993 4c.488.49 1.18-.238.71-.71zm19.314-7.252l3.64 3.644-3.64 3.61c-.464.453.234 1.202.71.712l3.994-3.967c.187-.186.187-.525 0-.71l-3.993-4c-.488-.49-1.18.238-.71.71zm-6.03 13.283l-3.645 3.64-3.61-3.64c-.453-.464-1.202.235-.712.71l3.967 3.994c.186.187.525.187.71 0l4-3.993c.49-.488-.238-1.18-.71-.71zM10.873 4.843l3.644-3.64 3.612 3.64c.45.464 1.2-.235.71-.71L14.873.14c-.186-.187-.525-.187-.71 0l-4 3.993c-.49.488.238 1.18.71.71zM14 3.5V14H3.5c-.65 0-.655 1 0 1H14v10.5c0 .67 1 .665 1 0V15h10.5c.667 0 .665-1 0-1H15V3.5c0-.682-1-.638-1 0z"/></g></svg>