<svg height="30" viewBox="0 0 30 30" width="30" xmlns="http://www.w3.org/2000/svg"><path d="M16.5 5c-3.51.005-6.686 1.973-8.33 5.05-.222-.02-.444-.05-.67-.05C3.352 10 0 13.364 0 17.5S3.364 25 7.5 25H25c2.756 0 5-2.244 5-5 0-2.398-1.734-4.373-4.04-4.836.016-.22.04-.494.04-.664C26 9.28 21.74 5 16.5 5zm0 1c4.7 0 8.5 3.8 8.5 8.5-.002.322-.022.643-.06.963-.035.28.167.53.447.558C27.44 16.22 29 17.938 29 20c0 2.215-1.785 4-4 4H7.5C3.904 24 1 21.096 1 17.5c0-3.594 2.902-6.498 6.496-6.5.285.002.57.023.852.063.214.03.424-.08.52-.276C10.287 7.862 13.247 6.005 16.5 6z"/></svg>