<svg xmlns="http://www.w3.org/2000/svg" width="30" height="30"><path d="M19.5 0C18.125 0 17 1.125 17 2.5S18.125 5 19.5 5 22 3.875 22 2.5 20.875 0 19.5 0zm0 1c.834 0 1.5.666 1.5 1.5S20.334 4 19.5 4 18 3.334 18 2.5 18.666 1 19.5 1zm-1.906 5c-1.684 0-3.047 1.107-4 2.156-.954 1.05-1.385 1.797-1.53 2.094-.287.578.513 1.086.873.47.167-.287.51-.957 1.376-1.908.334-.367.735-.68 1.156-.968.43-.296.576.203.624.5.07.437-.084 1.273-.438 2.28-.708 2.016-2.145 4.784-3.5 7.563-1.355 2.78-2.64 5.555-3.03 7.75-.197 1.098-.21 2.07.25 2.844.457.774 1.384 1.22 2.593 1.22 1.683 0 3.154-1.115 4.217-2.156 1.064-1.042 1.552-1.817 1.72-2.094.365-.603-.463-1.014-.813-.53-.19.26-.647.947-1.625 1.905-.304.296-.636.6-1 .844-.3.197-.4-.22-.44-.47-.068-.435.126-1.246.5-2.25.752-2.007 2.226-4.768 3.564-7.53 1.338-2.765 2.563-5.52 2.843-7.72.14-1.1.054-2.12-.5-2.875C19.884 6.37 18.907 6 17.595 6zm0 1c1.124 0 1.702.27 2.03.72.33.448.436 1.19.314 2.155-.246 1.93-1.423 4.665-2.75 7.406-1.328 2.743-2.77 5.505-3.563 7.626-.397 1.06-.67 1.954-.594 2.72.04.382.177.736.47 1-.504.25-1.023.374-1.53.374-1 0-1.46-.28-1.72-.72-.26-.438-.33-1.174-.156-2.155.35-1.96 1.59-4.737 2.937-7.5 1.35-2.763 2.81-5.546 3.564-7.688.376-1.07.583-1.975.468-2.75-.055-.373-.212-.716-.5-.968.34-.125.68-.22 1.032-.22z"/></svg>