<svg xmlns="http://www.w3.org/2000/svg" width="30" height="30"><path style="text-indent:0;text-align:start;line-height:normal;text-transform:none;block-progression:tb;-inkscape-font-specification:Sans" d="M29.126 12.16l-3.644 3.64-3.612-3.64c-.45-.464-1.2.234-.71.71l3.967 3.993c.186.186.525.186.71 0l4-3.994c.49-.488-.238-1.18-.71-.71zM15.53 4.012c-4.307-.187-8.5 2.164-10.467 6.28-.288.6.59 1 .875.44 2.39-5 8.41-7.13 13.437-4.75 3.038 1.437 5.14 4.282 5.625 7.592.095.693 1.102.46 1-.156-.534-3.642-2.88-6.765-6.22-8.345-1.377-.652-2.813-1-4.25-1.062zM.875 17.843l3.644-3.64 3.612 3.64c.45.464 1.2-.234.71-.71L4.873 13.14c-.186-.186-.525-.186-.71 0l-4 3.993c-.49.488.238 1.18.71.71zM14.47 25.99c4.307.187 8.5-2.165 10.468-6.28.287-.6-.592-1-.875-.44-2.39 5-8.41 7.13-13.438 4.75C7.587 22.584 5.485 19.74 5 16.428c-.095-.693-1.102-.458-1 .156.534 3.642 2.88 6.764 6.22 8.344 1.377.653 2.813 1 4.25 1.063z"/></svg>