<svg xmlns="http://www.w3.org/2000/svg" width="30" height="30"><path style="text-indent:0;text-align:start;line-height:normal;text-transform:none;block-progression:tb;-inkscape-font-specification:Sans" d="M0 8.5v5c0 .262.238.5.5.5h5c.674 0 .663-1 0-1H1V8.5c0-.658-1-.664-1 0zm13.25-2.518C9.147 6.156 5.1 7.905 2.125 11.17c-.414.467.305 1.158.75.655 5.583-6.125 15.09-6.49 21.22-.906C27.21 13.76 29 17.792 29 22.012v.487c0 .684 1 .647 1 0v-.487c0-4.5-1.893-8.812-5.22-11.844-3.262-2.975-7.427-4.363-11.53-4.188z"/></svg>