<svg height="30" viewBox="0 0 30 30" width="30" xmlns="http://www.w3.org/2000/svg"><path d="M2.5 8h25c.277 0 .5.223.5.5s-.223.5-.5.5h-25c-.277 0-.5-.223-.5-.5s.223-.5.5-.5zM7 6.5a.5.5 0 0 1-.5.5.5.5 0 0 1-.5-.5.5.5 0 0 1 .5-.5.5.5 0 0 1 .5.5zm-2 0a.5.5 0 0 1-.5.5.5.5 0 0 1-.5-.5.5.5 0 0 1 .5-.5.5.5 0 0 1 .5.5zm-2 0a.5.5 0 0 1-.5.5.5.5 0 0 1-.5-.5.5.5 0 0 1 .5-.5.5.5 0 0 1 .5.5zM1.5 4C.678 4 0 4.678 0 5.5v19c0 .822.678 1.5 1.5 1.5h27c.822 0 1.5-.678 1.5-1.5v-19c0-.822-.678-1.5-1.5-1.5h-27zm0 1h27c.286 0 .5.214.5.5v19c0 .286-.214.5-.5.5h-27c-.286 0-.5-.214-.5-.5v-19c0-.286.214-.5.5-.5z"/></svg>