<svg height="30" viewBox="0 0 30 30" width="30" xmlns="http://www.w3.org/2000/svg"><path d="M6.5 1c-.637 0-.682 1 0 1h19.712c1.125.002.794.37.61.69l-.01.013-3.714 5c-.13.177-.13.417 0 .594l3.697 5h-.002c.367.534.17.703-.598.703H6.5c-.654 0-.65 1 0 1h19.695c.66 0 1.247-.13 1.596-.602.176-.235.245-.553.198-.847-.046-.293-.185-.57-.39-.847L24.12 8l3.484-4.69c.368-.465.538-1.075.252-1.58-.286-.508-.894-.73-1.644-.73zm-3-1C2.678 0 2 .678 2 1.5v27c0 .822.678 1.5 1.5 1.5S5 29.322 5 28.5v-27C5 .678 4.322 0 3.5 0zm0 1c.286 0 .5.214.5.5v27c0 .286-.214.5-.5.5-.286 0-.5-.214-.5-.5v-27c0-.286.214-.5.5-.5z"/></svg>