<svg height="30" viewBox="0 0 30 30" width="30" xmlns="http://www.w3.org/2000/svg"><path d="M1.5 11c-.822 0-1.5.678-1.5 1.5v15c0 .822.678 1.5 1.5 1.5h7c.822 0 1.5-.678 1.5-1.5v-15c0-.822-.678-1.5-1.5-1.5zm0 1h7c.286 0 .5.214.5.5v15c0 .286-.214.5-.5.5h-7c-.286 0-.5-.214-.5-.5v-15c0-.286.214-.5.5-.5zm16-11c-.362 0-.72.04-1.06.19-.338.15-.642.417-.856.78C15.156 2.7 15 3.767 15 5.5c0 3.154-2.27 5.578-3.777 6.584-.53.34.02 1.2.554.832C13.27 11.922 16 9.146 16 5.5c0-1.665.197-2.6.445-3.02.125-.213.242-.307.4-.376.155-.07.37-.104.655-.104.477 0 .748.158 1.03.766.284.608.47 1.678.47 3.234 0 2.977-1.88 6.174-1.88 6.174-.278.324-.048.826.38.826h10c.58 0 .925.148 1.145.375.22.227.355.58.355 1.125 0 .996-.797 1.598-.797 1.598-.273.2-.27.61.006.808 0 0 .79.57.79 1.594 0 1.025-.79 1.594-.79 1.594-.303.218-.27.678.062.85 0 0 .728.343.728 1.306 0 .963-.728 1.307-.728 1.307-.354.183-.362.686-.014.88 0 0 .742.396.742 1.313 0 .46-.164.723-.43.928-.266.204-.662.322-1.07.322h-16c-.677 0-.642 1 0 1h16c.592 0 1.196-.158 1.68-.53.484-.37.82-.983.82-1.72 0-.874-.386-1.397-.746-1.746.362-.347.746-.87.746-1.754 0-.926-.413-1.445-.783-1.783.357-.38.783-.967.783-1.967 0-1.043-.458-1.637-.816-2.002.356-.367.816-.963.816-1.998 0-.717-.193-1.362-.637-1.82-.444-.458-1.1-.68-1.863-.68h-9.086C19.012 11.153 20 8.54 20 6c0-1.63-.17-2.81-.563-3.656C19.044 1.498 18.317 1 17.5 1z"/></svg>