<svg height="30" viewBox="0 0 30 30" width="30" xmlns="http://www.w3.org/2000/svg"><path d="M27.5 18c-.277 0-.5.223-.5.5v3c0 .277.223.5.5.5s.5-.223.5-.5v-3c0-.277-.223-.5-.5-.5zm0-5c-.277 0-.5.223-.5.5v3c0 .277.223.5.5.5s.5-.223.5-.5v-3c0-.277-.223-.5-.5-.5zm2 10h-2c-.277 0-.5.223-.5.5s.223.5.5.5h2c.277 0 .5-.223.5-.5s-.223-.5-.5-.5zm-2-15c-.277 0-.5.223-.5.5v3c0 .277.223.5.5.5s.5-.223.5-.5v-3c0-.277-.223-.5-.5-.5zm2-2h-2c-.277 0-.5.223-.5.5s.223.5.5.5h2c.277 0 .5-.223.5-.5s-.223-.5-.5-.5zm-27 12c.277 0 .5.223.5.5v3c0 .277-.223.5-.5.5s-.5-.223-.5-.5v-3c0-.277.223-.5.5-.5zm0-5c.277 0 .5.223.5.5v3c0 .277-.223.5-.5.5s-.5-.223-.5-.5v-3c0-.277.223-.5.5-.5zm-2 10h2c.277 0 .5.223.5.5s-.223.5-.5.5h-2c-.277 0-.5-.223-.5-.5s.223-.5.5-.5zm2-15c.277 0 .5.223.5.5v3c0 .277-.223.5-.5.5s-.5-.223-.5-.5v-3c0-.277.223-.5.5-.5zm-2-2h2c.277 0 .5.223.5.5s-.223.5-.5.5h-2C.223 7 0 6.777 0 6.5S.223 6 .5 6zm5 0C4.678 6 4 6.678 4 7.5v15c0 .822.678 1.5 1.5 1.5h19c.822 0 1.5-.678 1.5-1.5v-15c0-.822-.678-1.5-1.5-1.5h-19zm0 1h19c.286 0 .5.214.5.5v15c0 .286-.214.5-.5.5h-19c-.286 0-.5-.214-.5-.5v-15c0-.286.214-.5.5-.5zm7.355 3.064c-.505.163-.855.68-.855 1.248v7.374c0 .574.354 1.094.86 1.254.51.16 1.083-.004 1.576-.407l3.562-2.918c.585-.48 1-.992 1.002-1.615.002-.623-.415-1.145-1.006-1.62-.63-.506-2.37-1.943-3.558-2.917-.497-.407-1.075-.562-1.58-.4zm.948 1.176c1.186.97 2.917 2.4 3.564 2.92.485.39.634.668.633.84 0 .172-.155.445-.637.84l-3.56 2.918c-.44.44-.803.183-.803-.072v-7.374c0-.543.476-.4.803-.072z"/></svg>