<svg height="30" viewBox="0 0 30 30" width="30" xmlns="http://www.w3.org/2000/svg"><path d="M1.5 2C.678 2 0 2.678 0 3.5v23c0 .822.678 1.5 1.5 1.5h27c.822 0 1.5-.678 1.5-1.5v-18c0-.822-.678-1.5-1.5-1.5h-13c-.373 0-.52-.002-.7-.082-.182-.08-.46-.285-.946-.772l-3-3c-.5-.5-.762-.784-1.13-.968C9.353 1.993 9 2 8.5 2h-7zm0 1h7c.5 0 .647.007.777.072.13.066.37.282.87.782l3 3c.516.516.865.81 1.248.98.382.17.733.166 1.105.166h13c.286 0 .5.214.5.5v18c0 .286-.214.5-.5.5h-27c-.286 0-.5-.214-.5-.5v-23c0-.286.214-.5.5-.5z"/></svg>