<svg xmlns="http://www.w3.org/2000/svg" viewBox="0 0 30 30" width="30" height="30"><path d="M15.5 19H15l-3.8 4c-.5.6.2 1.3.7.8l3.5-3.6 3.6 3.6c.6.5 1.3-.2.8-.7l-4-4h-.3zm0 3c.3 0 .5.2.5.5v7c0 .3-.2.5-.5.5s-.5-.2-.5-.5v-7c0-.3.2-.5.5-.5zM1.5 0C.7 0 0 .7 0 1.5v23c0 .8.7 1.5 1.5 1.5h7c.7 0 .7-1 0-1h-7c-.3 0-.5-.2-.5-.5v-23c0-.3.2-.5.5-.5h7.8l.8 1 3 3c.7.4 1 .7 1.4.8.4.2.7.2 1 .2h13c.4 0 .6.2.6.5v18c0 .3-.2.5-.5.5h-6c-.6 0-.7 1 0 1h6c.8 0 1.5-.7 1.5-1.5v-18c0-.8-.7-1.5-1.5-1.5H14.8l-1-1-3-3-1-.8C9.3 0 9 0 8.4 0z"/></svg>