<svg xmlns="http://www.w3.org/2000/svg" width="16" height="16"><path d="M2.5 7c.333 0 .29.423.406.607.117.183.297.393.75.393.33 0 .344.317.344.5 0 .5.148.935.47 1.2.32.265.687.3 1.03.3.27 0 .5.245.5.5v3c0 .684 1 .634 1 0v-3c0-.5-.148-.942-.47-1.206C6.21 9.03 5.844 9 5.5 9c-.282 0-.5-.234-.5-.5 0-.465-.03-.84-.313-1.143-.254-.24-.722-.175-.906-.357-.182-.182-.21-.51-.405-.706C3.18 6.098 2.84 6 2.5 6c-.67 0-.656 1 0 1zm7.563-4.237c.207.36.218.565.218.72 0 .295-1.28 1.116-1.28 2 0 1.132 1.07 1.243 3.656 2.25.52.178.323.422.156.467C10.643 8.782 10 8.91 10 10c0 .517-1 .287-1 1.513 0 .965.674 1.805 1.156 2.344.41.456 1.178-.22.688-.72s-.796-1.014-.844-1.624c-.018-.227.145-.243.22-.282.604-.317.777-.714.78-1.217 0-.664 3-.444 3-2 0-.632-.388-.923-.89-1.118-1-.386-1.83-.66-2.766-1.04-.513-.175-.278-.564-.156-.686.703-.704 1.062-1.144 1.062-1.673 0-.476-.027-.738-.313-1.234-.36-.63-1.15.02-.874.5zM8 0C3.588 0 0 3.588 0 8s3.588 8 8 8 8-3.588 8-8-3.588-8-8-8zm0 1c3.872 0 7 3.128 7 7s-3.128 7-7 7-7-3.128-7-7 3.128-7 7-7z"/></svg>