<svg xmlns="http://www.w3.org/2000/svg" width="16" height="16"><path d="M4 2.5v10c0 .262.238.5.5.5h4c1.93 0 3.5-1.57 3.5-3.5 0-.773-.36-1.427-.78-2 .42-.573.78-1.226.78-2C12 3.57 10.43 2 8.5 2h-4c-.337 0-.5.253-.5.5zM5 3h3.5C9.894 3 11 4.107 11 5.5c0 .648-.25 1.208-.656 1.656-.174.184-.174.504 0 .688.404.448.656 1.01.656 1.656 0 1.394-1.106 2.5-2.5 2.5H5V3zm1 5.5v2c0 .262.238.5.5.5h2.03c.814 0 1.47-.686 1.47-1.5S9.344 8 8.53 8H6.5c-.276 0-.5.21-.5.5zM7 9h1.53c.268 0 .47.2.47.5s-.202.506-.47.5H7zM6 4.5v2c0 .262.238.5.5.5h2.03C9.345 7 10 6.314 10 5.5S9.344 4 8.53 4H6.5c-.298 0-.5.24-.5.5zM7 5h1.53c.268 0 .47.2.47.5s-.202.5-.47.5H7zM1.5 0C.678 0 0 .678 0 1.5v12c0 .822.678 1.5 1.5 1.5h13c.822 0 1.5-.678 1.5-1.5v-12c0-.822-.678-1.5-1.5-1.5zm0 1h13c.286 0 .5.214.5.5v12c0 .286-.214.5-.5.5h-13c-.286 0-.5-.214-.5-.5v-12c0-.286.214-.5.5-.5z"/></svg>