<svg xmlns="http://www.w3.org/2000/svg" width="16" height="16"><path d="M14.875 7.844l-2.01 2.004c-.47.466-1.167-.247-.723-.69L13.807 7.5l-1.665-1.66c-.437-.434.25-1.157.722-.687l2.01 2.003c.17.17.166.524 0 .688zm-14.75 0l2.01 2.004c.47.466 1.167-.247.723-.69L1.193 7.5l1.665-1.66c.437-.434-.25-1.157-.722-.687L.126 7.156c-.17.17-.166.524 0 .688zm7.03 7.03l-2.003-2.01c-.466-.468.247-1.166.69-.722L7.5 13.807l1.66-1.665c.434-.437 1.157.25.687.722l-2.003 2.01c-.17.17-.524.166-.69 0zm0-14.75L5.152 2.137c-.466.468.247 1.166.69.722L7.5 1.193l1.66 1.665c.434.437 1.157-.25.687-.722L7.844.126c-.17-.17-.524-.166-.69 0zM7 3.5V7H3.5c-.663 0-.646 1 0 1H7v3.5c0 .663 1 .67 1 0V8h3.5c.674 0 .64-1 0-1H8V3.5c0-.685-1-.64-1 0z"/></svg>