<svg xmlns="http://www.w3.org/2000/svg" width="16" height="16"><path d="M11.15 6.858l2.002 2.01c.184.176.505.176.688 0l2.002-2.01c.493-.496-.286-1.127-.688-.723L13.496 7.8 11.84 6.136c-.426-.427-1.157.252-.69.723zM7.356 1.032c-1.6.144-3.147.89-4.248 2.155-.383.445.355 1.124.792.616 1.85-2.128 5.14-2.443 7.38-.684.817.642 1.41 1.52 1.69 2.496.202.7 1.187.342 1.01-.274-.338-1.163-1.075-2.207-2.053-2.976C10.594 1.32 8.953.888 7.355 1.032zM4.85 8.142l-2.002-2.01c-.184-.176-.505-.176-.688 0L.158 8.14c-.493.496.286 1.127.688.723L2.504 7.2 4.16 8.864c.426.427 1.157-.252.69-.723zm3.795 5.826c1.6-.144 3.147-.89 4.248-2.155.383-.445-.355-1.124-.792-.616-1.85 2.128-5.14 2.443-7.38.684-.817-.642-1.41-1.522-1.69-2.496-.202-.7-1.187-.342-1.01.274.338 1.163 1.075 2.207 2.053 2.976 1.333 1.046 2.974 1.478 4.572 1.334z"/></svg>