<svg xmlns="http://www.w3.org/2000/svg" width="16" height="16"><path d="M9.5 0C8.685 0 8 .678 8 1.5c0 .813-.21 1.62-.566 2.28-.304.57-.61 1.002-1.204 1.345-.53.305-.044 1.098.523.822.596-.292 1.16-.91 1.58-1.697C8.755 3.464 9 2.52 9 1.5c0-.286.217-.5.5-.5.283 0 .5.214.5.5 0 1.743-.353 2.827-.92 3.72-.2.296.048.775.404.78H14.5c.283 0 .5.214.5.5 0 .286-.217.5-.5.5-.66 0-.66 1 0 1 .283 0 .5.214.5.5 0 .286-.217.5-.5.5-.654 0-.67 1 0 1 .283 0 .5.214.5.5 0 .286-.217.5-.5.5-.65 0-.67 1 0 1 .283 0 .5.214.5.5 0 .286-.217.5-.5.5H6.567c-.738 0-.754 1 0 1H14.5c.815 0 1.5-.678 1.5-1.5 0-.386-.174-.733-.415-1 .252-.27.415-.604.415-1 0-.386-.174-.733-.415-1 .252-.27.415-.604.415-1 0-.386-.174-.733-.415-1 .252-.27.415-.604.415-1 0-.822-.685-1.5-1.5-1.5h-4.303c.433-.944.803-2.015.803-3.5C11 .678 10.315 0 9.5 0zm-8 5C.678 5 0 5.678 0 6.5v7c0 .822.678 1.5 1.5 1.5h2c.822 0 1.5-.678 1.5-1.5v-7C5 5.678 4.322 5 3.5 5zm0 1h2c.286 0 .5.214.5.5v7c0 .286-.214.5-.5.5h-2c-.286 0-.5-.214-.5-.5v-7c0-.286.214-.5.5-.5z"/></svg>