<svg xmlns="http://www.w3.org/2000/svg" width="16" height="16"><path d="M4.433 10.46c-.558.546.23 1.18.71.703 1.582-1.57 4.133-1.57 5.714 0 .49.486 1.202-.235.71-.704-2.047-1.95-5.08-2.01-7.134 0zm-2.14-2.126c-.534.53.2 1.208.71.703 2.763-2.74 7.23-2.74 9.995 0 .482.477 1.19-.224.71-.703-3.11-3.107-8.308-3.088-11.416 0zM.155 6.214c-.48.478.277 1.146.7.728 3.947-3.912 10.332-3.904 14.29 0 .457.453 1.162-.266.698-.73C11.52 1.89 4.398 1.97.156 6.213zM9 13c0 .553-.448 1.002-1 1.002s-1-.45-1-1.002C7 12.45 7.448 12 8 12s1 .45 1 1.002z"/></svg>