<svg xmlns="http://www.w3.org/2000/svg" width="16" height="16"><path d="M9 .5v1c0 .655-1 .684-1 0v-1c0-.677 1-.652 1 0zm-3 0v1c0 .655-1 .684-1 0v-1c0-.677 1-.652 1 0zM12.5 6h.5c1.11 0 2 .89 2 2 0 1.11-.89 2-2 2h-.5c-.657 0-.647 1 0 1h.5c1.65 0 3-1.35 3-3s-1.35-3-3-3h-.5c-.66 0-.648 1 0 1zm-10-1h6c.67 0 .668 1 0 1h-6c-.674 0-.66-1 0-1zM3 .5v1c0 .655-1 .684-1 0v-1c0-.677 1-.628 1 0zM10.5 16c.678 0 .66-1 0-1H8.656C10.068 14.005 11 12.36 11 10.5v-7c0-.695-1-.623-1 0v7c0 2.502-1.998 4.5-4.5 4.5S1 13.002 1 10.5v-7c0-.663-1-.653-1 0v7c0 1.86.932 3.505 2.344 4.5H.5c-.658 0-.664 1 0 1z"/></svg>