<svg xmlns="http://www.w3.org/2000/svg" width="16" height="16"><path d="M.5 9h1c.66 0 .67 1 0 1h-1c-.66 0-.668-1 0-1zm0-3h1c.66 0 .67 1 0 1h-1c-.66 0-.668-1 0-1zm0-3h1c.66 0 .67 1 0 1h-1c-.66 0-.668-1 0-1zm7.66 3.128L6.5 7.798l-.662-.662c-.417-.417-1.144.27-.69.725l1.004 1.01c.185.174.507.174.69 0l2.01-2.017c.466-.468-.28-1.136-.69-.725zM4.5 3C3.678 3 3 3.678 3 4.5v5c0 .648 1 .65 1 0v-5c0-.286.214-.5.5-.5h5c.286 0 .5.214.5.5v5c0 .286-.214.5-.5.5h-1c-.656 0-.654 1 0 1h1c.822 0 1.5-.678 1.5-1.5V5h2.25L15 7.625V9.5c0 .68 1 .65 1 0v-2c0-.1-.035-.2-.094-.28l-2-3C13.816 4.086 13.66 4 13.5 4h-2.594C10.7 3.415 10.15 3 9.5 3h-5zm1 7c-.825 0-1.5.682-1.5 1.5S4.675 13 5.5 13 7 12.318 7 11.5 6.325 10 5.5 10zm0 1c.283 0 .5.22.5.5s-.217.5-.5.5c-.283 0-.5-.22-.5-.5s.217-.5.5-.5zm8-1c-.825 0-1.5.682-1.5 1.5s.675 1.5 1.5 1.5 1.5-.682 1.5-1.5-.675-1.5-1.5-1.5zm0 1c.283 0 .5.22.5.5s-.217.5-.5.5c-.283 0-.5-.22-.5-.5s.217-.5.5-.5z"/></svg>