<svg xmlns="http://www.w3.org/2000/svg" width="16" height="16"><path d="M10.53 0C8.657 0 7 1.456 7 3.294 7 3.907 7.846 4 8.47 4 10.346 4 12 2.508 12 .67c0-.656-.86-.67-1.47-.67zm.283 1c0 1.008-1.103 2-2.626 2 0-1.01 1.036-2 2.626-2zM5.125 4C2.255 4 1 6.414 1 9c0 4.026 2.38 7 4.625 7 1.777 0 1.774-1 2.594-1 .82 0 .88 1 2.592 1 1.5 0 3.293-1.376 4.157-3.925.064-.2-.016-.44-.19-.562-.85-.54-1.28-1.462-1.28-2.513 0-.97.35-1.81 1.094-2.362.204-.14.276-.44.156-.656C14.03 4.694 12.762 4 11.344 4 9.57 4 9.327 5 8.22 5c-1.11 0-1.3-1-3.095-1zm0 1c1.5 0 1.563.996 3.094 1 1.53 0 1.553-1 3.124-1 1.026 0 1.757.44 2.312 1.232C12.908 6.955 12.5 7.892 12.5 9c0 1.215.494 2.253 1.375 2.982C13.078 14.01 11.625 15 10.812 15c-1.12 0-1.372-1-2.593-1-1.222 0-1.37 1-2.595 1C4.203 15 2 12.825 2 9c0-2.162.936-4 3.125-4z"/></svg>