<svg xmlns="http://www.w3.org/2000/svg" width="16" height="16"><path d="M5 0c-.52 0-1.006.09-1.438.22-.33.104-.443.606-.187.843L5.53 3.219c.643.64.643 1.638 0 2.28-.64.642-1.67.642-2.31 0L1.06 3.344c-.246-.224-.71-.1-.812.218C.12 3.994 0 4.48 0 5c0 2.755 2.245 5 5 5 .413 0 .792-.094 1.156-.188l5.594 5.594c.744.744 1.944.744 2.688 0l1-1c.743-.744.743-1.975 0-2.72L9.843 6.095C9.927 5.734 10 5.384 10 5c0-2.755-2.245-5-5-5zm4 5c0 .398-.048.76-.156 1.125-.053.173-.003.372.125.5l5.78 5.78c.366.367.365.917 0 1.283l-1 1c-.366.365-.947.365-1.313 0l-5.78-5.782c-.128-.128-.328-.178-.5-.125C5.768 8.9 5.392 9 5 9 2.745 9 .83 7.108 1.03 4.72l1.5 1.5c1.022 1.02 2.668 1.02 3.69 0 1.02-1.022 1.02-2.7 0-3.72L4.75 1.03C7.067.765 9 2.776 9 5z"/></svg>