<svg xmlns="http://www.w3.org/2000/svg" width="16" height="16"><path d="M2.5 8h11c.657 0 .68 1 0 1h-11c-.68 0-.646-1 0-1zM7 10.5c0 .276-.224.5-.5.5s-.5-.224-.5-.5.224-.5.5-.5.5.224.5.5zm-2 0c0 .276-.224.5-.5.5s-.5-.224-.5-.5.224-.5.5-.5.5.224.5.5zm-2 0c0 .276-.224.5-.5.5s-.5-.224-.5-.5.224-.5.5-.5.5.224.5.5zm6-4c0 .276-.224.5-.5.5S8 6.776 8 6.5s.224-.5.5-.5.5.224.5.5zm-2 0c0 .276-.224.5-.5.5S6 6.776 6 6.5s.224-.5.5-.5.5.224.5.5zm-2 0c0 .276-.224.5-.5.5S4 6.776 4 6.5s.224-.5.5-.5.5.224.5.5zm2-4c0 .276-.224.5-.5.5S6 2.776 6 2.5s.224-.5.5-.5.5.224.5.5zm-2 0c0 .276-.224.5-.5.5S4 2.776 4 2.5s.224-.5.5-.5.5.224.5.5zm-2 0c0 .276-.224.5-.5.5S2 2.776 2 2.5s.224-.5.5-.5.5.224.5.5zM2.5 4h11c.657 0 .68 1 0 1h-11c-.68 0-.646-1 0-1zm-1-4C.678 0 0 .678 0 1.5v10c0 .65.415 1.2 1 1.406V14c0 .545.455 1 1 1h2c.545 0 1-.455 1-1v-1h6v1c0 .545.455 1 1 1h2c.545 0 .932-.46 1-1v-1.094c.585-.205 1-.755 1-1.406v-10c0-.822-.678-1.5-1.5-1.5h-13zm0 1h13c.286 0 .5.214.5.5v10c0 .286-.214.5-.5.5h-13c-.286 0-.5-.214-.5-.5v-10c0-.286.214-.5.5-.5zM2 13h2v1H2v-1zm10 0h2v1h-2v-1z"/></svg>