<svg xmlns="http://www.w3.org/2000/svg" width="16" height="16"><path d="M11.15 7.14l-3.642 3.675-1.65-1.688c-.183-.173-.503-.173-.686 0L3.18 11.113c-.516.514.192 1.206.685.715l1.65-1.646 1.65 1.69c.183.17.502.17.685 0l3.643-3.677 1.65 1.646c.472.472 1.19-.21.685-.713L11.835 7.14c-.194-.194-.504-.18-.685 0zM5.5 2C4.125 2 3 3.125 3 4.5S4.125 7 5.5 7 8 5.875 8 4.5 6.875 2 5.5 2zm0 1C6.334 3 7 3.666 7 4.5S6.334 6 5.5 6 4 5.334 4 4.5 4.666 3 5.5 3zm-3 10h11c.67 0 .664 1 0 1h-11c-.67 0-.652-1 0-1zm-1-13C.678 0 0 .678 0 1.5v13c0 .822.678 1.5 1.5 1.5h13c.822 0 1.5-.678 1.5-1.5v-13c0-.822-.678-1.5-1.5-1.5zm0 1h13c.286 0 .5.214.5.5v13c0 .286-.214.5-.5.5h-13c-.286 0-.5-.214-.5-.5v-13c0-.286.214-.5.5-.5z"/></svg>