<svg xmlns="http://www.w3.org/2000/svg" width="16" height="16"><path d="M3.93 1.27l.985 1.955c.366.726-.553 1.072-.863.458l-.986-1.955c-.313-.62.578-1.023.863-.458zM12 8c0 .552-.448 1-1 1s-1-.448-1-1 .448-1 1-1 1 .448 1 1zM6 8c0 .552-.448 1-1 1s-1-.448-1-1 .448-1 1-1 1 .448 1 1zm2-4C4.06 4 .757 6.74.008 10.406c-.056.29.203.6.5.594h14.985c.296.01.555-.303.5-.594C15.242 6.74 11.938 4 8 4zm0 1c3.248 0 5.896 2.12 6.775 5H1.225C2.105 7.12 4.752 5 8 5zm-7 7c-.545 0-1 .455-1 1v1c0 .545.455 1 1 1h14c.545 0 1-.455 1-1v-1c0-.545-.455-1-1-1zm0 1h14v1H1zM12.07 1.27l-.985 1.955c-.366.726.553 1.072.863.458l.986-1.955c.313-.62-.578-1.023-.863-.458z"/></svg>