<svg xmlns="http://www.w3.org/2000/svg" width="16" height="16"><path d="M7.5 0C3.364 0 0 3.364 0 7.5S3.364 15 7.5 15 15 11.636 15 7.5 11.636 0 7.5 0zm0 1c.98.004 1.798.824 2.25 1.594-1.445.528-3.05.503-4.5-.03C5.752 1.806 6.52.994 7.5.998zm-2.78.656c-.127.16-.26.323-.376.5-.084-.047-.168-.105-.25-.156.204-.126.406-.24.625-.344zm5.56 0c.233.11.442.24.658.375-.092.058-.188.106-.282.158-.12-.187-.244-.366-.375-.532zm-7.06 1c.21.148.432.283.655.406C3.38 4.184 3.06 5.533 3 7h-.5c-.66 0-.653 1 0 1H3c.06 1.467.38 2.816.875 3.938-.232.127-.467.252-.688.406C1.843 11.157 1 9.44 1 7.5c0-1.946.864-3.662 2.22-4.844zm8.56 0C13.137 3.838 14 5.554 14 7.5c0 1.955-.853 3.688-2.22 4.875-.217-.153-.426-.31-.655-.438.496-1.12.816-2.47.875-3.937h.5c.654 0 .664-1 0-1H12c-.058-1.455-.386-2.79-.875-3.906.23-.126.44-.287.656-.438zm-7 .813c1.766.69 3.715.718 5.47.03.42.974.694 2.177.75 3.5H4c.057-1.34.352-2.55.78-3.53zM4 8h7c-.057 1.34-.352 2.55-.78 3.53-.913-.356-1.876-.547-2.845-.53-.88.016-1.76.182-2.594.5C4.36 10.524 4.058 9.33 4 8zm5.75 4.438C9.177 13.3 8.476 14.005 7.5 14c-.976-.005-1.906-.86-2.25-1.563 1.45-.58 3.118-.56 4.5 0zm-5.375.406c.123.183.243.366.375.53-.233-.108-.44-.24-.656-.374.093-.058.185-.103.28-.156zm6.28 0c.084.046.17.106.25.156-.216.135-.422.266-.655.375.135-.17.28-.342.406-.53z"/></svg>