<svg xmlns="http://www.w3.org/2000/svg" width="16" height="16"><path d="M7 4.51c0 .277-.224.5-.5.5s-.5-.223-.5-.5c0-.276.224-.5.5-.5s.5.224.5.5zm-2 0c0 .277-.224.5-.5.5s-.5-.223-.5-.5c0-.276.224-.5.5-.5s.5.224.5.5zm-2 0c0 .277-.224.5-.5.5s-.5-.223-.5-.5c0-.276.224-.5.5-.5s.5.224.5.5zM1.5 2C.678 2 0 2.678 0 3.5v9c0 .822.678 1.5 1.5 1.5h13c.822 0 1.5-.678 1.5-1.5v-6c0-.656-1-.66-1 0v6c0 .286-.214.5-.5.5h-13c-.286 0-.5-.214-.5-.5v-9c0-.286.214-.5.5-.5h9c.66 0 .665-1 0-1zm13.767.057c-2.08 1.117-3.803 2.21-5.538 3.793-.937.854-.906 2.127-.28 2.736.55.535 1.74.677 2.675-.342 1.572-1.715 2.734-3.466 3.827-5.503.196-.366-.242-.92-.685-.683zm-1.213 1.897c-.74 1.284-1.51 2.38-2.614 3.575-.677.73-1.28.403-1.306.372-.284-.333-.112-.953.31-1.368 1.172-1.15 2.345-1.874 3.61-2.58zM7.72 9c-.907 0-1.28.7-1.28 1.513 0 .235-.088.487-.226.562-.386.21-.213.925.225.925C7.94 12 9 11.802 9 10.5 8.992 9.54 8.625 9 7.72 9zm0 1c.168 0 .28.16.28.5 0 .453-.36.5-.665.5.09-.088.165-.333.165-.5 0-.346.05-.5.22-.5zM2.5 6h5c.655 0 .656 1 0 1h-5c-.65 0-.667-1 0-1z"/></svg>