<svg xmlns="http://www.w3.org/2000/svg" width="16" height="16"><path d="M1 8.5v6c0 .822.678 1.5 1.5 1.5h11c.822 0 1.5-.678 1.5-1.5v-6c0-.67-1-.645-1 0v6c0 .286-.214.5-.5.5H10V8.5c0-.674-1-.635-1 0V15H7V8.5c0-.68-1-.635-1 0V15H2.5c-.286 0-.5-.214-.5-.5v-6c0-.647-1-.67-1 0zM4.906 0C4.11 0 3.462.704 3.22 1.156c-.31.57-.313 1.273 0 1.844H1.5C.678 3 0 3.678 0 4.5v1C0 6.322.678 7 1.5 7h13c.822 0 1.5-.678 1.5-1.5v-1c0-.822-.678-1.5-1.5-1.5h-1.72c.313-.57.296-1.266 0-1.844C12.506.613 12.03.252 11.5.094c-.528-.16-1.11-.13-1.594.218C9.106.886 8.54 1.718 8 2.376 7.447 1.657 6.786.798 6.094.312 5.727.056 5.314 0 4.906 0zm.032 1c.203-.003.506.063.686.212C6.36 1.822 6.817 2.458 7.22 3H5.03c-.947 0-1.153-.89-.908-1.375.222-.44.578-.62.816-.625zm6.125 0c.43 0 .715.345.843.625.33.722-.18 1.375-.937 1.375H8.78c.448-.627 1.05-1.32 1.602-1.777.18-.148.477-.223.68-.223zM1.5 4h13c.286 0 .5.214.5.5v1c0 .286-.214.5-.5.5h-13c-.286 0-.5-.214-.5-.5v-1c0-.286.214-.5.5-.5z"/></svg>