<svg xmlns="http://www.w3.org/2000/svg" width="16" height="16"><path d="M7 8.5V13c.01.223.187.427.406.47l7 1.5c.28.053.58-.184.594-.47v-6c0-.262-.238-.5-.5-.5h-7c-.283 0-.5.198-.5.5zM8 9h6v4.875l-6-1.28zm-8-.5v3c.01.223.187.427.406.47l5 1c.28.053.58-.184.594-.47v-4c0-.262-.238-.5-.5-.5h-5c-.32 0-.5.177-.5.5zM1 9h4v2.875l-4-.78zm13.406-9l-7 1.5c-.23.044-.41.267-.406.5v4.5c0 .262.238.5.5.5h7c.262 0 .5-.238.5-.5v-6c.005-.296-.303-.556-.594-.5zM14 1.094V6H8V2.375zM5.406 2l-5 1c-.23.044-.41.267-.406.5v3c0 .262.238.5.5.5h5c.262 0 .5-.238.5-.5v-4c.005-.296-.303-.556-.594-.5zM5 3.094V6H1V3.875z"/></svg>