<svg xmlns="http://www.w3.org/2000/svg" width="16" height="16"><path d="M12.313 2C10.474 2 9 3.59 9 5.5c0 1.495.698 2.408 1.22 3.313.52.904 1.06 1.823.78 3.613-.053.328.304.65.625.562 2.834-.812 4.21-3.533 4.375-6.02.082-1.243-.174-2.466-.78-3.406C14.61 2.622 13.604 2 12.31 2zm0 1c.98 0 1.608.421 2.062 1.125.454.704.696 1.71.625 2.78-.128 1.93-1.08 3.92-3 4.802.037-1.45-.443-2.59-.906-3.394C10.532 7.337 10 6.688 10 5.5 10 4.096 11.053 3 12.313 3zm-9-1C1.474 2 0 3.59 0 5.5c0 1.495.698 2.408 1.22 3.313.52.904 1.06 1.823.78 3.613-.053.328.304.65.625.562C5.46 12.176 6.835 9.455 7 6.968c.082-1.243-.174-2.466-.78-3.406C5.61 2.622 4.604 2 3.312 2zm0 1c.98 0 1.608.421 2.062 1.125.454.704.696 1.71.625 2.78-.128 1.93-1.067 3.92-2.987 4.802.037-1.45-.456-2.59-.92-3.394C1.534 7.337 1 6.688 1 5.5 1 4.096 2.053 3 3.313 3z"/></svg>