<svg xmlns="http://www.w3.org/2000/svg" width="16" height="16"><path d="M11 1.5v1.594c-1.36.096-2.427.46-3.063 1.187-.686.787-.916 2.125-.937 3.22 0 .673 1 .646 1 0 0-.144.31-.54.563-.688.425-.342 1.228-.657 2.437-.75V7.5c-.012.38.516.644.813.406l4-3c.256-.184.256-.628 0-.812l-4-3C11.517.872 11 1.104 11 1.5zm1 1l2.656 2L12 6.5v-1c0-.262-.238-.5-.5-.5-1.44 0-2.545.536-3.236.955 0-.4.25-.82.424-1.017C9.184 4.367 10.026 4 11.5 4c.262 0 .5-.238.5-.5zM1.5 4C.678 4 0 4.678 0 5.5v8c0 .822.678 1.5 1.5 1.5h13c.822 0 1.5-.678 1.5-1.5v-6c0-.666-1-.663-1 0v6c0 .286-.214.5-.5.5h-13c-.286 0-.5-.214-.5-.5v-8c0-.286.214-.5.5-.5h4c.667 0 .658-1 0-1z"/></svg>