<svg xmlns="http://www.w3.org/2000/svg" width="16" height="16"><path d="M12.378 3.017l-4.01 1c-.33.082-.416.36-.345.6.072.24.3.44.597.367l4.008-1c.653-.162.367-1.12-.25-.967zM14.375 0l-8 2c-.218.056-.382.275-.375.5v9.156C5.46 11.254 4.755 11 4 11c-1.597 0-3 1.058-3 2.5S2.403 16 4 16s3-1.058 3-2.5V2.875l7-1.75v8.53c-.54-.4-1.245-.655-2-.655-1.597 0-3 1.058-3 2.5s1.403 2.5 3 2.5 3-1.058 3-2.5V.5c.01-.31-.326-.577-.625-.5zM12 10c1.165 0 2 .733 2 1.5s-.835 1.5-2 1.5-2-.733-2-1.5.835-1.5 2-1.5zm-8 2c1.165 0 2 .733 2 1.5S5.165 15 4 15s-2-.733-2-1.5.835-1.5 2-1.5z"/></svg>