<svg xmlns="http://www.w3.org/2000/svg" width="16" height="16"><path d="M6.156 8.844L7.313 10l-1.157 1.125c-.465.452.24 1.166.688.72L8 10.686l1.156 1.157c.44.44 1.144-.275.688-.72L8.688 10l1.156-1.156c.45-.45-.293-1.114-.688-.72L8 9.282 6.844 8.126c-.39-.39-1.148.258-.688.72zM2.5 6h11c.674 0 .652 1 0 1h-11c-.652 0-.68-1 0-1zM7 4.5c0 .276-.224.5-.5.5S6 4.776 6 4.5s.224-.5.5-.5.5.224.5.5zm-2 0c0 .276-.224.5-.5.5S4 4.776 4 4.5s.224-.5.5-.5.5.224.5.5zm-2 0c0 .276-.224.5-.5.5S2 4.776 2 4.5s.224-.5.5-.5.5.224.5.5zM1.5 2C.678 2 0 2.678 0 3.5v9c0 .822.678 1.5 1.5 1.5h13c.822 0 1.5-.678 1.5-1.5v-9c0-.822-.678-1.5-1.5-1.5zm0 1h13c.286 0 .5.214.5.5v9c0 .286-.214.5-.5.5h-13c-.286 0-.5-.214-.5-.5v-9c0-.286.214-.5.5-.5z"/></svg>