<svg xmlns="http://www.w3.org/2000/svg" width="16" height="16"><path d="M6 1.5v.875c-.186.062-.38.136-.563.22l-.625-.626c-.614-.616-1.502-.567-2.093 0L2 2.655c-.59.563-.544 1.612-.03 2.125l.624.657c-.084.188-.156.37-.22.563H1.5C.678 6 0 6.677 0 7.5v1C0 9.322.678 10 1.5 10h.906c.06.17.112.335.188.5l-.625.656c-.445.466-.608 1.486.03 2.124l.72.72c.578.578 1.513.578 2.092 0 .2-.2.43-.42.625-.626.18.086.373.15.563.22v.905c0 .822.678 1.5 1.5 1.5h1c.822 0 1.5-.678 1.5-1.5v-.907c.19-.07.383-.132.563-.22.15.183.422.424.624.626.58.578 1.515.578 2.094 0l.72-.72c.572-.57.58-1.574.033-2.122-.295-.295-.627-.658-.627-.658.076-.164.128-.33.188-.5h.906c.822 0 1.5-.678 1.5-1.5v-1c0-.822-.678-1.5-1.5-1.5h-.875c-.063-.192-.135-.375-.22-.562l.626-.657c.52-.543.536-1.558-.03-2.124l-.72-.687c-.68-.653-1.585-.508-2.092 0l-.626.624c-.183-.082-.376-.157-.562-.22V1.5C10 .678 9.322 0 8.5 0h-1C6.675 0 6 .677 6 1.5zM8.5 1c.286 0 .5.214.5.5v1.22c.007.213.167.414.375.467.39.112.747.26 1.063.438.19.1.444.06.593-.094l.845-.843c.225-.225.528-.19.72 0l.717.688c.257.245.14.51-.03.687l-.845.875c-.144.157-.17.41-.062.594.184.33.326.696.438 1.095.053.207.254.368.468.375h1.22c.286 0 .5.214.5.5v1c0 .285-.214.5-.5.5h-1.22c-.206 0-.403.147-.467.343-.11.384-.256.737-.438 1.063-.11.183-.082.437.063.594l.874.875c.205.204.205.483 0 .687l-.718.72c-.196.194-.485.177-.688 0l-.844-.876c-.16-.16-.435-.186-.624-.062-.336.188-.693.332-1.063.437-.218.057-.382.276-.375.5v1.22c0 .286-.214.5-.5.5h-1c-.286 0-.5-.214-.5-.5v-1.22c.007-.224-.157-.443-.375-.5-.37-.104-.727-.248-1.063-.436-.19-.124-.463-.097-.625.062l-.843.875c-.203.18-.492.196-.688 0l-.72-.718c-.203-.204-.203-.483.002-.687L3.562 11c.145-.157.172-.41.063-.594-.182-.326-.328-.68-.438-1.063-.064-.196-.26-.34-.468-.343H1.5c-.286 0-.5-.215-.5-.5v-1c0-.286.214-.5.5-.5h1.22c.213-.01.414-.167.467-.375.112-.4.254-.766.438-1.094.11-.182.082-.436-.063-.593l-.843-.875c-.25-.25-.168-.552-.033-.687l.72-.688c.23-.22.545-.173.718 0l.844.844c.148.155.403.196.593.095.315-.177.67-.326 1.062-.438.208-.054.368-.254.375-.468V1.5c0-.286.22-.5.5-.5zM8 5C6.35 5 5 6.35 5 8s1.35 3 3 3 3-1.35 3-3-1.35-3-3-3zm0 1c1.11 0 2 .89 2 2 0 1.11-.89 2-2 2-1.11 0-2-.89-2-2 0-1.11.89-2 2-2z"/></svg>