<svg xmlns="http://www.w3.org/2000/svg" width="16" height="16"><path d="M4.5 3c-.812 0-1.484.66-1.5 1.47L.875 5C.392 5.12 0 5.355 0 6v4c0 .508.28.826.875.97L3 11.5c0 .822.678 1.5 1.5 1.5h7c.822 0 1.5-.678 1.5-1.5l2.125-.53c.596-.144.875-.462.875-.97V6c0-.645-.392-.88-.875-1L13 4.47C12.984 3.66 12.312 3 11.5 3h-7zm0 1h7c.286 0 .5.214.5.5v7c0 .286-.214.5-.5.5h-7c-.286 0-.5-.214-.5-.5v-7c0-.286.214-.5.5-.5zM3 5.5v4.97L1.125 10C1.06 9.984 1 9.954 1 9.844V6.156c0-.09.012-.16.125-.187L3 5.5zm10 0l1.875.47c.113.027.125.096.125.186v3.688c0 .11-.06.14-.125.156L13 10.47V5.5z"/></svg>