<svg xmlns="http://www.w3.org/2000/svg" width="16" height="16"><path d="M9.14 7.14c-.878.88-2.64 2.674-2.64 2.674L4.856 8.13c-.182-.17-.5-.17-.683 0l-1.988 1.986c-.525.525.19 1.207.684.713l1.645-1.644L6.16 10.87c.182.17.5.17.682 0l2.64-2.677 1.646 1.644c.464.463 1.23-.168.683-.714L9.825 7.14c-.19-.19-.504-.18-.684 0zM4 2c-1.1 0-2 .9-2 2s.9 2 2 2 2-.9 2-2-.9-2-2-2zm0 1c.558 0 1 .442 1 1s-.442 1-1 1-1-.442-1-1 .442-1 1-1zM2 0C.9 0 0 .9 0 2v10c0 1.1.9 2 2 2h10c1.1 0 2-.9 2-2V2c0-1.1-.9-2-2-2zm0 1h10c.563 0 1 .437 1 1v10c0 .563-.437 1-1 1H2c-.563 0-1-.437-1-1V2c0-.563.437-1 1-1zm13 2.5V14c0 .563-.437 1-1 1H3.5c-.658 0-.667 1 0 1H14c1.1 0 2-.9 2-2V3.5c0-.685-1-.638-1 0z"/></svg>