<svg xmlns="http://www.w3.org/2000/svg" width="16" height="16"><path d="M7.5 5C6.125 5 5 6.125 5 7.5S6.125 10 7.5 10 10 8.875 10 7.5 8.875 5 7.5 5zm0 1C8.334 6 9 6.666 9 7.5S8.334 9 7.5 9 6 8.334 6 7.5 6.666 6 7.5 6zM7 .5v.53C3.823 1.28 1.28 3.823 1.03 7H.5c-.635 0-.674 1 0 1h.53c.233 3.194 2.78 5.722 5.97 5.97v.53c0 .652 1 .663 1 0v-.53c3.19-.248 5.737-2.776 5.97-5.97h.53c.652 0 .663-1 0-1h-.53C13.72 3.822 11.176 1.28 8 1.03V.5c0-.648-1-.67-1 0zm0 1.53v.47c0 .652 1 .663 1 0v-.47c2.633.24 4.717 2.341 4.97 4.97h-.47c-.635 0-.674 1 0 1h.47c-.226 2.655-2.317 4.732-4.97 4.97v-.47c0-.635-1-.674-1 0v.47C4.347 12.73 2.256 10.654 2.03 8h.47c.652 0 .663-1 0-1h-.47C2.275 4.36 4.504 2.23 7 2.03z"/></svg>