<svg xmlns="http://www.w3.org/2000/svg" width="16" height="16"><path d="M6.5 10h7c.68 0 .64 1 0 1h-7c-.65 0-.674-1 0-1zm0-2h7c.68 0 .64 1 0 1h-7c-.65 0-.674-1 0-1zM3 8c-.545 0-1 .455-1 1v1c0 .545.455 1 1 1h1c.545 0 1-.455 1-1V9c0-.545-.455-1-1-1zm0 1h1v1H3zm-.5-3h11c.68 0 .64 1 0 1h-11c-.65 0-.674-1 0-1zM7 4.5c0 .276-.224.5-.5.5S6 4.776 6 4.5s.224-.5.5-.5.5.224.5.5zm-2 0c0 .276-.224.5-.5.5S4 4.776 4 4.5s.224-.5.5-.5.5.224.5.5zm-2 0c0 .276-.224.5-.5.5S2 4.776 2 4.5s.224-.5.5-.5.5.224.5.5zM1.5 2C.678 2 0 2.678 0 3.5v9c0 .822.678 1.5 1.5 1.5h13c.822 0 1.5-.678 1.5-1.5v-9c0-.822-.678-1.5-1.5-1.5zm0 1h13c.286 0 .5.214.5.5v9c0 .286-.214.5-.5.5h-13c-.286 0-.5-.214-.5-.5v-9c0-.286.214-.5.5-.5z"/></svg>