<svg xmlns="http://www.w3.org/2000/svg" width="16" height="16"><path d="M1.156.133l-1 1c-.48.48.273 1.136.688.72L1 1.697V3.5c0 .682 1 .636 1 0V.508c0-.564-.61-.61-.844-.375zM5.5 1h10c.677 0 .655 1 0 1h-10c-.655 0-.678-1 0-1zm0 6h10c.677 0 .655 1 0 1h-10c-.655 0-.678-1 0-1zm0 6h10c.677 0 .655 1 0 1h-10c-.655 0-.678-1 0-1zm-4-7.987c-.822 0-1.5.677-1.5 1.5 0 .664 1 .626 1 0 0-.286.214-.5.5-.5.286 0 .5.214.5.5C2 7.64 0 7.713 0 9.5c0 .262.238.5.5.5h2c.66 0 .674-1 0-1H1.187C1.188 8.624 3 8.06 3 6.513c0-.823-.678-1.5-1.5-1.5zM1.5 11c-.822 0-1.5.677-1.5 1.5 0 .7 1 .644 1 0 0-.282.218-.5.5-.5.282 0 .5.218.5.5 0 .282-.218.5-.5.5-.683 0-.63 1 0 1 .282 0 .5.218.5.5 0 .282-.218.5-.5.5-.282 0-.5-.218-.5-.5 0-.702-1-.657-1 0 0 .822.678 1.5 1.5 1.5S3 15.322 3 14.5c0-.386-.163-.733-.406-1 .243-.267.406-.614.406-1 0-.823-.678-1.5-1.5-1.5z"/></svg>