<svg xmlns="http://www.w3.org/2000/svg" width="16" height="16"><path d="M6.5 8h6c.682 0 .646 1 0 1h-6c-.684 0-.65-1 0-1zm-6-5H2c.384 0 .49.616.583 1.106l1 5.25C3.95 10.726 4.83 11 6 11h6c1.47 0 2.534-.184 2.92-1.487l.938-3.156C16.322 4.827 15.678 4 14.234 4H5.5c-.66 0-.66 1 0 1h8.734c.935 0 .86.388.656 1.075l-.906 3.094c-.25.852-1.2.83-1.984.83H6c-.9.048-1.225-.143-1.418-.862l-1-5.22C3.363 2.776 3.133 2 2 2H.5c-.66 0-.672 1 0 1zm5 3h8c.665 0 .662 1 0 1h-8c-.65 0-.665-1 0-1zm6 6c-.824 0-1.5.676-1.5 1.5s.676 1.5 1.5 1.5 1.5-.676 1.5-1.5-.676-1.5-1.5-1.5zm0 1c.283 0 .5.217.5.5 0 .283-.217.5-.5.5-.283 0-.5-.217-.5-.5 0-.283.217-.5.5-.5zm-6-1c-.824 0-1.5.676-1.5 1.5S4.676 15 5.5 15 7 14.324 7 13.5 6.324 12 5.5 12zm0 1c.283 0 .5.217.5.5 0 .283-.217.5-.5.5-.283 0-.5-.217-.5-.5 0-.283.217-.5.5-.5z"/></svg>