<svg xmlns="http://www.w3.org/2000/svg" width="16" height="16"><path d="M13 12.5c0 .276-.224.5-.5.5s-.5-.224-.5-.5.224-.5.5-.5.5.224.5.5zM11 3c-1.1 0-2 .9-2 2v8c0 1.1.9 2 2 2h3c1.1 0 2-.9 2-2V5c0-1.1-.9-2-2-2zm0 1h3c.563 0 1 .437 1 1v8c0 .563-.437 1-1 1h-3c-.563 0-1-.437-1-1V5c0-.563.437-1 1-1zM2.5 8h5c.672 0 .66 1 0 1h-5c-.666 0-.664-1 0-1zm-1-8C.678 0 0 .678 0 1.5v9c0 .822.678 1.5 1.5 1.5H6v2H4.5c-.664 0-.65 1 0 1h3c.653 0 .67-1 0-1H7v-2h.5c.665 0 .658-1 0-1h-6c-.286 0-.5-.214-.5-.5v-9c0-.286.214-.5.5-.5h13c.286 0 .5.214.5.5 0 .642 1 .673 1 0 0-.822-.678-1.5-1.5-1.5z"/></svg>