<svg xmlns="http://www.w3.org/2000/svg" width="16" height="16"><path d="M2.156 2.862l.707.707c.482.48 1.16-.255.707-.708l-.707-.707c-.47-.47-1.18.235-.707.707zm9.28 0l.708-.707c.482-.482 1.16.255.707.707l-.706.707c-.47.47-1.18-.235-.707-.708zm-9.28 9.273l.707-.707c.482-.48 1.16.255.707.707l-.707.708c-.47.47-1.18-.235-.707-.708zM13.5 7h1c.68 0 .64 1 0 1h-1c-.666 0-.668-1 0-1zM.5 7h1c.68 0 .64 1 0 1h-1c-.666 0-.668-1 0-1zM8 13.5v1c0 .68-1 .64-1 0v-1c0-.666 1-.668 1 0zm0-13v1c0 .68-1 .64-1 0v-1c0-.666 1-.668 1 0zM7.5 3C5.02 3 3 5.02 3 7.5S5.02 12 7.5 12 12 9.98 12 7.5 9.98 3 7.5 3zm0 1C9.44 4 11 5.56 11 7.5S9.44 11 7.5 11 4 9.44 4 7.5 5.56 4 7.5 4zm3.937 8.133l.707.708c.482.482 1.16-.254.707-.707l-.706-.707c-.47-.47-1.18.235-.707.707z"/></svg>