<svg xmlns="http://www.w3.org/2000/svg" width="16" height="16"><path d="M2.17 6.868l2.004 1.985C4.846 9.52 5.14 10 6.5 10h3c1.258 0 1.603-.365 2.377-1.147l1.985-2.005c.422-.426-.28-1.126-.69-.713L11.19 8.14C10.578 8.757 10.1 9 9.5 9h-3c-.838 0-1.217-.444-1.637-.86L2.86 6.155c-.468-.462-1.17.24-.69.713zM5.5 0C4.678 0 4 .678 4 1.5v1c0 .662 1 .66 1 0v-1c0-.286.214-.5.5-.5h5c.286 0 .5.214.5.5v1c0 .657 1 .65 1 0v-1c0-.822-.678-1.5-1.5-1.5zm-4 4C.678 4 0 4.678 0 5.5v8c0 .822.678 1.5 1.5 1.5h13c.822 0 1.5-.678 1.5-1.5v-8c0-.822-.678-1.5-1.5-1.5zm0 1h13c.286 0 .5.214.5.5v8c0 .286-.214.5-.5.5h-13c-.286 0-.5-.214-.5-.5v-8c0-.286.214-.5.5-.5z"/></svg>