<svg xmlns="http://www.w3.org/2000/svg" width="16" height="16"><path d="M3 6.5v1c0 .666-1 .672-1 0v-1c0-.654 1-.668 1 0zm2-3v7c0 .654-1 .664-1 0v-7c0-.688 1-.64 1 0zm8 9c0 .276-.224.5-.5.5s-.5-.224-.5-.5.224-.5.5-.5.5.224.5.5zM10.5 4C9.678 4 9 4.678 9 5.5v8c0 .822.678 1.5 1.5 1.5h4c.822 0 1.5-.678 1.5-1.5v-8c0-.822-.678-1.5-1.5-1.5zm0 1h4c.286 0 .5.214.5.5v8c0 .286-.214.5-.5.5h-4c-.286 0-.5-.214-.5-.5v-8c0-.286.214-.5.5-.5zm-9-4C.678 1 0 1.678 0 2.5v9c0 .822.678 1.5 1.5 1.5h6c.686 0 .648-1 0-1h-6c-.286 0-.5-.214-.5-.5v-9c0-.286.214-.5.5-.5h12c.286 0 .5.214.5.5 0 .66 1 .662 1 0 0-.822-.678-1.5-1.5-1.5z"/></svg>