<svg xmlns="http://www.w3.org/2000/svg" width="16" height="16"><path d="M11 7.5v4c0 .657-1 .657-1 0v-4c0-.64 1-.685 1 0zm-3 0v4c0 .657-1 .657-1 0v-4c0-.64 1-.685 1 0zM10.842.134l2.02 2.006c.43.426-.24 1.17-.694.72L10.148.855c-.46-.457.264-1.148.694-.72zM5 7.5v4c0 .657-1 .657-1 0v-4c0-.64 1-.685 1 0zM4.158.134L2.138 2.14c-.43.426.24 1.17.694.72L4.852.855c.46-.457-.264-1.148-.694-.72zM1.5 4C.396 4-.128 4.768.027 5.594l1.497 8C1.696 14.512 2.254 15 3 15h9c.956 0 1.325-.626 1.47-1.406l1.498-8C15.173 4.5 14.388 4 13.5 4zm0 1h12c.342 0 .527.27.5.406l-1.496 8C12.432 13.79 12.2 14 12 14H3c-.344 0-.467-.372-.51-.594l-1.496-8C.93 5.07 1.314 5 1.5 5z"/></svg>