<svg xmlns="http://www.w3.org/2000/svg" width="16" height="16"><path d="M5.5 13h10c.68 0 .657 1 0 1h-10c-.67 0-.658-1 0-1zm0-6h10c.68 0 .657 1 0 1h-10c-.67 0-.658-1 0-1zM2 12c-1.1 0-2 .9-2 2s.9 2 2 2 2-.9 2-2-.9-2-2-2zm0 1c.558 0 1 .442 1 1s-.442 1-1 1-1-.442-1-1 .442-1 1-1zm0-7C.9 6 0 6.9 0 8s.9 2 2 2 2-.9 2-2-.9-2-2-2zm0 1c.558 0 1 .442 1 1s-.442 1-1 1-1-.442-1-1 .442-1 1-1zm0-7C.9 0 0 .9 0 2s.9 2 2 2 2-.9 2-2-.9-2-2-2zm0 1c.558 0 1 .442 1 1s-.442 1-1 1-1-.442-1-1 .442-1 1-1zm3.5 0h10c.68 0 .657 1 0 1h-10c-.67 0-.658-1 0-1z"/></svg>