<svg xmlns="http://www.w3.org/2000/svg" width="16" height="16"><path d="M1 11.5v1c0 .262.238.5.5.5h2.78l-.124.125c-.486.486.224 1.183.688.72l1-1c.192-.187.192-.534 0-.72l-1-1c-.404-.404-1.14.265-.688.72l.157.155H2v-.5c0-.66-1-.646-1 0zm8-.5c-1.1 0-2 .9-2 2s.9 2 2 2h5c1.1 0 2-.9 2-2s-.9-2-2-2zm0 1h5c.563 0 1 .437 1 1s-.437 1-1 1H9c-.563 0-1-.437-1-1s.437-1 1-1zM2 6C.9 6 0 6.9 0 8s.9 2 2 2h10c1.1 0 2-.9 2-2s-.9-2-2-2zm0 1h10c.563 0 1 .437 1 1s-.437 1-1 1H2c-.563 0-1-.437-1-1s.437-1 1-1zm0-6C.9 1 0 1.9 0 3s.9 2 2 2h10c1.1 0 2-.9 2-2s-.9-2-2-2zm0 1h10c.563 0 1 .437 1 1s-.437 1-1 1H2c-.563 0-1-.437-1-1s.437-1 1-1z"/></svg>