<svg xmlns="http://www.w3.org/2000/svg" width="16" height="16"><path d="M11 4.5v-1c0-.674 1-.657 1 0v1c0 .653-1 .663-1 0zM10.5 6h2c.666 0 .667 1 0 1h-2c-.677 0-.65-1 0-1zM12 8.5v4c0 .677-1 .65-1 0v-4c0-.677 1-.64 1 0zm-4 3v1c0 .674-1 .657-1 0v-1c0-.653 1-.663 1 0zm.5-1.5h-2c-.666 0-.667-1 0-1h2c.677 0 .65 1 0 1zM7 7.5v-4c0-.677 1-.65 1 0v4c0 .677-1 .64-1 0zm-4-3v-1c0-.674 1-.657 1 0v1c0 .653-1 .663-1 0zM2.5 6h2c.666 0 .667 1 0 1h-2c-.677 0-.65-1 0-1zM4 8.5v4c0 .677-1 .65-1 0v-4c0-.677 1-.64 1 0zM1.5 0C.678 0 0 .678 0 1.5v13c0 .822.678 1.5 1.5 1.5h12c.822 0 1.5-.678 1.5-1.5v-13c0-.822-.678-1.5-1.5-1.5zm0 1h12c.286 0 .5.214.5.5v13c0 .286-.214.5-.5.5h-12c-.286 0-.5-.214-.5-.5v-13c0-.286.214-.5.5-.5z"/></svg>