<svg xmlns="http://www.w3.org/2000/svg" width="16" height="16"><path d="M11 3.5v-2c0-.644 1-.692 1 0v2c0 .664-1 .655-1 0zm-8 0v-2c0-.644 1-.692 1 0v2c0 .664-1 .655-1 0zm9.5 6.5h-2c-.644 0-.692-1 0-1h2c.665 0 .655 1 0 1zm-4 0h-2c-.644 0-.692-1 0-1h2c.665 0 .655 1 0 1zm-4 0h-2c-.644 0-.692-1 0-1h2c.665 0 .655 1 0 1zm8-3h-2c-.644 0-.692-1 0-1h2c.665 0 .655 1 0 1zm-4 0h-2c-.644 0-.692-1 0-1h2c.665 0 .655 1 0 1zm-4 0h-2c-.644 0-.692-1 0-1h2c.665 0 .655 1 0 1zm-3-5C.678 2 0 2.678 0 3.5v9c0 .822.678 1.5 1.5 1.5h12c.822 0 1.5-.678 1.5-1.5v-9c0-.822-.678-1.5-1.5-1.5-.673 0-.645 1 0 1 .286 0 .5.214.5.5v9c0 .286-.214.5-.5.5h-12c-.286 0-.5-.214-.5-.5v-9c0-.286.214-.5.5-.5.645 0 .685-1 0-1zm4 1h4c.68 0 .642-1 0-1h-4c-.66 0-.65 1 0 1z"/></svg>