<svg xmlns="http://www.w3.org/2000/svg" width="16" height="16"><path d="M7 3.5c0 .276-.224.5-.5.5S6 3.776 6 3.5s.224-.5.5-.5.5.224.5.5zm-2-1c0 .276-.224.5-.5.5S4 2.776 4 2.5s.224-.5.5-.5.5.224.5.5zm-3 1c0 .276-.224.5-.5.5S1 3.776 1 3.5s.224-.5.5-.5.5.224.5.5zm-1 3c0 .276-.224.5-.5.5S0 6.776 0 6.5.224 6 .5 6s.5.224.5.5zm1 2c0 .276-.224.5-.5.5S1 8.776 1 8.5s.224-.5.5-.5.5.224.5.5zm8.035-4.425C9.033 3.75 8.17 4.44 8.07 5.078c-.687-.217-1.486.11-1.826.763L4.814 4.44c-.646-.616-1.674-.61-2.314.03-.648.65-.648 1.696 0 2.344L7.78 12H6.5c-.822 0-1.5.677-1.5 1.5 0 .822.678 1.5 1.5 1.5h6c.68 0 .652-1 0-1h-6c-.286 0-.5-.215-.5-.5 0-.286.214-.5.5-.5H9c.382-.015.606-.567.344-.844l-6.156-6.03c-.26-.26-.26-.71 0-.97.266-.267.656-.24.937.03l2.063 1.998c.284.27.82.034.812-.358-.017-.85.744-.962 1.25-.607.313.218.845-.093.78-.47-.158-.947.732-.922 1.19-.47.357.357.932-.082.77-.605-.18-.585.714-.89 1.104-.488l3.062 3.157c.462.476 1.155-.207.688-.688L12.78 3.5c-.304-.315-.68-.496-1.153-.5-.742-.01-1.45.388-1.592 1.075z"/></svg>