<svg xmlns="http://www.w3.org/2000/svg" width="16" height="16"><path d="M5 4c0 .552-.448 1-1 1s-1-.448-1-1 .448-1 1-1 1 .448 1 1zm0-4C2.244 0 0 2.244 0 5c0 2.755 2.244 5 5 5 .675 0 1.27-.228 1.844-.47l5.312 5.314c.09.094.215.15.344.156h2c.262 0 .5-.238.5-.5v-2c.003-.14-.055-.28-.156-.375l-1-1c-.094-.083-.22-.128-.344-.125H13v-.5c.003-.14-.055-.28-.156-.375l-1-1c-.094-.083-.22-.128-.344-.125H11v-.5c.003-.14-.055-.28-.156-.375L9.53 6.812C9.768 6.246 10 5.667 10 5c0-2.756-2.244-5-5-5zm0 1c2.215 0 4 1.785 4 4 0 .638-.16 1.197-.438 1.75-.1.19-.06.444.094.594L10 8.687V9.5c0 .262.238.5.5.5h.813l.687.687v.813c0 .262.238.5.5.5h.813l.687.687V14h-1.28L7.343 8.625c-.145-.14-.38-.18-.563-.094C6.233 8.805 5.63 9 5 9 2.785 9 1 7.215 1 5s1.785-4 4-4z"/></svg>