<svg xmlns="http://www.w3.org/2000/svg" width="16" height="16"><path d="M7.5 9C6.678 9 6 9.678 6 10.5v2c0 .822.678 1.5 1.5 1.5S9 13.322 9 12.5v-2C9 9.678 8.322 9 7.5 9zm0 1c.286 0 .5.214.5.5v2c0 .286-.214.5-.5.5-.286 0-.5-.214-.5-.5v-2c0-.286.214-.5.5-.5zm0-10C5.016 0 3 2.016 3 4.5c0 .7 1 .628 1 0C4 2.552 5.552 1 7.5 1S11 2.552 11 4.5c0 .68 1 .65 1 0C12 2.016 9.984 0 7.5 0zm-3 6C3.124 6 2 7.124 2 8.5v5C2 14.876 3.124 16 4.5 16h6c1.376 0 2.5-1.124 2.5-2.5v-5C13 7.124 11.876 6 10.5 6zm0 1h6c.84 0 1.5.66 1.5 1.5v5c0 .84-.66 1.5-1.5 1.5h-6c-.84 0-1.5-.66-1.5-1.5v-5C3 7.66 3.66 7 4.5 7z"/></svg>