<svg xmlns="http://www.w3.org/2000/svg" width="16" height="16"><path d="M11.158 3.134l-3.663 3.67-1.66-1.663c-.427-.427-1.145.266-.69.722L7.15 7.87c.184.174.505.174.69 0l4.006-4.014c.476-.476-.266-1.145-.688-.722zM1.5 0C.678 0 0 .678 0 1.5v9c0 .822.678 1.48 1.5 1.5H2v2.5c0 .388.498.69.844.344L5.688 12H14.5c.822 0 1.5-.678 1.5-1.5v-9c0-.822-.678-1.5-1.5-1.5zm0 1h13c.286 0 .5.214.5.5v9c0 .286-.214.5-.5.5h-9c-.125 0-.25.042-.344.125L3 13.28V11.5c0-.262-.238-.5-.5-.5h-1c-.286 0-.5-.214-.5-.5v-9c0-.286.214-.5.5-.5z"/></svg>