<svg xmlns="http://www.w3.org/2000/svg" width="16" height="16"><path d="M4 0c-.545 0-1 .455-1 1v1.5c0 .666 1 .66 1 0V1h8v1.5c0 .65 1 .674 1 0V1c0-.545-.455-1-1-1zM1.5 4C.678 4 0 4.678 0 5.5v5c0 .822.678 1.5 1.5 1.5H3v3c0 .545.455 1 1 1h8c.545 0 1-.455 1-1v-3h1.5c.822 0 1.5-.678 1.5-1.5v-5c0-.822-.678-1.5-1.5-1.5zm0 1h13c.286 0 .5.214.5.5v5c0 .286-.214.5-.5.5H13v-.5c0-.652-1-.666-1 0V15H4v-4.5c0-.666-1-.663-1 0v.5H1.5c-.286 0-.5-.214-.5-.5v-5c0-.286.214-.5.5-.5zm10 1c-.276 0-.5.224-.5.5s.224.5.5.5.5-.224.5-.5-.224-.5-.5-.5zm2 0c-.276 0-.5.224-.5.5s.224.5.5.5.5-.224.5-.5-.224-.5-.5-.5zm-11 2c-.666 0-.644 1 0 1h11c.658 0 .673-1 0-1zm3 2c-.66 0-.65 1 0 1h5c.672 0 .66-1 0-1zm0 2c-.665 0-.647 1 0 1h5c.672 0 .655-1 0-1z"/></svg>