<svg xmlns="http://www.w3.org/2000/svg" width="16" height="16"><path d="M8 0C3.588 0 0 3.588 0 8s3.588 8 8 8 8-3.588 8-8-3.588-8-8-8zm0 1c3.872 0 7 3.128 7 7s-3.128 7-7 7-7-3.128-7-7 3.128-7 7-7zm0 1C6.155 2 5 3.033 5 5c0 1.633.334 2.002 1 2.656v.563L3.22 10.06c-.142.097-.228.268-.22.438v1c0 .67 1 .64 1 0v-.75l2.78-1.844C6.914 8.816 7 8.66 7 8.5v-1c.003-.14-.055-.28-.156-.375C6.078 6.515 6.002 5.9 6 5c-.004-1.467.725-2.023 2-2 1.275.023 2 .587 2 2 0 1.34-.306 1.526-.813 2.094-.12.097-.192.25-.187.406v1c.002.16.087.316.22.406L12 10.75v.75c0 .662 1 .663 1 0v-1c.008-.17-.078-.342-.22-.438L10 8.22v-.595c.875-.72 1-1.195 1-2.625 0-2.005-1.155-3-3-3z"/></svg>