<svg xmlns="http://www.w3.org/2000/svg" width="16" height="16"><path d="M10.994 6.566L10 13.576c-.096.677-1.085.482-.994-.156L10 6.41c.088-.625 1.088-.506.994.156zm-5.988 0L6 13.576c.096.677 1.085.482.994-.156L6 6.41c-.088-.625-1.088-.506-.994.156zM3.52 4c-1.107 0-1.637.73-1.498 1.562l1.498 9c.158.952.718 1.438 1.498 1.438h5.992c.955 0 1.336-.654 1.467-1.438l1.498-9C14.153 4.494 13.362 4 12.508 4zm0 1h8.988c.326 0 .52.275.5.406l-1.5 9c-.065.396-.3.594-.498.594H5.018c-.37 0-.493-.364-.53-.594l-1.5-9C2.936 5.083 3.332 5 3.52 5zM6 0c-.545 0-1 .455-1 1v1H2.5c-.674 0-.656 1 0 1h11c.674 0 .656-1 0-1H11V1c0-.545-.455-1-1-1zm0 1h4v1H6z"/></svg>