<svg xmlns="http://www.w3.org/2000/svg" width="16" height="16"><path d="M12.863 2.43l-.707.71c-.474.472.24 1.173.707.706l.707-.707c.463-.464-.233-1.182-.707-.71zM14.5 8h-1c-.67 0-.66 1 0 1h1c.654 0 .67-1 0-1zm-13 0h-1c-.67 0-.66 1 0 1h1c.654 0 .67-1 0-1zm4 7h4c.657 0 .674 1 0 1h-4c-.655 0-.675-1 0-1zM8 .5v1c0 .67-1 .66-1 0v-1c0-.654 1-.67 1 0zM7.5 3C4.953 3 3 5.522 3 8.5S4.953 14 7.5 14c2.547 0 4.5-2.522 4.5-5.5S10.047 3 7.5 3zm0 1C9.37 4 11 5.955 11 8.5c0 1.81-.82 3.31-1.97 4.03.02-1.063.063-1.892.19-2.436.144-.63.328-.955.624-1.25.493-.493-.317-1.09-.688-.72-.423.424-.73.99-.906 1.75-.172.748-.247 1.724-.25 3.063-.282.093-.707.08-1 0-.003-1.34-.078-2.315-.25-3.062-.175-.76-.483-1.327-.906-1.75-.397-.397-1.16.246-.688.72.296.294.48.62.625 1.25.127.543.17 1.372.19 2.436C4.82 11.81 4 10.31 4 8.5 4 5.955 5.63 4 7.5 4zM2.137 2.43l.707.71c.474.472-.24 1.173-.707.706L1.43 3.14c-.463-.464.233-1.182.707-.71z"/></svg>