<svg xmlns="http://www.w3.org/2000/svg" width="16" height="16"><path d="M7.5 6C6.678 6 6 6.678 6 7.5v4c0 .822.678 1.5 1.5 1.5S9 12.322 9 11.5v-4C9 6.678 8.322 6 7.5 6zm0 1c.286 0 .5.214.5.5v4c0 .286-.214.5-.5.5-.286 0-.5-.214-.5-.5v-4c0-.286.214-.5.5-.5zm0-5C6.677 2 6 2.677 6 3.5S6.677 5 7.5 5 9 4.323 9 3.5 8.323 2 7.5 2zm0 1c.282 0 .5.218.5.5 0 .282-.218.5-.5.5-.282 0-.5-.218-.5-.5 0-.282.218-.5.5-.5zm0-3C3.364 0 0 3.364 0 7.5S3.364 15 7.5 15 15 11.636 15 7.5 11.636 0 7.5 0zm0 1C11.096 1 14 3.904 14 7.5S11.096 14 7.5 14 1 11.096 1 7.5 3.904 1 7.5 1z"/></svg>