<svg xmlns="http://www.w3.org/2000/svg" width="16" height="16"><path d="M9.372 3.993C10.878 4.397 12 5.787 12 7.5c0 1.715-1.122 3.105-2.628 3.51-.647.173-.377 1.14.25.97C11.564 11.46 13 9.656 13 7.5c0-2.154-1.436-3.957-3.378-4.478-.673-.18-.844.812-.25.97zm3.782-.852l.707-.706c.48-.478 1.174.242.71.707l-.708.71c-.462.462-1.176-.238-.706-.708zM9 .5v1c0 .676 1 .658 1 0v-1c0-.655-1-.664-1 0zM14.5 8h1c.677 0 .66-1 0-1h-1c-.654 0-.663 1 0 1zm-1.346 3.86l.707.706c.48.478 1.174-.24.71-.707l-.708-.707c-.462-.463-1.176.238-.706.707zM9 13.5v1c0 .676 1 .658 1 0v-1c0-.655-1-.664-1 0zM3.5 12h1c.676 0 .66 1 0 1h-1c-.655 0-.664-1 0-1zm-2-11C.678 1 0 1.678 0 2.5v11c0 .823.678 1.5 1.5 1.5h5c.822 0 1.5-.677 1.5-1.5v-11C8 1.678 7.322 1 6.5 1zm0 1h5c.286 0 .5.215.5.5v11c0 .286-.214.5-.5.5h-5c-.286 0-.5-.214-.5-.5v-11c0-.285.214-.5.5-.5z"/></svg>