<svg xmlns="http://www.w3.org/2000/svg" width="16" height="16"><path d="M3.5 7h9c.646 0 .68 1 0 1h-9c-.66 0-.662-1 0-1zm0-2h9c.646 0 .68 1 0 1h-9c-.66 0-.662-1 0-1zm0-2h9c.646 0 .68 1 0 1h-9c-.66 0-.662-1 0-1zM1 1.47v13.01c0 1.046.97 1.71 1.656 1.47l5.375-1.915 5.314 1.934c.628.167 1.656-.414 1.656-1.47V1.47C15 .646 14.32 0 13.5 0h-11C1.616 0 1 .648 1 1.47zM2.5 1h11c.287 0 .5.187.5.47V14.5c0 .265-.243.55-.47.47L8.19 13.034c-.098-.043-.21-.054-.313-.03l-5.53 2.007c-.212.077-.345-.232-.345-.53V1.468c0-.283.213-.47.5-.47z"/></svg>