<svg xmlns="http://www.w3.org/2000/svg" width="16" height="16"><path d="M3.688 14C5.524 14 7 12.41 7 10.5c0-1.495-.698-2.408-1.22-3.313-.52-.904-1.06-1.823-.78-3.613.053-.328-.304-.65-.625-.562C1.54 3.824.165 6.545 0 9.032c-.082 1.243.174 2.466.78 3.405C1.39 13.377 2.396 14 3.69 14zm0-1c-.98 0-1.61-.421-2.063-1.125C1.17 11.17.93 10.165 1 9.095c.128-1.93 1.08-3.92 3-4.802-.037 1.45.443 2.59.906 3.394C5.468 8.663 6 9.312 6 10.5 6 11.904 4.947 13 3.687 13zm9 1C14.524 14 16 12.41 16 10.5c0-1.495-.698-2.408-1.22-3.313-.52-.904-1.06-1.823-.78-3.613.053-.328-.304-.65-.625-.562-2.834.812-4.21 3.533-4.375 6.02-.082 1.243.174 2.466.78 3.405.608.94 1.615 1.563 2.908 1.563zm0-1c-.98 0-1.61-.421-2.063-1.125-.454-.704-.696-1.71-.625-2.78.128-1.93 1.067-3.92 2.987-4.802-.037 1.45.456 2.59.92 3.394C14.466 8.663 15 9.312 15 10.5c0 1.404-1.053 2.5-2.313 2.5z"/></svg>