<svg xmlns="http://www.w3.org/2000/svg" width="16" height="16"><path d="M4.844 10.86l-1.986 1.983c-.483.48-1.163-.255-.708-.706l1.985-1.982c.472-.47 1.182.235.71.706zm5.312 0l1.986 1.983c.483.48 1.163-.255.708-.706l-1.985-1.982c-.472-.47-1.182.235-.71.706zM4.844 4.14L2.858 2.156c-.483-.48-1.163.255-.708.706l1.985 1.982c.472.47 1.182-.235.71-.706zm5.312 0l1.986-1.983c.483-.48 1.163.255.708.706l-1.985 1.982c-.472.47-1.182-.235-.71-.706zM7.5 5C6.125 5 5 6.125 5 7.5S6.125 10 7.5 10 10 8.875 10 7.5 8.875 5 7.5 5zm0 1C8.334 6 9 6.666 9 7.5S8.334 9 7.5 9 6 8.334 6 7.5 6.666 6 7.5 6zm4 1h3c.68 0 .64 1 0 1h-3c-.666 0-.668-1 0-1zM.5 7h3c.68 0 .64 1 0 1h-3c-.666 0-.668-1 0-1zM8 11.5v3c0 .68-1 .64-1 0v-3c0-.666 1-.668 1 0zm0-11v3c0 .68-1 .64-1 0v-3c0-.666 1-.668 1 0z"/></svg>