<svg xmlns="http://www.w3.org/2000/svg" width="16" height="16"><path d="M8.583 4c-.642 0-1.274.06-1.864.407-.592.347-1.167.898-1.648 1.818-.337.64.605.995.87.532.375-.656.702-1.06 1.025-1.316-.142 1.567-.92 3.93-1.46 5.954-.3 1.117-.528 2.113-.507 2.945C5 15.43 5.58 16 6.408 16c.757 0 1.388-.082 1.958-.44.57-.355 1.058-.925 1.553-1.816.36-.65-.588-.985-.87-.5-.402.686-.724 1.1-1.026 1.346.14-1.566.92-3.957 1.46-5.984.3-1.117.525-2.144.516-2.977C9.988 4.554 9.535 4 8.583 4zM9 5.66c.008.61-.188 1.607-.48 2.695-.574 2.153-1.502 4.73-1.522 6.61-.802.11-.99-.086-.998-.657-.008-.608.18-1.575.47-2.663.573-2.143 1.494-4.7 1.523-6.58.874-.167 1 .08 1.007.596zM9.5 0C8.677 0 8 .677 8 1.5 8 2.322 8.677 3 9.5 3S11 2.322 11 1.5C11 .677 10.323 0 9.5 0zm0 1c.282 0 .5.218.5.5 0 .282-.218.5-.5.5-.282 0-.5-.218-.5-.5 0-.282.218-.5.5-.5z"/></svg>