<svg xmlns="http://www.w3.org/2000/svg" width="16" height="16"><path d="M7.5 10h6c.662 0 .668 1 0 1h-6c-.658 0-.672-1 0-1zm0-2h6c.662 0 .668 1 0 1h-6c-.658 0-.672-1 0-1zm0-2h6c.662 0 .668 1 0 1h-6c-.658 0-.672-1 0-1zM13 1.5v2c0 .647-1 .68-1 0v-2c0-.67 1-.654 1 0zM3 6c-.545 0-1 .455-1 1v3c0 .545.455 1 1 1h2c.545 0 1-.455 1-1V7c0-.545-.455-1-1-1zm0 1h2v3H3zm1-5.5v2c0 .647-1 .68-1 0v-2c0-.67 1-.654 1 0zM1.5 2C.678 2 0 2.678 0 3.5v9c0 .822.678 1.5 1.5 1.5h13c.822 0 1.5-.678 1.5-1.5v-9c0-.822-.678-1.5-1.5-1.5-.67 0-.65 1 0 1 .286 0 .5.214.5.5v9c0 .286-.214.5-.5.5h-13c-.286 0-.5-.214-.5-.5v-9c0-.286.214-.5.5-.5.662 0 .663-1 0-1zm4 1h5c.662 0 .67-1 0-1h-5c-.666 0-.66 1 0 1z"/></svg>