<svg xmlns="http://www.w3.org/2000/svg" width="16" height="16"><path d="M11.25.344C9.684.82 8 1.97 6.47 3.5c-.798.797-1.465 1.63-2 2.47C1.79 5.97.093 8.155.093 8.155c-.148.188-.134.484.03.656l1 1c.5.5 1.18-.225.688-.718l-.625-.625c.35-.372 1.256-1.227 2.657-1.44-.204.41-.367.825-.5 1.22-.522 1.55-.492 3.04.437 3.97.93.928 2.42.958 3.97.436.395-.133.81-.296 1.22-.5-.215 1.41-1.107 2.317-1.47 2.656l-.656-.656c-.437-.436-1.17.236-.688.72l1 1c.173.164.47.18.657.03 0 0 2.187-1.697 2.187-4.375.847-.537 1.695-1.194 2.5-2C14.03 8 15.134 6.3 15.656 4.75c.522-1.55.508-3.162-.437-3.97-1.27-1.08-2.565-.864-3.97-.436zm3.28 1.125c.545.543.646 1.609.19 2.968-.46 1.36-1.47 2.938-2.908 4.375-1.436 1.436-3.016 2.448-4.374 2.906-1.36.456-2.425.355-2.97-.19-.543-.543-.644-1.608-.187-2.967.46-1.36 1.47-2.94 2.907-4.376 1.437-1.436 3.022-2.43 4.375-2.906 1.14-.4 2.354-.426 2.97.19zM11 3c-1.1 0-2.013.915-2.013 2.013 0 1.1.914 1.983 2.013 1.983 1.1 0 1.983-.884 1.983-1.983C12.983 3.915 12.1 3 11 3zm0 1.007c.558 0 1.007.448 1.007 1.006 0 .56-.45 1.007-1.007 1.007-.558 0-1.007-.448-1.007-1.007 0-.558.45-1.006 1.007-1.006zM1.556 15.154l-.707.707c-.44.44-1.156-.258-.71-.706l.71-.707c.472-.473 1.158.255.706.707zm3-1l-.707.707c-.44.44-1.156-.258-.71-.706l.71-.707c.472-.473 1.158.255.706.707zm-2-2l-.707.707c-.44.44-1.156-.258-.71-.706l.71-.707c.472-.473 1.158.255.706.707z"/></svg>