<svg xmlns="http://www.w3.org/2000/svg" width="16" height="16"><path d="M12.5 3C13.887 3 15 4.113 15 5.5c0 .634 1 .653 1 0C16 3.573 14.427 2 12.5 2c-.69 0-.634 1 0 1zm-9-1C1.573 2 0 3.573 0 5.5c0 .677 1 .66 1 0C1 4.113 2.113 3 3.5 3c.65 0 .643-1 0-1zM8 0C6.93 0 6 .625 6 1.5c0 .643 1 .642 1 0 0-.28.526-.5 1-.5s1 .185 1 .5c0 .665 1 .654 1 0C10 .65 9.07 0 8 0zm0 3.013c-1.91 0-3.08.97-3.656 2.125-.576 1.155-.657 2.448-.657 3.312 0 1.424-.378 2.32-.75 2.875-.37.557-.687.75-.687.75-.387.214-.192.945.25.938h11c.482.05.676-.808.22-.97 0 0-.296-.108-.658-.624-.36-.517-.75-1.418-.75-2.97 0-.864-.08-2.157-.656-3.312C11.08 3.983 9.91 3.013 8 3.013zm2.78 2.562c.452.903.533 2.07.533 2.875 0 1.277.187 2.55.968 3.563H3.626C4.5 11 4.675 9.49 4.688 8.45c0-.805.08-1.972.53-2.875S6.403 4.013 8 4.013s2.33.66 2.78 1.562zM8 16c-1.07 0-2-.625-2-1.5 0-.643 1-.642 1 0 0 .28.526.5 1 .5s1-.185 1-.5c0-.665 1-.654 1 0 0 .85-.93 1.5-2 1.5z"/></svg>