<svg xmlns="http://www.w3.org/2000/svg" width="16" height="16"><path d="M11 .406L8.406 3c-.548.548-.513 1.448.03 2l2.564 2.594c.542.55 1.455.55 2 0L15.563 5c.544-.552.58-1.452.03-2L13 .406c-.566-.566-1.502-.497-2 0zm1.313.688l2.593 2.593c.17.17.137.426-.03.594L12.28 6.876c-.167.168-.396.166-.56 0L9.124 4.28c-.168-.167-.2-.425-.03-.593l2.592-2.562c.16-.157.493-.163.626-.03zM9.5 9C8.678 9 8 9.678 8 10.5v4c0 .822.678 1.5 1.5 1.5h4c.822 0 1.5-.678 1.5-1.5v-4c0-.822-.678-1.5-1.5-1.5zm0 1h4c.286 0 .5.214.5.5v4c0 .286-.214.5-.5.5h-4c-.286 0-.5-.214-.5-.5v-4c0-.286.214-.5.5-.5zm-8-1C.678 9 0 9.678 0 10.5v4c0 .822.678 1.5 1.5 1.5h4c.822 0 1.5-.678 1.5-1.5v-4C7 9.678 6.322 9 5.5 9zm0 1h4c.286 0 .5.214.5.5v4c0 .286-.214.5-.5.5h-4c-.286 0-.5-.214-.5-.5v-4c0-.286.214-.5.5-.5zm0-9C.678 1 0 1.678 0 2.5v4C0 7.322.678 8 1.5 8h4C6.322 8 7 7.322 7 6.5v-4C7 1.678 6.322 1 5.5 1zm0 1h4c.286 0 .5.214.5.5v4c0 .286-.214.5-.5.5h-4c-.286 0-.5-.214-.5-.5v-4c0-.286.214-.5.5-.5z"/></svg>