<svg xmlns="http://www.w3.org/2000/svg" width="16" height="16"><path d="M6.836.843c-.578.93-1.01 1.86-1.468 2.81-.33.688-.59.775-1.186.904-1.04.225-2.04.38-3.03.624-.56.14-1.038.587-1.107.844-.07.256-.063.58.047.78C.73 7.98 1.668 8.85 2.558 9.77c.515.53.503.88.437 1.466-.123 1.096-.284 2.14-.374 3.184-.05.593.087 1.066.438 1.373.378.33.955.206 1.405.03 1-.388 1.89-.897 2.81-1.372.535-.275.807-.297 1.436 0 .972.46 1.867.95 2.81 1.374.532.24 1.075.212 1.46-.076.386-.288.39-.833.382-1.33-.017-1.105-.215-2.12-.375-3.182-.112-.744.047-1.034.437-1.467.733-.814 1.462-1.565 2.123-2.373.36-.44.546-.82.406-1.342-.14-.52-.665-.723-1.124-.874-1.013-.332-2.015-.444-3.03-.623-.745-.132-.906-.367-1.186-.905-.504-.97-.94-1.956-1.467-2.81C8.837.343 8.527 0 7.99 0c-.534 0-.904.44-1.154.843zm1.343.624c.557.895 1.005 1.806 1.435 2.716.467.99 1.05 1.31 1.967 1.498.997.205 1.908.342 2.873.594.34.09.316.252.156.468-.618.835-1.334 1.537-2.03 2.247-.758.776-.872 1.49-.748 2.402.145 1.073.29 1.958.406 3.06.034.325-.092.39-.344.28-.906-.402-1.877-.87-2.685-1.31-.863-.47-1.417-.496-2.437 0-.94.456-1.716.86-2.685 1.31-.25.116-.37.035-.343-.28.087-1.02.24-2.127.406-3.06.192-1.067-.13-1.708-.75-2.403-.696-.784-1.343-1.487-2.028-2.248-.346-.384.055-.433.156-.468.948-.328 1.922-.443 2.872-.593 1.08-.17 1.532-.672 1.968-1.497.497-.943.896-1.81 1.436-2.716.15-.25.248-.203.375 0z"/></svg>