<svg xmlns="http://www.w3.org/2000/svg" width="16" height="16"><path d="M1 7.5v-1c0-.286.214-.5.5-.5h1c.665 0 .655-1 0-1h-1C.676 5 0 5.676 0 6.5v1c0 .667 1 .657 1 0zm0 6v1c0 .286.214.5.5.5h1c.665 0 .655 1 0 1h-1C.676 16 0 15.324 0 14.5v-1c0-.667 1-.657 1 0zm-1-2v-2c0-.65 1-.678 1 0v2c0 .672-1 .65-1 0zM6.5 0C5.678 0 5 .678 5 1.5v8c0 .822.678 1.5 1.5 1.5h8c.822 0 1.5-.678 1.5-1.5v-8c0-.822-.678-1.5-1.5-1.5zm0 1h8c.286 0 .5.214.5.5v8c0 .286-.214.5-.5.5h-8c-.286 0-.5-.214-.5-.5v-8c0-.286.214-.5.5-.5zm-2 14h2c.65 0 .678 1 0 1h-2c-.672 0-.65-1 0-1zm5.5-1.5v1c0 .286-.214.5-.5.5h-1c-.665 0-.655 1 0 1h1c.824 0 1.498-.676 1.5-1.5l.002-1c0-.667-1.002-.657-1.002 0z"/></svg>