<svg xmlns="http://www.w3.org/2000/svg" width="16" height="16"><path d="M2.813 6.95c-.226.914-.268 1.8-.657 2.188-.306.27-.063.873.344.862l.906.013c0 .484-.26.487-.406.487-.62 0-.694 1 0 1 1.363 0 1.5-1.21 1.5-2 0-.262-.238-.5-.5-.5h-.72c.264-.636.393-1.286.5-1.83C3.957 6.292 4.24 6 5 6s1.078.524 1.313 1.2c.18.525.323 1.18.593 1.8H6c-.262 0-.5.238-.5.5 0 .657.204 1.07.406 1.325.327.41 1.11-.215.782-.624-.044-.054-.038-.164-.063-.2H7.72c.406.01.648-.592.343-.862-.4-.4-.538-1.295-.782-2.22C6.934 5.602 6.263 5 5 5c-1.262 0-1.87.658-2.188 1.95zM13 10.5v-.875c.876-.72 1-1.195 1-2.625 0-2.005-1.154-3-3-3-1.844 0-3 1.033-3 3 0 1.633.335 2.002 1 2.656v.563L6.22 12.06c-.142.097-.228.268-.22.438v1c0 .67 1 .64 1 0v-.75l2.782-1.844c.132-.09.216-.246.22-.406v-1c.002-.14-.056-.28-.158-.375C9.08 8.515 9.004 7.9 9 7c-.003-1.467.726-2.023 2-2 1.275.023 2 .587 2 2 0 1.34-.306 1.526-.812 2.094-.12.097-.192.252-.187.406v1c0 .68 1 .658 1 0zM8 0C3.588 0 0 3.588 0 8s3.588 8 8 8 8-3.588 8-8-3.588-8-8-8zm0 1c3.872 0 7 3.128 7 7s-3.128 7-7 7-7-3.128-7-7 3.128-7 7-7z"/></svg>