<svg xmlns="http://www.w3.org/2000/svg" width="16" height="16"><path d="M13 2.5V4h-1.5c-.666 0-.66 1 0 1H13v1.5c0 .672 1 .656 1 0V5h1.5c.68 0 .655-1 0-1H14V2.5c0-.66-1-.668-1 0zM5.5 4h4c.666 0 .668 1 0 1h-4c-.67 0-.652-1 0-1zm0 2h5c.67 0 .665 1 0 1h-5c-.665 0-.658-1 0-1zm1 2h5c.662 0 .67 1 0 1h-5c-.662 0-.664-1 0-1zm5 4c-.823 0-1.5.678-1.5 1.5s.677 1.5 1.5 1.5 1.5-.678 1.5-1.5-.677-1.5-1.5-1.5zm0 1c.282 0 .5.218.5.5 0 .282-.218.5-.5.5-.282 0-.5-.218-.5-.5 0-.282.218-.5.5-.5zm-6-1c-.823 0-1.5.678-1.5 1.5S4.677 15 5.5 15 7 14.322 7 13.5 6.323 12 5.5 12zm0 1c.282 0 .5.218.5.5 0 .282-.218.5-.5.5-.282 0-.5-.218-.5-.5 0-.282.218-.5.5-.5zM2 3c.256 0 .405.708.5 1.094l1.03 5.03C3.93 10.61 4.787 11 6 11h6c.68 0 1.876-.412 2.938-2.25.343-.594-.558-1.05-.876-.5C13.124 9.876 12.322 10 12 10H6c-.986 0-1.323-.35-1.53-1.125l-.97-4.97C3.322 2.914 2.9 2 2 2H.5c-.66 0-.672 1 0 1z"/></svg>