<svg xmlns="http://www.w3.org/2000/svg" width="16" height="16"><path d="M15.28.062c-3.327 1.766-7.416 4.448-9.217 6.25-1.48 1.48-1.22 3.34-.438 4.125.782.784 2.42 1 4.03-.563C11.3 8.28 14.04 4.304 15.94.718c.232-.456-.263-.852-.657-.656zm-1.25 1.875c-1.36 2.53-3.42 5.618-5.06 7.188-1.348 1.288-2.436.846-2.658.625-.62-.62-.42-1.828.5-2.75 1.855-1.854 4.842-3.738 7.22-5.063zM3 11c-1.555 0-1.84 1.234-2 2.5.014.694-.415 1.286-.813 1.594-.347.248-.114.924.313.906 2.215.01 4.5-.43 4.5-2.5 0-1.528-.71-2.5-2-2.5zm0 1c.92 0 1 .85 1 1.5 0 1.014-1.247 1.312-2.344 1.312.193-.383.346-.814.344-1.312-.005-.93.372-1.5 1-1.5z"/></svg>