<svg xmlns="http://www.w3.org/2000/svg" width="16" height="16"><path d="M1.5 0C.678 0 0 .678 0 1.5v10c0 .822.678 1.5 1.5 1.5h3c.663 0 .67-1 0-1h-3c-.286 0-.5-.214-.5-.5v-10c0-.286.214-.5.5-.5h3.813l1.843 1.844c.09.094.215.15.344.156H15v8.5c0 .286-.214.5-.5.5h-2c-.65 0-.668 1 0 1h2c.822 0 1.5-.678 1.5-1.5v-9c0-.262-.238-.5-.5-.5H7.72L5.843.125C5.75.042 5.624-.003 5.5 0zm6.655 10.136L6.15 12.14c-.46.46.25 1.16.69.72L8.5 11.2l1.66 1.66c.44.44 1.153-.256.69-.72l-2.006-2.004c-.17-.17-.496-.193-.69 0zM9 15.5v-2c0-.65-1-.668-1 0v2c0 .672 1 .658 1 0z"/></svg>