<svg xmlns="http://www.w3.org/2000/svg" width="16" height="16"><path d="M8.156 7.138l-2 2c-.458.458.246 1.16.688.72L8.5 8.2l1.656 1.657c.438.438 1.158-.25.688-.72l-2-2c-.192-.19-.53-.158-.688 0zM9 10.5v3c0 .66-1 .673-1 0v-3c0-.665 1-.66 1 0zM8.5 1C5.938 1 4.4 2.542 3.625 4.063 1.605 4.263 0 5.928 0 8c0 2.207 1.793 4 4 4h1.5c.68 0 .642-1 0-1H4c-1.67 0-3-1.33-3-3 0-1.644 1.275-2.958 2.906-3 .2 0 .394-.128.47-.312C4.985 3.34 6.175 2 8.5 2 10.715 2 13 3.874 13 6.53c.01.224.187.428.406.47C14.31 7.185 15 8.03 15 9c0 1.11-.89 2-2 2h-1.5c-.67 0-.642 1 0 1H13c1.65 0 3-1.35 3-3 0-1.3-.898-2.33-2.063-2.75C13.775 3.182 11.197 1 8.5 1z"/></svg>