<svg xmlns="http://www.w3.org/2000/svg" width="16" height="16"><path d="M.5 9h1c.67 0 .668 1 0 1h-1c-.662 0-.672-1 0-1zm0-3h1c.67 0 .668 1 0 1h-1c-.662 0-.672-1 0-1zm0-3h1c.67 0 .668 1 0 1h-1c-.662 0-.672-1 0-1zM3 2.5v8c0 1.175.9 1.5 2 1.5v2.5c.015.382.567.607.844.344L8.687 12H14.5c.822 0 1.5-.677 1.5-1.5v-8c0-.822-.678-1.5-1.5-1.5h-10C3.608 1 3 1.678 3 2.5zM4.5 2h10c.286 0 .5.214.5.5v8c0 .286-.214.5-.5.5h-6c-.125 0-.25.042-.344.125L6 13.28V11.5c0-.262-.238-.5-.5-.5-.874 0-1.5-.01-1.5-.5v-8c0-.286.214-.5.5-.5z" color="#000" overflow="visible"/></svg>