<svg xmlns="http://www.w3.org/2000/svg" width="16" height="16"><path d="M4.375 1C1.848 1 0 3.184 0 6c0 2.89 2.005 5.12 3.938 6.625 1.932 1.506 3.874 2.313 3.874 2.313.12.047.257.047.375 0 0 0 1.943-.807 3.876-2.313C13.995 11.12 16 8.89 16 6c0-2.816-1.848-5-4.375-5C9.563 1 8.442 2.234 8 2.78 7.558 2.236 6.437 1 4.375 1zm0 1c1.95 0 3.22 1.75 3.22 1.75.183.257.627.257.81 0 0 0 1.27-1.75 3.22-1.75C13.59 2 15 3.603 15 6c0 2.42-1.745 4.428-3.563 5.844-1.72 1.34-3.26 1.984-3.437 2.062-.178-.078-1.717-.722-3.438-2.062C2.745 10.428 1 8.42 1 6c0-2.397 1.41-4 3.375-4z"/></svg>