<svg xmlns="http://www.w3.org/2000/svg" width="16" height="16"><path d="M10.98 7.116L8.976 8.85l-1.19-.788c-.195-.142-.492-.113-.657.062L6.126 9.132c-.41.413.266 1.182.72.725l.72-.725 1.16.788c.176.118.43.104.593-.03l2.004-1.734.845.724c.474.402 1.152-.368.657-.787l-1.19-1.01c-.156-.13-.505-.1-.657.032zM8.5 4C7.677 4 7 4.677 7 5.5S7.677 7 8.5 7 10 6.323 10 5.5 9.323 4 8.5 4zm0 1c.282 0 .5.218.5.5 0 .282-.218.5-.5.5-.282 0-.5-.218-.5-.5 0-.282.218-.5.5-.5zm-5.188.03l-2.5.872c-.653.252-.973.994-.75 1.622L2.095 13.2c.248.698 1.024.92 1.656.72l1.406-.438c.627-.195.293-1.168-.312-.967l-1.407.468c-.21.067-.368-.02-.406-.125l-2-5.646c-.06-.174-.044-.308.126-.374l2.5-.842c.668-.18.243-1.172-.344-.967zm4.614-3.925c-.744-.302-1.61.065-1.912.81l-2.91 7.183c-.302.745.077 1.582.822 1.884l7.182 2.91c.745.3 1.57-.05 1.872-.793l2.91-7.184c.302-.745-.036-1.6-.78-1.9l-7.184-2.91zm-.375.927l7.184 2.91c.247.1.33.35.23.598l-2.91 7.183c-.1.248-.323.342-.57.24L4.3 10.056c-.246-.1-.37-.334-.27-.582L6.94 2.29c.1-.247.364-.358.61-.258z"/></svg>