<svg xmlns="http://www.w3.org/2000/svg" width="16" height="16"><path d="M15.503 6h-1c-.66 0-.666-1 0-1h1c.658 0 .668 1 0 1zM10 .5v1c0 .66-1 .666-1 0v-1c0-.658 1-.668 1 0zm3.57 10.36l-.708-.706c-.467-.467-1.178.236-.707.707l.707.708c.465.465 1.18-.235.707-.707zM3.752 3.076l.866.5c.57.33.076 1.2-.5.866l-.867-.5c-.57-.328-.078-1.2.5-.865zm3.286-.53L7.274 5.2 5.233 6.71c-.398.293-.23.81.15.893l2.56.566.8 2.48c.125.343.67.41.873.106l1.307-2.267 2.585-.018c.36-.027.576-.54.346-.824L12.14 5.706l.798-2.537c.007-.02.012-.04.016-.062.043-.355-.382-.67-.702-.52L9.946 3.634 7.803 2.098c-.282-.202-.81-.087-.764.448zm1.086 1.018L9.55 4.64c.14.09.327.102.477.03l1.614-.74-.55 1.72c-.046.17.004.368.13.493l1.14 1.295-1.715.024c-.185-.01-.37.102-.457.27l-.88 1.497-.53-1.654c-.046-.172-.187-.315-.357-.36l-1.74-.375 1.44-1.05c.135-.097.217-.266.21-.434l-.204-1.793zM6.158 9.135L.152 15.143c-.468.468.254 1.154.688.72l6.006-6.007c.475-.474-.262-1.145-.688-.72z"/></svg>