<svg xmlns="http://www.w3.org/2000/svg" width="16" height="16"><path d="M4.5 9h5c.663 0 .67 1 0 1h-5c-.66 0-.668-1 0-1zM8 11.5c0 .276-.225.5-.5.5-.277 0-.5-.224-.5-.5s.223-.5.5-.5c.275 0 .5.224.5.5zm-1-4c0 .276-.225.5-.5.5-.277 0-.5-.224-.5-.5s.223-.5.5-.5c.275 0 .5.224.5.5zM14 3c0 .552-.45 1-1 1-.554 0-1-.448-1-1s.446-1 1-1c.55 0 1 .448 1 1zM9.5 0c-.715 0-1.383.197-1.844.625L.424 7.982c-.56.57-.57 1.523 0 2.093l5.5 5.5c.57.57 1.49.562 2.063 0l7.357-7.23C15.724 7.96 16 7.34 16 6.5v-5c0-.824-.676-1.5-1.5-1.5zm0 1h5c.252 0 .5.248.5.5v5c0 .623-.202.984-.344 1.125L7.3 14.857c-.197.193-.497.19-.688 0l-5.5-5.5c-.19-.19-.162-.46.03-.656l7.202-7.356C8.544 1.158 8.996 1 9.5 1z"/></svg>