<svg xmlns="http://www.w3.org/2000/svg" width="16" height="16"><path d="M16 11.5v1c0 .68-1 .65-1 0v-1c0-.674 1-.646 1 0zm0-3v1c0 .68-1 .65-1 0v-1c0-.674 1-.646 1 0zm0-3v1c0 .68-1 .65-1 0v-1c0-.674 1-.646 1 0zm0-3v1c0 .68-1 .65-1 0v-1c0-.674 1-.646 1 0zm-15 9v1c0 .68-1 .65-1 0v-1c0-.674 1-.646 1 0zm0-3v1c0 .68-1 .65-1 0v-1c0-.674 1-.646 1 0zm0-3v1c0 .68-1 .65-1 0v-1c0-.674 1-.646 1 0zm0-3v1c0 .68-1 .65-1 0v-1c0-.674 1-.646 1 0zM3.5 2C2.678 2 2 2.678 2 3.5v8c0 .822.678 1.5 1.5 1.5h9c.822 0 1.5-.678 1.5-1.5v-8c0-.822-.678-1.5-1.5-1.5zm0 1h9c.286 0 .5.214.5.5v8c0 .286-.214.5-.5.5h-9c-.286 0-.5-.214-.5-.5v-8c0-.286.214-.5.5-.5zM6 4.5v6c-.012.38.516.644.813.406l4-3c.256-.184.256-.628 0-.812l-4-3C6.52 3.874 6 4.08 6 4.5zm1 1l2.656 2L7 9.5z"/></svg>