<svg xmlns="http://www.w3.org/2000/svg" width="16" height="16"><path d="M2.5 4h6c.67 0 .664 1 0 1h-6c-.685 0-.648-1 0-1zm10.656-1.87l-8 8.005c-.1.096-.16.226-.156.365v2c0 .262.238.5.5.5h2c.13-.01.255-.05.344-.143l8-8.007c.192-.186.192-.533 0-.72l-2-2c-.172-.173-.516-.173-.688 0zM13.5 3.19l1.313 1.314L7.28 12H6v-1.302zM2.5 6h4c.652 0 .68 1 0 1h-4c-.672 0-.658-1 0-1zm0-4h6c.67 0 .664 1 0 1h-6c-.685 0-.648-1 0-1zm-1-2C.678 0 0 .678 0 1.5v13c0 .822.678 1.5 1.5 1.5h8c.822 0 1.5-.678 1.5-1.5v-2c0-.663-1-.647-1 0v2c0 .286-.214.5-.5.5h-8c-.286 0-.5-.214-.5-.5v-13c0-.286.214-.5.5-.5h8c.286 0 .5.214.5.5v1c0 .663 1 .664 1 0v-1C11 .678 10.322 0 9.5 0z"/></svg>