<svg xmlns="http://www.w3.org/2000/svg" width="16" height="16"><path d="M3.5 10H3v-.5c0-.658-1-.67-1 0v1c0 .262.238.5.5.5h1c.658 0 .67-1 0-1zm8 0h.5v-.5c0-.658 1-.67 1 0v1c0 .262-.238.5-.5.5h-1c-.658 0-.67-1 0-1zm-8-5H3v.5c0 .658-1 .67-1 0v-1c0-.262.238-.5.5-.5h1c.658 0 .67 1 0 1zM7 4.5v.594c-.585.204-1 .753-1 1.406 0 1.03.67 1.484 1.5 1.5.275.01.5.236.5.5 0 .274-.23.5-.5.5h-1c-.662 0-.66 1 0 1H7v.5c0 .667 1 .665 1 0v-.563c.586-.204 1-.783 1-1.437 0-.826-.597-1.492-1.5-1.492-.282 0-.5-.236-.5-.508 0-.274.23-.5.5-.5h1c.704 0 .613-1 0-1H8v-.5c0-.666-1-.656-1 0zm4.5.5h.5v.5c0 .658 1 .67 1 0v-1c0-.262-.238-.5-.5-.5h-1c-.658 0-.67 1 0 1zm-10-3C.678 2 0 2.678 0 3.5v8c0 .822.678 1.5 1.5 1.5h12c.822 0 1.5-.678 1.5-1.5v-8c0-.822-.678-1.5-1.5-1.5zm0 1h12c.286 0 .5.214.5.5v8c0 .286-.214.5-.5.5h-12c-.286 0-.5-.214-.5-.5v-8c0-.286.214-.5.5-.5z"/></svg>