<svg xmlns="http://www.w3.org/2000/svg" width="16" height="16"><path d="M16 4.5v7c0 .643-1 .68-1 0v-7c0-.664 1-.658 1 0zM5.5 4C4.677 4 4 4.677 4 5.5S4.677 7 5.5 7 7 6.323 7 5.5 6.323 4 5.5 4zm0 1c.282 0 .5.218.5.5 0 .282-.218.5-.5.5-.282 0-.5-.218-.5-.5 0-.282.218-.5.5-.5zm5.656 2.138L8.5 9.794 6.844 8.138c-.184-.174-.504-.174-.688 0l-2 2c-.48.48.252 1.154.688.72L6.5 9.2l1.656 1.657c.184.173.504.173.688 0l3-3c.47-.47-.27-1.137-.688-.72zM1 4.5v7c0 .643-1 .68-1 0v-7c0-.664 1-.658 1 0zM4 2c-1.1 0-2 .913-2 2.013v8C2 13.113 2.9 14 4 14h8c1.1 0 2-.9 2-2V4c0-1.1-.9-2-2-2zm0 1h8c.563 0 1 .437 1 1v8c0 .563-.437 1-1 1H4c-.563 0-1-.437-1-1V4c0-.563.437-1 1-1z"/></svg>