<svg xmlns="http://www.w3.org/2000/svg" width="16" height="16"><path d="M1.5 1C.678 1 0 1.678 0 2.5v3c0 .638 1 .663 1 0v-3c0-.286.214-.498.5-.5h2.78l2.345 2.813c.09.112.23.183.375.187h7.5c.662 0 .67-1 0-1H7.25L4.875 1.156C4.78 1.056 4.64.996 4.5 1zm.99 5C1.61 6 1.088 6.794.99 7.406l-.97 6C-.136 14.356.725 15 1.488 15h12.023c.892 0 1.4-.806 1.503-1.438l.97-6C16.146 6.566 15.307 6 14.514 6zm0 1h12.022c.327 0 .527.253.5.406l-1 6c-.066.394-.304.594-.5.594H1.488c-.33 0-.54-.21-.502-.438l1.002-6c.067-.4.294-.562.5-.562z"/></svg>