<svg xmlns="http://www.w3.org/2000/svg" width="16" height="16"><path d="M9.985 14.397l-.49-2.018c-.16-.66-1.125-.376-.98.22l.49 2.018c.162.666 1.125.376.98-.22zm-3.97 0l.49-2.018c.16-.66 1.125-.376.98.22l-.49 2.018c-.162.666-1.125.376-.98-.22zM9.985.603l-.49 2.018c-.16.66-1.125.376-.98-.22l.49-2.018c.162-.666 1.125-.376.98.22zm-3.97 0l.49 2.018c.16.66 1.125.376.98-.22L6.995.383c-.162-.666-1.125-.376-.98.22zM11.5 3C13.984 3 16 5.016 16 7.5S13.984 12 11.5 12h-1c-.663 0-.664-1 0-1h1c1.948 0 3.5-1.552 3.5-3.5S13.448 4 11.5 4h-1c-.657 0-.647-1 0-1zm-7 0C2.016 3 0 5.016 0 7.5S2.016 12 4.5 12h1c.663 0 .664-1 0-1h-1C2.552 11 1 9.448 1 7.5S2.552 4 4.5 4h1c.657 0 .647-1 0-1z"/></svg>