<svg xmlns="http://www.w3.org/2000/svg" width="16" height="16"><path d="M12.5 6h1c.674 0 .66 1 0 1h-1c-.674 0-.656-1 0-1zm-10-5C1.678 1 1 1.678 1 2.5c0 .674 1 .634 1 0 0-.286.214-.5.5-.5h2c.286 0 .5.214.5.5 0 .658 1 .663 1 0C6 1.678 5.322 1 4.5 1zm5 5C5.573 6 4 7.573 4 9.5S5.573 13 7.5 13 11 11.427 11 9.5 9.427 6 7.5 6zm0 1C8.887 7 10 8.113 10 9.5S8.887 12 7.5 12 5 10.887 5 9.5 6.113 7 7.5 7zm-6-3C.678 4 0 4.678 0 5.5v8c0 .822.678 1.5 1.5 1.5h13c.822 0 1.5-.678 1.5-1.5v-8c0-.822-.678-1.5-1.5-1.5zm0 1h13c.286 0 .5.214.5.5v8c0 .286-.214.5-.5.5h-13c-.286 0-.5-.214-.5-.5v-8c0-.286.214-.5.5-.5z"/></svg>