<svg xmlns="http://www.w3.org/2000/svg" width="16" height="16"><path d="M9.19 1.098L1.19 9.114c-1.582 1.585-1.586 4.116 0 5.7 1.584 1.58 4.14 1.584 5.72 0l6.94-6.952c.48-.48-.25-1.158-.687-.72l-6.97 6.982c-1.208 1.21-3.07 1.21-4.283 0-1.21-1.208-1.21-3.11 0-4.32L9.91 1.786c1.018-1.02 2.43-1.065 3.502-.308 1.073.755.56 1.84-.22 2.624l-8.565 8.61c-.44.442-.914.4-1.313 0-.4-.398-.385-.928 0-1.314l7.534-7.546c.48-.48-.252-1.158-.688-.72L2.626 10.71c-.846.85-.813 1.88 0 2.694.813.812 1.858.832 2.69 0l8.596-8.61c1.5-1.504 1.408-3.175-.024-4.194-1.433-1.02-3.536-.664-4.697.498z"/></svg>