<svg xmlns="http://www.w3.org/2000/svg" width="16" height="16"><path d="M7.455 8.744l-.62-.594c-.474-.452-1.138.273-.682.72l1.023 1c.202.197.576.166.743-.063l2.97-4.003c.406-.548-.407-1.127-.8-.598zm.357 7.22C4.408 14.67 2 11.366 2 7.49V2.13c0-.627.006-1.63.483-1.944.478-.313.93-.12 1.486.14.933.433 2.055.808 3.78-.247.16-.1.33-.104.5 0 1.725 1.054 2.847.68 3.78.245.557-.26 1.01-.452 1.487-.14.477.31.483 1.314.483 1.942v5.358c0 3.876-2.405 7.185-5.813 8.474-.16.06-.262.046-.374 0zM13 7.486v-5.36c0-.478-.025-.8-.063-.996-.057-.215-.357.045-.468.093-.86.367-2.452.93-4.47-.18-2.018 1.115-3.61.552-4.47.185-.11-.048-.41-.308-.467-.093-.038.195-.063.518-.063.997V7.49c0 3.39 2.075 6.253 5 7.444 2.925-1.195 5-4.06 5-7.448z"/></svg>