<svg xmlns="http://www.w3.org/2000/svg" width="16" height="16"><path d="M6.16 12.867l2.002 2.003c.184.173.504.173.688 0l2-2.003c.468-.467-.274-1.125-.687-.715L8.506 13.8 6.85 12.152c-.466-.463-1.17.234-.69.715zM9 6.487v5c0 .654-1 .692-1 0v-5c0-.65 1-.632 1 0zM8.5 0C5.89 0 4.36 1.538 3.594 3.063 1.588 3.278 0 4.94 0 7c0 2.207 1.793 4 4 4h1.5c.67 0 .66-1 0-1H4c-1.67 0-3-1.33-3-3 0-1.644 1.275-2.958 2.906-3 .2 0 .394-.128.47-.312C4.99 2.33 6.163 1 8.5 1 10.76 1 13 2.87 13 5.53c.01.224.187.428.406.47C14.31 6.185 15 7.03 15 8c0 1.11-.89 2-2 2h-1.5c-.658 0-.66 1 0 1H13c1.65 0 3-1.35 3-3 0-1.3-.898-2.33-2.063-2.75C13.777 2.188 11.223 0 8.5 0z"/></svg>