<svg xmlns="http://www.w3.org/2000/svg" width="16" height="16"><path d="M8 0C3.588 0 0 3.588 0 8s3.588 8 8 8 8-3.588 8-8-3.588-8-8-8zm0 1c3.872 0 7 3.128 7 7s-3.128 7-7 7-7-3.128-7-7 3.128-7 7-7zm0 2c-1.522 0-2.358.684-2.803 2.293-.313 1.134-.457 2.257-1.027 2.83-.305.268-.076.888.33.877h1.466c-.03.71-.452 1.036-.956 1.246-1.108.46-1.69.833-1.992 2.136-.167.717.89.824.996.206.184-1.056.722-1.142 1.37-1.437 1.226-.556 1.62-1.326 1.62-2.653C7.003 8.235 6.76 8 6.5 8H5.322c.415-.81.64-1.686.84-2.426C6.474 4.428 6.988 4 8 4s1.388.38 1.836 1.574c.214.736.426 1.615.84 2.426H9.495c-.26 0-.498.238-.498.5 0 1.374.498 2.123 1.62 2.652.8.377 1.1.434 1.37 1.436.19.755 1.16.346.995-.218-.358-1.4-.99-1.67-1.992-2.124-.645-.293-.788-.633-.927-1.246h1.44c.406.01.634-.605.33-.874-.57-.572-.7-1.7-1.028-2.83C10.362 3.75 9.522 3 8 3z"/></svg>