<svg xmlns="http://www.w3.org/2000/svg" width="16" height="16"><path d="M8 2c-1.1 0-2 .9-2 2s.9 2 2 2 2-.9 2-2-.9-2-2-2zm0 1c.558 0 1 .442 1 1s-.442 1-1 1-1-.442-1-1 .442-1 1-1zM5.812 9.177c.895 1.52 1.813 2.662 1.813 2.662.196.226.604.21.78-.032 0 0 .89-1.13 1.783-2.662C11.08 7.614 12 5.72 12 4.01 12 1.8 10.203 0 8 0 5.797 0 4 1.766 4 4c0 1.77.918 3.656 1.812 5.177zM8 1.002c1.663 0 3 1.34 3 3.007 0 1.323-.83 3.166-1.688 4.635C8.656 9.77 8.27 10.255 8 10.618c-.268-.352-.654-.823-1.313-1.942C5.832 7.22 5 5.386 5 4.01 5 2.34 6.337 1 8 1zm-5.977 5.42L1.03 13.42c-.203 1.44 1.116 2.593 2.47 2.593h9c1.315 0 2.677-1.117 2.47-2.593l-.99-6.997c-.095-.672-1.055-.457-.968.157L14 13.576c.127.898-.843 1.437-1.5 1.437h-9c-.872 0-1.597-.75-1.5-1.437l.992-6.996c.097-.68-.877-.8-.97-.157z"/></svg>